<svg width="243" height="243" viewBox="0 0 243 243" fill="none" xmlns="http://www.w3.org/2000/svg">
<path d="M242.098 231.949C242.098 232.024 187.898 232.088 121.103 232.088C54.3074 232.088 0.0976562 232.024 0.0976562 231.949C0.0976562 231.874 54.2657 231.799 121.098 231.799C187.93 231.799 242.098 231.874 242.098 231.949Z" fill="#263238"/>
<path d="M167.642 42.7014L162.712 43.6057C160.236 46.4768 156.803 48.2932 153.089 48.6978C149.374 49.1024 145.647 48.0659 142.639 45.7922C139.631 43.5184 137.56 40.1718 136.834 36.4101C136.107 32.6483 136.777 28.7436 138.712 25.4634C140.647 22.1832 143.707 19.7648 147.291 18.6834C150.875 17.6021 154.723 17.936 158.079 19.6197C161.435 21.3033 164.056 24.2149 165.427 27.782C166.799 31.3492 166.821 35.314 165.49 38.8971L167.642 42.7014Z" fill="white"/>
<path d="M167.641 42.7014C167.641 42.7014 167.584 42.6158 167.485 42.4499L167.063 41.7169L165.442 38.9185H165.531C165.52 38.9287 165.506 38.9343 165.492 38.9343C165.477 38.9343 165.463 38.9287 165.452 38.9185C165.445 38.9084 165.441 38.8962 165.441 38.8837C165.441 38.8712 165.445 38.859 165.452 38.849C166.312 36.4941 166.597 33.9589 166.281 31.4651C166.181 30.6811 166.02 29.9064 165.802 29.1482C165.552 28.3436 165.242 27.56 164.874 26.8046C164.086 25.123 163.001 23.6062 161.674 22.3315C160.146 20.8683 158.336 19.7504 156.362 19.0499C154.387 18.3495 152.291 18.0821 150.209 18.265C147.906 18.4994 145.686 19.2738 143.721 20.5283C141.656 21.8427 139.945 23.6676 138.744 25.8362C136.924 29.1022 136.346 32.944 137.122 36.6214C137.897 40.2988 139.97 43.5515 142.942 45.7529C145.914 47.9543 149.574 48.9486 153.218 48.5443C156.861 48.1399 160.23 46.3655 162.675 43.5629C162.675 43.5629 162.675 43.5629 162.706 43.5629L166.354 42.9369L167.308 42.7763L167.641 42.7228L167.334 42.7924L166.406 42.9743L162.722 43.6859H162.758C161.116 45.6133 159.028 47.0854 156.687 47.9665C153.781 49.0595 150.618 49.2062 147.629 48.3865C144.639 47.5669 141.968 45.8207 139.98 43.386C137.992 40.9513 136.784 37.9464 136.52 34.781C136.256 31.6156 136.948 28.4435 138.504 25.697L138.989 24.8677C139.166 24.6055 139.353 24.3326 139.536 24.0919C139.908 23.5839 140.308 23.098 140.734 22.6365C140.938 22.401 141.183 22.2031 141.402 21.989C141.618 21.768 141.848 21.5607 142.089 21.3684C142.561 20.9788 143.057 20.6213 143.575 20.2982C145.575 19.0234 147.834 18.238 150.178 18.0028C152.297 17.8198 154.43 18.0963 156.438 18.8144C158.447 19.5324 160.286 20.676 161.836 22.171C163.176 23.4687 164.27 25.0109 165.062 26.719C165.426 27.4955 165.729 28.3007 165.968 29.1268C166.186 29.8955 166.343 30.681 166.437 31.4758C166.743 33.9968 166.433 36.5562 165.536 38.9239L165.442 38.8704C165.453 38.8612 165.467 38.8563 165.481 38.8563C165.495 38.8563 165.509 38.8612 165.52 38.8704L167.084 41.7437L167.485 42.4713L167.641 42.7014Z" fill="#263238"/>
<path d="M151.356 39.7051L144.028 34.6755L145.738 32.0537L150.652 35.4246L156.76 27.1204L159.215 29.0252L151.356 39.7051Z" fill="#FF9519"/>
<path d="M82.8408 41.2192L85.2954 36.2591C84.2832 33.4507 84.0199 30.4156 84.5329 27.4676C85.0459 24.5197 86.3165 21.766 88.2134 19.4912C90.1103 17.2163 92.5645 15.503 95.3224 14.5283C98.0802 13.5536 101.042 13.3529 103.9 13.9469C106.456 14.4717 108.853 15.6149 110.891 17.2817C112.93 18.9485 114.552 21.0907 115.623 23.5304C116.693 25.97 117.181 28.6367 117.046 31.3089C116.911 33.9811 116.157 36.5816 114.846 38.8944C113.535 41.2072 111.706 43.1656 109.51 44.6068C107.315 46.048 104.816 46.9304 102.221 47.1808C99.6261 47.4311 97.0106 47.0422 94.5917 46.0463C92.1727 45.0504 90.0202 43.4762 88.3129 41.4546L82.8408 41.2192Z" fill="white"/>
<path d="M82.8408 41.2193H83.2056L84.2479 41.2514L88.292 41.3905L88.2399 41.4761C88.2316 41.4626 88.2289 41.4463 88.2323 41.4308C88.2357 41.4152 88.245 41.4017 88.2581 41.3932C88.2713 41.3847 88.2872 41.3818 88.3023 41.3854C88.3175 41.3889 88.3306 41.3984 88.3389 41.4119C90.1357 43.5134 92.4139 45.1225 94.9679 46.0937C95.759 46.3984 96.5729 46.6364 97.4017 46.8054C98.2912 46.9759 99.1917 47.0797 100.096 47.1157C102.35 47.206 104.598 46.8126 106.696 45.9607C108.793 45.1088 110.695 43.817 112.279 42.168C113.863 40.519 115.095 38.5489 115.896 36.3835C116.696 34.2182 117.048 31.9052 116.929 29.5923C116.903 29.2659 116.903 28.9342 116.867 28.6078C116.83 28.2814 116.768 27.955 116.715 27.6286L116.642 27.1364C116.611 26.9758 116.564 26.8153 116.528 26.6548L116.283 25.681C116.199 25.3599 116.064 25.0496 115.96 24.7339C115.858 24.4138 115.74 24.0994 115.605 23.7922C115.337 23.1712 115.032 22.5673 114.693 21.9837C114.516 21.6947 114.36 21.3951 114.172 21.1115L113.583 20.2929L113.281 19.913L112.953 19.5384L112.296 18.784C111.382 17.8436 110.366 17.0142 109.268 16.312C107.139 14.9604 104.739 14.1208 102.248 13.856C99.9884 13.6396 97.7093 13.9084 95.556 14.6453C93.4027 15.3823 91.4223 16.5712 89.7408 18.1366C88.2705 19.5034 87.057 21.1356 86.1605 22.9521C85.9677 23.3855 85.728 23.7976 85.5821 24.2363L85.1234 25.5258C84.8885 26.3594 84.7005 27.2062 84.5606 28.062C84.1563 30.8282 84.4358 33.6544 85.3736 36.2806C85.3788 36.2962 85.3788 36.3132 85.3736 36.3288C84.5658 37.934 83.9457 39.1432 83.5235 39.9833L83.0389 40.9303C82.9294 41.1444 82.8669 41.2567 82.8669 41.2567L83.0128 40.9464C83.117 40.7217 83.2682 40.4113 83.4662 39.9993L85.2694 36.2539V36.302C84.2984 33.6619 83.9954 30.8122 84.3886 28.0192C84.5248 27.153 84.7093 26.2955 84.941 25.4509L85.4049 24.1453C85.5732 23.7 85.7645 23.2642 85.9781 22.8398C86.881 20.9969 88.1051 19.3394 89.5897 17.9493C92.7558 15.0024 96.9075 13.4237 101.179 13.5424C105.451 13.661 109.514 15.4677 112.52 18.586L113.187 19.3512L113.526 19.7311L113.823 20.1431L114.375 20.9831C114.563 21.2667 114.73 21.5717 114.897 21.8713C115.244 22.4463 115.555 23.0432 115.829 23.6584C115.986 23.9634 116.069 24.3005 116.194 24.6162C116.319 24.9319 116.439 25.2529 116.523 25.5793L116.768 26.5692C116.804 26.7297 116.856 26.8956 116.887 27.0614L116.96 27.5591C117.012 27.8908 117.059 28.2225 117.111 28.5543C117.164 28.886 117.153 29.2231 117.174 29.5548C117.292 31.8996 116.933 34.244 116.12 36.4384C115.306 38.6327 114.056 40.6288 112.449 42.2994C110.842 43.9699 108.914 45.2781 106.787 46.1406C104.66 47.003 102.381 47.4007 100.096 47.3083C99.1806 47.273 98.2692 47.1638 97.3704 46.9819C93.8267 46.2389 90.6241 44.3078 88.266 41.4922L88.3598 41.4279C88.3686 41.4393 88.3735 41.4535 88.3735 41.4681C88.3735 41.4827 88.3686 41.4968 88.3598 41.5082H88.3285L84.2479 41.2888L83.2056 41.23L82.8408 41.2193Z" fill="#263238"/>
<path d="M101.321 38.4155H93.3105V21.6519H101.321V38.4155ZM93.8317 37.8804H100.799V22.1869H93.8317V37.8804Z" fill="#263238"/>
<path d="M96.7084 24.124H95.0615V26.168H96.7084V24.124Z" fill="#263238"/>
<path d="M99.5697 24.124H97.9229V26.168H99.5697V24.124Z" fill="#263238"/>
<path d="M96.7084 27.313H95.0615V29.3569H96.7084V27.313Z" fill="#263238"/>
<path d="M99.5697 27.313H97.9229V29.3569H99.5697V27.313Z" fill="#263238"/>
<path d="M96.7084 30.5073H95.0615V32.5513H96.7084V30.5073Z" fill="#263238"/>
<path d="M99.5697 30.5073H97.9229V32.5513H99.5697V30.5073Z" fill="#263238"/>
<path d="M96.7084 33.7979H95.0615V35.8418H96.7084V33.7979Z" fill="#263238"/>
<path d="M99.5697 33.7979H97.9229V35.8418H99.5697V33.7979Z" fill="#263238"/>
<path d="M104.077 31.9573H102.431V34.0012H104.077V31.9573Z" fill="#263238"/>
<path d="M106.939 31.9573H105.292V34.0012H106.939V31.9573Z" fill="#263238"/>
<path d="M104.077 34.8198H102.431V36.8638H104.077V34.8198Z" fill="#263238"/>
<path d="M106.939 34.8198H105.292V36.8638H106.939V34.8198Z" fill="#263238"/>
<path d="M108.591 38.4157H100.773V30.0793H108.591V38.4157ZM101.295 37.8806H108.07V30.6144H101.295V37.8806Z" fill="#263238"/>
<path d="M107.126 23.6316H103.452V28.9983H107.126V23.6316Z" fill="#455A64"/>
<path d="M105.286 24.5467H102.665L103.978 22.8559L105.286 21.1704L106.6 22.8559L107.913 24.5467H105.286Z" fill="#455A64"/>
<path d="M189.169 224.693V225.303C189.169 225.303 179.2 229.525 179.111 231.478L198.977 231.178L198.613 224.393C197.152 225.136 195.552 225.548 193.923 225.599C192.293 225.651 190.672 225.342 189.169 224.693Z" fill="#263238"/>
<path d="M198.983 231.178L198.894 229.573L179.888 230.456C179.888 230.456 179.007 230.862 179.117 231.526L198.983 231.178Z" fill="#455A64"/>
<path d="M189.107 225.378C189.107 225.474 189.597 225.512 190.077 225.827C190.556 226.143 190.817 226.555 190.905 226.512C190.994 226.469 190.843 225.897 190.254 225.533C189.665 225.169 189.081 225.271 189.107 225.378Z" fill="white"/>
<path d="M187.033 226.277C187.033 226.373 187.434 226.534 187.773 226.951C188.112 227.368 188.206 227.812 188.294 227.807C188.383 227.802 188.446 227.235 188.018 226.737C187.591 226.239 187.033 226.18 187.033 226.277Z" fill="white"/>
<path d="M185.886 228.856C185.975 228.856 186.105 228.374 185.844 227.834C185.584 227.293 185.131 227.079 185.094 227.165C185.058 227.251 185.339 227.534 185.542 227.984C185.745 228.433 185.792 228.845 185.886 228.856Z" fill="white"/>
<path d="M203.376 218.545L194.918 220.974L197.029 225.897L194.835 238.359C194.774 238.7 194.839 239.053 195.016 239.349C195.192 239.645 195.469 239.864 195.793 239.964C196.045 240.037 196.312 240.036 196.564 239.961C196.815 239.886 197.041 239.741 197.216 239.541C199.082 237.401 205.909 229.45 205.747 228.481L205.476 225.892C205.419 225.357 204.914 224.078 204.914 223.96L203.376 218.545Z" fill="#263238"/>
<path d="M196.044 240.028L205.67 227.593L205.716 228.16C205.751 228.393 205.733 228.631 205.666 228.856C205.598 229.081 205.482 229.288 205.326 229.46C204.57 230.712 202.423 233.554 197.253 239.557C197.103 239.729 196.915 239.862 196.705 239.944C196.494 240.026 196.267 240.055 196.044 240.028Z" fill="#455A64"/>
<path d="M198.582 233.896C198.221 233.506 197.792 233.19 197.315 232.965C196.808 232.817 196.278 232.766 195.752 232.815C195.752 232.783 195.898 232.66 196.211 232.59C196.616 232.504 197.037 232.538 197.425 232.687C197.812 232.831 198.151 233.088 198.399 233.425C198.571 233.682 198.613 233.88 198.582 233.896Z" fill="white"/>
<path d="M197.784 235.774C197.382 235.595 196.969 235.439 196.549 235.309C196.111 235.27 195.67 235.255 195.23 235.266C195.426 235.117 195.653 235.018 195.893 234.975C196.132 234.932 196.379 234.948 196.612 235.02C197.419 235.18 197.852 235.731 197.784 235.774Z" fill="white"/>
<path d="M200.15 231.43C199.551 231.103 198.929 230.822 198.29 230.59C197.621 230.448 196.944 230.355 196.263 230.311C196.937 230.066 197.673 230.066 198.347 230.311C199.059 230.452 199.698 230.849 200.15 231.43Z" fill="white"/>
<path d="M196.929 224.206C197.013 224.76 197.047 225.321 197.028 225.881C196.924 226.603 196.773 227.529 196.606 228.529C196.403 229.712 196.205 230.782 196.048 231.558C195.989 231.981 195.888 232.397 195.746 232.799C195.748 232.371 195.791 231.945 195.876 231.526C195.986 230.745 196.153 229.669 196.356 228.481C196.528 227.481 196.695 226.56 196.835 225.849C196.823 225.299 196.855 224.75 196.929 224.206Z" fill="#455A64"/>
<path d="M208.963 143.984C209.63 140.682 211.319 134.711 210.657 131.961C209.093 125.588 206.409 121.902 202.714 113.811H199.968L173.608 113.341L171.451 118.252C169.054 124.871 167.417 128.82 166.76 133.662C165.984 139.238 167.344 147.317 170.367 155.477C176.881 173.086 180.519 187.169 180.79 190.962C181.061 194.756 181.431 198.673 184.86 210.685C187.356 219.455 189.206 224.693 189.206 224.693C191.812 226.202 194.558 226.609 197.065 225.142L204.716 222.114C204.716 222.114 202.37 201.434 199.634 195.944C197.665 191.995 194.423 190.122 195.945 184.975C197.466 179.828 206.92 154.123 208.963 143.984Z" fill="#263238"/>
<path d="M178.11 127.284C178.149 127.328 178.184 127.374 178.215 127.424L178.506 127.836L179.622 129.467L183.791 135.637V135.664V135.69C183.588 138.002 183.509 140.682 183.369 143.673C183.228 146.664 183.077 149.95 182.915 153.481C182.754 157.013 182.54 160.79 182.342 164.744C182.144 168.698 181.915 172.84 181.529 177.094C181.128 180.63 180.773 184.108 181.065 187.447C181.143 188.282 181.242 189.106 181.394 189.914C181.527 190.714 181.718 191.503 181.967 192.273C182.488 193.772 183.145 195.227 183.744 196.64C186.178 202.295 188.434 207.341 190.352 211.595L194.897 221.632L196.121 224.372C196.251 224.677 196.356 224.907 196.434 225.084C196.512 225.26 196.533 225.33 196.533 225.33C196.533 225.33 196.486 225.255 196.408 225.094L196.074 224.393C195.777 223.762 195.355 222.847 194.808 221.681L190.217 211.659C188.299 207.421 186.001 202.375 183.556 196.725C182.952 195.307 182.316 193.873 181.758 192.343C181.508 191.562 181.314 190.762 181.18 189.951C181.024 189.133 180.919 188.303 180.841 187.463C180.544 184.087 180.898 180.588 181.3 177.051C181.685 172.818 181.883 168.672 182.118 164.744C182.352 160.817 182.53 157.013 182.712 153.481C182.894 149.95 183.051 146.659 183.202 143.673C183.353 140.688 183.447 138.002 183.666 135.69V135.738C181.904 133.063 180.508 130.971 179.544 129.526L178.46 127.873L178.189 127.445C178.157 127.395 178.131 127.341 178.11 127.284Z" fill="#455A64"/>
<path d="M181.623 69.4704L183.244 65.2702L192.89 64.7351L196.83 65.2702L197.263 66.4366L199.936 115.01C199.936 115.01 190.592 116.947 185.922 116.273C181.253 115.598 175.755 113.41 175.755 113.41V85.7846L181.623 69.4704Z" fill="#F5F5F5"/>
<path d="M196.142 71.4449C196.142 71.4449 196.142 71.477 196.075 71.5305L195.866 71.7712C195.684 71.9799 195.408 72.3063 195.043 72.6488C194.048 73.662 192.994 74.6109 191.885 75.4899L191.838 75.5274L191.801 75.4793C190.758 74.3056 189.79 73.0634 188.904 71.7605C188.805 71.6161 188.711 71.4663 188.617 71.3325H188.737C187.908 72.4722 187.127 73.553 186.418 74.5429C186.327 74.6691 186.218 74.7809 186.095 74.8746C186.032 74.9256 185.96 74.9633 185.883 74.9853C185.806 75.0074 185.726 75.0134 185.647 75.003C185.499 74.97 185.364 74.8917 185.261 74.7783C185.157 74.6713 185.078 74.5589 184.995 74.4573L184.078 73.2801L182.765 71.5733L182.415 71.1078C182.373 71.0556 182.335 71.0002 182.301 70.9419L182.436 71.0917L182.806 71.5412L184.156 73.2159L185.084 74.3824C185.25 74.5857 185.417 74.8318 185.667 74.8746C185.918 74.9174 186.142 74.6927 186.314 74.4626L188.622 71.2522L188.68 71.1666L188.737 71.2522L189.018 71.6749C189.904 72.9727 190.864 74.2145 191.895 75.3936H191.807C192.918 74.5266 193.981 73.5959 194.991 72.6059C195.361 72.2421 195.642 71.9532 195.84 71.7552L196.064 71.5305C196.087 71.4988 196.113 71.4701 196.142 71.4449Z" fill="#263238"/>
<g opacity="0.3">
<path d="M185.12 74.5269C185.12 74.5269 186.345 76.0732 186.684 75.6826C187.022 75.292 188.841 72.4133 189.055 72.2956C189.268 72.1779 191.462 76.2123 192.322 75.9341C193.182 75.6558 196.247 72.5043 196.247 72.5043L196.304 71.2683L191.843 75.4365L188.68 71.279L186.011 74.8372C186.011 74.8372 185.448 75.3081 185.12 74.5269Z" fill="black"/>
</g>
<path d="M187.173 116.567C187.161 116.416 187.161 116.263 187.173 116.112C187.173 115.791 187.173 115.352 187.215 114.807C187.262 113.651 187.325 112.019 187.403 109.991C187.57 105.941 187.794 100.36 188.002 94.1691C188.211 87.9784 188.362 82.3976 188.471 78.3418C188.523 76.3353 188.57 74.7034 188.601 73.5263C188.622 72.9805 188.638 72.5471 188.648 72.226C188.648 72.0737 188.66 71.9215 188.685 71.7712C188.697 71.9226 188.697 72.0747 188.685 72.226V73.5316C188.685 74.6927 188.659 76.3247 188.638 78.3472C188.581 82.3976 188.456 87.9784 188.252 94.1798C188.049 100.381 187.788 105.951 187.575 110.002C187.46 112.003 187.366 113.635 187.299 114.817C187.262 115.352 187.231 115.796 187.205 116.123C187.204 116.271 187.193 116.42 187.173 116.567Z" fill="#263238"/>
<g opacity="0.3">
<path d="M178.674 96.9622L173.608 131.105L173.999 134.802C174.442 135.337 175.333 135.15 175.782 134.636C176.187 134.079 176.429 133.414 176.48 132.721C178.424 120.912 179.466 108.905 178.674 96.9622Z" fill="black"/>
</g>
<path d="M171.544 69.5989C170.615 69.9065 169.771 70.4411 169.087 71.1568C168.403 71.8725 167.897 72.748 167.615 73.7082L161.58 95.5656L166.531 110.547L171.701 101.516L175.349 68.8284L171.544 69.5989Z" fill="#FF9519"/>
<path d="M178.518 68.1972L172.785 69.3476L171.18 100.59C171.18 100.975 171.555 107.011 171.555 107.011L161.653 129.708C163.863 133.753 169.835 135.653 174.046 136.664C174.046 136.664 178.309 105.63 178.585 98.7922C178.862 91.9541 183.14 65.3667 183.14 65.3667L178.518 68.1972Z" fill="#FF9519"/>
<path d="M162.894 127.135L162.93 127.033L163.055 126.733L163.535 125.588C163.957 124.588 164.577 123.143 165.338 121.34L171.508 106.957V106.989C171.461 105.443 171.404 103.838 171.331 102.174C171.164 98.4764 170.966 94.9503 170.836 91.7453C170.706 88.5402 170.622 85.6455 170.596 83.2163C170.57 80.7871 170.596 78.8234 170.596 77.4697C170.596 76.7955 170.622 76.2712 170.633 75.9073C170.633 75.7308 170.633 75.597 170.633 75.5007C170.633 75.4044 170.633 75.3616 170.633 75.3616C170.633 75.3616 170.633 75.4097 170.633 75.5007V75.9073C170.633 76.2712 170.633 76.7955 170.633 77.4697C170.633 78.8234 170.633 80.7925 170.669 83.2163C170.706 85.6402 170.794 88.5295 170.94 91.7399C171.086 94.9503 171.263 98.471 171.461 102.168C171.534 103.811 171.591 105.422 171.633 106.984V107.016L165.421 121.383C164.639 123.175 164.014 124.593 163.576 125.61C163.363 126.102 163.191 126.482 163.055 126.744C162.998 126.872 162.956 126.969 162.92 127.038C162.915 127.071 162.906 127.104 162.894 127.135Z" fill="#263238"/>
<path d="M178.314 95.3998C178.314 95.3998 178.314 95.373 178.288 95.3249L178.236 95.1055C178.189 94.9021 178.126 94.6239 178.048 94.2654C177.897 93.5324 177.689 92.4676 177.491 91.1353C177.293 89.803 177.105 88.2245 176.969 86.4535C176.834 84.6824 176.698 82.7401 176.605 80.6962C176.573 79.931 176.537 79.1819 176.506 78.4489L176.459 77.3788C176.459 77.2022 176.459 77.0256 176.459 76.8437V76.5762V76.4424C176.459 76.4424 176.459 76.3996 176.459 76.3728C176.459 76.3461 176.459 76.3728 176.459 76.3247V76.2926C176.459 76.2926 176.521 76.2658 176.532 76.2926C176.542 76.3193 176.568 76.2926 176.584 76.3354H176.485L178.017 75.2332V75.3509L176.339 74.4894H176.292V74.4413C176.542 73.4728 176.844 72.606 177.105 71.8462C177.366 71.0864 177.626 70.4229 177.819 69.8825C178.012 69.3421 178.189 68.9247 178.304 68.6358C178.361 68.502 178.408 68.395 178.439 68.3094C178.47 68.2238 178.491 68.2024 178.491 68.2024C178.484 68.243 178.472 68.2826 178.455 68.3201L178.34 68.6518C178.231 68.9515 178.08 69.3742 177.881 69.9093C177.683 70.4443 177.454 71.1131 177.199 71.8783C176.943 72.6434 176.652 73.4835 176.407 74.4734L176.375 74.4038L178.043 75.1903L178.147 75.2385L178.053 75.3081L176.526 76.4103H176.427C176.427 76.4103 176.48 76.3728 176.474 76.3728C176.478 76.3752 176.483 76.3764 176.487 76.3764C176.492 76.3764 176.496 76.3752 176.5 76.3728H176.526V76.5708V76.833L176.553 77.3681C176.553 77.7212 176.584 78.0851 176.599 78.4382C176.631 79.1712 176.667 79.9203 176.698 80.6855C176.792 82.7294 176.907 84.6717 177.053 86.4374C177.199 88.2031 177.376 89.7923 177.574 91.1192C177.772 92.4462 177.954 93.511 178.095 94.2494C178.163 94.6079 178.22 94.8914 178.257 95.0948C178.257 95.1857 178.288 95.2606 178.298 95.3141C178.309 95.3677 178.314 95.3998 178.314 95.3998Z" fill="#263238"/>
<path d="M206.701 109.841L210.349 72.0388L200.098 68.181C200.098 68.181 197.695 65.9123 196.418 64.7405L195.965 70.669C195.965 70.669 194.579 94.9342 196.762 107.155C198.946 119.376 198.639 118.959 200.233 126.91C201.395 132.694 201.588 137.745 203.36 138.253C205.132 138.761 213.971 135.439 213.971 135.439L206.701 109.841Z" fill="#FF9519"/>
<path d="M210.344 72.0388C210.344 72.0388 214.357 73.6066 214.961 78.9091C215.404 82.8257 217.749 105.197 215.295 107.985C212.359 111.225 209.148 114.19 205.7 116.845L199.968 109.188L205.409 103.046L208.478 75.9448L210.344 72.0388Z" fill="#FF9519"/>
<path d="M198.967 94.0996C198.965 94.0747 198.965 94.0496 198.967 94.0247C198.967 93.9712 198.967 93.9017 199.004 93.816C199.042 93.6234 199.094 93.3559 199.16 93.0134C199.285 92.3179 199.473 91.3066 199.645 90.0492C200.01 87.5344 200.322 84.0404 200.5 80.1665C200.541 79.2534 200.583 78.3616 200.625 77.4912C200.625 77.0578 200.661 76.6351 200.682 76.2177L200.713 75.6024C200.713 75.5008 200.713 75.3991 200.713 75.2974V75.153C200.716 75.1299 200.716 75.1065 200.713 75.0834C200.727 75.0879 200.741 75.0879 200.755 75.0834H200.797H200.703L199.176 73.9758L199.087 73.917L199.186 73.8688L200.854 73.0823L200.823 73.1465C200.676 72.4571 200.563 71.7607 200.484 71.0597C200.406 70.439 200.333 69.9093 200.249 69.4813C200.166 69.0532 200.077 68.7215 200.015 68.4968L199.932 68.2453C199.932 68.1918 199.906 68.1597 199.932 68.1597C199.946 68.1855 199.958 68.2123 199.968 68.2399C199.968 68.2988 200.025 68.379 200.062 68.4861C200.172 68.8058 200.261 69.1329 200.328 69.4652C200.421 69.8986 200.505 70.4283 200.593 71.0437C200.679 71.7414 200.799 72.4343 200.953 73.1197V73.1625H200.911L199.27 74.0026V73.8956L200.802 74.9925H200.703C200.718 74.9791 200.736 74.9699 200.755 74.9657C200.772 74.9614 200.79 74.9614 200.807 74.9657C200.807 74.9657 200.807 74.9978 200.807 75.0139V75.2493C200.807 75.3509 200.807 75.4526 200.807 75.5543C200.807 75.7576 200.807 75.9609 200.781 76.1696C200.781 76.5869 200.745 77.0097 200.729 77.4431C200.687 78.3045 200.651 79.1981 200.609 80.1184C200.475 83.43 200.174 86.7322 199.707 90.0117C199.52 91.2691 199.317 92.2751 199.186 92.9706C199.108 93.3077 199.051 93.5753 199.004 93.7679C198.983 93.8535 198.967 93.9231 198.957 93.9766C198.978 94.0782 198.973 94.0996 198.967 94.0996Z" fill="#263238"/>
<path d="M213.085 103.95C213.085 103.95 212.726 103.704 212.111 103.415C211.748 103.235 211.372 103.086 210.985 102.971C210.509 102.836 210.023 102.746 209.531 102.703C209.039 102.671 208.545 102.686 208.056 102.746C207.656 102.799 207.262 102.889 206.878 103.014C206.222 103.222 205.836 103.442 205.836 103.415C205.915 103.347 206.002 103.292 206.097 103.249C206.2 103.191 206.306 103.14 206.414 103.094C206.557 103.025 206.703 102.964 206.852 102.912C207.24 102.774 207.64 102.674 208.046 102.613C209.044 102.464 210.061 102.542 211.027 102.843C211.417 102.966 211.795 103.125 212.157 103.319C212.298 103.392 212.434 103.474 212.564 103.565C212.667 103.626 212.766 103.694 212.861 103.768C212.942 103.82 213.018 103.881 213.085 103.95Z" fill="#263238"/>
<g opacity="0.3">
<path d="M200.102 68.668C200.102 68.668 201.952 73.0983 201.666 73.4836C201.379 73.8688 200.436 74.1149 200.436 74.1149C200.436 74.1149 202.03 74.8266 202.03 75.4526C202.03 76.7047 200.316 84.11 200.316 84.11L200.738 75.062L199.211 73.9919L200.879 73.1946L200.102 68.668Z" fill="black"/>
</g>
<path d="M207.483 81.1404C207.496 81.2433 207.496 81.3478 207.483 81.4507C207.483 81.6808 207.451 81.9858 207.431 82.3336C207.373 83.1415 207.29 84.2384 207.191 85.5814C206.956 88.3584 206.644 92.1253 206.295 96.2827C206.175 97.5776 206.065 98.835 205.956 100.028C205.9 100.627 205.838 101.211 205.768 101.778C205.717 102.332 205.623 102.882 205.487 103.421L201.51 107.664L200.385 108.819C200.259 108.965 200.119 109.098 199.968 109.215C200.076 109.056 200.198 108.907 200.333 108.771L201.406 107.562L205.283 103.33V103.372C205.406 102.844 205.491 102.308 205.539 101.767C205.601 101.205 205.659 100.622 205.716 100.023C205.82 98.8243 205.93 97.5669 206.044 96.2774C206.425 92.1199 206.769 88.3531 207.019 85.5761C207.154 84.2331 207.269 83.1362 207.347 82.3336C207.389 81.9804 207.425 81.6862 207.451 81.4561C207.449 81.3499 207.459 81.2438 207.483 81.1404Z" fill="#263238"/>
<path d="M162.664 91.6438L158.687 100.74L154.935 96.4219L149.927 100.05L155.811 109.74C157.661 112.174 159.427 113.833 161.439 113.571C161.844 113.514 162.242 113.415 162.627 113.276C165.389 112.308 167.291 110.403 168.011 107.498L170.288 95.7745L162.664 91.6438Z" fill="#FF9519"/>
<path d="M163.076 107.888C163.042 107.762 163.016 107.633 162.998 107.503C162.956 107.257 162.883 106.898 162.784 106.46C162.685 106.021 162.55 105.507 162.373 104.94C162.195 104.373 161.971 103.763 161.706 103.137C161.44 102.511 161.143 101.928 160.861 101.409C160.58 100.89 160.293 100.44 160.048 100.071C159.803 99.7017 159.59 99.4021 159.444 99.2041C159.362 99.1041 159.288 98.9986 159.22 98.8884C159.313 98.9766 159.399 99.0733 159.475 99.1774C159.637 99.37 159.856 99.6589 160.111 100.023C160.366 100.387 160.632 100.841 160.95 101.355C161.265 101.918 161.552 102.496 161.81 103.089C162.076 103.72 162.295 104.341 162.472 104.908C162.649 105.475 162.774 105.978 162.863 106.444C162.951 106.909 163.008 107.246 163.04 107.514C163.063 107.637 163.075 107.763 163.076 107.888Z" fill="#263238"/>
<path d="M185 33.7122L184.969 33.8513C184.995 33.8245 184.995 33.7603 185 33.7122Z" fill="#263238"/>
<path d="M175.364 59.8822C175.432 58.4269 174.901 57.0196 174.452 55.6338C174.004 54.248 173.634 52.7498 174.015 51.3533C174.494 49.5876 176.042 48.3569 176.876 46.7303C177.71 45.1037 177.772 43.1829 177.918 41.3476C178.064 39.5123 178.366 37.5647 179.554 36.1789C181.055 34.4238 184.985 34.1082 186.85 35.4619C187.137 45.9063 187.048 56.2492 184.87 66.4582C179.904 66.6776 177.386 65.6824 173.056 63.189C174.437 62.884 175.297 61.343 175.364 59.8822Z" fill="#263238"/>
<path d="M196.663 66.5011L198.461 41.139C198.487 40.5791 198.308 40.0296 197.958 39.5988C197.609 39.1679 197.116 38.887 196.575 38.8114L185.109 35.478C181.42 34.9429 178.83 39.5766 178.491 43.3809C178.116 47.6079 177.819 52.7873 178.22 55.9603C179.028 62.3436 183.749 63.2907 183.749 63.2907C183.65 66.4368 183.687 66.5011 183.687 66.5011L188.747 71.2524L196.663 66.5011Z" fill="#FFBF9D"/>
<path d="M180.164 48.9026C180.155 49.1148 180.228 49.3221 180.366 49.48C180.504 49.638 180.697 49.7342 180.904 49.748C181.005 49.759 181.107 49.7493 181.204 49.7193C181.301 49.6894 181.391 49.6398 181.469 49.5735C181.547 49.5072 181.612 49.4255 181.659 49.3333C181.706 49.241 181.734 49.1401 181.743 49.0363C181.75 48.8245 181.677 48.618 181.539 48.4603C181.401 48.3026 181.209 48.2061 181.003 48.1909C180.902 48.1799 180.8 48.1896 180.703 48.2196C180.606 48.2496 180.516 48.2991 180.437 48.3654C180.359 48.4317 180.295 48.5134 180.248 48.6057C180.201 48.6979 180.172 48.7988 180.164 48.9026Z" fill="#263238"/>
<path d="M179.502 46.131C179.596 46.238 180.211 45.7993 181.066 45.826C181.92 45.8528 182.535 46.3129 182.629 46.2059C182.723 46.0989 182.582 45.9652 182.316 45.7511C181.953 45.4783 181.516 45.3269 181.066 45.3177C180.622 45.3033 180.186 45.4345 179.82 45.6923C179.549 45.8688 179.466 46.0615 179.502 46.131Z" fill="#263238"/>
<path d="M187.45 49.0579C187.441 49.2702 187.514 49.4774 187.652 49.6354C187.79 49.7934 187.983 49.8896 188.19 49.9033C188.291 49.9144 188.393 49.9047 188.49 49.8747C188.587 49.8447 188.677 49.7951 188.755 49.7288C188.834 49.6625 188.898 49.5809 188.945 49.4886C188.992 49.3964 189.021 49.2954 189.029 49.1917C189.038 48.9795 188.965 48.7722 188.827 48.6142C188.688 48.4563 188.495 48.3601 188.289 48.3463C188.188 48.3345 188.086 48.3437 187.988 48.3734C187.891 48.403 187.8 48.4526 187.722 48.519C187.644 48.5854 187.579 48.6674 187.533 48.76C187.486 48.8526 187.458 48.9539 187.45 49.0579Z" fill="#263238"/>
<path d="M187.893 46.5163C187.992 46.6233 188.607 46.1845 189.457 46.2113C190.306 46.238 190.926 46.6982 191.02 46.5912C191.114 46.4842 190.973 46.3504 190.707 46.1417C190.344 45.8663 189.908 45.7131 189.457 45.703C189.013 45.6886 188.577 45.8198 188.211 46.0775C187.945 46.2755 187.846 46.4681 187.893 46.5163Z" fill="#263238"/>
<path d="M184.615 52.9318C184.169 52.7705 183.705 52.6697 183.234 52.6322C183.015 52.6054 182.812 52.5519 182.781 52.3967C182.767 52.1655 182.823 51.9355 182.942 51.7386C183.161 51.2035 183.396 50.6685 183.635 50.0532C184.599 47.6507 185.303 45.6763 185.199 45.6335C185.095 45.5907 184.245 47.5116 183.281 49.914C183.052 50.5026 182.828 51.0698 182.619 51.6102C182.472 51.8763 182.422 52.1873 182.478 52.4877C182.509 52.5666 182.556 52.6377 182.617 52.6959C182.677 52.7541 182.749 52.7981 182.828 52.8248C182.948 52.8618 183.072 52.8834 183.198 52.889C183.667 52.9621 184.143 52.9764 184.615 52.9318Z" fill="#263238"/>
<path d="M183.739 63.2905C186.648 63.4183 189.534 62.7164 192.078 61.2626C192.448 60.3851 190.42 64.4356 183.692 64.9546L183.739 63.2905Z" fill="#FF9A6C"/>
<path d="M184.677 55.0185C184.876 54.7331 185.14 54.5024 185.447 54.3466C185.753 54.1907 186.092 54.1146 186.433 54.1249C186.657 54.1349 186.875 54.2005 187.068 54.3161C187.261 54.4317 187.425 54.5938 187.543 54.7884C187.66 55.0081 187.716 55.2564 187.705 55.5064C187.694 55.7563 187.616 55.9984 187.481 56.2063C187.32 56.4199 187.1 56.579 186.85 56.6629C186.6 56.7469 186.332 56.7519 186.079 56.6772C185.609 56.5034 185.185 56.2173 184.844 55.8425C184.735 55.7501 184.646 55.6352 184.583 55.5054C184.552 55.4337 184.54 55.3549 184.548 55.2769C184.557 55.1989 184.585 55.1245 184.63 55.0613" fill="#FF9A6C"/>
<path d="M187.111 53.6218C186.97 53.6218 186.944 54.5582 186.131 55.227C185.318 55.8959 184.339 55.7621 184.323 55.8798C184.307 55.9975 184.542 56.0724 184.959 56.0938C185.501 56.1169 186.034 55.9447 186.465 55.6069C186.878 55.2793 187.151 54.7996 187.226 54.2693C187.283 53.8466 187.174 53.6218 187.111 53.6218Z" fill="#263238"/>
<path d="M187.617 42.9207C187.695 43.1615 188.549 43.0759 189.55 43.2257C190.551 43.3755 191.353 43.6858 191.489 43.4772C191.551 43.3755 191.416 43.1454 191.098 42.9046C190.67 42.6124 190.181 42.429 189.67 42.3696C189.16 42.2903 188.638 42.3361 188.148 42.5033C187.773 42.5996 187.585 42.7816 187.617 42.9207Z" fill="#E0E0E0"/>
<path d="M179.888 43.0972C180.034 43.3005 180.628 43.0972 181.332 43.0972C182.035 43.0972 182.634 43.2684 182.78 43.0651C182.843 42.9634 182.754 42.7654 182.499 42.5674C182.156 42.3244 181.748 42.1972 181.332 42.2036C180.915 42.2016 180.508 42.3304 180.164 42.5728C179.909 42.7975 179.825 43.0008 179.888 43.0972Z" fill="#263238"/>
<path d="M183.733 35.4297C184.776 32.8186 187.095 32.2675 189.56 31.9946C192.025 31.7217 195.683 32.7705 197.721 34.1349C199.415 35.1946 200.938 36.5197 202.234 38.0622C203.329 39.5123 203.798 41.1656 204.496 42.835C205.538 45.4354 205.486 48.3087 205.632 51.1018C205.821 54.6109 206.368 58.09 207.263 61.4821C207.586 62.702 207.915 64.1574 206.221 64.8583C205.906 64.9835 205.577 65.0663 205.241 65.1045C202.635 65.4255 200.113 66.2976 197.21 66.4849H195.423C193.156 66.4849 191.994 64.9867 192.072 63.0873C192.306 57.346 195.032 47.9181 195.334 46.1096C195.35 46.131 196.293 33.7389 183.733 35.4297Z" fill="#263238"/>
<path d="M184.552 35.3763C184.93 35.7004 185.241 36.0997 185.465 36.5503C185.688 37.0009 185.821 37.4934 185.855 37.9981C185.99 38.9987 185.933 40.026 186.115 41.0159C186.306 42.0107 186.727 42.9437 187.343 43.7362C187.959 44.5287 188.751 45.1575 189.654 45.5693C190.232 45.8208 191.019 45.9278 191.379 45.3981C191.357 46.1036 191.545 46.7991 191.918 47.3924C192.29 47.9858 192.829 48.4491 193.463 48.7208C194.381 49.1007 195.407 49.0365 196.371 49.2559C197.336 49.4753 198.347 50.1548 198.399 51.1714L198.805 44.1139L196.872 37.8751L190.931 34.2527L184.552 35.3763Z" fill="#263238"/>
<path d="M195.1 47.0085C194.9 46.8658 194.71 46.7084 194.532 46.5376C194.085 46.0293 193.763 45.4183 193.594 44.7558C193.357 43.7725 193.219 42.7666 193.182 41.7541C193.136 40.5052 192.995 39.2618 192.76 38.0354C192.521 36.7963 191.963 35.6455 191.145 34.702C190.778 34.2975 190.337 33.9719 189.847 33.7442C189.418 33.5494 188.96 33.4334 188.492 33.4017C187.815 33.3457 187.137 33.5124 186.559 33.878C186.468 33.9314 186.382 33.9942 186.303 34.0652C186.24 34.112 186.183 34.1658 186.131 34.2257C186.084 34.2725 186.041 34.3226 186.001 34.3756C186.18 34.2046 186.373 34.0506 186.579 33.9154C187.157 33.5742 187.823 33.4247 188.487 33.4874C189.484 33.5609 190.416 34.022 191.093 34.7769C191.885 35.7124 192.424 36.8453 192.656 38.0622C192.888 39.282 193.031 40.5178 193.083 41.7595C193.124 42.7807 193.273 43.7943 193.526 44.7826C193.704 45.4534 194.043 46.0678 194.511 46.5697C194.682 46.7491 194.881 46.8974 195.1 47.0085Z" fill="white"/>
<path d="M200.239 46.1577C199.928 46.1203 199.623 46.0411 199.332 45.9223C198.56 45.5385 197.904 44.9467 197.435 44.2101C197.095 43.7161 196.804 43.1892 196.564 42.637C196.308 41.9944 196.144 41.3165 196.08 40.6251C195.991 39.8974 195.965 39.1216 195.882 38.319C195.835 37.923 195.783 37.511 195.694 37.1044C195.6 36.691 195.467 36.2879 195.298 35.9005C194.63 34.4159 193.444 33.2432 191.973 32.6152C190.776 32.112 189.452 32.02 188.2 32.353C187.359 32.566 186.571 32.9579 185.886 33.5034C185.636 33.701 185.406 33.9232 185.198 34.1669C185.216 34.1558 185.232 34.1413 185.245 34.1241L185.381 34.001C185.438 33.9422 185.511 33.8726 185.6 33.7977C185.688 33.7228 185.792 33.6265 185.917 33.5409C186.604 33.0155 187.388 32.6403 188.221 32.4386C189.455 32.1249 190.755 32.2223 191.931 32.7169C193.366 33.3375 194.526 34.481 195.189 35.9272C195.352 36.3085 195.481 36.7043 195.574 37.1097C195.657 37.5075 195.719 37.9093 195.762 38.3136C195.845 39.1055 195.877 39.8814 195.965 40.6198C196.039 41.3203 196.215 42.0056 196.486 42.653C196.732 43.2166 197.03 43.7543 197.377 44.2582C197.863 44.9996 198.537 45.59 199.327 45.9651C199.545 46.05 199.772 46.1075 200.004 46.1363H200.186L200.239 46.1577Z" fill="#455A64"/>
<path d="M191.379 45.398C191.379 45.398 191.379 45.398 191.379 45.4569C191.379 45.5157 191.379 45.5585 191.379 45.6281C191.379 45.6977 191.379 45.8047 191.415 45.917C191.452 46.0294 191.462 46.1578 191.494 46.3023C191.578 46.6546 191.709 46.9931 191.884 47.3082C192.122 47.7272 192.442 48.0914 192.822 48.3783C193.876 49.0863 195.133 49.4051 196.387 49.2826C197.134 49.2452 197.874 49.1268 198.597 48.9295C199.385 48.7266 200.143 48.4134 200.848 47.9984L200.989 47.9128H200.827C199.922 47.7816 199.042 47.5034 198.222 47.0888H198.175L198.138 47.2012C199.979 47.506 201.867 47.1588 203.49 46.2167L203.6 46.1525L203.48 46.115C202.335 45.7613 201.26 45.2015 200.306 44.4617C199.561 43.8787 198.987 43.0954 198.649 42.1983C198.453 41.6062 198.361 40.9829 198.378 40.3577C198.378 40.149 198.404 39.9832 198.414 39.8601V39.7103V39.6675C198.416 39.6817 198.416 39.696 198.414 39.7103V39.8387C198.414 39.9564 198.383 40.1223 198.357 40.3363C198.327 40.9689 198.41 41.6018 198.602 42.2037C198.949 43.1269 199.541 43.9315 200.311 44.5259C201.273 45.2764 202.356 45.847 203.511 46.2113V46.1097C201.908 47.0332 200.047 47.3726 198.232 47.0728L197.831 47.0032L198.196 47.1851H198.242C199.063 47.602 199.942 47.8837 200.848 48.0198V47.9075C200.15 48.3168 199.402 48.6281 198.623 48.8332C197.909 49.0308 197.177 49.1492 196.439 49.1863C195.207 49.3142 193.969 49.0106 192.927 48.3248C192.547 48.0385 192.229 47.6741 191.994 47.2547C191.819 46.943 191.683 46.6106 191.587 46.2648C191.556 46.1204 191.525 45.9973 191.504 45.8849C191.483 45.7726 191.473 45.6763 191.457 45.6014C191.441 45.5264 191.457 45.4729 191.431 45.4301C191.415 45.4179 191.397 45.4071 191.379 45.398Z" fill="#455A64"/>
<path d="M204.085 62.7663C204.116 62.7663 203.741 59.3633 203.246 55.1791C202.751 50.9949 202.318 47.6025 202.287 47.6025C202.256 47.6025 202.631 51.0056 203.126 55.1898C203.621 59.374 204.048 62.7663 204.085 62.7663Z" fill="#455A64"/>
<path d="M191.536 110.783C191.045 110.679 190.539 110.681 190.049 110.789C189.559 110.896 189.096 111.108 188.69 111.409C187.398 112.383 185.183 113.678 182.957 113.228C179.502 112.527 177.626 109.199 178.397 105.202C179.169 101.205 182.124 98.8189 185.584 99.5199C187.82 99.9693 189.394 102.024 190.233 103.431C190.498 103.866 190.848 104.24 191.261 104.53C191.673 104.819 192.139 105.019 192.63 105.117C193.104 105.212 193.591 105.211 194.064 105.114C194.537 105.016 194.987 104.823 195.388 104.547C195.789 104.271 196.132 103.916 196.4 103.503C196.667 103.091 196.852 102.628 196.945 102.142L200.781 78.4597L164.655 71.98L139.963 67.5872L136.106 90.0599C135.715 92.1038 137.388 93.9177 139.379 94.3404C139.869 94.4435 140.375 94.4407 140.864 94.3319C141.353 94.2232 141.815 94.0111 142.219 93.709C143.512 92.7352 145.732 91.4404 147.952 91.8898C151.412 92.5908 153.289 95.9189 152.517 99.9426C151.746 103.966 148.786 106.326 145.325 105.625C143.095 105.175 141.516 103.121 140.677 101.714C140.411 101.278 140.062 100.903 139.649 100.612C139.237 100.321 138.771 100.121 138.279 100.023C137.806 99.9242 137.318 99.9231 136.844 100.02C136.37 100.116 135.92 100.308 135.519 100.585C135.118 100.862 134.774 101.218 134.508 101.632C134.242 102.046 134.059 102.51 133.97 102.998L129.342 129.462L165.676 136.027L186.991 139.88L189.597 140.356L194.417 115.245C194.519 114.758 194.525 114.254 194.434 113.764C194.344 113.274 194.159 112.808 193.891 112.392C193.622 111.976 193.276 111.62 192.871 111.344C192.467 111.067 192.013 110.877 191.536 110.783Z" fill="#455A64"/>
<path d="M155.55 95.7423C155.555 95.6085 155.533 95.4751 155.485 95.3506C155.438 95.2261 155.365 95.1131 155.272 95.019C155.18 94.9248 155.069 94.8515 154.947 94.8038C154.825 94.7561 154.695 94.7349 154.565 94.7417C154.263 94.7417 153.872 94.7792 153.392 94.8273C152.147 94.9557 148.462 96.8178 148.363 97.5669C148.296 97.835 148.298 98.1163 148.369 98.3835C148.439 98.6507 148.575 98.8947 148.765 99.0918C148.765 99.0918 148.045 100.071 148.306 100.884C148.535 101.575 149.619 101.815 149.619 101.815C149.619 101.815 148.817 102.773 149.619 103.458C149.906 103.693 150.484 104.148 150.615 104.303C150.667 104.508 150.744 104.706 150.844 104.892C151.025 105.153 151.258 105.371 151.527 105.531C151.797 105.692 152.097 105.791 152.407 105.823H152.616C153.015 105.863 153.415 105.745 153.731 105.491C155.169 104.362 159.245 101.088 159.323 100.178C159.323 100.178 160.099 99.5573 159.797 98.9099C159.495 98.2624 158.333 98.5407 158.333 98.5407C158.491 98.4103 158.604 98.2317 158.657 98.0306C158.709 97.8295 158.698 97.6164 158.625 97.4224C158.359 96.7375 156.3 96.7964 155.367 96.9248C154.622 97.0211 152.548 97.3689 152.548 97.3689C152.548 97.3689 155.31 96.3951 155.472 95.9135C155.505 95.8602 155.531 95.8026 155.55 95.7423Z" fill="#FFBF9D"/>
<path d="M159.365 100.199C159.278 100.267 159.186 100.326 159.089 100.376C158.906 100.478 158.641 100.622 158.302 100.793C157.635 101.136 156.686 101.564 155.623 101.987C154.56 102.409 153.575 102.746 152.861 102.982C152.507 103.1 152.22 103.185 152.017 103.249C151.915 103.284 151.81 103.31 151.704 103.33C151.802 103.281 151.903 103.24 152.006 103.207L152.84 102.912C153.549 102.661 154.518 102.308 155.587 101.89C156.655 101.473 157.593 101.05 158.271 100.729L159.073 100.339C159.167 100.286 159.265 100.239 159.365 100.199Z" fill="#FF9A6C"/>
<path d="M158.5 98.5354C158.402 98.5702 158.301 98.5935 158.198 98.605C158.005 98.6424 157.724 98.6959 157.375 98.7762C156.681 98.9313 155.738 99.1989 154.706 99.536C154.185 99.7018 153.695 99.8517 153.252 100.007C152.809 100.162 152.418 100.333 152.095 100.472C151.772 100.611 151.512 100.745 151.329 100.831C151.24 100.883 151.146 100.926 151.048 100.959L151.116 100.911L151.314 100.793C151.486 100.697 151.741 100.558 152.064 100.408C152.387 100.258 152.778 100.082 153.221 99.9159C153.664 99.75 154.159 99.6002 154.675 99.4343C155.558 99.1421 156.456 98.8975 157.364 98.7013C157.708 98.6317 157.995 98.5889 158.193 98.5622L158.5 98.5354Z" fill="#FF9A6C"/>
<path d="M152.59 97.3904C152.452 97.4867 152.303 97.5674 152.147 97.6312C151.866 97.7649 151.47 97.9361 151.032 98.1234C150.594 98.3107 150.209 98.4873 149.927 98.621C149.779 98.7005 149.626 98.7702 149.469 98.8297C149.599 98.7205 149.743 98.6288 149.896 98.5568C150.252 98.3564 150.619 98.1777 150.996 98.0218C151.433 97.8345 151.83 97.674 152.116 97.5562C152.269 97.487 152.428 97.4315 152.59 97.3904Z" fill="#FF9A6C"/>
<path d="M158.068 101.858C158.012 101.939 157.949 102.014 157.88 102.083C157.75 102.217 157.557 102.409 157.312 102.618C156.822 103.083 156.113 103.688 155.342 104.346C155.155 104.512 154.972 104.689 154.779 104.838C154.601 104.988 154.413 105.126 154.216 105.25C153.885 105.468 153.523 105.63 153.143 105.732C152.887 105.803 152.62 105.827 152.356 105.802C152.284 105.798 152.213 105.789 152.142 105.775H152.069C152.165 105.769 152.261 105.769 152.356 105.775C152.615 105.781 152.874 105.745 153.122 105.668C153.491 105.56 153.842 105.396 154.164 105.181C154.356 105.054 154.54 104.917 154.717 104.769C154.904 104.619 155.082 104.448 155.274 104.277C156.046 103.602 156.765 103.019 157.265 102.575L157.849 102.04C157.917 101.974 157.991 101.913 158.068 101.858Z" fill="#FF9A6C"/>
<path d="M198.931 110.692C198.931 110.692 197.638 109.269 196.549 109.039C195.46 108.809 193.943 109.007 193.688 108.814C193.433 108.621 192.859 107.862 192.343 108.332C191.827 108.803 190.994 110.681 193.198 111.602L194.762 111.864C194.555 112.621 194.241 113.342 193.829 114.004C193.349 114.577 186.903 120.601 186.903 120.601C186.903 120.601 186.126 121.179 186.35 121.923C186.574 122.667 188.07 122.512 188.07 122.512C188.32 122.822 188.642 123.062 189.006 123.21C189.371 123.358 189.766 123.408 190.155 123.357C190.756 123.248 191.344 123.068 191.906 122.822C192.23 123.174 192.658 123.407 193.124 123.485C193.59 123.564 194.068 123.483 194.485 123.255C195.986 122.447 202.386 116.583 202.386 116.583L200.776 110.756L198.931 110.692Z" fill="#FFBF9D"/>
<path d="M200.426 109.547L198.821 110.697C200.812 112.757 202.323 114.587 201.912 117.059L205.007 115.77C205.007 115.77 205.273 110.826 200.426 109.547Z" fill="#FFBF9D"/>
<path d="M192.933 119.232C192.326 120.015 191.586 120.678 190.749 121.19C189.962 121.775 189.08 122.212 188.143 122.479C188.112 122.399 189.285 121.853 190.603 120.954C191.922 120.056 192.875 119.173 192.933 119.232Z" fill="#FF9A6C"/>
<path d="M195.178 120.505C194.767 121.164 194.233 121.732 193.607 122.177C192.98 122.623 192.275 122.936 191.53 123.1C191.504 123.02 192.442 122.667 193.442 121.944C194.443 121.222 195.1 120.462 195.178 120.505Z" fill="#FF9A6C"/>
<path d="M103.207 80.2574L105.167 79.0535L107.746 86.1912L105.656 87.5182L103.207 80.2574Z" fill="#F5F5F5"/>
<path d="M68.8841 34.2204C68.7725 31.454 67.6514 28.832 65.7435 26.8752C63.8357 24.9184 61.2808 23.77 58.5862 23.6582H58.0338C52.0198 23.7599 48.7522 29.0624 49.018 35.2263L49.7788 60.0533L59.2794 63.7988L62.9534 60.3316C62.9534 58.5926 62.9534 54.9809 62.9899 54.9809C63.0264 54.9809 68.7903 54.3067 69.0978 48.3943C69.2489 45.4782 69.0874 39.5657 68.8841 34.2204Z" fill="#FFBF9D"/>
<path d="M62.9901 54.9222C60.3269 54.8052 57.7527 53.9044 55.5742 52.3271C55.5742 52.3271 57.2002 56.8538 62.9745 56.5649L62.9901 54.9222Z" fill="#FF9A6C"/>
<path d="M66.8984 39.325C66.893 39.5459 66.8029 39.7557 66.6478 39.909C66.4927 40.0622 66.2851 40.1465 66.0698 40.1436C65.9648 40.1487 65.8599 40.1318 65.7615 40.094C65.663 40.0563 65.573 39.9983 65.497 39.9238C65.421 39.8493 65.3605 39.7596 65.3192 39.6604C65.2779 39.5611 65.2567 39.4543 65.2568 39.3464C65.2623 39.1264 65.3516 38.9174 65.5056 38.7643C65.6596 38.6112 65.8659 38.5263 66.0802 38.5277C66.1853 38.5234 66.2902 38.5408 66.3886 38.5788C66.487 38.6168 66.577 38.6747 66.6533 38.749C66.7296 38.8233 66.7906 38.9126 66.8327 39.0115C66.8748 39.1104 66.8971 39.217 66.8984 39.325Z" fill="#263238"/>
<path d="M67.5554 36.7834C67.446 36.8904 66.8414 36.3874 65.9555 36.3553C65.0695 36.3232 64.392 36.7459 64.3139 36.6282C64.2357 36.5105 64.3816 36.3821 64.6734 36.1841C65.0661 35.9272 65.5269 35.8019 65.992 35.8256C66.4533 35.8436 66.8969 36.0123 67.2583 36.3072C67.5241 36.5319 67.6075 36.7352 67.5554 36.7834Z" fill="#263238"/>
<path d="M59.1957 39.325C59.1889 39.5455 59.0984 39.7545 58.9436 39.9074C58.7888 40.0604 58.5819 40.1451 58.367 40.1436C58.262 40.1479 58.1571 40.1306 58.0587 40.0926C57.9603 40.0546 57.8703 39.9967 57.794 39.9224C57.7177 39.8481 57.6567 39.7588 57.6146 39.6599C57.5725 39.5609 57.5501 39.4543 57.5488 39.3464C57.5569 39.1264 57.6478 38.9181 57.8023 38.7655C57.9568 38.6128 58.163 38.5276 58.3775 38.5277C58.4825 38.5234 58.5874 38.5408 58.6858 38.5788C58.7842 38.6168 58.8742 38.6747 58.9505 38.749C59.0268 38.8233 59.0878 38.9126 59.1299 39.0115C59.172 39.1104 59.1943 39.217 59.1957 39.325Z" fill="#263238"/>
<path d="M58.862 36.6283C58.7578 36.73 58.1532 36.2324 57.2673 36.1949C56.3813 36.1575 55.7038 36.5909 55.6204 36.4732C55.5371 36.3555 55.6882 36.227 55.98 36.0291C56.3746 35.7721 56.837 35.6468 57.3038 35.6706C57.7636 35.6913 58.206 35.8577 58.5701 36.1468C58.8307 36.3769 58.9141 36.5802 58.862 36.6283Z" fill="#263238"/>
<path d="M61.7594 43.75C62.2317 43.6172 62.7186 43.5471 63.2082 43.5414C63.4375 43.5414 63.6512 43.4932 63.6981 43.3327C63.7248 43.0949 63.6812 42.8545 63.573 42.6425C63.3854 42.0699 63.1821 41.4707 62.9737 40.8446C62.1451 38.287 61.5562 36.1896 61.6604 36.1521C61.7646 36.1147 62.5099 38.164 63.3385 40.7216C63.5365 41.353 63.7293 41.9522 63.9065 42.5301C64.0405 42.8149 64.0701 43.1397 63.9899 43.4451C63.9532 43.5254 63.8995 43.5963 63.8328 43.6528C63.7662 43.7092 63.6881 43.7498 63.6043 43.7714C63.4774 43.7981 63.3481 43.8107 63.2186 43.8089C62.7317 43.8497 62.2417 43.83 61.7594 43.75Z" fill="#263238"/>
<path d="M59.2638 33.7925C59.1335 34.0226 58.2841 33.739 57.2418 33.6748C56.1995 33.6106 55.3135 33.7337 55.2197 33.4929C55.178 33.3752 55.3604 33.1718 55.7409 33.0006C56.2374 32.7955 56.773 32.7096 57.3068 32.7495C57.8406 32.7894 58.3585 32.954 58.8208 33.2307C59.17 33.4608 59.3211 33.6855 59.2638 33.7925Z" fill="#263238"/>
<path d="M67.7008 34.1134C67.5132 34.3114 66.7992 34.0813 65.9289 34.0439C65.0586 34.0064 64.3238 34.1402 64.1622 33.9208C64.0892 33.8138 64.2091 33.6105 64.5374 33.4232C64.9865 33.1992 65.4837 33.096 65.9823 33.1231C66.4809 33.1503 66.9646 33.3069 67.3881 33.5784C67.6904 33.8245 67.7842 34.0118 67.7008 34.1134Z" fill="#263238"/>
<path d="M49.3148 39.582C49.2158 39.5338 45.401 38.2122 45.3645 42.2573C45.328 46.3024 49.294 45.5105 49.3044 45.3928C49.3148 45.2751 49.3148 39.582 49.3148 39.582Z" fill="#FFBF9D"/>
<path d="M48.1366 43.8517C48.1366 43.8517 48.0689 43.8998 47.9542 43.9533C47.8718 43.9893 47.7832 44.0078 47.6936 44.0078C47.6041 44.0078 47.5155 43.9893 47.4331 43.9533C47.1793 43.7858 46.974 43.5515 46.8384 43.2748C46.7027 42.9982 46.6417 42.6893 46.6618 42.3803C46.6542 42.034 46.7219 41.6904 46.8598 41.3743C46.8991 41.2491 46.9668 41.1353 47.0575 41.0422C47.1481 40.9492 47.259 40.8796 47.3809 40.8393C47.4598 40.8202 47.5426 40.8295 47.6156 40.8655C47.6887 40.9015 47.7474 40.9621 47.7822 41.0372C47.8343 41.155 47.7822 41.2352 47.8291 41.2406C47.876 41.2459 47.9125 41.171 47.8865 41.0051C47.8644 40.9037 47.8093 40.8131 47.7301 40.7483C47.6232 40.6642 47.4887 40.6258 47.3549 40.6413C47.1919 40.6728 47.0396 40.747 46.9127 40.8567C46.7858 40.9664 46.6886 41.1078 46.6305 41.2673C46.4587 41.6152 46.3728 42.001 46.3803 42.391C46.3803 43.2096 46.7973 43.9962 47.3653 44.1513C47.4711 44.1838 47.5827 44.1915 47.6918 44.1739C47.8009 44.1563 47.9048 44.1138 47.9959 44.0497C48.1053 43.948 48.1366 43.8624 48.1366 43.8517Z" fill="#FF9A6C"/>
<path d="M58.9767 44.3119C59.1122 44.3119 59.1174 45.2322 59.8991 45.9171C60.6808 46.6019 61.6397 46.4521 61.645 46.5966C61.6502 46.7411 61.4313 46.7785 61.0248 46.7892C60.492 46.7942 59.9748 46.6046 59.5656 46.2542C59.1693 45.9256 58.9133 45.4516 58.8516 44.9325C58.8151 44.5259 58.9141 44.3065 58.9767 44.3119Z" fill="#263238"/>
<path d="M76.8465 28.8912C76.7765 28.6614 76.6211 28.4691 76.4139 28.3562C75.956 28.1343 75.4487 28.042 74.9443 28.0886C73.6871 28.052 72.4549 27.7188 71.3432 27.1148C71.7351 26.9237 72.0956 26.671 72.4115 26.3657C72.7518 26.0527 73.001 25.649 73.1317 25.1995C73.2623 24.75 73.2692 24.2721 73.1516 23.8188C73.1359 23.7334 73.1001 23.6532 73.0475 23.5851C72.9948 23.5171 72.9268 23.4632 72.8493 23.4282C72.5939 23.3426 72.3646 23.5994 72.1822 23.8028C71.951 24.117 71.6419 24.3617 71.2871 24.5114C70.9324 24.661 70.545 24.7101 70.1654 24.6535C69.64 24.6119 69.1305 24.4492 68.6749 24.1773C68.6549 24.1604 68.6373 24.1405 68.6228 24.1185L68.0287 23.4871C66.5591 21.9568 65.2927 20.8974 63.9846 20.3355C62.0668 19.5169 58.8513 19.1584 56.8344 19.6774C54.8176 20.1964 52.9988 21.8177 52.6965 23.9579C51.5813 22.9627 49.8875 22.952 48.5274 23.5031H48.4909C46.9587 24.0382 46.0728 25.6916 45.6037 27.286C45.6037 27.3717 45.5568 27.4626 45.5308 27.5482C45.0053 28.3897 44.2903 29.0889 43.4462 29.5868C43.3002 29.6724 43.1283 29.7794 43.1074 29.956C43.1148 30.042 43.1424 30.1249 43.1878 30.1975C43.2332 30.2702 43.295 30.3305 43.368 30.3734C43.7352 30.6415 44.1549 30.8241 44.5979 30.9084C44.4538 31.2796 44.2795 31.6375 44.0768 31.9786C43.9048 32.2782 43.6963 32.6367 43.8422 32.947C43.9035 33.0646 43.9981 33.1603 44.1135 33.2215C44.2289 33.2826 44.3596 33.3063 44.4885 33.2895C44.7455 33.2344 44.9887 33.125 45.2024 32.9684L44.6813 34.2205C45.2353 34.3204 45.8042 34.2874 46.3437 34.1242C46.6512 35.6224 46.8649 38.4047 47.2297 39.416C48.272 39.4481 48.5326 39.3357 49.0589 39.5176C49.7416 39.7584 49.4654 40.9998 50.3566 40.6573C50.81 40.4808 51.5292 38.7311 51.6855 38.2549C52.7272 35.1124 53.1004 31.7771 52.7799 28.4739C53.4249 27.7976 54.1888 27.2529 55.0313 26.8687L54.9635 26.9329C56.5843 26.3978 58.4135 25.8307 59.9353 26.6226C61.1183 27.2432 61.801 28.5167 62.6765 29.5333C63.4145 30.4637 64.3364 31.2227 65.3811 31.7604C66.4259 32.2982 67.5698 32.6023 68.7374 32.6527C68.9459 34.4399 68.9772 37.3667 69.0449 39.0361L70.4729 35.7133C70.5875 35.5154 70.6813 35.3174 70.7751 35.1248L70.8064 35.0659C70.9453 34.7441 71.1001 34.4298 71.2702 34.1242C71.4614 34.2583 71.6907 34.3233 71.9218 34.3088C72.153 34.2943 72.3728 34.2011 72.5467 34.0441C72.7206 33.887 72.8386 33.675 72.882 33.4415C72.9255 33.208 72.892 32.9662 72.7868 32.7544C72.653 32.5515 72.4895 32.371 72.3021 32.2193C72.4986 32.4205 72.7427 32.5658 73.0104 32.6408C73.2781 32.7159 73.5602 32.7181 73.8291 32.6474C74.0918 32.5635 74.3207 32.3936 74.4806 32.1636C74.6406 31.9337 74.7229 31.6564 74.715 31.3739C74.6967 31.1816 74.6292 30.9977 74.5193 30.8408C74.4095 30.6839 74.2613 30.5596 74.0896 30.4804C74.8115 30.5501 75.5373 30.3973 76.1742 30.0416C76.5755 29.8062 76.982 29.421 76.8465 28.8912Z" fill="#263238"/>
<path d="M54.5058 24.6589C54.2976 24.8209 54.1024 24.9999 53.9221 25.194C53.46 25.7553 53.1475 26.43 53.0153 27.1523C52.9086 27.6461 52.8527 28.1501 52.8486 28.6559C52.8486 29.1909 52.8798 29.7902 52.9111 30.4055C52.9505 31.0523 52.9505 31.701 52.9111 32.3478C52.8898 32.6934 52.8428 33.0369 52.7704 33.3751C52.7147 33.7358 52.5713 34.0763 52.3535 34.365C52.2518 34.4794 52.123 34.5647 51.9795 34.6125C51.8361 34.6604 51.683 34.6691 51.5353 34.6379C51.2531 34.5775 50.9973 34.4255 50.8057 34.2045C50.5062 33.7551 50.3265 33.2331 50.2845 32.6903H50.4096C50.2302 33.1346 49.9879 33.5493 49.6904 33.9209C49.4056 34.2691 49 34.4898 48.5595 34.5362C48.3553 34.554 48.1501 34.5152 47.9654 34.4239C47.798 34.3279 47.6606 34.185 47.5693 34.0119C47.4816 33.8485 47.4401 33.6632 47.4495 33.4768C47.4596 33.305 47.5278 33.1423 47.6423 33.0167L47.6996 33.0755C47.3524 33.4769 46.9261 33.7979 46.4489 34.0172C46.2873 34.0921 46.1518 34.1349 46.0632 34.167C46.0189 34.1814 45.9736 34.1921 45.9277 34.1991L46.058 34.1403C46.1414 34.1082 46.2717 34.0547 46.4332 33.9744C46.8941 33.7429 47.3052 33.4191 47.6423 33.022L47.6996 33.0755C47.6023 33.1989 47.5454 33.3506 47.537 33.5091C47.5286 33.6677 47.5691 33.8249 47.6527 33.9584C47.7366 34.1122 47.8613 34.2383 48.0123 34.3222C48.1751 34.3998 48.3546 34.433 48.5335 34.4185C48.9404 34.367 49.313 34.1585 49.5758 33.8353C49.8619 33.4692 50.0937 33.0617 50.2637 32.6261L50.3523 32.4388L50.3888 32.6421C50.4343 33.1643 50.6141 33.6647 50.9099 34.0921C51.0805 34.2899 51.3092 34.4251 51.5613 34.4774C51.6872 34.5052 51.8179 34.4986 51.9405 34.4582C52.063 34.4178 52.1731 34.3451 52.2597 34.2473C52.463 33.9775 52.5957 33.6589 52.6453 33.3216C52.7152 32.9919 52.7622 32.6576 52.786 32.3211C52.8253 31.6778 52.8253 31.0327 52.786 30.3895C52.7548 29.7742 52.7235 29.1856 52.7391 28.6345C52.7481 28.121 52.8092 27.6099 52.9215 27.1095C53.065 26.3843 53.3922 25.7107 53.87 25.1565C54.0516 24.9533 54.2668 24.7848 54.5058 24.6589Z" fill="#455A64"/>
<path d="M72.3078 30.6142L72.2609 30.6517L72.115 30.7587C72.0363 30.8169 71.9546 30.8705 71.87 30.9192C71.7551 30.9863 71.6368 31.047 71.5157 31.1012C70.7384 31.4544 69.8872 31.6016 69.0402 31.5292C67.7793 31.4316 66.5733 30.9594 65.5694 30.1701C64.3571 29.1962 63.3515 27.978 62.6145 26.5906C62.2028 25.8682 61.864 25.1298 61.4992 24.4503C61.1607 23.7855 60.7327 23.1731 60.2276 22.6311C59.7734 22.1373 59.2052 21.7692 58.5756 21.5609C58.2911 21.4772 57.9958 21.4393 57.7 21.4486C57.4255 21.4613 57.1538 21.5117 56.8923 21.5984C56.4429 21.7522 56.0294 22 55.678 22.3261C55.4148 22.5746 55.193 22.8655 55.0213 23.1875C54.8811 23.4684 54.7777 23.767 54.7139 24.0757C54.7139 24.0757 54.7139 24.0758 54.7139 24.0115C54.7139 23.9473 54.7139 23.9045 54.7399 23.8296C54.7902 23.5981 54.8671 23.3736 54.9692 23.1608C55.1375 22.8286 55.3595 22.5283 55.6259 22.2726C55.981 21.9342 56.4019 21.6771 56.861 21.5181C57.1309 21.4274 57.4112 21.3734 57.6948 21.3576C58.0027 21.3457 58.3105 21.3836 58.6068 21.47C59.2546 21.6748 59.8422 22.0427 60.3162 22.5401C60.8315 23.0894 61.2684 23.7109 61.6139 24.3861C61.9891 25.071 62.3226 25.8094 62.7291 26.5263C63.4607 27.8975 64.4511 29.1053 65.6423 30.0792C66.6261 30.859 67.8072 31.3325 69.0454 31.4436C69.8798 31.5209 70.72 31.3906 71.4948 31.0637C71.7737 30.9294 72.0451 30.7793 72.3078 30.6142Z" fill="#455A64"/>
<path d="M72.8598 28.0352C72.8598 28.0352 72.7921 28.094 72.6513 28.1796C72.4546 28.3011 72.249 28.4066 72.0364 28.4953C71.7206 28.628 71.3946 28.7336 71.0619 28.811C70.6516 28.8985 70.235 28.9504 69.8163 28.9662C69.3973 28.9695 68.9788 28.9355 68.5656 28.8645C68.2301 28.8007 67.9006 28.7076 67.5806 28.5863C67.3655 28.508 67.1565 28.4132 66.9552 28.3027C66.8762 28.2672 66.8025 28.2204 66.7363 28.1636C66.7363 28.1636 67.0646 28.3134 67.6119 28.4953C67.9322 28.6004 68.2597 28.6809 68.5916 28.7361C68.9967 28.8009 69.4063 28.8313 69.8163 28.8271C70.2261 28.8144 70.634 28.766 71.0358 28.6826C71.3633 28.6139 71.6855 28.521 71.9999 28.4044C72.5367 28.1957 72.8494 28.0138 72.8598 28.0352Z" fill="#455A64"/>
<path d="M66.5859 213.606L66.6693 225.084C66.6693 225.084 78.0564 228.829 78.2753 230.969L56.606 231.932L55.7617 214.056L66.5859 213.606Z" fill="#263238"/>
<path d="M59.9255 224.431C59.7193 224.507 59.5474 224.657 59.4427 224.855C59.3379 225.052 59.3075 225.282 59.3574 225.501C59.4227 225.719 59.5679 225.902 59.7625 226.012C59.957 226.122 60.1856 226.15 60.3997 226.09C60.6175 226.01 60.7991 225.851 60.9097 225.643C61.0203 225.435 61.0521 225.192 60.999 224.961C60.9101 224.744 60.7422 224.571 60.531 224.479C60.3198 224.387 60.082 224.383 59.8681 224.468" fill="#E0E0E0"/>
<path d="M56.6055 231.948V230.145L77.3888 229.894C77.3888 229.894 78.3686 230.284 78.2904 230.964L56.6055 231.948Z" fill="#455A64"/>
<path d="M67.0131 224.971C67.0131 225.078 66.4919 225.153 65.9708 225.506C65.4496 225.859 65.2099 226.346 65.1109 226.309C65.0119 226.271 65.1422 225.635 65.7623 225.196C66.3825 224.757 67.0339 224.87 67.0131 224.971Z" fill="white"/>
<path d="M69.327 225.833C69.3583 225.94 68.9049 226.143 68.5662 226.619C68.2274 227.096 68.144 227.582 68.045 227.582C67.946 227.582 67.847 226.972 68.2847 226.389C68.7225 225.806 69.3218 225.731 69.327 225.833Z" fill="white"/>
<path d="M70.7343 228.588C70.6405 228.615 70.4737 228.08 70.7343 227.475C70.9949 226.871 71.4639 226.609 71.516 226.694C71.5682 226.78 71.2711 227.117 71.0731 227.62C70.875 228.123 70.8438 228.551 70.7343 228.588Z" fill="white"/>
<path d="M66.7106 222.355C66.6741 222.456 66.1895 222.328 65.5849 222.398C64.9804 222.467 64.5426 222.681 64.4697 222.59C64.3967 222.499 64.8449 222.093 65.5484 222.018C66.252 221.943 66.7627 222.269 66.7106 222.355Z" fill="white"/>
<path d="M41.4614 216.062L40.2836 229.899L42.4307 241.136C42.4672 241.327 42.4649 241.524 42.4241 241.715C42.3832 241.905 42.3046 242.085 42.1932 242.243C42.0818 242.401 41.9399 242.534 41.7763 242.634C41.6128 242.733 41.4311 242.797 41.2425 242.821C41.0231 242.85 40.8001 242.824 40.5924 242.746C40.3847 242.668 40.1984 242.539 40.0491 242.372C38.1208 240.231 31.0489 232.205 31.1896 231.205C31.3511 230.038 31.4814 216.533 31.4814 216.533L41.4614 216.062Z" fill="#263238"/>
<path d="M41.2427 242.8L31.2471 230.252L31.2106 230.836C31.1778 231.343 31.3219 231.846 31.6171 232.254C32.4093 233.324 34.6606 236.309 40.0128 242.35C40.1655 242.524 40.3579 242.656 40.5725 242.734C40.7872 242.813 41.0175 242.835 41.2427 242.8Z" fill="#455A64"/>
<g opacity="0.6">
<path d="M34.2947 225.961C34.453 226.098 34.5565 226.29 34.5854 226.5C34.6143 226.711 34.5664 226.925 34.451 227.101C34.3249 227.268 34.1409 227.379 33.9372 227.411C33.7334 227.443 33.5255 227.393 33.3566 227.272C33.1898 227.127 33.0811 226.924 33.0513 226.702C33.0214 226.48 33.0726 226.254 33.195 226.068C33.3436 225.907 33.5478 225.811 33.764 225.802C33.9801 225.793 34.1912 225.871 34.352 226.02" fill="white"/>
</g>
<path d="M38.5372 236.539C38.8915 236.128 39.3197 235.79 39.7984 235.544C40.3019 235.373 40.8328 235.304 41.3618 235.341C41.3618 235.303 41.2107 235.186 40.898 235.121C40.4853 235.044 40.0595 235.092 39.6733 235.261C39.2808 235.428 38.9466 235.714 38.7144 236.079C38.5372 236.325 38.5007 236.529 38.5372 236.539Z" fill="white"/>
<path d="M39.3821 238.46C39.7832 238.257 40.1957 238.079 40.6172 237.925C41.0583 237.872 41.502 237.844 41.9461 237.84C41.7466 237.692 41.5156 237.597 41.2726 237.56C41.0295 237.524 40.7815 237.548 40.5494 237.631C39.7364 237.834 39.3143 238.418 39.3821 238.46Z" fill="white"/>
<path d="M36.8955 234.046C37.4919 233.688 38.1139 233.377 38.756 233.115C39.4241 232.947 40.1035 232.831 40.7885 232.767C40.0899 232.58 39.3536 232.6 38.666 232.827C37.9783 233.053 37.3678 233.476 36.9059 234.046H36.8955Z" fill="white"/>
<path d="M36.9111 229.808C36.9424 229.894 37.7085 229.626 38.6778 229.653C39.6472 229.68 40.4028 229.969 40.4393 229.888C39.935 229.5 39.3119 229.311 38.683 229.353C38.0588 229.289 37.4322 229.449 36.9111 229.808Z" fill="white"/>
<path d="M37.156 225.742C37.7545 225.582 38.3722 225.51 38.9904 225.528C39.6006 225.637 40.1932 225.831 40.7519 226.106C40.7519 226.079 40.6373 225.892 40.3402 225.688C39.9423 225.429 39.4907 225.27 39.0217 225.223C38.553 225.172 38.0793 225.238 37.6407 225.415C37.3071 225.555 37.1351 225.71 37.156 225.742Z" fill="white"/>
<path d="M39.0167 224.752C39.0699 224.579 39.0876 224.397 39.0688 224.217C39.053 223.732 38.9432 223.255 38.7457 222.815C38.6305 222.48 38.4106 222.194 38.1203 222.002C38.0186 221.947 37.903 221.926 37.7892 221.941C37.6755 221.956 37.569 222.007 37.4845 222.087C37.3324 222.253 37.2436 222.47 37.2344 222.697C37.2351 223.165 37.3948 223.617 37.686 223.977C37.9772 224.336 38.3815 224.58 38.8291 224.666C39.2732 224.744 39.7297 224.683 40.1401 224.492C40.5504 224.302 40.896 223.99 41.1326 223.596C41.1929 223.497 41.2316 223.387 41.246 223.271C41.2604 223.156 41.2501 223.038 41.2159 222.927C41.1688 222.82 41.0903 222.73 40.9913 222.671C40.8923 222.611 40.7778 222.585 40.6635 222.595C40.326 222.647 40.0076 222.789 39.7411 223.007C39.3552 223.282 39.0214 223.627 38.7561 224.024C38.6464 224.161 38.5648 224.319 38.5164 224.49C38.902 223.993 39.3547 223.555 39.861 223.189C40.0995 223.01 40.3766 222.893 40.6687 222.847C40.7316 222.839 40.7954 222.852 40.8501 222.885C40.9048 222.918 40.9473 222.968 40.971 223.029C40.9887 223.103 40.9909 223.179 40.9774 223.254C40.9639 223.329 40.9351 223.4 40.8928 223.462C40.6784 223.795 40.3751 224.057 40.0193 224.218C39.6634 224.378 39.2701 224.43 38.8864 224.367C38.5085 224.293 38.1661 224.09 37.9152 223.79C37.6644 223.491 37.5199 223.113 37.5054 222.719C37.509 222.558 37.566 222.403 37.6669 222.28C37.7125 222.235 37.771 222.205 37.8338 222.197C37.8966 222.188 37.9605 222.2 38.0161 222.232C38.2529 222.399 38.4346 222.636 38.5372 222.911C38.8018 223.491 38.9641 224.114 39.0167 224.752Z" fill="white"/>
<path d="M78.0455 118.477C79.0874 123.231 79.4387 128.118 79.0878 132.977C78.8533 136.059 68.7274 221.311 68.7274 221.311H55.0577L58.8985 141.185L57.7833 141.437C57.7833 141.437 50.3152 175.617 49.7003 181.144C49.1791 186.115 42.4563 225.207 42.4563 225.207L29.5527 225.062L34.3525 174.605L39.0011 128.75L40.747 115.374L78.0455 118.477Z" fill="#263238"/>
<path d="M103.222 79.0537L89.9382 85.8008L82.4233 65.7038C81.7392 63.9838 80.6577 62.4605 79.2722 61.2655C77.8866 60.0704 76.2387 59.2394 74.4706 58.8443C74.0171 58.747 73.5572 58.6844 73.0947 58.657L78.4678 90.7609C79.5231 93.3876 80.9261 95.8525 82.6369 98.0859C83.7574 99.4718 85.9879 100.927 90.9232 99.338L106.797 88.428L103.222 79.0537Z" fill="#263238"/>
<path d="M49.1016 54.7456L55.6785 60.3584L59.0347 63.0338L60.7336 62.7876L61.6717 60.1551L62.938 55.0238L64.71 57.4263L69.5045 67.8761L74.888 118.424C74.888 118.424 65.5073 121.249 60.6398 121.586C55.7723 121.923 48.0332 120.564 48.0332 120.564V93.9659L45.2764 67.6246L48.6065 57.5333L49.1016 54.7456Z" fill="#F5F5F5"/>
<path d="M63 121.249C62.9934 121.203 62.9934 121.156 63 121.11C63 121.003 63 120.869 63 120.692C63 120.312 62.9687 119.777 62.9427 119.087C62.8958 117.68 62.8332 115.673 62.7498 113.201C62.5831 108.225 62.3173 101.355 61.9369 93.7732C61.5564 86.1914 61.1239 79.3265 60.7903 74.3611L60.3943 68.4754C60.3474 67.7905 60.3109 67.2554 60.29 66.8702C60.29 66.6936 60.29 66.5598 60.29 66.4528C60.29 66.3458 60.29 66.3137 60.29 66.3083C60.2956 66.3563 60.2956 66.4048 60.29 66.4528C60.29 66.5545 60.29 66.6936 60.3369 66.8648C60.3682 67.2447 60.4151 67.7798 60.4776 68.47C60.5975 69.8558 60.7591 71.8623 60.9415 74.3557C61.3115 79.3158 61.7597 86.1753 62.1401 93.7625C62.5205 101.35 62.7655 108.209 62.8958 113.196C62.9635 115.684 63.0104 117.696 63.0261 119.082C63.0261 119.772 63.0261 120.307 63.0261 120.687V121.104C63.0052 121.201 63 121.249 63 121.249Z" fill="#263238"/>
<path d="M45.844 59.9358L46.3131 59.679L36.9324 64.7247L40.4762 89.6373L42.4462 102.479L35.1084 132.935C35.1084 132.935 40.6221 136.632 43.3842 135.904C44.8591 135.514 46.1202 132.469 47.0948 130.072C49.0453 125.291 50.311 120.244 50.8523 115.09C51.3734 109.906 51.8946 103.319 51.535 98.8137C50.847 90.4292 49.7683 76.5978 49.6693 72.9593C49.5702 69.3209 48.7364 55.9175 48.7364 55.9175L45.844 59.9358Z" fill="#263238"/>
<path d="M63.1562 54.783L68.6074 57.8168L73.3916 58.6568L79.8434 73.1571L78.6135 99.3753L85.0549 131.741C85.0549 131.741 80.3333 133.459 78.4623 132.753C76.5914 132.046 74.0378 127.702 73.9388 125.074C73.8398 122.447 70.2022 96.9996 70.2022 96.9996L67.1065 67.0841C66.8138 64.2319 66.0378 61.4541 64.8135 58.8762L63.1562 54.783Z" fill="#263238"/>
<path d="M68.6074 58.657C68.6696 58.7203 68.7271 58.7882 68.7794 58.8603L69.2693 59.4703L71.0724 61.7925L71.1089 61.8406L71.062 61.8781L69.5299 63.0713V62.9429L71.3278 63.5261H71.3799V63.5903C71.3487 66.8702 71.307 71.0063 71.2601 75.4901C71.1819 80.9639 71.1089 85.9132 71.0568 89.5195C71.0255 91.3013 70.9943 92.7299 70.9734 93.768C70.9734 94.2549 70.9734 94.6455 70.9422 94.9237C70.9422 95.0468 70.9422 95.1431 70.9422 95.2233C70.9422 95.3036 70.9422 95.325 70.9422 95.325C70.9422 95.325 70.9422 95.2929 70.9422 95.2233C70.9422 95.1538 70.9422 95.0468 70.9422 94.9237C70.9422 94.6401 70.9422 94.2549 70.9422 93.768C70.9422 92.746 70.9422 91.296 70.9422 89.5142C70.9786 85.9132 71.0255 80.9532 71.0829 75.4848C71.1454 71.0063 71.2027 66.8702 71.2444 63.5849L71.3018 63.6652L69.5142 63.0659L69.3787 63.0231L69.4934 62.9375L71.0568 61.7604V61.8513L69.2953 59.497L68.8315 58.8657C68.7518 58.802 68.6769 58.7322 68.6074 58.657Z" fill="#455A64"/>
<path d="M51.1132 93.5966C51.0962 93.5666 51.0839 93.5341 51.0767 93.5003L50.9829 93.206L50.6233 92.0716C50.3106 91.0925 49.8416 89.6746 49.2422 87.9302L48.2521 85.0837C47.8608 83.9966 47.5251 82.8893 47.2462 81.7663C46.6411 79.1898 46.1696 76.5822 45.8339 73.9543C45.3493 70.3159 45.0314 66.8808 44.8438 63.9326V63.8898L44.875 63.8577L46.4385 62.3274V62.4558L44.9688 61.3107L44.9167 61.2626L44.9584 61.2037L47.6058 57.5171L48.3302 56.5219L48.5283 56.2704C48.5489 56.2403 48.5715 56.2117 48.596 56.1848C48.596 56.1848 48.596 56.2223 48.5439 56.2811L48.3667 56.5487L47.6684 57.5706L45.0626 61.3161V61.2091L46.5375 62.3434L46.6157 62.4023L46.5479 62.4665L44.9845 64.0128L45.0105 63.9379C45.219 66.8861 45.5317 70.3159 46.0528 73.949C46.3848 76.5738 46.8475 79.1794 47.4391 81.7556C47.7379 82.9363 48.0662 84.0385 48.424 85.0623L49.3934 87.9195C49.9771 89.6692 50.4357 91.0925 50.7119 92.0824C50.8578 92.58 50.9672 92.9652 51.035 93.2274C51.0662 93.3505 51.0923 93.4521 51.1079 93.527C51.1236 93.6019 51.1132 93.5966 51.1132 93.5966Z" fill="#455A64"/>
<path d="M75.2314 111.859L76.404 115.599L83.0434 114.973L80.9745 111.393L75.2314 111.859Z" fill="#263238"/>
<path d="M75.2363 111.858C75.2363 111.858 75.3666 111.858 75.6324 111.805L76.7946 111.687C77.8004 111.591 79.2492 111.452 80.9637 111.302H81.0159L81.0471 111.356L83.1317 114.924L83.2099 115.064H83.0535L82.7096 115.096L76.4141 115.69H76.3516V115.631C75.992 114.459 75.7158 113.49 75.5282 112.859C75.4448 112.554 75.3718 112.324 75.3145 112.115C75.2883 112.033 75.2674 111.949 75.252 111.864C75.2927 111.952 75.3276 112.043 75.3562 112.137L75.6116 112.891C75.8356 113.56 76.1327 114.496 76.5027 115.566L76.4193 115.508L82.7148 114.887L83.0535 114.855L82.9754 115.01L80.9168 111.43L81.0002 111.479C79.3221 111.607 77.8733 111.698 76.8832 111.762L75.6949 111.832C75.3979 111.858 75.2363 111.864 75.2363 111.858Z" fill="#455A64"/>
<g opacity="0.3">
<path d="M71.2815 63.6008L72.3759 65.1525C72.3759 65.1525 72.0684 88.6633 70.9062 94.5008L71.2815 63.6008Z" fill="black"/>
</g>
<path d="M49.1016 59.6736C49.2163 59.8578 49.3548 60.0252 49.5133 60.1712C49.7947 60.4762 50.2064 60.9096 50.7223 61.4446C51.7646 62.5148 53.1874 63.9541 54.7925 65.5379L55.8348 66.608L56.012 66.7846L56.0954 66.5492C56.6165 65.0617 57.1377 63.7133 57.5129 62.6004L57.3201 62.6432L58.675 63.8952C58.8311 64.0577 59.0061 64.1997 59.1962 64.318C59.0721 64.1204 58.9231 63.9405 58.7532 63.7829C58.4562 63.4672 58.0184 63.0124 57.4712 62.4559L57.3461 62.3275L57.2784 62.4987C56.8614 63.6063 56.3507 64.944 55.7879 66.4208L56.0485 66.3619L55.0062 65.2918C53.401 63.6866 51.9366 62.2847 50.863 61.2681C50.3419 60.733 49.8937 60.3478 49.5862 60.0749C49.4422 59.9202 49.2793 59.7853 49.1016 59.6736Z" fill="#263238"/>
<path d="M61.3945 63.8203C61.775 63.1358 62.0993 62.4199 62.3639 61.6801L62.1502 61.7175C62.9285 62.7592 63.5699 63.9015 64.0576 65.1152C64.1462 65.3239 64.2191 65.5325 64.2921 65.7305L64.4693 66.2228L64.6048 65.7198C64.9519 64.4089 65.1426 63.0596 65.1728 61.7015C65.2125 61.1498 65.1774 60.5952 65.0686 60.0535C65.0025 60.5968 64.9642 61.1433 64.954 61.6908C64.8581 63.0228 64.6347 64.3418 64.2869 65.6288H64.5996C64.5266 65.4255 64.4485 65.2115 64.3599 64.9975C63.8623 63.7546 63.1841 62.5964 62.3482 61.5623L62.2075 61.3911L62.1294 61.5944C61.8265 62.3149 61.5807 63.0593 61.3945 63.8203Z" fill="#263238"/>
<path d="M62.5781 65.1793L61.2805 67.143H59.3314L58.2891 65.1793L59.2845 63.023L60.9834 62.7769L62.5781 65.1793Z" fill="#FF9519"/>
<path d="M61.3541 66.1426L67.2326 111.714L62.2088 118.707L57.1797 111.291L59.405 66.1426H61.3541Z" fill="#FF9519"/>
<path d="M72.7983 115.689C72.7909 116.026 72.8118 116.363 72.8609 116.695C72.939 117.402 73.0381 118.301 73.1579 119.419C73.2778 120.537 73.4602 121.955 73.6426 123.459C73.872 125.114 74.2685 126.74 74.8256 128.312C75.4353 129.954 76.2275 131.57 77.5773 132.426C78.2146 132.789 78.9334 132.973 79.6618 132.961C80.2837 132.966 80.9048 132.912 81.5171 132.801C82.4009 132.651 83.2721 132.431 84.1229 132.143C84.4408 132.054 84.7484 131.931 85.0401 131.774C84.7176 131.836 84.3991 131.918 84.0864 132.02C83.2286 132.249 82.3585 132.428 81.4806 132.555C80.8806 132.648 80.2738 132.687 79.667 132.672C78.9841 132.682 78.3105 132.509 77.7127 132.169C76.4881 131.383 75.7011 129.815 75.107 128.199C73.8927 124.909 73.7312 121.677 73.3612 119.397C73.1996 118.295 73.0641 117.386 72.9599 116.685C72.9328 116.349 72.8787 116.016 72.7983 115.689Z" fill="#455A64"/>
<path d="M51.2018 117.027C51.2001 117.129 51.1843 117.23 51.1549 117.327L50.9516 118.183C50.7744 118.921 50.493 119.986 50.1282 121.297C49.1989 124.717 48.073 128.078 46.7564 131.362C46.3702 132.299 45.9263 133.211 45.4275 134.09C45.1884 134.514 44.9109 134.913 44.5988 135.284L44.3539 135.54C44.2601 135.621 44.1611 135.69 44.0673 135.765C43.9639 135.834 43.8539 135.891 43.739 135.936C43.6295 135.974 43.5149 135.984 43.4054 136.011C42.5638 136.139 41.7051 136.079 40.8883 135.835C40.1753 135.644 39.4783 135.395 38.8037 135.091C37.8417 134.66 36.9101 134.161 36.0155 133.598C35.6976 133.4 35.4527 133.234 35.2964 133.122C35.2096 133.069 35.1291 133.006 35.0566 132.935C35.1506 132.969 35.2399 133.016 35.3224 133.074L36.0677 133.502C36.9777 134.026 37.9155 134.497 38.8767 134.914C39.5404 135.196 40.2231 135.429 40.9195 135.61C41.7027 135.835 42.5234 135.886 43.3272 135.76C43.7453 135.689 44.1196 135.453 44.3695 135.102C44.6693 134.742 44.9362 134.355 45.1669 133.946C45.6552 133.083 46.0904 132.189 46.4698 131.271C47.7816 127.996 48.9296 124.654 49.9093 121.259C50.2846 119.986 50.592 118.943 50.8161 118.172C50.9169 117.837 51.0003 117.559 51.0663 117.337C51.1002 117.229 51.1456 117.125 51.2018 117.027Z" fill="#455A64"/>
<path d="M40.8929 62.718C40.8929 62.718 32.8307 64.5747 31.8041 71.6911C30.6211 79.8829 29.584 98.6316 29.584 98.6316L43.4048 79.6314" fill="#263238"/>
<path d="M38.3242 64.3501C38.3242 64.3501 38.6786 64.6765 39.2102 65.2383C40.6003 66.7097 41.564 68.5495 41.9931 70.5515C42.1547 71.3166 42.1911 71.8036 42.2224 71.8036C42.2409 71.6884 42.2409 71.5709 42.2224 71.4558C42.2073 71.1432 42.1707 70.8321 42.113 70.5247C41.747 68.4737 40.7626 66.5927 39.2988 65.1473C39.0793 64.9284 38.846 64.7247 38.6004 64.5374C38.5167 64.4628 38.4239 64.3998 38.3242 64.3501Z" fill="#263238"/>
<path d="M79.5835 68.5129C79.4949 68.5129 79.2134 75.1317 78.9633 83.3021C78.7131 91.4726 78.5776 98.0967 78.6714 98.0967C78.7653 98.0967 79.0363 91.4833 79.2916 83.3128C79.547 75.1424 79.6721 68.5183 79.5835 68.5129Z" fill="#455A64"/>
<path d="M36.948 64.7246C36.948 64.7246 33.1958 67.325 32.7788 69.4278C32.4245 71.1293 29.4591 96.7162 29.0787 99.8944C28.6983 103.073 27.2234 109.697 31.0069 112.335C33.5501 114.106 41.5862 115.882 41.5862 115.882C40.7941 112.078 42.4149 109.296 46.3704 107.187L40.9973 101.981L43.405 79.6315L36.948 64.7246Z" fill="#263238"/>
<path d="M42.4615 102.468C42.3677 102.468 41.0544 95.5122 39.5275 86.903C38.0005 78.2938 36.8331 71.2791 36.9217 71.2791C37.0103 71.2791 38.3288 78.2349 39.861 86.8441C41.3932 95.4533 42.5501 102.447 42.4615 102.468Z" fill="#455A64"/>
<path d="M41.4245 97.342C41.4511 97.7846 41.4389 98.2287 41.388 98.669C41.3359 99.4984 41.2421 100.659 41.1274 101.997L41.091 101.885L42.1333 102.88C43.3267 104.041 44.395 105.106 45.1611 105.887C45.5941 106.287 45.9949 106.721 46.3598 107.187C45.888 106.836 45.4436 106.448 45.0308 106.026C44.2283 105.288 43.1391 104.244 41.9456 103.083L40.9034 102.083L40.8564 102.035V101.97C40.9867 100.638 41.1066 99.4769 41.2056 98.6529C41.239 98.21 41.3123 97.7711 41.4245 97.342Z" fill="#455A64"/>
<path d="M35.6289 105.283C36.1795 104.343 36.9781 103.582 37.9324 103.089C38.8415 102.513 39.8924 102.218 40.9602 102.238C39.9588 102.484 38.987 102.842 38.0627 103.308C37.1839 103.873 36.3678 104.536 35.6289 105.283Z" fill="#455A64"/>
<path d="M53.8954 83.3287C53.8669 83.8214 53.7438 84.3034 53.5333 84.7471C53.3227 85.1907 53.0288 85.5873 52.6685 85.914C52.3082 86.2407 51.8886 86.491 51.4337 86.6506C50.9789 86.8103 50.4978 86.876 50.0181 86.8441C49.5164 86.8175 49.0255 86.6839 48.5769 86.4517C48.1283 86.2196 47.7317 85.894 47.4124 85.4958C46.4065 84.2223 44.5877 82.4031 42.326 82.2854C38.8238 82.0606 36.2025 84.7841 35.9523 88.8613C35.7022 92.9385 37.9796 95.9723 41.4869 96.1971C43.7487 96.3415 45.7707 94.7684 46.9225 93.6341C47.2841 93.2814 47.713 93.0095 48.1821 92.8355C48.6512 92.6614 49.1504 92.589 49.6481 92.6228C50.1279 92.6521 50.5974 92.7785 51.0295 92.9947C51.4616 93.2108 51.8479 93.5126 52.1661 93.8825C52.4843 94.2524 52.7281 94.6833 52.8836 95.1503C53.039 95.6173 53.1031 96.1112 53.072 96.6037L51.5086 122.041L106.641 124.449L107.834 97.6952C107.863 97.2026 107.986 96.7206 108.196 96.2769C108.407 95.8332 108.701 95.4367 109.061 95.11C109.421 94.7833 109.841 94.533 110.296 94.3734C110.751 94.2137 111.232 94.148 111.712 94.1799C112.213 94.2065 112.704 94.3401 113.153 94.5723C113.601 94.8044 113.998 95.13 114.317 95.5282C115.323 96.8017 117.142 98.6209 119.404 98.7654C122.906 98.9901 125.532 96.2666 125.777 92.1894C126.022 88.1122 123.75 85.0784 120.248 84.8537C117.986 84.7092 115.959 86.2823 114.807 87.4166C114.446 87.7698 114.017 88.0421 113.548 88.2162C113.079 88.3903 112.579 88.4624 112.082 88.4279C110.065 88.2995 108.189 86.7318 108.314 84.6825L109.252 61.9743L54.6563 59.5879L53.8954 83.3287Z" fill="#FF9519"/>
<path d="M47.1728 109.039C47.1728 109.039 48.7987 107.744 50.0078 107.69C51.2169 107.637 52.7907 108.124 53.1034 107.963C53.4161 107.803 54.1457 107.091 54.6252 107.685C55.1046 108.279 55.6675 110.441 53.1555 111.035H51.4253C51.5139 111.888 51.7265 112.723 52.0559 113.512C52.4728 114.213 58.3514 121.811 58.3514 121.811C58.3514 121.811 59.0862 122.565 58.7214 123.32C58.3566 124.074 56.7775 123.641 56.7775 123.641C56.4604 123.928 56.0773 124.128 55.6644 124.221C55.2515 124.315 54.8221 124.299 54.4167 124.176C53.7921 123.96 53.194 123.671 52.6344 123.314C52.2276 123.635 51.7294 123.808 51.2169 123.808C50.7043 123.808 50.2061 123.635 49.7993 123.314C48.3297 122.185 42.4668 114.753 42.4668 114.753L45.1768 108.809L47.1728 109.039Z" fill="#FFBF9D"/>
<path d="M45.5313 107.664L47.199 109.028C44.7236 110.879 43.4363 113.148 43.452 115.871L41.3205 114.357C41.3205 114.357 40.9348 108.771 45.5313 107.664Z" fill="#F5F5F5"/>
<path d="M52.2383 118.707C52.306 118.654 53.1868 119.863 54.4427 121.185C55.6987 122.506 56.8765 123.421 56.8192 123.496C56.5243 123.359 56.2504 123.179 56.0062 122.961C55.3836 122.482 54.7966 121.956 54.2499 121.388C53.7068 120.816 53.2052 120.205 52.749 119.558C52.5366 119.304 52.3642 119.016 52.2383 118.707Z" fill="#FF9A6C"/>
<path d="M49.3252 120.216C49.3929 120.157 50.0444 120.965 51.0085 121.763C51.6432 122.2 52.2031 122.743 52.6658 123.368C52.024 122.951 51.4142 122.484 50.8417 121.971C50.2173 121.507 49.6996 120.908 49.3252 120.216Z" fill="#FF9A6C"/>
<path d="M106.251 73.5423C106.251 73.5423 106.511 71.7124 110.258 72.3331C112.609 72.7237 111.379 74.286 111.379 74.286C111.554 74.4418 111.69 74.639 111.775 74.8607C111.86 75.0824 111.892 75.3219 111.866 75.5588C111.841 75.7956 111.761 76.0226 111.631 76.2203C111.502 76.4181 111.327 76.5805 111.123 76.6938L111.368 76.8811C111.368 76.8811 113.239 77.8442 111.624 79.5564C111.787 79.8614 111.855 80.2111 111.816 80.5572C111.778 80.9032 111.636 81.2285 111.41 81.488C110.607 82.3174 108.59 81.2151 108.59 81.2151C108.59 81.2151 105.74 81.167 105.578 80.3911C105.528 80.1556 105.557 79.9097 105.66 79.6931C105.763 79.4766 105.935 79.3021 106.146 79.198C106.802 79.0729 107.466 78.9907 108.132 78.9518C108.132 78.9518 105.641 78.9251 105.417 78.4168C105.015 77.5232 105.12 76.6082 108.132 76.7259C108.132 76.7259 105.891 76.6778 105.636 76.1909C105.38 75.704 105.693 74.9656 106.501 74.5857C106.977 74.3519 107.5 74.24 108.028 74.2593C108.028 74.2593 105.933 74.698 106.251 73.5423Z" fill="#FFBF9D"/>
<path d="M111.264 74.2968C110.591 74.3784 109.913 74.4035 109.236 74.3717C108.561 74.4226 107.884 74.4226 107.209 74.3717C107.859 74.1417 108.545 74.04 109.231 74.0721C109.916 74.0174 110.605 74.0936 111.264 74.2968Z" fill="#FF9A6C"/>
<path d="M111.165 76.7849C110.529 76.8375 109.889 76.8375 109.252 76.7849C108.615 76.823 107.975 76.8087 107.34 76.7421C107.958 76.5346 108.61 76.4545 109.258 76.5067C109.905 76.4647 110.554 76.5594 111.165 76.7849Z" fill="#FF9A6C"/>
<path d="M111.67 79.6849C111.639 79.7598 110.789 79.3799 109.679 79.198C108.569 79.0161 107.652 79.0856 107.642 79C108.318 78.7883 109.036 78.7606 109.726 78.9198C110.429 78.9933 111.1 79.2574 111.67 79.6849Z" fill="#FF9A6C"/>
</svg>
