<svg width="243" height="243" viewBox="0 0 243 243" fill="none" xmlns="http://www.w3.org/2000/svg">
<path d="M121.764 242.77C173.592 242.77 215.606 239.478 215.606 235.417C215.606 231.356 173.592 228.064 121.764 228.064C69.9357 228.064 27.9209 231.356 27.9209 235.417C27.9209 239.478 69.9357 242.77 121.764 242.77Z" fill="#F5F5F5"/>
<path d="M68.2795 79.8806L67.3057 90.7278L67.7862 90.8055L68.76 79.9583L68.2795 79.8806Z" fill="#FF9519"/>
<path d="M66.9475 94.7151L66.584 98.7585L67.0645 98.8364L67.428 94.7929L66.9475 94.7151Z" fill="#FF9519"/>
<path d="M157.977 190.37L67.2411 175.677C65.7073 175.422 64.311 174.362 63.357 172.73C62.4031 171.098 61.9689 169.026 62.1494 166.966L73.7219 38.2819C73.912 36.2234 74.7012 34.3495 75.9172 33.0692C77.1333 31.7889 78.6773 31.2063 80.2123 31.4485L170.948 46.1481C172.482 46.4016 173.879 47.4604 174.833 49.0928C175.788 50.7252 176.221 52.7983 176.039 54.8587L164.467 183.536C164.278 185.596 163.489 187.471 162.273 188.751C161.057 190.032 159.512 190.614 157.977 190.37Z" fill="#FF9519"/>
<path opacity="0.3" d="M93.3765 49.6605C95.6175 46.0354 95.2444 40.6586 92.5432 37.651C89.8421 34.6435 85.8357 35.1442 83.5947 38.7694C81.3538 42.3945 81.7268 47.7713 84.428 50.7788C87.1292 53.7863 91.1355 53.2857 93.3765 49.6605Z" fill="black"/>
<path opacity="0.3" d="M160.653 64.4332C164.162 64.4332 167.008 60.6147 167.008 55.9045C167.008 51.1942 164.162 47.3757 160.653 47.3757C157.143 47.3757 154.298 51.1942 154.298 55.9045C154.298 60.6147 157.143 64.4332 160.653 64.4332Z" fill="black"/>
<path d="M171.914 77.6101L162.42 183.21C162.3 184.54 161.792 185.753 161.006 186.58C160.22 187.407 159.222 187.782 158.231 187.621L67.495 172.928C66.5035 172.768 65.6001 172.085 64.9837 171.031C64.3672 169.976 64.088 168.636 64.2076 167.306L73.7016 61.7063L171.914 77.6101Z" fill="white"/>
<path d="M88.3193 46.0701C87.2163 45.8881 86.212 45.127 85.5262 43.9534C84.8404 42.7798 84.529 41.2894 84.6603 39.8084L85.8025 27.0965C85.9428 25.6205 86.5118 24.2785 87.3855 23.3625C88.2593 22.4466 89.3672 22.0307 90.4683 22.2053C91.5707 22.3889 92.5743 23.1505 93.2598 24.3236C93.9454 25.4968 94.2572 26.9864 94.1273 28.467L92.9851 41.1724C92.8447 42.6489 92.2759 43.9914 91.4023 44.9085C90.5288 45.8255 89.4209 46.2429 88.3193 46.0701Z" fill="#263238"/>
<path d="M160.484 57.7557C159.381 57.572 158.378 56.8105 157.692 55.6373C157.007 54.4641 156.695 52.9746 156.825 51.4939L157.967 38.7885C158.104 37.309 158.671 35.9621 159.545 35.0421C160.42 34.1221 161.529 33.7035 162.633 33.8779C163.736 34.0599 164.74 34.821 165.426 35.9946C166.112 37.1682 166.423 38.6586 166.292 40.1396L165.15 52.845C165.013 54.3246 164.445 55.6714 163.571 56.5914C162.697 57.5115 161.587 57.93 160.484 57.7557Z" fill="#263238"/>
<path d="M111.556 166.59C107.439 166.597 103.341 165.841 99.3789 164.342C94.2582 162.393 90.5362 159.529 88.0097 155.566C81.6887 145.648 82.739 127.207 86.3883 114.261C90.1538 100.9 97.5639 90.669 106.76 86.1935C113.647 82.8353 121.527 82.0428 130.181 83.8356C139.512 85.7843 147.034 90.2467 152.537 97.1516C152.642 97.2846 152.728 97.4444 152.788 97.6217C152.847 97.799 152.881 97.9903 152.885 98.1848C152.89 98.3794 152.866 98.5732 152.815 98.7554C152.764 98.9375 152.687 99.1044 152.587 99.2464C152.488 99.3884 152.369 99.5028 152.237 99.5831C152.105 99.6634 151.962 99.708 151.817 99.7143C151.673 99.7207 151.528 99.6886 151.392 99.6201C151.257 99.5515 151.132 99.4477 151.027 99.3146C145.857 92.819 138.728 88.6034 129.842 86.7651C121.561 85.0503 114.049 85.7908 107.515 88.9736C98.9384 93.1568 91.993 102.751 88.4502 115.313C85.5897 125.453 83.5569 144.03 89.6844 153.637C91.9204 157.145 95.2891 159.711 99.979 161.49C107.908 164.433 116.294 164.325 124.179 161.179C132.102 158.074 139.585 152.085 144.188 145.141C147.576 140.068 149.449 133.995 149.512 128.051C149.575 122.523 147.488 116.314 144.076 111.851C141.172 108.051 137.784 106.057 134.546 106.239C134.401 106.247 134.257 106.217 134.121 106.15C133.984 106.083 133.859 105.981 133.753 105.849C133.537 105.583 133.409 105.212 133.397 104.82C133.385 104.427 133.489 104.044 133.688 103.754C133.886 103.465 134.162 103.293 134.454 103.277C138.326 103.069 142.271 105.356 145.615 109.727C149.487 114.82 151.786 121.685 151.719 128.09C151.646 134.748 149.555 141.504 145.833 147.109C140.964 154.449 133.104 160.75 124.799 163.998C120.498 165.699 116.04 166.571 111.556 166.59Z" fill="#FF9519"/>
<mask id="mask0_651_23369" style="mask-type:luminance" maskUnits="userSpaceOnUse" x="62" y="31" width="115" height="160">
<path d="M157.977 190.37L67.2411 175.677C65.7073 175.422 64.311 174.362 63.357 172.73C62.4031 171.098 61.9689 169.026 62.1494 166.966L73.7219 38.2819C73.912 36.2234 74.7012 34.3495 75.9172 33.0692C77.1333 31.7889 78.6773 31.2063 80.2123 31.4485L170.948 46.1481C172.482 46.4016 173.879 47.4604 174.833 49.0928C175.788 50.7252 176.221 52.7983 176.039 54.8587L164.467 183.536C164.278 185.596 163.489 187.471 162.273 188.751C161.057 190.032 159.512 190.614 157.977 190.37Z" fill="white"/>
</mask>
<g mask="url(#mask0_651_23369)">
<path opacity="0.1" d="M156.709 69.1619L154.245 66.2779L152.353 69.779L152.493 74.9235L150.238 77.4179C149.337 78.4312 148.442 79.438 147.537 80.4318C146.632 81.4256 145.741 82.426 144.841 83.3873C144.391 83.881 143.941 84.3487 143.491 84.8098C143.041 85.271 142.586 85.7062 142.189 86.0505L141.898 86.2843L141.54 86.5312C141.298 86.6871 141.056 86.8689 140.814 87.0119C140.33 87.3171 139.812 87.6224 139.294 87.9017C138.264 88.4539 137.208 88.9735 136.134 89.4412C135.229 89.8439 134.314 90.2012 133.39 90.5455L133.249 87.2132C131.501 87.754 129.802 88.549 128.182 89.5841C127.79 89.4802 127.378 89.3827 126.952 89.2918C126.862 89.1566 126.738 89.0692 126.604 89.045C126.396 89.006 126.202 88.98 126.067 88.967C125.961 88.9577 125.855 88.9892 125.762 89.058L125.22 88.9735C124.798 88.2838 124.53 87.4486 124.445 86.5637C125.59 87.2448 126.845 87.5258 128.092 87.3804C129.34 87.235 130.539 86.668 131.58 85.7322C132.413 85.5259 133.189 85.0191 133.824 84.2661C134.459 83.5132 134.93 82.5425 135.185 81.4581C135.476 80.3418 135.59 79.1563 135.52 77.9773C135.45 76.7984 135.198 75.6521 134.779 74.6117C135.362 73.2599 135.665 71.7238 135.658 70.162C135.65 68.6003 135.332 67.0694 134.737 65.7275C134.142 64.3856 133.29 63.2813 132.271 62.5285C131.251 61.7757 130.1 61.4017 128.937 61.4452C128.663 61.4531 128.389 61.4878 128.119 61.5491C127.343 60.2643 126.241 59.4096 125.024 59.1495C123.807 58.8893 122.562 59.2419 121.527 60.1396C121.58 60.0551 121.624 59.9772 121.677 59.8992C122.645 58.4702 124.179 57.8141 125.955 58.061C125.971 58.0627 125.986 58.0605 126.001 58.0542C126.015 58.048 126.029 58.038 126.041 58.0247C126.052 58.0114 126.062 57.9951 126.069 57.9768C126.076 57.9585 126.08 57.9386 126.081 57.9181C126.083 57.8976 126.081 57.8769 126.076 57.8573C126.072 57.8377 126.064 57.8196 126.054 57.8039C126.044 57.7882 126.032 57.7753 126.019 57.7659C126.005 57.7565 125.99 57.7508 125.975 57.7492C124.126 57.4959 122.538 58.1844 121.503 59.6979C121.319 59.9812 121.157 60.288 121.019 60.6137C120.898 60.6137 120.777 60.6137 120.651 60.6137C118.835 60.68 117.112 61.7114 115.863 63.4812C114.613 65.251 113.938 67.6144 113.986 70.0518C114.008 71.1681 114.183 72.2694 114.504 73.2996C113.898 74.5761 113.593 76.0677 113.628 77.5802C113.647 78.5835 113.814 79.5718 114.118 80.4886C114.422 81.4054 114.858 82.2328 115.401 82.9235C115.943 83.6142 116.582 84.1547 117.28 84.514C117.978 84.8733 118.722 85.0445 119.47 85.0177C119.854 85.0029 120.237 84.9376 120.612 84.8228C120.588 86.4922 120.06 87.9407 118.226 88.3954L118.274 88.1681L117.306 87.59C117.257 87.6357 117.21 87.6856 117.166 87.7394C115.937 85.7022 114.537 83.8625 112.994 82.2571L112.539 83.3938C111.614 80.6717 110.816 77.8754 110.148 75.021C110.066 74.6637 109.964 74.209 109.95 74.0986C109.935 73.9882 109.95 73.8713 109.911 73.7543V73.3451C109.92 72.6886 109.981 72.0352 110.095 71.3964C110.357 69.9294 110.709 68.4934 111.145 67.1028C111.576 65.6543 112.065 64.2058 112.597 62.7833C113.129 61.3607 113.642 60.0291 114.185 58.6975C114.39 58.6016 114.587 58.473 114.77 58.3143L117.408 55.9434L118.729 52.5462L115.825 50.5391L113.71 54.274C113.71 54.274 112.355 55.9434 112.258 57.7427C110.827 60.1419 109.553 62.702 108.449 65.3945C107.819 66.9386 107.299 68.5588 106.896 70.2337C106.672 71.1643 106.524 72.1248 106.455 73.0983C106.455 73.3711 106.455 73.6374 106.455 73.9167C106.458 74.2077 106.473 74.4982 106.499 74.7871C106.553 75.2773 106.627 75.763 106.721 76.2421C107.307 79.5319 108.097 82.7499 109.083 85.8621C109.432 86.9794 109.795 88.0706 110.172 89.1554L108.623 93.0528C108.623 93.0528 109.698 98.1453 110.951 100.666C111.048 104.953 111.329 110.838 111.919 118.925H111.871C111.716 118.925 111.59 119.009 111.595 119.139L111.648 121.016C111.648 121.14 111.765 121.237 111.905 121.25C111.329 126.388 108.565 151.65 108.135 165.7C107.713 179.568 116.818 200.613 119.567 206.622L118.947 207.005L120.109 209.175L121.212 208.557L123.337 213.559L122.95 213.975C122.891 214.039 122.839 214.113 122.795 214.196C122.499 213.823 122.126 213.581 121.725 213.501C121.636 213.496 121.546 213.517 121.463 213.562C121.379 213.607 121.304 213.674 121.241 213.76C121.057 213.994 121.082 214.189 121.135 214.313C121.256 214.605 121.706 214.761 122.161 214.819C121.638 215.027 121.057 215.339 120.941 215.709C120.919 215.77 120.911 215.839 120.916 215.906C120.921 215.974 120.94 216.038 120.97 216.092C121.013 216.186 121.072 216.264 121.142 216.321C121.211 216.377 121.29 216.41 121.372 216.417C121.701 216.378 122.01 216.19 122.248 215.885L122.393 215.716C121.639 218.158 120.594 220.419 119.3 222.413C118.865 223.127 119.954 224.693 121.183 223.374C122.413 222.055 124.983 219.087 125.893 218.106C127.374 216.521 127.993 216.001 129.184 214.774C129.252 214.701 129.307 214.61 129.347 214.506C129.387 214.403 129.41 214.289 129.415 214.173C129.42 214.056 129.407 213.94 129.376 213.831C129.346 213.722 129.298 213.622 129.237 213.54L126.72 210.376C126.673 210.318 126.613 210.282 126.55 210.273C126.486 210.263 126.422 210.281 126.367 210.324L125.108 207.388L124.755 206.57L125.723 206.024L125.142 203.179L124.523 203.562C123.071 197.593 116.634 171.468 117.626 164.329C117.674 163.978 117.727 163.621 117.776 163.264C118.163 160.471 118.574 157.47 118.991 154.41C119.468 157.578 120.115 160.695 120.927 163.738C122.471 169.324 140.611 179.737 145.427 182.419L144.967 183.504L146.985 184.076L147.469 182.978L150.857 184.926L150.712 185.427C150.685 185.518 150.667 185.614 150.659 185.712C150.236 185.651 149.809 185.747 149.425 185.992C149.259 186.117 149.138 186.325 149.086 186.57C149.018 186.895 149.115 187.025 149.212 187.083C149.609 187.13 150.006 186.99 150.335 186.687C149.947 187.245 149.546 187.934 149.589 188.311C149.596 188.375 149.617 188.435 149.648 188.483C149.68 188.531 149.722 188.566 149.768 188.584C149.847 188.621 149.931 188.635 150.015 188.625C150.098 188.615 150.179 188.581 150.252 188.525C150.525 188.258 150.727 187.88 150.828 187.447C150.852 187.369 150.872 187.284 150.891 187.206C151.167 188.869 151.167 191.455 150.77 194.754C150.664 195.644 152.261 196.021 152.842 194.059C153.422 192.098 154.555 187.83 154.986 186.375C155.683 184.011 156.036 183.127 156.617 181.269C156.649 181.166 156.663 181.053 156.657 180.941C156.651 180.829 156.625 180.721 156.582 180.624C156.54 180.528 156.481 180.446 156.41 180.385C156.34 180.325 156.26 180.287 156.176 180.276L152.663 179.75C152.585 179.74 152.507 179.764 152.44 179.817C152.373 179.871 152.32 179.952 152.29 180.048L152.246 180.198L150.112 178.964L149.463 178.587L150.141 177.119L148.437 175.229L148.161 175.878C144.333 171.981 134.856 162.731 131.526 159.607C130.558 158.717 129.765 157.619 129.629 156.08C128.361 141.588 127.814 126.408 127.693 122.549H127.858C128.037 122.549 128.172 122.426 128.124 122.276L127.814 120.373C127.788 120.317 127.752 120.271 127.708 120.241C127.665 120.21 127.616 120.195 127.567 120.198C127.617 114.833 128.105 109.492 129.024 104.271C130.714 103.315 132.334 102.152 133.864 100.796L133.661 95.9693L133.966 95.8589C135.127 95.4107 136.279 94.8975 137.431 94.3519C138.583 93.8062 139.711 93.1762 140.819 92.4746L141.661 91.9355L142.489 91.3444C142.77 91.156 143.041 90.9157 143.312 90.6949L143.723 90.3701L144.173 89.9544C144.693 89.4463 145.192 88.9021 145.669 88.324C146.124 87.7783 146.574 87.2327 147.005 86.6806C147.881 85.5763 148.718 84.4461 149.546 83.3029C150.373 82.1596 151.177 81.0034 151.966 79.8407C152.755 78.678 153.553 77.4893 154.318 76.2681C154.893 75.3334 155.279 74.2144 155.436 73.0203L156.709 69.1619ZM121.28 214.196C121.28 214.196 121.236 214.092 121.357 213.929L121.396 213.884C121.487 213.789 121.6 213.74 121.716 213.747C122.08 213.828 122.417 214.054 122.684 214.397C122.66 214.462 122.639 214.53 122.621 214.598C122.103 214.624 121.406 214.475 121.28 214.196ZM121.377 216.177C121.322 216.173 121.269 216.15 121.223 216.112C121.176 216.073 121.138 216.02 121.111 215.956C121.101 215.933 121.096 215.907 121.096 215.881C121.096 215.855 121.101 215.829 121.111 215.807C121.138 215.737 121.176 215.675 121.222 215.625C121.64 215.292 122.096 215.053 122.572 214.917C122.572 215.021 122.534 215.131 122.509 215.241C122.045 215.852 121.643 216.196 121.386 216.177H121.377ZM149.352 186.895C149.352 186.895 149.275 186.843 149.318 186.635V186.563C149.365 186.415 149.446 186.292 149.55 186.213C149.906 185.994 150.299 185.911 150.688 185.972C150.683 186.039 150.683 186.107 150.688 186.174C150.238 186.609 149.55 187.018 149.352 186.895ZM150.223 188.356C150.173 188.389 150.117 188.405 150.061 188.405C150.005 188.405 149.95 188.389 149.899 188.356C149.88 188.351 149.862 188.337 149.849 188.317C149.836 188.297 149.828 188.272 149.826 188.246C149.824 188.17 149.834 188.095 149.855 188.025C150.105 187.436 150.42 186.902 150.789 186.44L150.862 186.745C150.792 187.368 150.56 187.939 150.209 188.356H150.223ZM134.977 81.3542C134.761 82.2687 134.385 83.1001 133.88 83.7784C133.374 84.4567 132.755 84.962 132.073 85.2515C132.988 84.2867 133.721 83.0482 134.215 81.635C134.709 80.2218 134.951 78.6731 134.919 77.1126C134.906 76.4808 134.848 75.8522 134.745 75.2353C135.4 77.1617 135.478 79.3527 134.963 81.3542H134.977Z" fill="black"/>
</g>
<path d="M105.051 88.8698C103.818 85.8086 102.735 82.6429 101.808 79.3927C100.847 76.1336 100.091 72.7723 99.5481 69.344C99.4596 68.8453 99.3934 68.3399 99.3497 67.8305C99.328 67.5305 99.3183 67.2291 99.3207 66.9276C99.3207 66.6418 99.3449 66.369 99.3594 66.0897C99.4411 65.0883 99.6034 64.1017 99.8434 63.1472C100.297 61.4317 100.869 59.7768 101.552 58.204C102.86 55.2069 104.373 52.3799 106.072 49.7598L107.684 51.3642C107.074 52.7737 106.46 54.2352 105.893 55.6902C105.327 57.1453 104.824 58.5808 104.34 60.0683C103.862 61.4869 103.472 62.9554 103.173 64.4593C103.042 65.1174 102.962 65.7924 102.936 66.4729V66.8952C102.936 67.0121 102.936 67.1485 102.97 67.2524C103.004 67.3563 103.076 67.837 103.154 68.2138C103.802 71.3455 104.596 74.4196 105.53 77.418C106.014 78.925 106.498 80.419 107.016 81.913C107.534 83.407 108.081 84.8945 108.609 86.291L105.051 88.8698Z" fill="#FFB573"/>
<path d="M111.673 87.025C111.958 82.2507 105.865 75.7551 105.865 75.7551L101.17 86.7652C101.17 86.7652 102.375 93.1373 103.779 95.3978C105.182 97.6583 111.474 90.3118 111.673 87.025Z" fill="#FF9519"/>
<g opacity="0.4">
<path d="M111.673 87.025C111.958 82.2507 105.865 75.7551 105.865 75.7551L101.17 86.7652C101.17 86.7652 102.375 93.1373 103.779 95.3978C105.182 97.6583 111.474 90.3118 111.673 87.025Z" fill="white"/>
</g>
<path d="M108.255 51.1238L111.028 48.7789L107.243 46.8887C107.243 46.8887 105.307 49.1297 105.69 51.2862L106.062 51.4551C106.423 51.6227 106.807 51.68 107.187 51.6227C107.566 51.5653 107.931 51.3949 108.255 51.1238Z" fill="#FFB573"/>
<path d="M112.462 45.323L109.5 43.134L107.244 46.9145L111.029 48.7787L112.462 45.323Z" fill="#FFB573"/>
<path d="M117.988 210.701L114.271 212.63L110.283 202.607L113.618 199.84L117.988 210.701Z" fill="#FFB573"/>
<path d="M113.536 212.156L117.083 208.551C117.144 208.487 117.219 208.455 117.296 208.461C117.373 208.467 117.445 208.511 117.5 208.583L120.031 211.942C120.092 212.029 120.139 212.133 120.169 212.246C120.198 212.36 120.209 212.48 120.202 212.6C120.194 212.719 120.167 212.836 120.124 212.94C120.08 213.045 120.02 213.137 119.949 213.208C118.695 214.436 118.047 214.949 116.488 216.534C115.52 217.508 112.844 220.431 111.517 221.796C110.191 223.16 109.126 221.458 109.581 220.737C111.653 217.489 112.844 214.741 113.144 212.942C113.205 212.628 113.343 212.351 113.536 212.156Z" fill="#263238"/>
<g opacity="0.2">
<path d="M110.283 202.607L112.229 207.499L115.873 205.44L113.623 199.84L110.283 202.607Z" fill="black"/>
</g>
<path d="M128.576 72.9424C129.26 67.2873 126.398 61.9588 122.185 61.0409C117.971 60.1229 114.001 63.9631 113.317 69.6182C112.633 75.2733 115.494 80.6018 119.708 81.5198C123.921 82.4377 127.892 78.5975 128.576 72.9424Z" fill="#263238"/>
<path d="M124.948 80.0812C124.916 80.0812 124.885 80.064 124.863 80.0336C124.84 80.0031 124.827 79.9618 124.827 79.9188C124.827 79.8757 124.84 79.8344 124.863 79.8039C124.885 79.7735 124.916 79.7564 124.948 79.7564C125.786 79.5996 126.574 79.1341 127.226 78.4116C127.878 77.6892 128.368 76.738 128.641 75.6641C129.377 73.0659 129.125 69.8961 127.997 68.0903C127.975 68.0599 127.963 68.0191 127.963 67.9766C127.963 67.9341 127.975 67.8933 127.997 67.8629C128.021 67.8328 128.052 67.8159 128.084 67.8159C128.117 67.8159 128.148 67.8328 128.172 67.8629C129.333 69.7531 129.624 73.0594 128.854 75.7616C128.564 76.8854 128.049 77.8807 127.367 78.639C126.684 79.3972 125.859 79.8894 124.982 80.0617L124.948 80.0812Z" fill="#263238"/>
<path d="M104.369 82.8548C104.369 82.8548 102.433 83.5043 104.132 115.053L120.162 116.97C120.472 108.181 120.776 102.77 125.089 85.1737C122.902 84.2863 120.67 83.6155 118.41 83.1666C116.008 82.6472 113.582 82.3563 111.15 82.2961C107.979 82.3091 104.369 82.8548 104.369 82.8548Z" fill="#FF9519"/>
<g opacity="0.4">
<path d="M104.369 82.8548C104.369 82.8548 102.433 83.5043 104.132 115.053L120.162 116.97C120.472 108.181 120.776 102.77 125.089 85.1737C122.902 84.2863 120.67 83.6155 118.41 83.1666C116.008 82.6472 113.582 82.3563 111.15 82.2961C107.979 82.3091 104.369 82.8548 104.369 82.8548Z" fill="white"/>
</g>
<path d="M122.809 73.0335C126.544 73.0335 129.571 68.9707 129.571 63.9591C129.571 58.9475 126.544 54.8848 122.809 54.8848C119.075 54.8848 116.048 58.9475 116.048 63.9591C116.048 68.9707 119.075 73.0335 122.809 73.0335Z" fill="#263238"/>
<path d="M117.862 66.1675C120.725 66.1675 123.046 63.0528 123.046 59.2107C123.046 55.3686 120.725 52.2539 117.862 52.2539C115 52.2539 112.679 55.3686 112.679 59.2107C112.679 63.0528 115 66.1675 117.862 66.1675Z" fill="#263238"/>
<path d="M114.111 58.0675C114.082 58.0678 114.053 58.0534 114.031 58.027C114.008 58.0007 113.994 57.9642 113.99 57.9246C113.874 57.0054 113.92 56.0625 114.124 55.1714C114.329 54.2803 114.685 53.4658 115.166 52.7931C116.265 51.2796 117.92 50.6236 119.827 50.9548C119.843 50.9572 119.859 50.9639 119.873 50.9744C119.887 50.9848 119.899 50.999 119.909 51.0159C119.919 51.0328 119.926 51.0522 119.93 51.0729C119.935 51.0937 119.936 51.1154 119.934 51.1367C119.929 51.1792 119.912 51.2176 119.887 51.2442C119.862 51.2707 119.83 51.2834 119.798 51.2796C117.969 50.9613 116.386 51.5784 115.341 53.0204C114.886 53.6579 114.548 54.4292 114.355 55.2728C114.162 56.1164 114.118 57.0089 114.228 57.8791C114.232 57.9213 114.223 57.9639 114.204 57.9979C114.185 58.0319 114.157 58.0546 114.126 58.061L114.111 58.0675Z" fill="#263238"/>
<path d="M112.529 78.847C115.777 78.847 118.41 75.3136 118.41 70.9549C118.41 66.5962 115.777 63.0627 112.529 63.0627C109.281 63.0627 106.648 66.5962 106.648 70.9549C106.648 75.3136 109.281 78.847 112.529 78.847Z" fill="#263238"/>
<path d="M114.252 72.6826C118.16 72.6826 121.328 68.4308 121.328 63.186C121.328 57.9412 118.16 53.6895 114.252 53.6895C110.344 53.6895 107.176 57.9412 107.176 63.186C107.176 68.4308 110.344 72.6826 114.252 72.6826Z" fill="#263238"/>
<path d="M118.42 72.085C117.752 75.1704 116.91 80.8735 118.42 83.1665C118.42 83.1665 117.568 86.2779 113.217 85.7647C108.43 85.1931 111.14 82.3025 111.14 82.3025C113.807 81.7764 113.914 79.1717 113.618 76.6774L118.42 72.085Z" fill="#FFB573"/>
<path opacity="0.2" d="M116.44 73.9558L113.594 76.6645C113.669 77.2458 113.706 77.8348 113.705 78.4248C114.712 78.3533 116.183 77.0477 116.382 75.6577C116.476 75.0995 116.496 74.5232 116.44 73.9558Z" fill="black"/>
<path d="M122.035 69.058C120.031 73.6049 119.252 75.5536 116.571 76.7683C112.534 78.5611 108.827 74.261 109.771 69.0125C110.632 64.2837 113.768 57.6517 117.897 58.1389C118.809 58.2398 119.686 58.652 120.445 59.3364C121.205 60.0208 121.821 60.9545 122.236 62.0488C122.651 63.1432 122.85 64.3617 122.815 65.5885C122.78 66.8153 122.511 68.0097 122.035 69.058Z" fill="#FFB573"/>
<path d="M122.528 73.1372C124.685 73.1372 126.434 69.7754 126.434 65.6283C126.434 61.4812 124.685 58.1194 122.528 58.1194C120.371 58.1194 118.622 61.4812 118.622 65.6283C118.622 69.7754 120.371 73.1372 122.528 73.1372Z" fill="#263238"/>
<path d="M118.415 54.0857C121.193 54.8132 123.202 57.1062 122.897 59.2108C122.592 61.3153 120.094 62.4586 117.311 61.7181C114.528 60.9776 112.525 58.6976 112.829 56.593C113.134 54.4885 115.632 53.3842 118.415 54.0857Z" fill="#263238"/>
<path d="M104.132 115.053C104.132 115.053 100.018 145.583 99.205 161.763C98.358 178.6 110.937 206.18 110.937 206.18L115.627 202.738C115.724 202.835 107.704 169.012 109.035 160.698C111.862 143.03 115.869 116.457 115.869 116.457L104.132 115.053Z" fill="#263238"/>
<path d="M116.537 204.05L110.675 207.102L109.519 204.816L115.999 201.094L116.537 204.05Z" fill="#FF9519"/>
<path opacity="0.2" d="M111.019 126.966C112.708 123.823 113.758 124.089 114.378 126.284C112.999 135.326 110.913 148.922 109.209 159.62C107.936 151.416 105.792 136.638 111.019 126.966Z" fill="black"/>
<path d="M146.394 179.568L144.192 183.991L135.756 178.762L137.963 174.339L146.394 179.568Z" fill="#FFB573"/>
<path d="M142.794 183.731L144.546 178.236C144.577 178.137 144.632 178.054 144.702 178.001C144.772 177.948 144.854 177.928 144.933 177.944L148.549 178.593C148.635 178.607 148.718 178.648 148.79 178.713C148.863 178.778 148.922 178.865 148.965 178.967C149.007 179.069 149.031 179.183 149.035 179.3C149.038 179.417 149.021 179.533 148.984 179.639C148.345 181.542 147.963 182.432 147.193 184.835C146.709 186.323 145.48 190.636 144.827 192.689C144.173 194.741 142.542 194.248 142.668 193.338C143.244 189.259 143.21 186.193 142.77 184.602C142.697 184.318 142.705 184.007 142.794 183.731Z" fill="#263238"/>
<g opacity="0.2">
<path d="M135.762 178.762L140.108 181.458L142.315 177.034L137.969 174.339L135.762 178.762Z" fill="black"/>
</g>
<path d="M108.566 115.586C108.566 115.586 108.493 144.699 112.438 160.224C114.141 166.94 138.549 181.12 138.549 181.12L142.005 175.625C142.349 175.716 127.838 160.652 123.516 156.365C122.548 155.41 121.74 154.241 121.629 152.65C120.457 135.281 120.298 116.989 120.298 116.989L108.566 115.586Z" fill="#263238"/>
<path d="M142.382 175.131L138.931 182.185L136.859 181.516L140.664 173.111L142.382 175.131Z" fill="#FF9519"/>
<path d="M142.88 185.816C142.769 186.261 142.553 186.646 142.266 186.914C142.188 186.972 142.101 187.005 142.013 187.012C141.924 187.018 141.835 186.998 141.753 186.953C141.706 186.933 141.664 186.895 141.633 186.845C141.601 186.794 141.58 186.733 141.574 186.667C141.506 185.972 142.914 184.316 143.074 184.134C143.09 184.119 143.11 184.11 143.13 184.11C143.15 184.11 143.169 184.119 143.185 184.134C143.202 184.144 143.216 184.16 143.224 184.181C143.233 184.203 143.236 184.227 143.234 184.251C143.152 184.786 143.034 185.31 142.88 185.816ZM141.806 186.388C141.778 186.458 141.767 186.537 141.772 186.615C141.773 186.643 141.781 186.669 141.794 186.69C141.807 186.711 141.825 186.725 141.845 186.732C141.897 186.766 141.954 186.784 142.012 186.784C142.07 186.784 142.127 186.766 142.179 186.732C142.484 186.518 142.774 185.725 142.982 184.589C142.523 185.104 142.127 185.711 141.806 186.388Z" fill="#FF9519"/>
<path d="M143.229 184.251L143.205 184.296C142.813 184.797 141.612 185.641 141.206 185.381C141.109 185.323 141.012 185.18 141.09 184.849C141.151 184.601 141.281 184.394 141.453 184.27C142.048 183.809 143.122 184.089 143.166 184.095C143.182 184.1 143.196 184.11 143.208 184.125C143.22 184.14 143.229 184.159 143.234 184.18C143.237 184.203 143.235 184.228 143.229 184.251ZM141.293 184.823C141.292 184.846 141.292 184.87 141.293 184.894C141.24 185.115 141.293 185.154 141.322 185.167C141.569 185.316 142.469 184.784 142.943 184.296C142.479 184.178 141.999 184.238 141.559 184.472C141.444 184.543 141.351 184.668 141.298 184.823H141.293Z" fill="#FF9519"/>
<path d="M116.231 66.9794C116.086 67.3626 115.82 67.5705 115.631 67.4406C115.442 67.3107 115.413 66.9015 115.559 66.5182C115.704 66.135 115.975 65.9271 116.159 66.057C116.343 66.1869 116.381 66.5962 116.231 66.9794Z" fill="#263238"/>
<path d="M113.018 64.7709C112.873 65.1476 112.602 65.3555 112.418 65.2256C112.234 65.0957 112.2 64.6864 112.345 64.3032C112.49 63.9199 112.761 63.7186 112.945 63.8485C113.129 63.9784 113.163 64.3876 113.018 64.7709Z" fill="#263238"/>
<path d="M113.018 63.9265L112.438 63.186C112.438 63.186 112.515 64.1474 113.018 63.9265Z" fill="#263238"/>
<path d="M113.502 65.6284C112.92 66.324 112.268 66.9077 111.566 67.3627C111.657 67.6025 111.786 67.8124 111.944 67.9775C112.102 68.1425 112.286 68.2587 112.481 68.3176L113.502 65.6284Z" fill="#ED893E"/>
<path d="M113.454 70.8832C113.305 70.8125 113.16 70.73 113.018 70.6364C112.997 70.62 112.981 70.5934 112.974 70.5621C112.967 70.5308 112.969 70.497 112.979 70.4675C112.991 70.438 113.01 70.4155 113.034 70.4046C113.057 70.3937 113.083 70.3953 113.105 70.409C113.455 70.6646 113.844 70.8055 114.242 70.8202C114.64 70.8348 115.035 70.7229 115.394 70.4935C115.416 70.4771 115.441 70.4727 115.464 70.4812C115.488 70.4898 115.508 70.5105 115.52 70.5389C115.533 70.5674 115.536 70.6011 115.529 70.6328C115.523 70.6645 115.508 70.6915 115.486 70.7078C115.173 70.9171 114.832 71.0405 114.483 71.0706C114.134 71.1007 113.784 71.037 113.454 70.8832Z" fill="#263238"/>
<path d="M121.338 74.0076C120.774 74.6898 120.034 75.0489 119.276 75.0079C118.269 74.9365 118.085 73.6179 118.637 72.5721C119.121 71.6302 120.249 70.5325 121.13 71.1171C121.32 71.2508 121.482 71.446 121.602 71.6852C121.722 71.9243 121.796 72.1998 121.816 72.4868C121.837 72.7737 121.804 73.063 121.721 73.3286C121.637 73.5941 121.505 73.8275 121.338 74.0076Z" fill="#FFB573"/>
<path d="M117.616 66.4794C117.578 66.4629 117.545 66.4308 117.521 66.3877C117.498 66.3445 117.485 66.2925 117.485 66.239C117.485 65.0698 116.585 64.1929 116.58 64.1799C116.559 64.1611 116.542 64.137 116.529 64.109C116.516 64.081 116.507 64.0497 116.503 64.017C116.498 63.9842 116.499 63.9507 116.505 63.9185C116.511 63.8862 116.522 63.8558 116.536 63.8292C116.565 63.7753 116.609 63.739 116.658 63.7281C116.707 63.7171 116.757 63.7324 116.798 63.7707C116.841 63.8162 117.867 64.8165 117.862 66.239C117.862 66.3062 117.843 66.3707 117.807 66.4182C117.772 66.4657 117.724 66.4924 117.674 66.4924L117.616 66.4794Z" fill="#263238"/>
<path d="M112.568 61.6011C112.528 61.586 112.493 61.5541 112.469 61.5101C112.444 61.4662 112.431 61.4126 112.431 61.3575C112.431 61.3025 112.444 61.2489 112.469 61.205C112.493 61.161 112.528 61.1291 112.568 61.114C112.857 61.0172 113.16 61.0164 113.45 61.1114C113.74 61.2065 114.009 61.3946 114.233 61.6596C114.25 61.6821 114.265 61.7092 114.274 61.7394C114.284 61.7696 114.289 61.8021 114.289 61.835C114.289 61.8678 114.284 61.9004 114.274 61.9305C114.265 61.9607 114.25 61.9879 114.233 62.0104C114.215 62.0345 114.195 62.0538 114.172 62.0669C114.149 62.0801 114.124 62.0868 114.099 62.0868C114.075 62.0868 114.05 62.0801 114.027 62.0669C114.004 62.0538 113.984 62.0345 113.966 62.0104C113.786 61.8059 113.572 61.6621 113.343 61.5909C113.113 61.5197 112.874 61.5232 112.645 61.6011C112.619 61.6075 112.593 61.6075 112.568 61.6011Z" fill="#263238"/>
<path d="M122.848 86.3232C123.951 86.0115 125.132 85.6737 126.265 85.2839C127.397 84.8942 128.544 84.511 129.653 84.0563C130.761 83.6016 131.874 83.1144 132.949 82.5818C133.491 82.309 134.014 82.0167 134.531 81.7179C134.798 81.575 135.015 81.3996 135.296 81.2437L135.674 81.0033L135.974 80.776C136.395 80.4382 136.879 79.9835 137.348 79.5418C137.818 79.1001 138.316 78.6195 138.766 78.1258C139.734 77.1644 140.664 76.1771 141.612 75.1703C142.561 74.1635 143.514 73.1761 144.458 72.1563L147.328 69.1619L148.693 71.1105C147.88 72.3447 147.033 73.5204 146.191 74.7091C145.349 75.8978 144.478 77.0475 143.602 78.1972C142.726 79.347 141.835 80.4772 140.911 81.5879C140.451 82.1466 139.976 82.6922 139.492 83.2378C138.99 83.8191 138.465 84.3634 137.919 84.8682L137.435 85.2775L137.005 85.6022C136.719 85.8101 136.434 86.0504 136.143 86.2518L135.272 86.8364L134.396 87.3625C133.22 88.0446 132.039 88.6617 130.838 89.1748C129.638 89.688 128.443 90.1816 127.233 90.5973C126.023 91.0131 124.813 91.3833 123.54 91.6756L122.848 86.3232Z" fill="#FFB573"/>
<path d="M120.641 99.8342C124.997 97.5672 127.054 95.6965 127.054 95.6965L126.734 81.6465C126.734 81.6465 121.764 82.8871 118.86 85.979C117.059 87.8823 118.86 100.763 120.641 99.8342Z" fill="#FF9519"/>
<g opacity="0.4">
<path d="M120.642 99.8342C124.998 97.5672 127.055 95.6965 127.055 95.6965L126.735 81.6465C126.735 81.6465 121.765 82.8871 118.861 85.979C117.06 87.8823 118.861 100.763 120.642 99.8342Z" fill="white"/>
</g>
<path d="M111.683 88.8697C111.683 88.8697 113.58 89.0321 113.619 92.3058C116.15 91.0067 119.828 87.2133 120.332 84.2773C120.351 84.1696 120.353 84.0578 120.339 83.9488C120.325 83.8398 120.294 83.7359 120.249 83.6434C120.203 83.551 120.144 83.4719 120.075 83.4111C120.006 83.3503 119.929 83.3091 119.848 83.29C119.635 83.2445 119.436 83.212 119.296 83.1925C119.166 83.1754 119.035 83.2165 118.923 83.3095L115.879 85.8038L111.683 88.8697Z" fill="white"/>
<path d="M110.482 85.2127L111.232 82.0558L110.226 81.4062C108.948 82.3546 107.322 89.201 109.19 91.6628C110.216 88.415 111.682 88.8502 111.682 88.8502L110.482 85.2127Z" fill="white"/>
<path d="M118.41 83.1729C116.008 82.6471 113.582 82.3562 111.15 82.3025H110.666C109.988 83.712 109.635 86.1998 111.179 89.3242C111.179 89.3242 117.471 86.7845 119.378 83.3678C119.048 83.2963 118.729 83.2638 118.41 83.1729Z" fill="#FFB573"/>
<path d="M112.747 214.105C112.495 214.413 112.173 214.596 111.833 214.625C111.748 214.616 111.666 214.58 111.594 214.519C111.522 214.458 111.463 214.373 111.421 214.274C111.397 214.213 111.384 214.145 111.384 214.076C111.384 214.006 111.397 213.938 111.421 213.878C111.649 213.195 113.396 212.78 113.59 212.734C113.609 212.73 113.63 212.735 113.648 212.746C113.666 212.758 113.681 212.776 113.691 212.799C113.703 212.82 113.709 212.845 113.709 212.871C113.709 212.897 113.703 212.922 113.691 212.942C113.405 213.369 113.089 213.758 112.747 214.105ZM111.687 213.8C111.636 213.845 111.594 213.907 111.566 213.981C111.556 214.005 111.55 214.032 111.55 214.059C111.55 214.087 111.556 214.114 111.566 214.137C111.593 214.203 111.631 214.258 111.678 214.299C111.724 214.34 111.777 214.364 111.833 214.371C112.157 214.41 112.699 213.923 113.309 213.072C112.741 213.199 112.192 213.453 111.687 213.826V213.8Z" fill="#FF9519"/>
<path d="M113.637 212.961C113.626 212.965 113.614 212.965 113.603 212.961C113.119 213.117 111.837 212.961 111.624 212.422C111.575 212.292 111.556 212.091 111.745 211.851C111.813 211.764 111.894 211.698 111.982 211.656C112.07 211.613 112.164 211.595 112.258 211.604C112.906 211.643 113.623 212.708 113.652 212.754C113.66 212.772 113.664 212.794 113.664 212.815C113.664 212.837 113.66 212.858 113.652 212.877C113.654 212.892 113.653 212.907 113.651 212.921C113.648 212.936 113.644 212.949 113.637 212.961ZM111.919 212.007L111.875 212.059C111.749 212.214 111.778 212.292 111.788 212.325C111.919 212.643 112.829 212.851 113.39 212.773C113.087 212.324 112.688 212.011 112.248 211.877C112.13 211.865 112.013 211.911 111.919 212.007Z" fill="#FF9519"/>
<path d="M116.237 66.1351L115.651 65.4011C115.651 65.4011 115.729 66.3755 116.237 66.1351Z" fill="#263238"/>
<path d="M120.486 115.742L120.766 117.691C120.815 117.847 120.669 117.983 120.486 117.963L103.986 116.015C103.841 116.015 103.729 115.885 103.729 115.768V113.819C103.729 113.689 103.86 113.592 104.02 113.611L120.253 115.56C120.3 115.563 120.346 115.581 120.386 115.613C120.426 115.644 120.461 115.689 120.486 115.742Z" fill="#FAFAFA"/>
<path d="M118.144 117.912L118.579 117.963C118.666 117.963 118.734 117.925 118.734 117.847L118.696 115.32C118.696 115.248 118.623 115.177 118.536 115.17L118.1 115.118C118.013 115.118 117.945 115.157 117.945 115.235L117.984 117.762C117.984 117.834 118.057 117.905 118.144 117.912Z" fill="#263238"/>
<path d="M105.196 116.391L105.632 116.443C105.719 116.443 105.787 116.398 105.787 116.326L105.748 113.8C105.748 113.722 105.676 113.657 105.589 113.644L105.153 113.592C105.066 113.592 104.998 113.637 104.998 113.709L105.037 116.236C105.037 116.281 105.109 116.352 105.196 116.391Z" fill="#263238"/>
<path d="M111.667 117.139L112.103 117.191C112.19 117.191 112.263 117.145 112.258 117.074L112.219 114.547C112.219 114.475 112.147 114.404 112.064 114.397L111.629 114.345C111.542 114.345 111.469 114.384 111.474 114.456L111.508 116.983C111.513 117.041 111.6 117.126 111.667 117.139Z" fill="#263238"/>
<path d="M146.859 70.0973L146.815 64.3552L149.923 67.7979C149.923 67.7979 149.439 71.1496 147.88 71.8187L146.859 70.0973Z" fill="#FFB573"/>
<path d="M148.843 60.8022L151.326 63.8747L149.923 67.798L146.815 64.3553L148.843 60.8022Z" fill="#FFB573"/>
</svg>
