<svg width="243" height="243" viewBox="0 0 243 243" fill="none" xmlns="http://www.w3.org/2000/svg">
<path d="M121.21 242.452C173.038 242.452 215.053 239.16 215.053 235.099C215.053 231.038 173.038 227.746 121.21 227.746C69.382 227.746 27.3672 231.038 27.3672 235.099C27.3672 239.16 69.382 242.452 121.21 242.452Z" fill="#F5F5F5"/>
<path d="M97.9779 102.121C95.951 92.3877 96.7574 81.9839 100.234 73.0186C103.71 64.0533 109.596 57.1971 116.699 53.8396L118.524 61.5953C112.961 64.3126 108.36 69.7323 105.631 76.783C102.902 83.8336 102.243 92.0018 103.786 99.6725L97.9779 102.121Z" fill="#FF9519"/>
<path d="M112.784 126.623C110.503 125.042 108.387 123.063 106.492 120.738C102.897 116.314 100.169 110.77 98.5498 104.596L104.329 102.147C105.68 107.171 107.955 111.654 110.943 115.18C113.931 118.707 117.535 121.162 121.42 122.318C125.305 123.474 129.345 123.292 133.163 121.791C136.982 120.289 140.456 117.516 143.262 113.729L147.729 119.224C143.261 125.313 137.455 129.318 131.165 130.65C124.875 131.981 118.432 130.57 112.784 126.623Z" fill="#FF9519"/>
<path opacity="0.7" d="M112.784 126.623C110.503 125.042 108.387 123.063 106.492 120.738C102.897 116.314 100.169 110.77 98.5498 104.596L104.329 102.147C105.68 107.171 107.955 111.654 110.943 115.18C113.931 118.707 117.535 121.162 121.42 122.318C125.305 123.474 129.345 123.292 133.163 121.791C136.982 120.289 140.456 117.516 143.262 113.729L147.729 119.224C143.261 125.313 137.455 129.318 131.165 130.65C124.875 131.981 118.432 130.57 112.784 126.623Z" fill="white"/>
<path d="M144.592 111.813C147.835 106.654 149.765 100.24 150.101 93.5055C150.437 86.7712 149.161 80.0689 146.46 74.376C143.758 68.6831 139.772 64.2973 135.083 61.858C130.394 59.4187 125.247 59.0536 120.392 60.8158L118.567 53.0211C125.984 50.2335 133.917 51.425 140.691 56.3438C147.465 61.2627 152.549 69.5234 154.867 79.3802C156.375 85.8365 156.636 92.701 155.625 99.3295C154.614 105.958 152.365 112.133 149.088 117.276L144.592 111.813Z" fill="#FF9519"/>
<path opacity="0.3" d="M144.592 111.813C147.835 106.654 149.765 100.24 150.101 93.5055C150.437 86.7712 149.161 80.0689 146.46 74.376C143.758 68.6831 139.772 64.2973 135.083 61.858C130.394 59.4187 125.247 59.0536 120.392 60.8158L118.567 53.0211C125.984 50.2335 133.917 51.425 140.691 56.3438C147.465 61.2627 152.549 69.5234 154.867 79.3802C156.375 85.8365 156.636 92.701 155.625 99.3295C154.614 105.958 152.365 112.133 149.088 117.276L144.592 111.813Z" fill="black"/>
<path d="M132.076 81.777C131.392 80.8587 130.58 80.1302 129.686 79.6331C128.793 79.136 127.835 78.8799 126.867 78.8796C125.9 78.8793 124.942 79.1348 124.048 79.6313C123.154 80.1279 122.342 80.8559 121.658 81.7737C120.974 82.6916 120.431 83.7813 120.06 84.9807C119.69 86.1801 119.499 87.4656 119.499 88.7639C119.499 90.0623 119.689 91.3479 120.059 92.5476C120.429 93.7472 120.972 94.8372 121.655 95.7555L126.863 102.745L132.076 95.7555C133.457 93.9016 134.233 91.3876 134.233 88.7662C134.233 86.1449 133.457 83.6309 132.076 81.777Z" fill="#FF9519"/>
<path opacity="0.3" d="M132.076 81.777C131.392 80.8587 130.58 80.1302 129.686 79.6331C128.793 79.136 127.835 78.8799 126.867 78.8796C125.9 78.8793 124.942 79.1348 124.048 79.6313C123.154 80.1279 122.342 80.8559 121.658 81.7737C120.974 82.6916 120.431 83.7813 120.06 84.9807C119.69 86.1801 119.499 87.4656 119.499 88.7639C119.499 90.0623 119.689 91.3479 120.059 92.5476C120.429 93.7472 120.972 94.8372 121.655 95.7555L126.863 102.745L132.076 95.7555C133.457 93.9016 134.233 91.3876 134.233 88.7662C134.233 86.1449 133.457 83.6309 132.076 81.777Z" fill="black"/>
<path d="M127.159 104.817H126.578V107.935H127.159V104.817Z" fill="#FF9519"/>
<path opacity="0.3" d="M127.159 104.817H126.578V107.935H127.159V104.817Z" fill="black"/>
<path d="M127.159 110.345H126.578V113.463H127.159V110.345Z" fill="#FF9519"/>
<path opacity="0.3" d="M127.159 110.345H126.578V113.463H127.159V110.345Z" fill="black"/>
<path d="M106.763 135.574H87.0498V231.371H106.763V135.574Z" fill="#FF9519"/>
<path opacity="0.7" d="M106.763 135.574H87.0498V231.371H106.763V135.574Z" fill="white"/>
<path d="M116.225 135.574H106.763V231.371H116.225V135.574Z" fill="#FF9519"/>
<path opacity="0.5" d="M116.225 135.574H106.763V231.371H116.225V135.574Z" fill="white"/>
<path d="M143.213 170.832H142.71V185.746H143.213V170.832Z" fill="#263238"/>
<path d="M143.213 162.063H142.71V168.058H143.213V162.063Z" fill="#263238"/>
<path d="M157.215 194.995H137.502V231.371H157.215V194.995Z" fill="#FF9519"/>
<path opacity="0.5" d="M157.215 194.995H137.502V231.371H157.215V194.995Z" fill="black"/>
<path d="M166.678 194.995H157.216V231.371H166.678V194.995Z" fill="#FF9519"/>
<path opacity="0.6" d="M166.678 194.995H157.216V231.371H166.678V194.995Z" fill="black"/>
<path d="M131.99 115.32H112.276V231.371H131.99V115.32Z" fill="#FF9519"/>
<path opacity="0.7" d="M131.99 115.32H112.276V231.371H131.99V115.32Z" fill="black"/>
<path d="M141.451 115.32H131.989V231.371H141.451V115.32Z" fill="#FF9519"/>
<path opacity="0.8" d="M141.451 115.32H131.989V231.371H141.451V115.32Z" fill="black"/>
<path d="M170.688 88.5519C170.011 95.7361 169.159 102.94 168.399 110.065C168.305 111.106 168.164 112.139 167.978 113.157C167.76 114.2 167.482 115.219 167.146 116.204C166.504 118.056 165.701 119.8 164.755 121.4C163.853 122.938 162.859 124.374 161.783 125.694C161.26 126.343 160.704 126.993 160.142 127.558C159.581 128.123 159.024 128.708 158.38 129.273L156.662 126.395C157.064 125.798 157.519 125.096 157.93 124.447C158.342 123.797 158.748 123.096 159.145 122.407C159.921 121.061 160.631 119.648 161.27 118.178C161.886 116.8 162.393 115.339 162.785 113.82C162.965 113.117 163.102 112.396 163.196 111.663C163.281 110.895 163.336 110.121 163.361 109.344C163.54 105.655 163.811 102.004 164.111 98.3603C164.411 94.7163 164.769 91.1177 165.195 87.4932L170.688 88.5519Z" fill="#E58A7B"/>
<path d="M171.894 86.0837C173.128 90.4812 166.88 103.427 166.88 103.427L159.557 98.0941C160.658 94.0654 162.082 90.2084 163.801 86.5903C166.376 81.4069 170.543 81.2575 171.894 86.0837Z" fill="#FF9519"/>
<path opacity="0.2" d="M171.894 86.0837C173.128 90.4812 166.88 103.427 166.88 103.427L159.557 98.0941C160.658 94.0654 162.082 90.2084 163.801 86.5903C166.376 81.4069 170.543 81.2575 171.894 86.0837Z" fill="black"/>
<path d="M167.548 82.7189C167.548 82.7189 163.226 97.5613 167.33 125.194H186.917C187.053 121.16 185.16 101.478 188.06 82.4721C185.896 81.9089 183.706 81.5356 181.506 81.3548C178.734 81.1402 175.954 81.1402 173.181 81.3548C171.28 81.6119 169.396 82.068 167.548 82.7189Z" fill="#FF9519"/>
<path opacity="0.2" d="M167.548 82.7189C167.548 82.7189 163.226 97.5613 167.33 125.194H186.917C187.053 121.16 185.16 101.478 188.06 82.4721C185.896 81.9089 183.706 81.5356 181.506 81.3548C178.734 81.1402 175.954 81.1402 173.181 81.3548C171.28 81.6119 169.396 82.068 167.548 82.7189Z" fill="black"/>
<path d="M170.146 229.045H166.487L165.51 217.665H169.174L170.146 229.045Z" fill="#E58A7B"/>
<path d="M195.915 229.045H192.256L189.4 217.665H193.064L195.915 229.045Z" fill="#E58A7B"/>
<path d="M191.767 228.448H196.229C196.302 228.447 196.373 228.481 196.429 228.542C196.486 228.604 196.525 228.69 196.539 228.786L197.265 233.157C197.281 233.263 197.279 233.373 197.259 233.478C197.24 233.583 197.203 233.681 197.151 233.764C197.1 233.848 197.035 233.914 196.962 233.96C196.889 234.006 196.809 234.029 196.728 234.027C195.276 233.995 194.245 233.885 192.435 233.885C191.322 233.885 189.047 234.04 187.493 234.04C185.94 234.04 185.756 232.001 186.385 231.812C189.207 230.988 190.257 229.864 191.172 228.753C191.335 228.556 191.547 228.447 191.767 228.448Z" fill="#263238"/>
<path d="M166.511 228.448H170.509C170.582 228.448 170.653 228.482 170.71 228.543C170.768 228.604 170.808 228.69 170.824 228.786L171.545 233.157C171.563 233.262 171.562 233.372 171.544 233.477C171.525 233.582 171.489 233.68 171.439 233.764C171.388 233.848 171.323 233.915 171.251 233.961C171.178 234.006 171.098 234.029 171.018 234.027C169.566 233.995 167.489 233.885 165.694 233.885C163.574 233.885 161.744 234.04 159.256 234.04C157.751 234.04 157.32 232.001 157.964 231.812C160.829 230.975 163.167 230.884 165.645 228.831C165.902 228.6 166.202 228.467 166.511 228.448Z" fill="#263238"/>
<path d="M157.993 124.518L154.925 127.961L158.957 131.137C159.551 130.521 159.983 129.666 160.189 128.698C160.395 127.729 160.366 126.697 160.104 125.752L157.993 124.518Z" fill="#E58A7B"/>
<path d="M165.515 217.671L166.013 223.537H169.677L169.174 217.671H165.515Z" fill="#CF6F64"/>
<path d="M193.064 217.671H189.4L190.872 223.537H194.536L193.064 217.671Z" fill="#CF6F64"/>
<path opacity="0.2" d="M184.071 91.5529C184.71 87.2139 185.954 87.9674 187.135 90.1044C186.63 95.8556 186.398 101.644 186.438 107.435C185.635 105.596 183.002 98.8215 184.071 91.5529Z" fill="black"/>
<path d="M180.679 68.7795C180.156 72.3716 179.633 78.9581 181.506 81.355C181.506 81.355 180.776 85.0055 175.795 85.0055C170.321 85.0055 173.182 81.3615 173.182 81.3615C176.168 80.4002 176.086 77.4252 175.568 74.6321L180.679 68.7795Z" fill="#E58A7B"/>
<path d="M178.597 71.1699L175.572 74.6321C175.701 75.2809 175.787 75.9439 175.829 76.6132C176.971 76.3924 178.539 74.71 178.66 73.1056C178.726 72.4605 178.705 71.8049 178.597 71.1699Z" fill="#CF6F64"/>
<path d="M172.165 57.7173C170.364 58.7436 169.386 65.512 171.681 67.0775C173.975 68.6429 175.577 55.7816 172.165 57.7173Z" fill="#263238"/>
<path d="M180.998 63.3686C180.776 68.2338 180.829 71.0984 179 73.5992C176.246 77.3537 171.764 75.1257 170.902 70.267C170.123 65.8954 170.617 58.6658 174.169 56.7301C174.951 56.2986 175.801 56.1422 176.64 56.2759C177.479 56.4096 178.279 56.829 178.963 57.4941C179.647 58.1593 180.193 59.0481 180.55 60.0763C180.906 61.1045 181.06 62.2378 180.998 63.3686Z" fill="#E58A7B"/>
<path d="M169.813 54.6645C172.005 50.202 172.349 52.3521 172.315 54.4761C174.251 52.0208 177.828 48.8899 179.575 51.748C179.782 52.0429 179.916 52.4158 179.96 52.8164C180.005 53.2171 179.956 53.6264 179.822 53.989C182.072 53.1835 184.342 52.9562 183.931 56.217C183.568 59.101 182.034 60.1598 179.885 60.1793C176.032 60.8938 166.705 60.9652 169.813 54.6645Z" fill="#263238"/>
<path d="M180.741 68.1364C178.805 69.1952 174.909 59.6531 180.77 58.5294C186.632 57.4057 183.844 66.428 180.741 68.1364Z" fill="#263238"/>
<path d="M182.639 68.734C182.149 69.7691 181.375 70.504 180.485 70.7802C179.304 71.1309 178.776 69.6889 179.164 68.2339C179.512 66.9348 180.543 65.1745 181.705 65.4732C181.957 65.5458 182.193 65.7018 182.389 65.9272C182.586 66.1526 182.737 66.4402 182.83 66.764C182.923 67.0878 182.954 67.4375 182.92 67.7815C182.887 68.1255 182.79 68.4529 182.639 68.734Z" fill="#E58A7B"/>
<path d="M184.55 60.004C184.281 59.6017 183.941 59.2959 183.562 59.1144C183.182 58.9329 182.775 58.8814 182.377 58.9647C182.377 58.9647 184.269 56.964 184.55 60.004Z" fill="#263238"/>
<path d="M167.33 125.168C167.33 125.168 157.025 160.309 157.403 175.301C157.814 190.89 164.663 222.4 164.663 222.4H170.868C170.868 222.4 168.327 191.793 168.602 176.489C168.903 159.796 180.218 125.174 180.218 125.174L167.33 125.168Z" fill="#FF9519"/>
<path opacity="0.2" d="M175.558 136.801L176.153 138.614C173.981 146.124 172.095 153.777 170.5 161.543C170.331 152.683 171.696 142.914 175.558 136.801Z" fill="black"/>
<path d="M174.28 125.168C174.28 125.168 172.194 161.101 174.473 175.184C176.971 190.591 189.148 222.387 189.148 222.387H195.856C195.856 222.387 186.883 191.858 185.455 176.58C183.911 160.023 186.907 125.181 186.907 125.181L174.28 125.168Z" fill="#FF9519"/>
<path d="M175.5 64.7587C175.5 65.1549 175.34 65.4797 175.146 65.4797C174.953 65.4797 174.798 65.1549 174.798 64.7587C174.798 64.3625 174.953 64.0442 175.146 64.0442C175.34 64.0442 175.5 64.33 175.5 64.7587Z" fill="#263238"/>
<path d="M172.16 64.7587C172.16 65.1549 172 65.4797 171.811 65.4797C171.623 65.4797 171.458 65.1549 171.458 64.7587C171.458 64.3625 171.618 64.0442 171.811 64.0442C172.005 64.0442 172.16 64.33 172.16 64.7587Z" fill="#263238"/>
<path d="M173.22 64.9275C172.868 66.1366 172.394 67.2753 171.812 68.3117C172.013 68.5058 172.243 68.6384 172.486 68.7001C172.73 68.7618 172.98 68.7512 173.22 68.669V64.9275Z" fill="#DF5753"/>
<path d="M174.081 69.7667C174.058 69.7667 174.036 69.7543 174.02 69.7324C174.003 69.7105 173.994 69.6807 173.994 69.6497C173.994 69.6187 174.003 69.589 174.02 69.5671C174.036 69.5451 174.058 69.5328 174.081 69.5328C174.449 69.5437 174.813 69.4383 175.144 69.225C175.475 69.0117 175.765 68.6965 175.988 68.3051C175.995 68.2923 176.003 68.2813 176.012 68.2727C176.022 68.2642 176.032 68.2582 176.044 68.2552C176.055 68.2522 176.067 68.2522 176.078 68.2552C176.089 68.2582 176.1 68.2641 176.109 68.2727C176.127 68.2897 176.14 68.3153 176.144 68.3442C176.149 68.3732 176.145 68.4033 176.133 68.4286C175.897 68.8575 175.587 69.2034 175.23 69.4364C174.873 69.6694 174.478 69.7828 174.081 69.7667Z" fill="#263238"/>
<path d="M176.501 63.2842C176.475 63.2832 176.449 63.2746 176.426 63.2589C176.403 63.2432 176.382 63.2208 176.366 63.1932C176.239 62.9544 176.073 62.7592 175.879 62.6237C175.686 62.4882 175.471 62.4162 175.253 62.4138C175.23 62.4164 175.206 62.4127 175.184 62.4029C175.162 62.3931 175.142 62.3774 175.125 62.3567C175.108 62.336 175.094 62.3108 175.084 62.2826C175.075 62.2545 175.069 62.2239 175.069 62.1929C175.066 62.1319 175.081 62.072 175.111 62.0258C175.141 61.9797 175.183 61.9511 175.228 61.9461C175.504 61.944 175.776 62.0301 176.022 62.1973C176.267 62.3645 176.48 62.6079 176.642 62.9074C176.669 62.9577 176.681 63.0205 176.675 63.0823C176.668 63.1441 176.644 63.2002 176.608 63.2387C176.576 63.2663 176.539 63.282 176.501 63.2842Z" fill="#263238"/>
<path d="M170.698 63.1866C170.672 63.1928 170.646 63.1928 170.621 63.1866C170.6 63.1735 170.581 63.1549 170.566 63.1319C170.551 63.1089 170.539 63.0821 170.532 63.0529C170.525 63.0238 170.522 62.993 170.524 62.9624C170.526 62.9318 170.532 62.902 170.543 62.8748C170.657 62.5402 170.83 62.2474 171.047 62.0213C171.263 61.7951 171.517 61.6423 171.787 61.5757C171.83 61.5748 171.872 61.5951 171.904 61.6328C171.936 61.6705 171.957 61.723 171.963 61.7801C171.968 61.8372 171.958 61.895 171.933 61.9424C171.909 61.9898 171.872 62.0235 171.831 62.0369C171.619 62.0986 171.421 62.2259 171.253 62.4086C171.085 62.5914 170.951 62.8245 170.863 63.0892C170.845 63.1245 170.82 63.1524 170.791 63.1696C170.762 63.1869 170.729 63.1928 170.698 63.1866Z" fill="#263238"/>
<path d="M189.453 86.2915C189.768 87.2009 190.034 88.0128 190.286 88.8897C190.537 89.7666 190.77 90.5981 191.026 91.488C191.51 93.2158 191.912 94.9696 192.28 96.7559C192.648 98.5422 192.952 100.367 193.204 102.225L193.378 103.622L193.504 105.051C193.553 105.525 193.572 106.012 193.601 106.499L193.635 107.227V107.409V107.714C193.635 107.941 193.635 108.149 193.635 108.364C193.539 109.643 193.263 110.886 192.822 112.027C192.478 112.945 192.088 113.83 191.655 114.677C190.853 116.226 189.975 117.702 189.027 119.094C187.203 121.79 185.224 124.29 183.108 126.571L181.172 123.972C182.755 121.257 184.332 118.451 185.77 115.665C186.47 114.308 187.116 112.903 187.706 111.455C187.976 110.806 188.21 110.131 188.408 109.435C188.551 108.991 188.633 108.516 188.65 108.032V107.883L188.582 107.298C188.538 106.902 188.5 106.512 188.432 106.116L188.258 104.927L188.05 103.732C187.754 102.134 187.42 100.53 187.033 98.9319C186.646 97.334 186.235 95.7426 185.794 94.1512C185.354 92.5598 184.87 90.9554 184.42 89.4873L189.453 86.2915Z" fill="#E58A7B"/>
<path d="M190.552 229.338C190.303 229.363 190.056 229.274 189.85 229.084C189.781 229.006 189.728 228.905 189.697 228.791C189.665 228.677 189.656 228.555 189.671 228.435C189.671 228.368 189.684 228.302 189.71 228.245C189.735 228.188 189.772 228.141 189.816 228.11C190.227 227.831 191.404 228.805 191.539 228.915C191.553 228.928 191.565 228.945 191.571 228.966C191.578 228.987 191.581 229.01 191.578 229.032C191.575 229.056 191.567 229.077 191.555 229.094C191.543 229.112 191.527 229.124 191.51 229.13C191.197 229.245 190.876 229.315 190.552 229.338ZM190.01 228.318C189.971 228.314 189.932 228.325 189.898 228.35C189.874 228.35 189.845 228.396 189.84 228.487C189.834 228.565 189.842 228.644 189.863 228.717C189.884 228.791 189.918 228.856 189.961 228.909C190.37 229.156 190.834 229.186 191.258 228.993C190.879 228.662 190.454 228.433 190.01 228.318Z" fill="#FF9519"/>
<path d="M191.491 229.162H191.453C191.07 228.883 190.339 227.811 190.417 227.259C190.43 227.174 190.465 227.097 190.515 227.041C190.565 226.986 190.628 226.955 190.693 226.954C190.758 226.944 190.825 226.952 190.888 226.977C190.951 227.003 191.01 227.046 191.061 227.103C191.486 227.571 191.574 228.987 191.578 229.052C191.579 229.072 191.576 229.092 191.569 229.11C191.562 229.128 191.552 229.144 191.54 229.156C191.524 229.164 191.508 229.167 191.491 229.162ZM190.756 227.149H190.712C190.601 227.149 190.591 227.233 190.586 227.265C190.543 227.59 191.007 228.402 191.385 228.785C191.358 228.226 191.208 227.69 190.954 227.246C190.899 227.183 190.828 227.148 190.756 227.149Z" fill="#FF9519"/>
<path d="M164.987 229.338C164.674 229.375 164.362 229.267 164.101 229.032C164.042 228.963 163.995 228.876 163.967 228.777C163.938 228.679 163.928 228.572 163.937 228.467C163.939 228.404 163.954 228.342 163.978 228.288C164.003 228.234 164.037 228.188 164.077 228.155C164.527 227.824 166.013 228.805 166.163 228.941C166.18 228.952 166.194 228.97 166.202 228.992C166.211 229.014 166.214 229.039 166.212 229.064C166.209 229.088 166.2 229.111 166.187 229.129C166.174 229.147 166.157 229.158 166.139 229.162C165.76 229.266 165.374 229.325 164.987 229.338ZM164.324 228.318C164.269 228.313 164.213 228.329 164.164 228.363C164.147 228.374 164.132 228.391 164.123 228.414C164.113 228.436 164.109 228.461 164.111 228.487C164.104 228.555 164.109 228.624 164.127 228.689C164.145 228.754 164.174 228.811 164.213 228.857C164.44 229.13 165.045 229.175 165.849 228.993C165.373 228.653 164.857 228.424 164.324 228.318Z" fill="#FF9519"/>
<path d="M166.124 229.162C166.112 229.168 166.098 229.168 166.085 229.162C165.645 228.896 164.769 227.863 164.837 227.278C164.837 227.149 164.919 226.986 165.161 226.954C165.248 226.942 165.335 226.954 165.418 226.988C165.501 227.023 165.579 227.08 165.645 227.155C166.129 227.668 166.211 228.993 166.211 229.045C166.214 229.066 166.212 229.087 166.206 229.107C166.2 229.126 166.19 229.143 166.177 229.156C166.161 229.165 166.142 229.167 166.124 229.162ZM165.253 227.148H165.2C165.045 227.148 165.035 227.252 165.03 227.278C164.992 227.61 165.587 228.448 166.037 228.811C165.996 228.252 165.827 227.723 165.553 227.298C165.47 227.2 165.363 227.147 165.253 227.148Z" fill="#FF9519"/>
<path d="M182.019 123.251L178.428 124.551L181.404 129.396C181.404 129.396 184.284 127.389 183.665 125.226L182.019 123.251Z" fill="#E58A7B"/>
<path d="M176.569 127.792L179.168 131.637L181.404 129.377L178.428 124.531L176.569 127.792Z" fill="#E58A7B"/>
<path d="M187.963 222.595H196.733V219.425L186.932 219.224L187.963 222.595Z" fill="#FF9519"/>
<path opacity="0.4" d="M187.963 222.595H196.733V219.425L186.932 219.224L187.963 222.595Z" fill="black"/>
<path d="M163.255 222.595H172.025V219.393L162.224 219.224L163.255 222.595Z" fill="#FF9519"/>
<path opacity="0.4" d="M163.255 222.595H172.025V219.393L162.224 219.224L163.255 222.595Z" fill="black"/>
<path d="M188.824 82.7905C192.091 84.4793 195.358 100.03 195.358 100.03L186.646 104.629C186.646 104.629 184.047 96.5871 183.161 90.6112C182.251 84.3429 185.121 80.8808 188.824 82.7905Z" fill="#FF9519"/>
<path opacity="0.2" d="M188.824 82.7905C192.091 84.4793 195.358 100.03 195.358 100.03L186.646 104.629C186.646 104.629 184.047 96.5871 183.161 90.6112C182.251 84.3429 185.121 80.8808 188.824 82.7905Z" fill="black"/>
<path d="M153.507 107.467C152.579 111.809 152.672 116.43 153.773 120.699C154.78 124.672 156.618 128.171 159.068 130.78C162.331 134.247 166.453 135.921 170.601 135.465C174.749 135.008 178.612 132.454 181.411 128.32C184.209 124.186 185.733 118.78 185.674 113.195C185.616 107.61 183.979 102.264 181.095 98.237C179.114 95.4683 176.622 93.4515 173.874 92.3909C171.331 91.4042 168.65 91.2532 166.055 91.9508C163.46 92.6483 161.029 94.174 158.966 96.3987C158.591 96.8051 158.232 97.2388 157.892 97.6978C155.815 100.379 154.302 103.749 153.507 107.467Z" fill="#FF9519"/>
<path opacity="0.6" d="M153.507 107.467C152.579 111.809 152.672 116.43 153.773 120.699C154.78 124.672 156.618 128.171 159.068 130.78C162.331 134.247 166.453 135.921 170.601 135.465C174.749 135.008 178.612 132.454 181.411 128.32C184.209 124.186 185.733 118.78 185.674 113.195C185.616 107.61 183.979 102.264 181.095 98.237C179.114 95.4683 176.622 93.4515 173.874 92.3909C171.331 91.4042 168.65 91.2532 166.055 91.9508C163.46 92.6483 161.029 94.174 158.966 96.3987C158.591 96.8051 158.232 97.2388 157.892 97.6978C155.815 100.379 154.302 103.749 153.507 107.467Z" fill="black"/>
<path d="M179.033 97.373L167.224 112.67L162.698 133.846C166.171 135.184 169.877 134.947 173.239 133.171C176.601 131.394 179.433 128.179 181.295 124.022C183.156 119.866 183.943 115.001 183.535 110.182C183.126 105.364 181.543 100.861 179.033 97.373Z" fill="#FF9519"/>
<path opacity="0.9" d="M179.033 97.373L167.224 112.67L162.698 133.846C166.171 135.184 169.877 134.947 173.239 133.171C176.601 131.394 179.433 128.179 181.295 124.022C183.156 119.866 183.943 115.001 183.535 110.182C183.126 105.364 181.543 100.861 179.033 97.373Z" fill="white"/>
<g opacity="0.7">
<path d="M167.223 112.67L179.032 97.3666C177.031 94.5835 174.518 92.5569 171.748 91.4906C168.978 90.4242 166.047 90.3557 163.251 91.292C160.454 92.2282 157.891 94.1362 155.818 96.824C153.746 99.5118 152.237 102.885 151.444 106.603L167.223 112.67Z" fill="#FF9519"/>
<path opacity="0.44" d="M167.223 112.67L179.032 97.3666C177.031 94.5835 174.518 92.5569 171.748 91.4906C168.978 90.4242 166.047 90.3557 163.251 91.292C160.454 92.2282 157.891 94.1362 155.818 96.824C153.746 99.5118 152.237 102.885 151.444 106.603L167.223 112.67Z" fill="white"/>
</g>
<path d="M154.673 130.884L158.23 132.391L158.942 131.157L154.91 127.98L154.673 130.884Z" fill="#E58A7B"/>
<path d="M167.223 112.67L151.45 106.603C150.252 112.219 150.764 118.242 152.874 123.351C154.984 128.459 158.519 132.234 162.703 133.846L167.223 112.67Z" fill="#FF9519"/>
<path opacity="0.6" d="M167.223 112.67L151.45 106.603C150.252 112.219 150.764 118.242 152.874 123.351C154.984 128.459 158.519 132.234 162.703 133.846L167.223 112.67Z" fill="black"/>
<path d="M76.7983 82.8552C75.9513 84.0179 75.0414 85.3041 74.2041 86.5902C73.3668 87.8763 72.5246 89.1884 71.7357 90.533C70.9468 91.8776 70.2014 93.2612 69.4851 94.6577L68.9624 95.7165L68.4784 96.7883C68.3138 97.1455 68.1589 97.5093 67.9944 97.873L67.5926 98.8669C67.4293 99.4339 67.3361 100.033 67.3168 100.64C67.278 101.423 67.278 102.209 67.3168 102.992C67.4072 104.676 67.5688 106.353 67.8008 108.013C68.0186 109.715 68.2848 111.423 68.5994 113.118C68.914 114.814 69.2237 116.541 69.5674 118.217L67.704 119.153C66.5751 115.844 65.6319 112.426 64.8822 108.929C64.4959 107.132 64.2 105.303 63.9965 103.453C63.8946 102.465 63.8428 101.469 63.8416 100.471C63.8283 99.2955 63.976 98.1264 64.2772 97.0221C64.3934 96.6454 64.4563 96.4895 64.5338 96.2686L64.7612 95.6191C64.9113 95.1904 65.071 94.7682 65.2452 94.3589L65.7292 93.1183L66.2616 91.9101C66.9732 90.321 67.7471 88.7838 68.58 87.3047C69.4028 85.8302 70.2546 84.3882 71.1549 83.0046C72.0551 81.6211 72.9699 80.296 74.0105 78.9644L76.7983 82.8552Z" fill="#E58A7B"/>
<path d="M69.0541 117.158L72.3647 118.458L70.1625 121.459C70.1625 121.459 67.7763 120.471 67.4424 118.289L69.0541 117.158Z" fill="#E58A7B"/>
<path d="M74.3739 121.9L73.8125 124.765L70.1631 121.478L72.3653 118.484L74.3739 121.9Z" fill="#E58A7B"/>
<path d="M44.7383 202.433L47.4487 206.337L54.8055 199.269L52.0902 195.365L44.7383 202.433Z" fill="#E58A7B"/>
<path d="M80.7041 216.736L80.0555 223.452L76.1787 222.582L76.7789 216.346L80.7041 216.736Z" fill="#CF6F64"/>
<path d="M52.0894 195.365L54.7998 199.276L51.7554 202.199L48.9482 198.379L52.0894 195.365Z" fill="#CF6F64"/>
<path d="M87.4947 109.818C87.4947 109.818 79.8281 144.277 76.0819 164.141C72.1325 185.076 53.271 202.147 53.271 202.147L49.2441 196.775C49.2441 196.775 61.8523 182.485 65.7001 162.952C73.4732 123.284 69.7367 114.885 75.9319 106.817L87.4947 109.818Z" fill="#FF9519"/>
<path opacity="0.6" d="M87.4947 109.818C87.4947 109.818 79.8281 144.277 76.0819 164.141C72.1325 185.076 53.271 202.147 53.271 202.147L49.2441 196.775C49.2441 196.775 61.8523 182.485 65.7001 162.952C73.4732 123.284 69.7367 114.885 75.9319 106.817L87.4947 109.818Z" fill="black"/>
<path d="M48.6344 205.713L46.3741 200.516C46.3371 200.426 46.2768 200.357 46.2046 200.323C46.1324 200.288 46.0533 200.29 45.9821 200.328L42.7586 202.069C42.6786 202.12 42.6074 202.193 42.5497 202.283C42.492 202.373 42.4489 202.479 42.4234 202.592C42.3979 202.706 42.3904 202.826 42.4014 202.944C42.4125 203.062 42.4418 203.175 42.4876 203.277C43.3007 205.063 43.7557 205.875 44.7527 208.155C45.3674 209.558 46.1563 211.689 46.9985 213.625C47.8406 215.56 49.2781 214.573 49.0506 213.67C48.0342 209.61 48.5666 208.435 48.7651 206.629C48.801 206.312 48.7549 205.989 48.6344 205.713Z" fill="#263238"/>
<path d="M53.6147 202.913L48.5908 196.203L49.9557 194.17L56.0735 201.159L53.6147 202.913Z" fill="#F5F5F5"/>
<path opacity="0.3" d="M83.8936 117.159C78.8649 122.355 78.5261 142.206 78.6422 151.17C81.2026 138.64 84.2276 124.693 85.9942 116.632C85.5102 116.074 84.8181 116.197 83.8936 117.159Z" fill="black"/>
<path d="M49.4476 208.545C49.3999 208.543 49.3526 208.533 49.3073 208.512C48.8233 208.318 48.4893 207.142 48.3393 206.46C48.3337 206.436 48.3335 206.41 48.3387 206.386C48.3438 206.362 48.3541 206.34 48.3683 206.323C48.3831 206.309 48.4009 206.302 48.4191 206.302C48.4374 206.302 48.4551 206.309 48.4699 206.323C48.6151 206.421 49.8881 207.311 49.9219 207.986C49.9271 208.059 49.9183 208.133 49.8963 208.2C49.8742 208.267 49.8397 208.325 49.7961 208.37C49.698 208.479 49.5752 208.541 49.4476 208.545ZM48.5813 206.681C48.8184 207.584 49.104 208.168 49.3605 208.279C49.4175 208.298 49.4772 208.297 49.534 208.277C49.5908 208.257 49.6427 208.217 49.6848 208.162C49.7053 208.145 49.7218 208.121 49.7321 208.092C49.7425 208.063 49.7462 208.031 49.7429 207.999C49.7138 207.662 49.0943 207.057 48.5813 206.681Z" fill="#FF9519"/>
<path d="M49.5781 206.902C49.1593 206.9 48.7461 206.774 48.3681 206.532C48.3551 206.519 48.3446 206.502 48.3373 206.483C48.33 206.464 48.3262 206.443 48.3262 206.421C48.3262 206.4 48.33 206.378 48.3373 206.359C48.3446 206.34 48.3551 206.323 48.3681 206.311C48.4117 206.311 49.3652 205.538 49.9073 205.778C49.9775 205.805 50.0423 205.853 50.0967 205.918C50.1512 205.983 50.194 206.064 50.2219 206.155C50.2591 206.242 50.2732 206.343 50.2618 206.442C50.2503 206.542 50.2141 206.633 50.1589 206.7C49.988 206.854 49.7832 206.925 49.5781 206.902ZM48.6101 206.415C49.0554 206.655 49.825 206.752 50.0283 206.512C50.0621 206.473 50.0912 206.408 50.0283 206.259C50.0101 206.2 49.9825 206.147 49.9473 206.105C49.9122 206.062 49.8704 206.03 49.825 206.012C49.3991 205.979 48.9758 206.12 48.6101 206.415Z" fill="#FF9519"/>
<path d="M75.6172 228.435L79.5424 228.824L80.704 216.73L76.7836 216.34L75.6172 228.435Z" fill="#E58A7B"/>
<path d="M91.4151 110.877C91.4151 110.877 92.3831 152.573 90.2003 168.279C87.9158 184.615 80.9607 221.77 80.9607 221.77L75.3027 220.789C75.3027 220.789 78.8843 183.251 80.3993 167.025C82.0594 149.331 79.8862 107.883 79.8862 107.883L91.4151 110.877Z" fill="#FF9519"/>
<path opacity="0.6" d="M91.4151 110.877C91.4151 110.877 92.3831 152.573 90.2003 168.279C87.9158 184.615 80.9607 221.77 80.9607 221.77L75.3027 220.789C75.3027 220.789 78.8843 183.251 80.3993 167.025C82.0594 149.331 79.8862 107.883 79.8862 107.883L91.4151 110.877Z" fill="black"/>
<path d="M95.771 61.2767C95.7178 61.6989 95.8436 62.0757 96.0469 62.1341C96.2502 62.1926 96.4583 61.8873 96.5309 61.4846C96.6035 61.0819 96.4583 60.6856 96.255 60.6337C96.0517 60.5817 95.8243 60.861 95.771 61.2767Z" fill="#263238"/>
<path d="M96.1387 60.6209L96.9276 60.5234C96.9276 60.5234 96.4436 61.212 96.1387 60.6209Z" fill="#263238"/>
<path d="M95.9841 61.751C96.1463 62.7795 96.4117 63.7737 96.773 64.7065C96.5923 64.8175 96.3958 64.8749 96.1971 64.8749C95.9983 64.8749 95.8018 64.8175 95.6211 64.7065L95.9841 61.751Z" fill="#DF5753"/>
<path d="M96.526 59.5621C96.4899 59.5622 96.4547 59.5481 96.4245 59.5215C96.3944 59.495 96.3708 59.4571 96.3566 59.4127C96.2652 59.1181 96.1247 58.8554 95.946 58.6449C95.7674 58.4344 95.5551 58.2815 95.3256 58.198C95.3018 58.1925 95.279 58.1807 95.2585 58.1634C95.2381 58.146 95.2204 58.1234 95.2064 58.0969C95.1925 58.0703 95.1826 58.0403 95.1773 58.0087C95.172 57.977 95.1714 57.9442 95.1756 57.9122C95.185 57.847 95.2131 57.7894 95.2538 57.7517C95.2946 57.7141 95.3447 57.6994 95.3934 57.7108C95.6828 57.8065 95.9515 57.9922 96.1776 58.2528C96.4038 58.5134 96.5811 58.8418 96.6954 59.2113C96.7152 59.2717 96.7167 59.3401 96.6996 59.402C96.6824 59.4639 96.6479 59.5143 96.6034 59.5426L96.526 59.5621Z" fill="#263238"/>
<path d="M85.8395 64.7585C85.9121 67.9414 85.6701 73.6835 83.8115 75.3139C83.8115 75.3139 84.0535 78.5617 88.3272 79.6984C93.0269 80.9196 90.9602 77.1716 90.9602 77.1716C88.4918 75.6841 88.8742 73.1638 89.6147 70.8969L85.8395 64.7585Z" fill="#E58A7B"/>
<path d="M97.9396 81.79C98.9076 82.7774 99.9724 83.8232 101.023 84.778C102.073 85.7329 103.147 86.7267 104.241 87.5906C105.335 88.4545 106.443 89.3054 107.557 90.1044C108.666 90.8738 109.805 91.5633 110.969 92.17C111.071 92.222 111.037 92.17 111.061 92.2155H111.124C111.186 92.2276 111.25 92.2276 111.313 92.2155C111.506 92.2168 111.699 92.1907 111.888 92.1375C112.402 91.9692 112.901 91.7252 113.374 91.41C114.471 90.6634 115.518 89.7942 116.506 88.8118C117.542 87.8309 118.553 86.7592 119.545 85.6419C120.538 84.5247 121.525 83.362 122.474 82.2058L123.926 83.992C122.266 86.8949 120.413 89.5887 118.389 92.0401C117.327 93.3133 116.178 94.4486 114.957 95.4308C114.27 95.9724 113.539 96.4081 112.779 96.7299C112.331 96.91 111.867 97.0147 111.4 97.0417C111.131 97.0615 110.862 97.0462 110.596 96.9962C110.453 96.9736 110.31 96.9389 110.17 96.8923C110.044 96.8468 109.846 96.7754 109.793 96.7429C107.156 95.5756 104.619 94.0385 102.223 92.157C101.042 91.2346 99.8756 90.2798 98.743 89.2535C97.6105 88.2272 96.5263 87.1814 95.418 85.9667L97.9396 81.79Z" fill="#E58A7B"/>
<path d="M122.178 82.6993L123.33 78.7175L125.75 81.9653C125.75 81.9653 124.603 84.9273 122.957 84.9338L122.178 82.6993Z" fill="#E58A7B"/>
<path d="M125.716 77.5679L128.015 78.5357L125.77 81.9589L123.34 78.7176L125.716 77.5679Z" fill="#E58A7B"/>
<path d="M79.7846 228.071H75.3754C75.2984 228.07 75.2237 228.106 75.165 228.173C75.1063 228.239 75.0676 228.332 75.0559 228.434L74.4606 233.118C74.4488 233.235 74.4559 233.354 74.4815 233.467C74.5071 233.581 74.5505 233.685 74.6088 233.774C74.6671 233.863 74.7389 233.933 74.8194 233.982C74.8999 234.03 74.9872 234.054 75.0753 234.053C76.6144 234.021 77.3549 233.897 79.2958 233.897C80.4864 233.897 82.9548 234.066 84.6198 234.066C86.2847 234.066 86.3961 231.877 85.7136 231.676C82.6547 230.792 81.4689 229.565 80.4525 228.396C80.2672 228.181 80.0294 228.065 79.7846 228.071Z" fill="#263238"/>
<path d="M85.452 57.4184C85.06 62.6148 84.8083 64.7779 86.42 67.9152C88.84 72.6246 93.68 72.3322 95.2433 67.4541C96.6324 63.0695 97.0486 55.3268 93.5396 52.3128C92.7935 51.6327 91.9282 51.2252 91.029 51.1303C90.1298 51.0355 89.2277 51.2565 88.4115 51.7718C87.5953 52.287 86.8932 53.0787 86.3742 54.0688C85.8553 55.0589 85.5374 56.2133 85.452 57.4184Z" fill="#E58A7B"/>
<path d="M85.8783 68.7209C84.0391 67.714 82.3209 63.7387 82.3887 57.5224C82.4564 51.3062 85.9073 47.7011 92.0687 50.3188C98.23 52.9366 91.8896 72.0206 85.8783 68.7209Z" fill="#263238"/>
<path d="M91.0957 50.8904C92.9107 49.9355 96.9279 51.1177 96.9279 56.1908L93.022 60.4454L91.0957 50.8904Z" fill="#263238"/>
<path d="M90.5879 50.845C93.0079 50.6566 93.9469 50.6696 96.1394 51.4945C94.6971 49.1691 91.9963 49.9356 90.5879 50.845Z" fill="#263238"/>
<path d="M92.6832 60.1206C92.6082 61.0854 92.7551 62.0579 93.1043 62.9072C93.5883 64.1024 94.3191 63.94 94.5901 62.9722C94.837 62.1018 94.8805 60.4324 94.2029 59.536C93.5253 58.6396 92.7993 59.0488 92.6832 60.1206Z" fill="#E58A7B"/>
<path d="M82.7704 52.9299C84.174 54.0861 88.9462 53.1313 89.9771 50.6695C91.008 48.2076 87.4458 44.0894 84.2175 44.2388C80.9893 44.3882 79.6437 50.3447 82.7704 52.9299Z" fill="#FF9519"/>
<path d="M82.1659 222.225L74.0977 220.828L74.1993 218.256L82.9742 218.769L82.1659 222.225Z" fill="#F5F5F5"/>
<path d="M81.2461 228.993C80.8312 228.983 80.4179 228.92 80.0119 228.805C79.993 228.801 79.9756 228.788 79.9624 228.769C79.9493 228.751 79.9412 228.727 79.9393 228.701C79.9368 228.675 79.9401 228.649 79.9487 228.626C79.9573 228.603 79.9709 228.584 79.9877 228.571C80.1668 228.448 81.7543 227.369 82.2286 227.733C82.2733 227.765 82.3108 227.813 82.3371 227.871C82.3635 227.93 82.3778 227.996 82.3787 228.064C82.3882 228.177 82.3768 228.291 82.3456 228.397C82.3143 228.502 82.2642 228.595 82.1996 228.668C81.9196 228.922 81.5824 229.037 81.2461 228.993ZM80.3217 228.629C81.188 228.824 81.8317 228.772 82.0786 228.487C82.1203 228.437 82.1526 228.374 82.1728 228.304C82.193 228.234 82.2005 228.158 82.1947 228.084C82.1949 228.056 82.1896 228.029 82.1794 228.005C82.1692 227.981 82.1545 227.961 82.1367 227.947C81.8801 227.753 80.9751 228.214 80.3217 228.629Z" fill="#FF9519"/>
<path d="M80.0313 228.805C80.0122 228.811 79.9923 228.811 79.9732 228.805C79.9607 228.791 79.951 228.773 79.9451 228.752C79.9391 228.732 79.9372 228.71 79.9393 228.688C79.9393 228.597 80.1281 226.44 81.0041 226.44H81.0816C81.3333 226.473 81.4059 226.648 81.4252 226.785C81.4978 227.382 80.5443 228.526 80.07 228.811L80.0313 228.805ZM80.9993 226.674C80.433 226.674 80.2104 227.921 80.1378 228.461C80.6218 228.064 81.2752 227.161 81.2316 226.811C81.2316 226.811 81.2316 226.7 81.0525 226.674H80.9993Z" fill="#FF9519"/>
<path d="M77.0164 74.7227C74.2915 74.8916 71.6924 80.952 71.6924 80.952L75.2885 90.8123C75.2885 90.8123 80.1624 85.3625 80.2253 80.0036C80.2785 76.522 79.6929 74.5603 77.0164 74.7227Z" fill="#FF9519"/>
<path opacity="0.8" d="M77.0164 74.7227C74.2915 74.8916 71.6924 80.952 71.6924 80.952L75.2885 90.8123C75.2885 90.8123 80.1624 85.3625 80.2253 80.0036C80.2785 76.522 79.6929 74.5603 77.0164 74.7227Z" fill="white"/>
<path d="M75.9131 106.805L91.6528 110.897C99.087 81.5107 97.3107 80.5623 97.3107 80.5623C96.1544 79.7244 94.9616 78.9803 93.7388 78.3343L93.521 78.2239C92.5191 77.7367 92.3062 77.6588 90.9558 77.1327C88.6374 76.3987 86.4788 75.8011 83.8071 75.2814L83.2989 75.184C82.8149 75.106 82.3309 75.0346 81.8711 74.9761C81.5614 74.9306 81.2468 74.9047 80.9515 74.8722L79.9351 74.8007C78.2121 74.6838 76.9827 74.7228 76.9827 74.7228C77.883 93.0599 77.2247 98.3278 75.9131 106.805Z" fill="#FF9519"/>
<path opacity="0.6" d="M75.9131 106.805L91.6528 110.897C99.087 81.5107 97.3107 80.5623 97.3107 80.5623C96.1544 79.7244 94.9616 78.9803 93.7388 78.3343L93.521 78.2239C92.5191 77.7367 92.3062 77.6588 90.9558 77.1327C88.6374 76.3987 86.4788 75.8011 83.8071 75.2814L83.2989 75.184C82.8149 75.106 82.3309 75.0346 81.8711 74.9761C81.5614 74.9306 81.2468 74.9047 80.9515 74.8722L79.9351 74.8007C78.2121 74.6838 76.9827 74.7228 76.9827 74.7228C77.883 93.0599 77.2247 98.3278 75.9131 106.805Z" fill="white"/>
<path opacity="0.2" d="M93.4727 87.6294C94.097 89.2793 94.8375 91.4683 95.8297 92.9818C96.1153 91.5917 96.3525 90.3835 96.5557 89.2598L93.4727 87.6294Z" fill="#FF9519"/>
<path d="M80.8541 92.04C84.7793 87.8763 85.607 84.0049 85.06 80.6207C84.5131 77.2365 83.8839 71.332 84.334 69.3574C84.7842 67.3827 86.3523 63.284 86.0329 59.7829C85.7134 56.2817 84.9681 51.4165 85.6844 49.312C86.4007 47.2074 88.6755 45.9602 86.8315 42.9722C85.9361 41.5237 82.1415 41.3029 81.1493 45.3431C80.1571 49.3834 76.0818 51.1307 74.4798 51.5334C72.8778 51.9362 70.056 54.3525 69.5672 58.2889C69.0784 62.2252 67.1085 63.7776 64.4029 65.7978C61.6974 67.8179 57.806 75.736 59.3548 82.7643C61.4457 92.3843 75.0074 98.2628 80.8541 92.04Z" fill="#263238"/>
<path d="M92.6542 78.7824C93.8739 77.4832 99.1253 81.7573 100.732 83.5436L99.7932 92.8064C99.7932 92.8064 92.2912 88.6362 91.7782 85.7846C91.2264 82.8161 91.6862 79.7762 92.6542 78.7824Z" fill="#FF9519"/>
<path opacity="0.6" d="M92.6542 78.7824C93.8739 77.4832 99.1253 81.7573 100.732 83.5436L99.7932 92.8064C99.7932 92.8064 92.2912 88.6362 91.7782 85.7846C91.2264 82.8161 91.6862 79.7762 92.6542 78.7824Z" fill="white"/>
<path d="M75.8257 105.512L74.8867 107.207C74.8141 107.337 74.9255 107.519 75.1045 107.571L91.6138 111.858C91.7541 111.897 91.8848 111.858 91.909 111.715L92.2817 109.87C92.3059 109.747 92.1994 109.604 92.0445 109.565L76.1016 105.421C76.0537 105.402 76.0029 105.4 75.9544 105.416C75.9059 105.432 75.8615 105.465 75.8257 105.512Z" fill="#FF9519"/>
<path d="M77.6741 108.448L77.2482 108.337C77.1659 108.337 77.1078 108.24 77.1223 108.168L77.6063 105.778C77.6063 105.707 77.7031 105.668 77.7903 105.687L78.2162 105.798C78.2985 105.798 78.3565 105.895 78.342 105.966L77.858 108.357C77.8435 108.428 77.7612 108.467 77.6741 108.448Z" fill="#FF9519"/>
<path d="M88.4582 111.28L88.0275 111.169C87.9452 111.169 87.8871 111.072 87.9016 111.001L88.3856 108.61C88.3856 108.545 88.4824 108.506 88.5696 108.526L88.9955 108.636C89.0826 108.636 89.1407 108.734 89.1262 108.805L88.6422 111.195C88.6228 111.267 88.5405 111.306 88.4582 111.28Z" fill="#FF9519"/>
<path opacity="0.6" d="M77.6741 108.448L77.2482 108.337C77.1659 108.337 77.1078 108.24 77.1223 108.168L77.6063 105.778C77.6063 105.707 77.7031 105.668 77.7903 105.687L78.2162 105.798C78.2985 105.798 78.3565 105.895 78.342 105.966L77.858 108.357C77.8435 108.428 77.7612 108.467 77.6741 108.448Z" fill="black"/>
<path opacity="0.6" d="M88.4582 111.28L88.0275 111.169C87.9452 111.169 87.8871 111.072 87.9016 111.001L88.3856 108.61C88.3856 108.545 88.4824 108.506 88.5696 108.526L88.9955 108.636C89.0826 108.636 89.1407 108.734 89.1262 108.805L88.6422 111.195C88.6228 111.267 88.5405 111.306 88.4582 111.28Z" fill="black"/>
</svg>
