<svg width="243" height="243" viewBox="0 0 243 243" fill="none" xmlns="http://www.w3.org/2000/svg">
<path d="M236.732 241.705C236.732 241.784 184.821 241.842 120.821 241.842C56.8216 241.842 4.91113 241.784 4.91113 241.705C4.91113 241.627 56.8108 241.569 120.849 241.569C184.886 241.569 236.732 241.632 236.732 241.705Z" fill="#263238"/>
<path d="M192.475 9.53857H61.9569C58.9356 9.53857 56.4863 11.915 56.4863 14.8465V185.515C56.4863 188.447 58.9356 190.823 61.9569 190.823H192.475C195.496 190.823 197.946 188.447 197.946 185.515V14.8465C197.946 11.915 195.496 9.53857 192.475 9.53857Z" fill="#455A64"/>
<path d="M188.467 18.1047H65.9541V178.368H188.467V18.1047Z" fill="white"/>
<path d="M188.473 178.368C188.473 177.275 188.419 112.996 188.343 18.0787L188.473 18.1995H65.9707L66.1116 18.0629C66.1116 77.8324 66.1116 133.214 66.1116 178.352L65.9924 178.236L188.511 178.352L65.9924 178.462H65.8786V178.352C65.8786 133.24 65.8786 77.8586 65.8516 18.0629V17.9263H66.0086H188.511H188.635V18.0524C188.527 112.98 188.473 177.275 188.473 178.368Z" fill="#263238"/>
<path d="M91.7474 45.002L88.893 40.8345H85.7352V45.002H82.3066V30.0452H88.7196C89.8971 30.018 91.0661 30.2442 92.1428 30.7073C93.059 31.1036 93.835 31.7524 94.3743 32.573C94.9156 33.4418 95.1883 34.4433 95.1597 35.4582C95.1928 36.4783 94.9159 37.4853 94.3635 38.3539C93.8192 39.1701 93.0366 39.8105 92.1157 40.1933L95.4413 45.002H91.7474ZM90.8808 33.54C90.2068 33.0472 89.3717 32.8083 88.5301 32.8673H85.7352V38.0806H88.5301C89.3739 38.1371 90.21 37.8923 90.8808 37.3922C91.3985 36.8769 91.6883 36.1857 91.6883 35.4661C91.6883 34.7464 91.3985 34.0553 90.8808 33.54Z" fill="#FF9519"/>
<path d="M99.2485 55.3392L95.8579 50.4411L92.5268 55.3602H88.7949L93.9946 48.1551L89.0549 41.1917H92.7489L95.9987 45.7849L99.1564 41.1707H102.666L97.7915 48.0027L103.029 55.3287L99.2485 55.3392Z" fill="#FF9519"/>
<path d="M145.927 33.6187H124.9V38.6691H145.927V33.6187Z" fill="#E0E0E0"/>
<path d="M176.762 36.8088C176.762 36.8876 171.01 36.9454 163.914 36.9454C156.819 36.9454 151.072 36.8876 151.072 36.8088C151.072 36.7299 156.819 36.6721 163.914 36.6721C171.01 36.6721 176.762 36.7352 176.762 36.8088Z" fill="#263238"/>
<path d="M176.28 42.8682C176.28 42.9418 164.776 43.0049 150.59 43.0049C136.405 43.0049 124.9 42.9418 124.9 42.8682C124.9 42.7946 136.399 42.7263 150.59 42.7263C164.781 42.7263 176.28 42.7894 176.28 42.8682Z" fill="#263238"/>
<path d="M176.28 48.8014C176.28 48.875 164.776 48.9381 150.59 48.9381C136.405 48.9381 124.9 48.875 124.9 48.8014C124.9 48.7279 136.399 48.6648 150.59 48.6648C164.781 48.6648 176.28 48.7226 176.28 48.8014Z" fill="#263238"/>
<path d="M184.297 64.6307C184.297 64.7042 158.737 64.7673 127.219 64.7673C95.701 64.7673 70.1357 64.7042 70.1357 64.6307C70.1357 64.5571 95.6848 64.4888 127.219 64.4888C158.753 64.4888 184.297 64.5413 184.297 64.6307Z" fill="#263238"/>
<path d="M184.297 154.214C184.297 154.288 158.737 154.351 127.219 154.351C95.701 154.351 70.1357 154.288 70.1357 154.214C70.1357 154.14 95.6848 154.077 127.219 154.077C158.753 154.077 184.297 154.135 184.297 154.214Z" fill="#263238"/>
<path d="M114.761 73.6858H79.5381V80.0974H114.761V73.6858Z" fill="#E0E0E0"/>
<path d="M94.7852 163.358H79.5381V169.77H94.7852V163.358Z" fill="#E0E0E0"/>
<path d="M145.981 163.358H130.734V169.77H145.981V163.358Z" fill="#E0E0E0"/>
<path d="M120.34 167.799C120.34 167.878 115.579 167.936 109.708 167.936C103.837 167.936 99.0703 167.878 99.0703 167.799C99.0703 167.72 103.831 167.663 109.708 167.663C115.585 167.663 120.34 167.726 120.34 167.799Z" fill="#263238"/>
<path d="M175.088 167.799C175.088 167.878 170.327 167.936 164.456 167.936C158.585 167.936 153.818 167.878 153.818 167.799C153.818 167.72 158.579 167.663 164.456 167.663C170.333 167.663 175.088 167.726 175.088 167.799Z" fill="#263238"/>
<path d="M173.827 89.7514C173.827 89.825 152.957 89.888 127.246 89.888C101.534 89.888 80.665 89.825 80.665 89.7514C80.665 89.6778 101.523 89.6147 127.246 89.6147C152.968 89.6147 173.827 89.6726 173.827 89.7514Z" fill="#263238"/>
<path d="M175.636 97.0671C175.636 97.1459 154.365 97.2037 128.134 97.2037C101.902 97.2037 80.627 97.1459 80.627 97.0671C80.627 96.9882 101.892 96.9304 128.134 96.9304C154.376 96.9304 175.636 96.9935 175.636 97.0671Z" fill="#263238"/>
<path d="M126.682 104.388C126.682 104.461 116.126 104.524 103.11 104.524C90.0946 104.524 79.5381 104.461 79.5381 104.388C79.5381 104.314 90.0892 104.251 103.11 104.251C116.131 104.251 126.682 104.309 126.682 104.388Z" fill="#263238"/>
<path d="M174.937 130.927C174.937 130.927 174.834 130.97 174.623 131.033L173.702 131.306C172.512 131.649 171.302 131.923 170.078 132.126C169.195 132.277 168.3 132.359 167.403 132.373C166.329 132.393 165.259 132.264 164.223 131.989C163.031 131.658 161.932 131.067 161.011 130.26C159.973 129.34 159.291 128.103 159.078 126.755C158.966 126.026 159.058 125.282 159.343 124.6C159.662 123.89 160.185 123.285 160.849 122.855C161.192 122.625 161.579 122.463 161.987 122.379C162.395 122.295 162.817 122.291 163.227 122.366C163.642 122.466 164.032 122.644 164.375 122.892C164.709 123.163 164.989 123.493 165.198 123.864C165.597 124.633 165.795 125.484 165.778 126.345C165.782 127.225 165.616 128.098 165.29 128.92C164.583 130.621 163.418 132.106 161.916 133.219C160.343 134.405 158.474 135.167 156.499 135.426C155.487 135.566 154.459 135.554 153.45 135.389C152.938 135.309 152.433 135.192 151.939 135.037C151.445 134.861 150.964 134.654 150.498 134.417C149.569 133.914 148.741 133.252 148.055 132.462C147.346 131.656 146.85 130.695 146.609 129.661C146.345 128.599 146.481 127.48 146.994 126.508C147.503 125.523 148.347 124.74 149.382 124.29C149.907 124.06 150.482 123.962 151.056 124.006C151.625 124.061 152.168 124.26 152.632 124.584C153.513 125.262 154.121 126.218 154.349 127.286C154.598 128.308 154.657 129.365 154.522 130.407C154.417 131.428 154.182 132.432 153.824 133.398C153.159 135.302 151.985 137.002 150.422 138.322C148.903 139.586 147.003 140.34 145.006 140.471C143.161 140.654 141.31 140.193 139.783 139.171C138.257 138.149 137.155 136.633 136.676 134.895C136.185 133.344 136.25 131.677 136.86 130.165C137.146 129.444 137.639 128.817 138.279 128.358C138.599 128.13 138.97 127.981 139.362 127.921C139.747 127.866 140.14 127.938 140.478 128.126C140.787 128.322 141.046 128.584 141.233 128.892C141.421 129.2 141.533 129.546 141.561 129.903C141.652 130.556 141.624 131.219 141.48 131.863C141.266 133.037 140.902 134.181 140.397 135.268C139.959 136.212 139.414 137.106 138.772 137.933C138.235 138.633 137.629 139.281 136.963 139.867C136.054 140.69 135.029 141.384 133.919 141.927C133.634 142.074 133.341 142.206 133.041 142.321L132.732 142.437L133.03 142.295C133.225 142.2 133.529 142.085 133.897 141.88C134.988 141.313 135.996 140.606 136.892 139.778C138.315 138.477 139.462 136.921 140.272 135.195C140.778 134.121 141.142 132.989 141.355 131.826C141.488 131.198 141.511 130.554 141.426 129.918C141.399 129.591 141.297 129.275 141.126 128.991C140.955 128.708 140.721 128.466 140.44 128.284C140.14 128.118 139.79 128.055 139.449 128.105C139.097 128.166 138.765 128.307 138.479 128.515C137.872 128.952 137.406 129.548 137.136 130.234C136.549 131.703 136.494 133.323 136.979 134.827C137.45 136.509 138.52 137.974 140 138.961C141.48 139.949 143.273 140.394 145.06 140.219C146.997 140.083 148.837 139.346 150.309 138.117C151.834 136.826 152.978 135.165 153.623 133.303C153.972 132.356 154.201 131.371 154.306 130.37C154.435 129.359 154.376 128.334 154.133 127.343C153.918 126.337 153.342 125.438 152.508 124.805C152.082 124.507 151.581 124.325 151.058 124.278C150.536 124.231 150.009 124.321 149.534 124.537C148.556 124.965 147.76 125.707 147.281 126.639C146.8 127.552 146.673 128.602 146.923 129.598C147.185 130.573 147.653 131.484 148.299 132.273C148.944 133.062 149.752 133.712 150.671 134.181C151.122 134.408 151.587 134.608 152.063 134.78C153.493 135.232 155.01 135.363 156.499 135.163C157.466 135.033 158.411 134.78 159.311 134.412C160.189 134.048 161.017 133.578 161.775 133.014C163.244 131.925 164.383 130.473 165.074 128.81C165.391 128.017 165.554 127.174 165.556 126.324C165.575 125.503 165.389 124.69 165.014 123.954C164.818 123.61 164.561 123.302 164.256 123.044C163.944 122.802 163.585 122.623 163.2 122.519C162.819 122.448 162.427 122.452 162.048 122.529C161.668 122.607 161.309 122.757 160.99 122.971C160.359 123.373 159.862 123.945 159.56 124.616C159.285 125.266 159.193 125.975 159.294 126.671C159.5 127.976 160.157 129.175 161.158 130.071C162.056 130.864 163.128 131.448 164.294 131.779C165.312 132.057 166.366 132.191 167.424 132.178C168.315 132.173 169.205 132.099 170.084 131.958C171.305 131.764 172.514 131.507 173.707 131.19L174.639 130.943L174.937 130.927Z" fill="#263238"/>
<path d="M147.654 7.99878H106.771V23.1658H147.654V7.99878Z" fill="#E0E0E0"/>
<path d="M147.655 23.1604C147.655 23.1604 147.655 23.0658 147.655 22.8872C147.655 22.7085 147.655 22.4405 147.655 22.0989C147.655 21.3999 147.655 20.3909 147.655 19.0875C147.655 16.4598 147.622 12.6917 147.6 7.99866L147.698 8.09326L106.821 8.1353L106.961 7.99866C106.961 13.2961 106.961 18.4201 106.961 23.1604L106.826 23.0291L136.074 23.0921L144.594 23.1289H146.885H147.481H147.687C147.624 23.1341 147.561 23.1341 147.498 23.1289H146.918H144.659L136.166 23.1657L106.804 23.2235H106.669V23.0921C106.669 18.3623 106.669 13.2278 106.669 7.93034L106.81 7.7937L147.687 7.83575H147.785V7.93034C147.785 12.6602 147.747 16.4441 147.73 19.077C147.73 20.3698 147.73 21.3736 147.73 22.0673C147.73 22.3984 147.73 22.6559 147.73 22.8399C147.73 23.0238 147.655 23.1604 147.655 23.1604Z" fill="#263238"/>
<path d="M196.619 241.475H170.144C169.575 241.475 169.03 241.258 168.625 240.872C168.22 240.486 167.987 239.96 167.977 239.409L167.338 170.127H198.114L198.753 239.367C198.754 239.92 198.531 240.451 198.132 240.846C197.732 241.24 197.189 241.466 196.619 241.475Z" fill="#FF9519"/>
<g opacity="0.3">
<path d="M192.725 185.505V238.842C192.725 238.842 197.058 240.239 197.269 236.561C197.48 232.882 197.366 185.494 197.366 185.494L192.725 185.505Z" fill="white"/>
</g>
<path d="M195.21 166.612H170.295C169.864 166.612 169.451 166.778 169.146 167.073C168.841 167.369 168.67 167.77 168.67 168.188V169.739H196.835V168.162C196.828 167.748 196.654 167.354 196.35 167.064C196.046 166.774 195.636 166.612 195.21 166.612Z" fill="#FAFAFA"/>
<path d="M195.211 166.612C195.301 166.599 195.392 166.599 195.482 166.612C195.749 166.644 196.003 166.744 196.218 166.901C196.397 167.029 196.547 167.191 196.66 167.377C196.773 167.563 196.845 167.769 196.874 167.983C196.874 168.509 196.874 169.034 196.874 169.707V169.77H196.803C191.642 169.807 181.67 169.838 170.263 169.838H168.503V168.235C168.494 167.974 168.547 167.715 168.657 167.476C168.767 167.238 168.931 167.027 169.137 166.859C169.343 166.692 169.585 166.573 169.846 166.512C170.096 166.468 170.351 166.452 170.604 166.464H172.045H177.521L186.729 166.496L192.92 166.538L186.729 166.58L177.521 166.612H172.045H170.604C170.372 166.598 170.14 166.612 169.911 166.654C169.693 166.707 169.49 166.805 169.315 166.943C168.535 167.515 168.849 168.619 168.774 169.57L168.633 169.434H170.258C181.681 169.434 191.652 169.46 196.798 169.502L196.728 169.57C196.728 168.924 196.728 168.341 196.728 167.862C196.707 167.658 196.644 167.459 196.542 167.279C196.441 167.098 196.303 166.939 196.137 166.811C195.852 166.667 195.532 166.598 195.211 166.612Z" fill="#263238"/>
<path d="M199.939 168.987H165.539C164.75 168.987 164.109 169.608 164.109 170.374V184.107C164.109 184.873 164.75 185.494 165.539 185.494H199.939C200.728 185.494 201.369 184.873 201.369 184.107V170.374C201.369 169.608 200.728 168.987 199.939 168.987Z" fill="#FAFAFA"/>
<path d="M199.939 185.505C199.939 185.505 200.037 185.505 200.21 185.463C200.47 185.41 200.708 185.286 200.898 185.105C201.531 184.643 201.277 183.529 201.315 182.251C201.315 179.624 201.288 175.866 201.271 171.215C201.271 170.926 201.271 170.632 201.271 170.332C201.262 170.052 201.157 169.782 200.974 169.565C200.782 169.344 200.521 169.189 200.232 169.124C199.919 169.091 199.603 169.082 199.289 169.097H195.205H186.192H165.55C165.344 169.096 165.14 169.143 164.956 169.234C164.772 169.326 164.614 169.459 164.494 169.623C164.378 169.778 164.302 169.959 164.272 170.148C164.261 170.362 164.261 170.576 164.272 170.789V178.515C164.272 180.186 164.272 181.831 164.272 183.444V184.049C164.273 184.23 164.314 184.409 164.391 184.574C164.468 184.738 164.581 184.884 164.721 185.002C164.861 185.12 165.026 185.207 165.204 185.258C165.389 185.308 165.581 185.325 165.773 185.31H167.571L184.432 185.336L195.806 185.384H198.894L195.806 185.41L184.432 185.452L167.571 185.484H165.773C165.557 185.498 165.341 185.477 165.133 185.42C164.918 185.36 164.719 185.256 164.549 185.114C164.379 184.973 164.242 184.798 164.148 184.601C164.056 184.4 164.008 184.184 164.007 183.965V183.36C164.007 181.749 164.007 180.106 164.007 178.431C164.007 176.754 164.007 175.046 164.007 173.317V170.69C164.007 170.464 164.007 170.259 164.007 170.012C164.044 169.77 164.138 169.539 164.283 169.339C164.428 169.14 164.621 168.978 164.844 168.866C165.068 168.755 165.315 168.697 165.567 168.698H186.209H195.221H199.305C199.636 168.682 199.968 168.694 200.297 168.735C200.632 168.817 200.932 169.001 201.152 169.26C201.362 169.515 201.481 169.828 201.494 170.154V171.042C201.494 175.688 201.456 179.45 201.445 182.078C201.445 182.724 201.445 183.303 201.445 183.807C201.461 184.024 201.427 184.241 201.344 184.443C201.262 184.646 201.133 184.827 200.968 184.974C200.769 185.155 200.518 185.274 200.248 185.315C200.159 185.398 200.054 185.463 199.939 185.505Z" fill="#263238"/>
<path d="M166.277 185.221C166.195 185.221 166.136 181.705 166.136 177.374C166.136 173.044 166.195 169.523 166.277 169.523C166.358 169.523 166.417 173.039 166.417 177.374C166.417 181.71 166.352 185.221 166.277 185.221Z" fill="#263238"/>
<path d="M169.093 185.221C169.012 185.221 168.952 181.705 168.952 177.374C168.952 173.044 169.012 169.523 169.093 169.523C169.174 169.523 169.234 173.039 169.234 177.374C169.234 181.71 169.169 185.221 169.093 185.221Z" fill="#263238"/>
<path d="M171.909 185.221C171.834 185.221 171.769 181.705 171.769 177.374C171.769 173.044 171.834 169.523 171.909 169.523C171.985 169.523 172.05 173.039 172.05 177.374C172.05 181.71 171.985 185.221 171.909 185.221Z" fill="#263238"/>
<path d="M174.726 185.221C174.65 185.221 174.585 181.705 174.585 177.374C174.585 173.044 174.65 169.523 174.726 169.523C174.802 169.523 174.867 173.039 174.867 177.374C174.867 181.71 174.807 185.221 174.726 185.221Z" fill="#263238"/>
<path d="M177.548 185.221C177.467 185.221 177.407 181.705 177.407 177.374C177.407 173.044 177.467 169.523 177.548 169.523C177.629 169.523 177.689 173.039 177.689 177.374C177.689 181.71 177.624 185.221 177.548 185.221Z" fill="#263238"/>
<path d="M180.364 185.221C180.283 185.221 180.224 181.705 180.224 177.374C180.224 173.044 180.283 169.523 180.364 169.523C180.446 169.523 180.505 173.039 180.505 177.374C180.505 181.71 180.44 185.221 180.364 185.221Z" fill="#263238"/>
<path d="M183.181 185.221C183.105 185.221 183.04 181.705 183.04 177.374C183.04 173.044 183.105 169.523 183.181 169.523C183.257 169.523 183.322 173.039 183.322 177.374C183.322 181.71 183.257 185.221 183.181 185.221Z" fill="#263238"/>
<path d="M185.997 185.221C185.921 185.221 185.856 181.705 185.856 177.374C185.856 173.044 185.921 169.523 185.997 169.523C186.073 169.523 186.138 173.039 186.138 177.374C186.138 181.71 186.079 185.221 185.997 185.221Z" fill="#263238"/>
<path d="M188.814 185.221C188.738 185.221 188.673 181.705 188.673 177.374C188.673 173.044 188.738 169.523 188.814 169.523C188.89 169.523 188.96 173.039 188.96 177.374C188.96 181.71 188.895 185.221 188.814 185.221Z" fill="#263238"/>
<path d="M191.636 185.221C191.555 185.221 191.495 181.705 191.495 177.374C191.495 173.044 191.555 169.523 191.636 169.523C191.717 169.523 191.777 173.039 191.777 177.374C191.777 181.71 191.712 185.221 191.636 185.221Z" fill="#263238"/>
<path d="M194.452 185.221C194.377 185.221 194.312 181.705 194.312 177.374C194.312 173.044 194.377 169.523 194.452 169.523C194.528 169.523 194.593 173.039 194.593 177.374C194.593 181.71 194.528 185.221 194.452 185.221Z" fill="#263238"/>
<path d="M197.269 185.221C197.193 185.221 197.128 181.705 197.128 177.374C197.128 173.044 197.193 169.523 197.269 169.523C197.345 169.523 197.41 173.039 197.41 177.374C197.41 181.71 197.35 185.221 197.269 185.221Z" fill="#263238"/>
<path d="M200.085 185.221C200.009 185.221 199.944 181.705 199.944 177.374C199.944 173.044 200.009 169.523 200.085 169.523C200.161 169.523 200.226 173.039 200.226 177.374C200.226 181.71 200.166 185.221 200.085 185.221Z" fill="#263238"/>
<path d="M196.408 197.928H169.765V218.629H196.408V197.928Z" fill="white"/>
<path d="M174.341 204.518L173.718 203.646H173.036V204.518H172.277V201.397H173.669C173.923 201.391 174.174 201.439 174.406 201.539C174.605 201.618 174.774 201.754 174.893 201.928C175.01 202.109 175.068 202.319 175.061 202.532C175.067 202.744 175.007 202.953 174.888 203.131C174.768 203.303 174.599 203.436 174.401 203.515L175.121 204.518H174.341ZM174.151 202.127C174.004 202.024 173.824 201.974 173.642 201.985H173.036V203.073H173.642C173.824 203.085 174.004 203.035 174.151 202.931C174.207 202.879 174.25 202.816 174.28 202.747C174.31 202.678 174.326 202.604 174.326 202.529C174.326 202.454 174.31 202.38 174.28 202.311C174.25 202.242 174.207 202.18 174.151 202.127Z" fill="#263238"/>
<path d="M175.966 206.673L175.23 205.648L174.509 206.673H173.702L174.829 205.17L173.745 203.72H174.547L175.246 204.676L175.934 203.72H176.697L175.614 205.144L176.746 206.673H175.966Z" fill="#263238"/>
<path d="M194.452 201.392H179.237V203.636H194.452V201.392Z" fill="#E0E0E0"/>
<path d="M192.724 209.206C192.724 209.28 188.283 209.343 182.802 209.343C177.32 209.343 172.879 209.28 172.879 209.206C172.879 209.133 177.32 209.07 182.802 209.07C188.283 209.07 192.724 209.154 192.724 209.206Z" fill="#263238"/>
<path d="M192.724 211.54C192.724 211.619 188.283 211.676 182.802 211.676C177.32 211.676 172.879 211.619 172.879 211.54C172.879 211.461 177.32 211.403 182.802 211.403C188.283 211.403 192.724 211.466 192.724 211.54Z" fill="#263238"/>
<path d="M181.724 214.467H171.443V216.391H181.724V214.467Z" fill="#E0E0E0"/>
<path d="M195.801 217.988C195.801 217.988 195.801 217.862 195.801 217.62C195.801 217.378 195.801 217.021 195.801 216.569C195.801 215.639 195.801 214.299 195.774 212.591C195.774 209.164 195.736 204.287 195.714 198.401L195.828 198.517H170.29C170.257 198.543 170.555 198.259 170.431 198.385V203.599C170.431 205.312 170.431 206.994 170.431 208.633C170.431 211.918 170.431 215.05 170.431 217.967L170.306 217.846L188.722 217.909L193.954 217.941H195.351H195.839C195.839 217.941 195.806 217.941 195.725 217.941H195.379H194.008L188.803 217.972L170.301 218.035H170.176V217.909C170.176 214.992 170.176 211.86 170.176 208.576C170.176 206.936 170.176 205.254 170.176 203.541V198.328C170.052 198.443 170.349 198.154 170.317 198.186H195.855H195.974V198.301C195.974 204.214 195.926 209.122 195.915 212.564C195.915 214.257 195.888 215.592 195.882 216.517C195.882 216.958 195.882 217.3 195.882 217.568C195.882 217.836 195.801 217.988 195.801 217.988Z" fill="#263238"/>
<path d="M169.093 235.825C169.012 235.825 168.952 225.02 168.952 211.692C168.952 198.365 169.012 187.56 169.093 187.56C169.174 187.56 169.234 198.365 169.234 211.692C169.234 225.02 169.169 235.825 169.093 235.825Z" fill="white"/>
<path d="M196.435 240.35C196.435 240.423 190.623 240.486 183.436 240.486C176.248 240.486 170.437 240.423 170.437 240.35C170.437 240.276 176.248 240.213 183.436 240.213C190.623 240.213 196.435 240.276 196.435 240.35Z" fill="#263238"/>
<path d="M222.839 241.443H201.39C200.93 241.443 200.489 241.267 200.163 240.953C199.836 240.639 199.65 240.212 199.646 239.766L199.104 183.644H224.02L224.534 239.735C224.54 240.179 224.366 240.607 224.048 240.927C223.731 241.246 223.296 241.432 222.839 241.443Z" fill="#455A64"/>
<g opacity="0.3">
<path d="M219.682 196.089V239.309C219.682 239.309 223.191 240.439 223.365 237.459C223.538 234.479 223.441 196.089 223.441 196.089H219.682Z" fill="white"/>
</g>
<path d="M221.388 180.775H201.797C201.366 180.775 200.953 180.941 200.648 181.236C200.343 181.532 200.172 181.933 200.172 182.351V183.292H222.996V182.351C222.996 181.936 222.828 181.537 222.526 181.242C222.225 180.947 221.816 180.779 221.388 180.775Z" fill="#FAFAFA"/>
<path d="M221.388 180.775C221.465 180.764 221.544 180.764 221.621 180.775C221.852 180.794 222.075 180.866 222.271 180.985C222.597 181.177 222.845 181.472 222.975 181.821C223.049 182.043 223.082 182.276 223.072 182.509C223.072 182.756 223.072 183.035 223.072 183.287V183.402H223.002C218.783 183.444 210.859 183.471 201.797 183.471H200.031V183.334C200.031 182.935 200.031 182.572 200.031 182.152C200.093 181.739 200.309 181.363 200.637 181.094C200.965 180.824 201.384 180.681 201.813 180.691H202.962H207.322L214.655 180.717L219.568 180.759L220.901 180.785C221.054 180.783 221.208 180.791 221.361 180.812C221.208 180.823 221.054 180.823 220.901 180.812L219.568 180.838L214.655 180.88L207.322 180.911H201.84C201.481 180.903 201.131 181.02 200.855 181.242C200.572 181.468 200.388 181.789 200.34 182.141C200.307 182.488 200.34 182.903 200.34 183.287L200.199 183.15H201.824C210.886 183.15 218.81 183.176 223.029 183.218L222.959 183.287C222.959 183.014 222.959 182.761 222.959 182.509C222.977 182.289 222.951 182.068 222.883 181.857C222.773 181.525 222.549 181.24 222.249 181.048C221.988 180.892 221.693 180.799 221.388 180.775Z" fill="#263238"/>
<path d="M225.26 182.719H197.935C197.145 182.719 196.505 183.34 196.505 184.107V194.707C196.505 195.473 197.145 196.094 197.935 196.094H225.26C226.05 196.094 226.69 195.473 226.69 194.707V184.107C226.69 183.34 226.05 182.719 225.26 182.719Z" fill="#FAFAFA"/>
<path d="M225.255 196.089C225.542 196.068 225.819 195.974 226.057 195.816C226.332 195.618 226.524 195.33 226.598 195.006C226.633 194.794 226.642 194.579 226.625 194.365C226.625 194.134 226.625 193.882 226.625 193.624C226.625 191.522 226.598 188.479 226.582 184.737C226.582 184.506 226.582 184.259 226.582 184.028C226.568 183.802 226.491 183.584 226.36 183.397C226.225 183.202 226.039 183.046 225.821 182.945C225.603 182.844 225.36 182.803 225.12 182.824H221.826H214.568H197.935C197.601 182.825 197.28 182.952 197.04 183.177C196.799 183.402 196.658 183.709 196.646 184.033C196.646 184.737 196.646 185.436 196.646 186.135V190.255C196.646 191.608 196.646 192.932 196.646 194.229C196.616 194.535 196.647 194.843 196.738 195.138C196.852 195.408 197.056 195.634 197.317 195.779C197.591 195.911 197.897 195.965 198.2 195.937H199.164L212.749 195.968L221.908 196.01H224.399L221.908 196.036L212.749 196.078L199.164 196.11H198.2C197.862 196.168 197.513 196.136 197.193 196.015C196.877 195.841 196.631 195.569 196.494 195.243C196.427 195.075 196.391 194.897 196.386 194.717V194.229C196.386 192.932 196.386 191.608 196.386 190.255V184.054C196.401 183.66 196.573 183.286 196.866 183.012C197.159 182.737 197.55 182.584 197.956 182.583H214.59H221.848H225.141C225.418 182.569 225.693 182.624 225.942 182.743C226.19 182.861 226.403 183.04 226.56 183.261C226.707 183.479 226.791 183.731 226.804 183.991C226.804 184.243 226.804 184.475 226.804 184.711C226.804 188.453 226.766 191.485 226.755 193.598C226.755 193.855 226.755 194.123 226.755 194.339C226.766 194.559 226.752 194.779 226.712 194.996C226.628 195.34 226.413 195.64 226.111 195.837C225.928 195.957 225.718 196.033 225.499 196.057C225.42 196.082 225.338 196.093 225.255 196.089Z" fill="#263238"/>
<path d="M198.276 195.868C198.2 195.868 198.135 193.025 198.135 189.515C198.135 186.004 198.2 183.156 198.276 183.156C198.351 183.156 198.416 185.999 198.416 189.515C198.416 193.03 198.33 195.868 198.276 195.868Z" fill="#263238"/>
<path d="M200.534 195.868C200.459 195.868 200.394 193.025 200.394 189.515C200.394 186.004 200.459 183.156 200.534 183.156C200.61 183.156 200.675 185.999 200.675 189.515C200.675 193.03 200.616 195.868 200.534 195.868Z" fill="#263238"/>
<path d="M202.821 195.868C202.739 195.868 202.68 193.025 202.68 189.515C202.68 186.004 202.739 183.156 202.821 183.156C202.902 183.156 202.961 185.999 202.961 189.515C202.961 193.03 202.896 195.868 202.821 195.868Z" fill="#263238"/>
<path d="M205.101 195.868C205.025 195.868 204.96 193.025 204.96 189.515C204.96 186.004 205.025 183.156 205.101 183.156C205.177 183.156 205.242 185.999 205.242 189.515C205.242 193.03 205.182 195.868 205.101 195.868Z" fill="#263238"/>
<path d="M207.387 195.868C207.306 195.868 207.246 193.025 207.246 189.515C207.246 186.004 207.306 183.156 207.387 183.156C207.468 183.156 207.528 185.999 207.528 189.515C207.528 193.03 207.484 195.868 207.387 195.868Z" fill="#263238"/>
<path d="M209.651 195.868C209.575 195.868 209.51 193.025 209.51 189.515C209.51 186.004 209.575 183.156 209.651 183.156C209.726 183.156 209.791 185.999 209.791 189.515C209.791 193.03 209.748 195.868 209.651 195.868Z" fill="#263238"/>
<path d="M211.952 195.868C211.871 195.868 211.812 193.025 211.812 189.515C211.812 186.004 211.871 183.156 211.952 183.156C212.034 183.156 212.093 185.999 212.093 189.515C212.093 193.03 212.028 195.868 211.952 195.868Z" fill="#263238"/>
<path d="M214.233 195.868C214.157 195.868 214.092 193.025 214.092 189.515C214.092 186.004 214.157 183.156 214.233 183.156C214.308 183.156 214.373 185.999 214.373 189.515C214.373 193.03 214.308 195.868 214.233 195.868Z" fill="#263238"/>
<path d="M216.518 195.868C216.437 195.868 216.372 193.025 216.372 189.515C216.372 186.004 216.437 183.156 216.518 183.156C216.6 183.156 216.659 185.999 216.659 189.515C216.659 193.03 216.594 195.868 216.518 195.868Z" fill="#263238"/>
<path d="M218.799 195.868C218.723 195.868 218.658 193.025 218.658 189.515C218.658 186.004 218.723 183.156 218.799 183.156C218.875 183.156 218.94 185.999 218.94 189.515C218.94 193.03 218.859 195.868 218.799 195.868Z" fill="#263238"/>
<path d="M221.079 195.868C221.003 195.868 220.938 193.025 220.938 189.515C220.938 186.004 221.003 183.156 221.079 183.156C221.155 183.156 221.22 185.999 221.22 189.515C221.22 193.03 221.161 195.868 221.079 195.868Z" fill="#263238"/>
<path d="M223.364 195.868C223.283 195.868 223.224 193.025 223.224 189.515C223.224 186.004 223.283 183.156 223.364 183.156C223.446 183.156 223.505 185.999 223.505 189.515C223.505 193.03 223.44 195.868 223.364 195.868Z" fill="#263238"/>
<path d="M225.645 195.868C225.569 195.868 225.504 193.025 225.504 189.515C225.504 186.004 225.569 183.156 225.645 183.156C225.721 183.156 225.786 185.999 225.786 189.515C225.786 193.03 225.726 195.868 225.645 195.868Z" fill="#263238"/>
<path d="M222.666 206.164H201.082V222.934H222.666V206.164Z" fill="white"/>
<path d="M204.775 211.503L204.277 210.799H203.735V211.503H203.15V208.975H204.234C204.44 208.97 204.645 209.008 204.835 209.085C204.995 209.152 205.131 209.264 205.225 209.406C205.317 209.553 205.365 209.721 205.365 209.892C205.365 210.064 205.317 210.232 205.225 210.378C205.128 210.518 204.99 210.626 204.829 210.688L205.414 211.503H204.775ZM204.624 209.564C204.503 209.483 204.358 209.444 204.212 209.453H203.719V210.331H204.234C204.381 210.342 204.527 210.301 204.645 210.215C204.694 210.176 204.732 210.125 204.756 210.069C204.781 210.012 204.791 209.951 204.786 209.889C204.789 209.827 204.777 209.766 204.751 209.709C204.724 209.652 204.684 209.603 204.634 209.564H204.624Z" fill="#263238"/>
<path d="M206.109 213.248L205.513 212.418L204.928 213.248H204.272L205.182 212.029L204.316 210.857H204.966L205.507 211.629L206.049 210.857H206.666L205.859 212.008L206.775 213.248H206.109Z" fill="#263238"/>
<path d="M221.079 208.97H208.757V210.788H221.079V208.97Z" fill="#E0E0E0"/>
<path d="M219.681 215.297C219.681 215.376 216.085 215.434 211.643 215.434C207.202 215.434 203.605 215.376 203.605 215.297C203.605 215.218 207.202 215.161 211.643 215.161C216.085 215.161 219.681 215.224 219.681 215.297Z" fill="#263238"/>
<path d="M219.681 217.194C219.681 217.268 216.085 217.331 211.643 217.331C207.202 217.331 203.605 217.268 203.605 217.194C203.605 217.121 207.202 217.058 211.643 217.058C216.085 217.058 219.681 217.116 219.681 217.194Z" fill="#263238"/>
<path d="M210.772 219.56H202.441V221.115H210.772V219.56Z" fill="#E0E0E0"/>
<path d="M222.173 222.419C222.173 222.419 222.173 222.308 222.173 222.114C222.173 221.919 222.173 221.62 222.173 221.262C222.173 220.5 222.173 219.412 222.146 218.036C222.146 215.255 222.108 211.309 222.087 206.547L222.2 206.663H201.515L201.656 206.526V208.628C201.656 209.338 201.656 210.037 201.656 210.731V214.809C201.656 217.468 201.656 220.001 201.656 222.371L201.532 222.245L216.443 222.308L220.689 222.34H221.821H222.114H222.217H221.848H220.765L216.546 222.371L201.553 222.434H201.423V222.313C201.423 219.943 201.423 217.41 201.423 214.751V206.447C201.299 206.568 201.596 206.279 201.569 206.311H222.255H222.374V206.526C222.374 211.314 222.325 215.292 222.314 218.088C222.314 219.454 222.287 220.532 222.282 221.283C222.282 221.635 222.282 221.914 222.282 222.119C222.254 222.222 222.218 222.322 222.173 222.419Z" fill="#263238"/>
<path d="M200.534 236.865C200.459 236.865 200.394 228.11 200.394 217.315C200.394 206.521 200.459 197.765 200.534 197.765C200.61 197.765 200.675 206.516 200.675 217.315C200.675 228.115 200.616 236.865 200.534 236.865Z" fill="white"/>
<path d="M222.688 240.528C222.688 240.607 217.976 240.665 212.169 240.665C206.363 240.665 201.656 240.607 201.656 240.528C201.656 240.45 206.363 240.392 212.169 240.392C217.976 240.392 222.688 240.455 222.688 240.528Z" fill="#263238"/>
<path d="M49.4938 218.997L45.9028 231.373C45.9028 231.373 57.3476 239.162 56.9088 241.511L32.5352 235.431L37.3395 215.923L49.4938 218.997Z" fill="#455A64"/>
<path d="M38.6229 228.446C38.3676 228.463 38.1277 228.57 37.9488 228.747C37.7699 228.925 37.6647 229.16 37.6533 229.408C37.6543 229.656 37.7531 229.894 37.9293 230.074C38.1055 230.254 38.3459 230.361 38.6012 230.375C38.8725 230.36 39.1284 230.248 39.318 230.059C39.5076 229.87 39.6171 229.619 39.6249 229.355C39.5761 228.856 39.0182 228.336 38.5416 228.457" fill="#E0E0E0"/>
<g opacity="0.6">
<path d="M32.5352 235.431L33.0768 233.486L56.248 240.029C56.248 240.029 57.2176 240.765 56.9034 241.495L32.5352 235.431Z" fill="white"/>
</g>
<path d="M46.3311 231.347C46.2931 231.468 45.6865 231.347 45.004 231.605C44.3216 231.862 43.8828 232.261 43.7854 232.188C43.6879 232.114 44.0399 231.473 44.8686 231.205C45.6973 230.937 46.3798 231.226 46.3311 231.347Z" fill="#263238"/>
<path d="M48.622 233.034C48.622 233.16 48.0804 233.228 47.5387 233.633C46.9971 234.038 46.7588 234.532 46.6396 234.495C46.5205 234.458 46.6396 233.775 47.2842 233.292C47.9287 232.808 48.6491 232.924 48.622 233.034Z" fill="#263238"/>
<path d="M49.3259 236.44C49.2122 236.44 49.1959 235.809 49.6617 235.236C50.1275 234.663 50.745 234.543 50.7775 234.653C50.81 234.763 50.3713 235.026 49.9921 235.504C49.613 235.983 49.4288 236.482 49.3259 236.44Z" fill="#263238"/>
<path d="M46.8347 228.441C46.7534 228.536 46.2497 228.236 45.5672 228.115C44.8848 227.994 44.3052 228.073 44.2673 227.952C44.2294 227.831 44.8414 227.542 45.6431 227.695C46.4447 227.847 46.9159 228.362 46.8347 228.441Z" fill="#263238"/>
<path d="M40.9465 221.914L40.4048 234.779C40.4048 234.779 53.4041 239.672 53.5016 242.063L28.3643 241.868L28.4184 221.782L40.9465 221.914Z" fill="#455A64"/>
<path d="M32.6164 233.638C32.3715 233.713 32.1632 233.871 32.0305 234.084C31.8978 234.297 31.8499 234.55 31.896 234.795C31.9531 235.036 32.105 235.246 32.3194 235.381C32.5339 235.515 32.7939 235.563 33.0443 235.515C33.3041 235.436 33.5249 235.267 33.6647 235.04C33.8045 234.813 33.8535 234.544 33.8025 234.285C33.7161 234.042 33.535 233.841 33.2981 233.727C33.0612 233.612 32.7873 233.591 32.5351 233.67" fill="#E0E0E0"/>
<g opacity="0.6">
<path d="M28.3369 241.868L28.4236 239.845L52.4939 240.786C52.4939 240.786 53.6097 241.28 53.4743 242.063L28.3369 241.868Z" fill="white"/>
</g>
<path d="M40.7897 234.658C40.7897 234.779 40.1723 234.831 39.5602 235.215C38.9482 235.599 38.6286 236.114 38.5149 236.066C38.4011 236.019 38.5907 235.315 39.3381 234.858C40.0856 234.4 40.8168 234.542 40.7897 234.658Z" fill="#263238"/>
<path d="M43.417 235.762C43.417 235.877 42.9133 236.082 42.4908 236.597C42.0683 237.112 41.9492 237.648 41.8246 237.648C41.7 237.648 41.6296 236.949 42.1658 236.324C42.7021 235.699 43.417 235.646 43.417 235.762Z" fill="#263238"/>
<path d="M44.8898 238.91C44.7761 238.936 44.6136 238.326 44.9332 237.659C45.2527 236.991 45.8269 236.729 45.881 236.834C45.9352 236.939 45.5723 237.291 45.3394 237.837C45.1065 238.384 44.9927 238.899 44.8898 238.91Z" fill="#263238"/>
<path d="M40.5894 231.71C40.5407 231.82 39.9774 231.647 39.2841 231.71C38.5908 231.773 38.0437 231.967 37.9841 231.862C37.9245 231.757 38.4445 231.337 39.2624 231.284C40.0803 231.231 40.6598 231.615 40.5894 231.71Z" fill="#263238"/>
<path d="M25.3966 127.753V137.927L28.1427 177.563C28.1427 177.563 26.4312 196.793 25.3804 207.651C24.4704 217.073 25.9599 233.491 25.9599 233.491H41.9599L47.7013 178.746L51.2544 144.586L57.4507 129.062L25.3966 127.753Z" fill="#263238"/>
<path d="M67.5302 129.524L64.4646 184.827L48.2805 226.234L47.533 228.725L37.9785 226.428L45.0848 128.447L67.5302 129.524Z" fill="#263238"/>
<path d="M51.2002 145.007C51.206 145.084 51.206 145.161 51.2002 145.238C51.2002 145.406 51.2002 145.627 51.2002 145.911C51.2002 146.52 51.1569 147.393 51.119 148.507C51.054 150.756 50.8915 154.009 50.664 158.029C50.1819 166.07 49.2828 177.164 47.8745 189.378C46.4663 201.591 44.966 212.617 43.8502 220.595C43.3085 224.568 42.8265 227.789 42.5069 230.054C42.3444 231.158 42.2144 232.02 42.1278 232.619C42.079 232.903 42.0465 233.145 42.0195 233.287C42.0104 233.363 41.9941 233.439 41.9707 233.512V233.281C41.9707 233.118 42.0195 232.898 42.0519 232.614C42.1278 232.009 42.2361 231.148 42.3769 230.039C42.6694 227.795 43.0973 224.568 43.6281 220.579C44.7114 212.596 46.1792 201.57 47.5658 189.357C48.9524 177.143 49.9003 166.07 50.4365 158.035C50.6911 154.02 50.8861 150.766 50.9781 148.517C51.0377 147.403 51.081 146.536 51.1135 145.926C51.1135 145.642 51.146 145.401 51.1569 145.254C51.162 145.17 51.1765 145.087 51.2002 145.007Z" fill="#455A64"/>
<path d="M52.2127 131.174C52.2084 131.331 52.1566 131.484 52.0635 131.612C51.9705 131.741 51.8405 131.84 51.6897 131.897C51.539 131.954 51.3742 131.967 51.2159 131.934C51.0577 131.901 50.913 131.823 50.8 131.711C50.687 131.598 50.6108 131.456 50.5807 131.302C50.5507 131.147 50.5682 130.988 50.6311 130.843C50.694 130.698 50.7995 130.575 50.9343 130.488C51.0692 130.401 51.2275 130.355 51.3894 130.354C51.4992 130.355 51.6077 130.377 51.7087 130.419C51.8097 130.46 51.9011 130.521 51.9777 130.597C52.0543 130.674 52.1145 130.764 52.1548 130.863C52.1952 130.962 52.2149 131.068 52.2127 131.174Z" fill="#455A64"/>
<path d="M66.2788 138.9C65.8529 138.604 65.4734 138.25 65.1522 137.849C64.3248 136.899 63.6458 135.837 63.1373 134.695C62.6256 133.556 62.2862 132.35 62.1299 131.116C62.0392 130.609 62.0264 130.092 62.092 129.582C62.1407 129.582 62.1732 130.165 62.3357 131.09C62.5542 132.289 62.9179 133.458 63.419 134.574C63.9228 135.683 64.561 136.729 65.3201 137.691C65.8942 138.448 66.3113 138.863 66.2788 138.9Z" fill="#455A64"/>
<path d="M64.3672 77.8638C64.3672 77.8638 67.4274 79.0305 68.8465 83.3819C69.8323 86.409 74.4471 108.944 74.4471 108.944L68.0124 113.059L65.3963 91.9587L64.3672 77.8638Z" fill="#E0E0E0"/>
<path d="M39.8957 67.1006L37.8808 70.5691C37.8808 70.5691 24.4103 77.2119 24.459 77.8636C24.459 77.8636 25.2119 102.659 25.3527 120.847C25.4069 127.716 25.1469 134.028 25.0061 137.06C24.6323 145.022 24.3398 175.95 24.3398 175.95L73.0872 174.831L64.3668 77.8636L57.488 74.9469L56.6106 73.2073L53.4528 70.7163L39.8957 67.1006Z" fill="#E0E0E0"/>
<path d="M61.2418 175.088C61.249 175.018 61.249 174.948 61.2418 174.878C61.2418 174.726 61.2418 174.521 61.2147 174.263C61.1822 173.701 61.1389 172.902 61.0793 171.882C60.9547 169.807 60.7705 166.822 60.5376 163.148C60.0773 155.759 59.4544 145.574 58.7448 134.322C58.0353 123.071 57.472 112.886 57.0333 105.491C56.8328 101.812 56.6649 98.8327 56.5512 96.7516C56.4916 95.732 56.4483 94.9385 56.4158 94.3761C56.4158 94.1186 56.3833 93.9136 56.3725 93.7612C56.3683 93.6907 56.3593 93.6204 56.3454 93.551C56.3393 93.621 56.3393 93.6913 56.3454 93.7612C56.3454 93.9136 56.3454 94.1186 56.3454 94.3814C56.3454 94.9384 56.3887 95.7373 56.4266 96.7568C56.5025 98.8222 56.6379 101.812 56.8166 105.502C57.1741 112.859 57.7482 123.081 58.4415 134.343C59.1348 145.606 59.8064 155.785 60.321 163.159C60.581 166.837 60.7976 169.812 60.9439 171.893C61.0251 172.907 61.0901 173.706 61.1335 174.263L61.1876 174.883C61.1977 174.953 61.2159 175.022 61.2418 175.088Z" fill="#263238"/>
<path d="M53.4533 70.7164L54.5853 78.3105L56.611 93.5511L47.7823 78.8465L40.1182 69.103L52.7491 77.6903L52.9062 70.5745" fill="#FF9519"/>
<path d="M37.8213 71.0317C37.8828 71.2368 37.9644 71.4356 38.065 71.6256C38.2546 72.0408 38.5037 72.5926 38.8179 73.2705L41.5586 79.0515L41.5911 79.125H41.6777H43.5193L43.4327 78.8833L42.0786 79.9606L41.954 80.0605L42.0677 80.1709L44.6351 82.6094L52.895 90.3821L55.4191 92.7102L56.1178 93.3356C56.1941 93.4133 56.2795 93.4821 56.3724 93.5405C56.3128 93.4485 56.2398 93.3653 56.1557 93.2935L55.5003 92.6314L53.0359 90.2349L44.8409 82.4044C43.958 81.5635 43.0914 80.7489 42.2681 79.9711V80.1761L43.6168 79.0935L43.9147 78.8518H43.5247H41.6832L41.8023 78.9253C40.6486 76.5919 39.6737 74.6159 38.9641 73.1864C38.6229 72.519 38.3521 71.9777 38.1463 71.5731C38.0527 71.3846 37.944 71.2037 37.8213 71.0317Z" fill="#263238"/>
<path d="M56.6115 93.5351C56.6956 93.2247 56.7554 92.9084 56.7902 92.5892C56.8877 91.9322 57.0123 91.0598 57.164 90.0035C57.4673 87.8173 57.8681 84.7954 58.2906 81.4583L58.6805 78.3471V78.2262L58.556 78.1947L56.3407 77.6691V77.9214L58.5614 77.5377L58.713 77.5115L58.648 77.3801L57.1856 74.2952C57.0177 73.9641 56.8823 73.6856 56.7686 73.4596C56.7282 73.3571 56.6715 73.2613 56.6006 73.1758C56.6233 73.2831 56.6597 73.3873 56.709 73.4859C56.8065 73.7171 56.9256 74.0114 57.0665 74.3477C57.4131 75.136 57.8789 76.1924 58.4368 77.4694L58.5235 77.317L56.2973 77.6691L55.6582 77.769L56.2865 77.9214L58.4964 78.4469L58.3881 78.2998C58.2581 79.2878 58.1281 80.3336 57.9872 81.4057C57.5648 84.7481 57.1965 87.77 56.9473 89.9615C56.8336 91.0125 56.7361 91.9007 56.6656 92.5892C56.6224 92.9026 56.6042 93.2189 56.6115 93.5351Z" fill="#263238"/>
<path d="M49.0765 134.112H48.7624L47.8253 134.17L44.2289 134.422L31.3487 135.384H31.2188V135.51C31.4246 137.859 31.6521 140.413 31.8904 143.104C32.0095 144.456 32.1323 145.839 32.2587 147.251C32.3237 147.96 32.3833 148.669 32.4483 149.389C32.471 149.762 32.5308 150.132 32.627 150.493C32.7413 150.866 32.913 151.221 33.1361 151.544C33.8651 152.499 34.9534 153.136 36.1639 153.315C37.3029 153.452 38.4503 153.512 39.5979 153.494C41.7641 153.5 43.9242 153.27 46.0379 152.811C46.5393 152.693 47.0301 152.537 47.5058 152.343C47.7427 152.25 47.971 152.137 48.1882 152.007C48.2984 151.935 48.4017 151.854 48.497 151.765C48.5844 151.672 48.6658 151.573 48.7407 151.471C49.2024 150.646 49.488 149.74 49.5802 148.806C49.7935 147.166 49.8786 145.513 49.8348 143.861C49.7861 140.834 49.564 138.395 49.3961 136.713C49.3148 135.873 49.2336 135.226 49.174 134.785C49.174 134.575 49.1199 134.412 49.1036 134.259C49.1006 134.202 49.0878 134.145 49.0657 134.091C49.0657 134.091 49.0657 134.149 49.0657 134.264C49.0657 134.38 49.0657 134.559 49.109 134.79C49.1524 135.252 49.2065 135.899 49.2769 136.724C49.4123 138.406 49.6019 140.844 49.6236 143.861C49.6482 145.502 49.5522 147.142 49.3365 148.769C49.2407 149.666 48.9627 150.536 48.5186 151.329C48.2388 151.698 47.8438 151.971 47.392 152.107C46.9303 152.292 46.4539 152.442 45.9675 152.553C43.8742 153.001 41.7361 153.223 39.5925 153.215C38.463 153.232 37.3336 153.172 36.2126 153.037C35.0773 152.869 34.0556 152.275 33.3691 151.381C33.1697 151.088 33.0129 150.77 32.9032 150.435C32.8137 150.091 32.7575 149.739 32.7353 149.384C32.6703 148.664 32.6053 147.95 32.5458 147.24C32.4158 145.832 32.2912 144.444 32.1666 143.099C31.9175 140.403 31.6846 137.843 31.4679 135.505L31.3542 135.641L44.1422 134.559L47.7603 134.238L48.7245 134.149C48.8426 134.145 48.9602 134.132 49.0765 134.112Z" fill="#263238"/>
<g opacity="0.3">
<path d="M32.6543 150.157C34.0301 153.636 37.6212 153.836 41.4885 153.31C45.1228 152.784 48.6218 152.054 48.8926 151.045C48.7951 152.89 47.3977 154.303 45.6428 155.044C43.861 155.705 41.9481 155.965 40.0477 155.806C38.0599 155.717 36.3429 155.806 34.7017 154.708C33.0606 153.61 32.6489 151.744 32.6543 150.157Z" fill="black"/>
</g>
<path d="M69.5232 135.189C69.5185 135.146 69.5185 135.102 69.5232 135.058L69.4745 134.679C69.4384 134.329 69.3842 133.84 69.312 133.213C69.182 131.91 68.9979 130.06 68.7704 127.811C68.3262 123.249 67.7304 116.943 67.1021 109.979C66.4738 103.016 65.9322 96.7041 65.5693 92.1109C65.3906 89.8248 65.2606 87.9749 65.1847 86.6978C65.1414 86.0567 65.1252 85.5627 65.1143 85.2211C65.1143 85.0687 65.1143 84.9425 65.1143 84.8374C65.1064 84.794 65.1064 84.7495 65.1143 84.7061C65.2443 86.1881 66.1488 96.2311 67.3838 109.932C68.0012 116.89 68.5646 123.186 68.9708 127.774C69.1604 130.039 69.3174 131.878 69.4258 133.182C69.4745 133.802 69.5124 134.296 69.5395 134.653C69.5395 134.806 69.5395 134.932 69.5395 135.037C69.5418 135.088 69.5363 135.14 69.5232 135.189Z" fill="#263238"/>
<path d="M76.586 109.443C76.794 110.171 76.8709 110.929 76.8135 111.682C76.6998 112.833 76.6456 115.66 73.4879 116.627C70.3301 117.594 68.7973 116.669 67.8278 115.371L67.3457 109.748L70.7255 107.583L76.586 109.443Z" fill="#E0E0E0"/>
<g opacity="0.3">
<path d="M50.2026 113.059C50.2026 113.059 42.1268 120.8 35.8547 121.914C29.5825 123.029 27.3401 120.863 25.6719 115.413L50.2026 113.059Z" fill="black"/>
</g>
<path d="M24.605 77.6746C24.605 77.6746 19.4757 82.2888 20.9381 93.2147C22.2922 103.368 24.7296 117.505 27.9144 119.15C31.0992 120.795 38.0592 119.97 43.1344 117.179C48.2095 114.389 62.915 106.842 62.915 106.842L56.827 96.3312L37.2143 103.689C37.2143 103.689 34.6794 86.8715 33.1574 83.9495" fill="#E0E0E0"/>
<path d="M33.0769 83.7551C33.0769 83.7551 33.1311 83.8654 33.2285 84.0809C33.2719 84.186 33.3369 84.3174 33.4019 84.4803C33.4669 84.6432 33.521 84.8429 33.5969 85.0584C33.8839 85.9308 34.2252 87.2394 34.5989 88.9421C35.3572 92.3424 36.2725 97.3034 37.2367 103.484L37.0958 103.4L56.6977 95.9896L56.806 95.9475L56.8656 96.0474C58.7884 99.3688 60.8358 102.879 62.959 106.558L63.0294 106.684L62.8994 106.753L50.3226 113.327L44.1534 116.549C43.1405 117.074 42.1331 117.626 41.0877 118.062C40.0447 118.49 38.9735 118.85 37.8812 119.14C35.7538 119.718 33.5456 119.966 31.3382 119.875C30.2623 119.829 29.202 119.607 28.2022 119.218L27.8338 119.061C27.7147 119.003 27.6009 118.919 27.4818 118.845C27.2805 118.68 27.0989 118.493 26.9401 118.288C26.6178 117.885 26.34 117.45 26.1114 116.99C25.2664 115.223 24.6059 113.378 24.1399 111.482C23.647 109.659 23.257 107.867 22.9049 106.127C22.2117 102.653 21.6971 99.3951 21.28 96.4153C20.863 93.4355 20.4676 90.7237 20.5813 88.322C20.6348 86.2693 21.011 84.2365 21.6971 82.2941C22.1417 81.0705 22.7676 79.9162 23.5549 78.8675C23.7617 78.5965 23.9861 78.3385 24.2265 78.095C24.3087 78.0133 24.3955 77.9361 24.4865 77.8638L24.2482 78.116C24.0187 78.3653 23.8035 78.6268 23.6037 78.8991C22.8411 79.9554 22.2358 81.1107 21.8054 82.3308C21.1334 84.2649 20.7682 86.2867 20.7221 88.3272C20.6247 90.7132 21.0146 93.4092 21.4588 96.3837C21.9029 99.3583 22.4283 102.617 23.1324 106.085C23.4845 107.814 23.8799 109.601 24.3782 111.419C24.842 113.296 25.497 115.124 26.3335 116.874C26.5523 117.314 26.8154 117.731 27.1189 118.12C27.2789 118.314 27.4606 118.49 27.6605 118.646C27.7605 118.714 27.8655 118.776 27.9747 118.829L28.3213 118.982C29.2967 119.352 30.3295 119.56 31.3762 119.597C33.5526 119.683 35.7296 119.437 37.827 118.866C38.9035 118.582 39.9601 118.231 40.9902 117.815C42.0302 117.379 43.0159 116.838 44.0342 116.312L50.2035 113.085L62.7857 106.516L62.7261 106.705L56.6489 96.1945L56.8168 96.2524L37.1933 103.61L37.0688 103.657V103.531C36.1317 97.356 35.2489 92.3896 34.5285 88.9842C34.1764 87.2814 33.8514 85.9676 33.5806 85.0952C33.5156 84.8797 33.456 84.6853 33.4019 84.5171L33.2448 84.1124C33.1365 83.8707 33.0769 83.7551 33.0769 83.7551Z" fill="#263238"/>
<path d="M40.1183 96.3469H49.8516V93.2042H40.1183V96.3469Z" fill="white"/>
<path d="M42.1328 94.5864C43.1368 94.4448 44.1526 94.3973 45.166 94.4445C46.1812 94.3972 47.1987 94.4447 48.2046 94.5864C47.1981 94.7214 46.181 94.7671 45.166 94.723C44.1527 94.767 43.1375 94.7213 42.1328 94.5864Z" fill="#263238"/>
<g opacity="0.3">
<path d="M56.1173 93.3461L41.791 82.068L42.1322 81.0853H40.8864L38.8174 73.2705L41.7964 78.9463L43.5188 78.8675L42.2676 79.9816L56.1173 93.3461Z" fill="black"/>
</g>
<path d="M38.423 80.4913L38.9647 80.281C38.9647 80.2548 37.7893 77.5377 36.6356 74.6578C36.2212 73.7729 36.0531 72.798 36.1481 71.8304C36.2131 71.526 36.3867 71.2536 36.6384 71.0613C36.8901 70.869 37.2037 70.7691 37.5239 70.7793L37.9031 70.5849L38.098 70.2485C37.096 70.0383 35.7527 70.8529 35.5903 71.7516C35.4846 72.8202 35.6714 73.8971 36.1319 74.8733C37.2423 77.769 38.4068 80.465 38.423 80.4913Z" fill="#455A64"/>
<path d="M37.5779 86.8399L38.2983 86.5667C37.7079 85.0899 36.9009 82.478 37.2475 81.7422C37.4184 81.4796 37.6449 81.2552 37.912 81.084C38.1791 80.9128 38.4806 80.7985 38.7966 80.749C39.1835 80.6498 39.5887 80.639 39.9806 80.7175C40.3725 80.7959 40.7403 80.9614 41.0552 81.2009C41.8785 81.8789 43.1243 84.2648 43.5359 85.1319L44.2346 84.8166C44.175 84.6852 42.6801 81.5478 41.5535 80.6123C41.1481 80.2976 40.6728 80.0786 40.1652 79.9728C39.6576 79.867 39.1315 79.8772 38.6287 80.0027C38.1922 80.0761 37.7785 80.2441 37.4183 80.4944C37.0582 80.7446 36.7609 81.0706 36.5488 81.4479C35.9638 82.6672 37.3017 86.1778 37.5779 86.8399Z" fill="#455A64"/>
<path d="M45.3553 98.2335C46.2436 98.2335 47.121 97.771 47.9606 96.8566L47.6681 96.6043C46.7473 97.6186 45.794 98.018 44.8516 97.8026C41.0005 96.9249 38.0649 86.5455 38.0378 86.4404L37.6641 86.535C37.7886 86.9712 40.6864 97.2402 44.7595 98.1652C44.9545 98.2112 45.1546 98.2342 45.3553 98.2335Z" fill="#263238"/>
<path d="M47.2189 97.2823C47.2972 97.3583 47.401 97.4043 47.5114 97.4121C47.6218 97.4198 47.7314 97.3886 47.8201 97.3243L48.6542 96.72C48.7165 96.6822 48.7702 96.6326 48.812 96.574C48.8539 96.5155 48.8831 96.4493 48.8978 96.3795C48.9124 96.3097 48.9124 96.2378 48.8975 96.168C48.8826 96.0982 48.8533 96.0321 48.8113 95.9737C48.7671 95.9063 48.7076 95.8496 48.6373 95.8078C48.5671 95.7661 48.4879 95.7405 48.406 95.7329C48.324 95.7253 48.2413 95.7359 48.1642 95.764C48.087 95.7921 48.0175 95.8368 47.9609 95.8949L47.2081 96.6517C47.1235 96.7368 47.0771 96.8509 47.0792 96.9692C47.0812 97.0874 47.1314 97.2 47.2189 97.2823Z" fill="#263238"/>
<path d="M43.7194 98.5751C44.2205 98.6124 44.7233 98.5276 45.1821 98.3285C45.6408 98.1293 46.041 97.8221 46.3464 97.4347C48.7133 94.2132 44.2502 85.2685 44.0606 84.8901L43.714 85.0531C43.7573 85.1476 48.2692 94.1764 46.0322 97.2193C45.4472 98.0128 44.4073 98.3281 42.9882 98.1547L42.9395 98.5226C43.1979 98.5575 43.4585 98.5751 43.7194 98.5751Z" fill="#263238"/>
<path d="M43.7899 98.3702C43.7824 98.477 43.7357 98.5777 43.6581 98.654C43.5806 98.7302 43.4774 98.7768 43.3674 98.7854L42.3274 98.8695C42.2554 98.8806 42.1818 98.8774 42.111 98.8603C42.0403 98.8431 41.9738 98.8122 41.9157 98.7695C41.8575 98.7268 41.8088 98.6732 41.7725 98.6118C41.7363 98.5504 41.7131 98.4825 41.7046 98.4122C41.6911 98.3333 41.6963 98.2525 41.7199 98.1758C41.7436 98.0992 41.7849 98.0288 41.8408 97.97C41.8967 97.9112 41.9657 97.8656 42.0425 97.8366C42.1193 97.8076 42.202 97.7959 42.2841 97.8026L43.3674 97.892C43.4881 97.9027 43.5997 97.9586 43.6786 98.0479C43.7575 98.1372 43.7974 98.2528 43.7899 98.3702Z" fill="#263238"/>
<path d="M62.3248 87.3968C63.8444 87.3968 65.0763 86.2016 65.0763 84.7271C65.0763 83.2527 63.8444 82.0574 62.3248 82.0574C60.8051 82.0574 59.5732 83.2527 59.5732 84.7271C59.5732 86.2016 60.8051 87.3968 62.3248 87.3968Z" fill="#263238"/>
<path d="M62.3248 87.3968C63.8444 87.3968 65.0763 86.2016 65.0763 84.7271C65.0763 83.2527 63.8444 82.0574 62.3248 82.0574C60.8051 82.0574 59.5732 83.2527 59.5732 84.7271C59.5732 86.2016 60.8051 87.3968 62.3248 87.3968Z" fill="#263238"/>
<path d="M60.294 84.7271C60.2929 85.1184 60.4115 85.5012 60.6349 85.8269C60.8583 86.1527 61.1763 86.4068 61.5486 86.557C61.921 86.7072 62.3309 86.7468 62.7265 86.6707C63.122 86.5946 63.4854 86.4063 63.7706 86.1296C64.0557 85.853 64.2498 85.5004 64.3282 85.1166C64.4066 84.7328 64.3658 84.335 64.211 83.9738C64.0562 83.6125 63.7943 83.3039 63.4586 83.0872C63.1228 82.8705 62.7283 82.7553 62.3251 82.7564C61.7864 82.7564 61.2698 82.964 60.8889 83.3336C60.5079 83.7032 60.294 84.2044 60.294 84.7271Z" fill="#E0E0E0"/>
<path d="M56.4862 73.0971C56.7461 73.4597 59.6222 79.351 61.193 82.3203L61.6534 82.0891C61.4205 81.6529 57.239 73.2811 56.914 72.8133L53.87 70.4116L53.7617 70.974L56.4862 73.0971Z" fill="#455A64"/>
<path d="M55.3328 84.6641C57.326 86.5929 62.3741 91.6117 62.3741 91.6117L63.7228 90.8234L56.6165 83.4659C56.4724 83.3168 56.2783 83.2222 56.0689 83.1991C55.8596 83.176 55.6486 83.2259 55.4736 83.3398C55.3643 83.4101 55.2724 83.5031 55.2044 83.612C55.1365 83.7209 55.0943 83.8431 55.0809 83.9697C55.0674 84.0963 55.083 84.2243 55.1266 84.3443C55.1701 84.4644 55.2406 84.5736 55.3328 84.6641Z" fill="#263238"/>
<path d="M56.7676 96.1157L58.4629 91.4804C58.6388 90.9804 58.966 90.5434 59.4018 90.2265C59.8375 89.9096 60.3617 89.7276 60.9057 89.7041H61.1603C62.1785 89.8145 67.362 90.1456 67.362 90.1456L69.3661 92.3265C69.5309 92.508 69.6219 92.7416 69.6219 92.9835C69.6219 93.2254 69.5309 93.4589 69.3661 93.6404L69.9456 97.5819L68.8244 98.3387L68.9382 101.093C68.9382 101.093 67.9253 101.744 67.4757 101.529L67.0208 101.308L66.3491 100.651L64.4317 103.279L61.7831 104.766L56.7676 96.1157Z" fill="#FFBF9D"/>
<path d="M69.3991 93.8609C69.1726 93.5935 68.9303 93.3391 68.6733 93.0989C68.3849 92.8587 68.0572 92.6669 67.7038 92.5313C67.2435 92.4258 66.7736 92.3642 66.3009 92.3474C65.0566 92.2809 63.8197 92.1192 62.6016 91.8639C63.8472 91.8352 65.0932 91.9019 66.328 92.0636C66.8247 92.0794 67.3176 92.1536 67.7959 92.2843C68.1755 92.4404 68.5211 92.6651 68.8141 92.9465C69.1077 93.1804 69.3134 93.5019 69.3991 93.8609Z" fill="#FF9A6C"/>
<path d="M69.2848 97.482C69.1689 97.1388 69.0296 96.8034 68.8678 96.4782C68.4053 95.7339 67.7 95.1605 66.8637 94.849C66.0128 94.5519 65.114 94.4042 64.2097 94.4128C63.8304 94.4379 63.4495 94.4273 63.0723 94.3813C63.4387 94.2627 63.8234 94.2058 64.2097 94.2131C65.147 94.1427 66.089 94.2682 66.9721 94.581C67.8706 94.9126 68.6113 95.5545 69.0519 96.3836C69.2552 96.7137 69.3373 97.1008 69.2848 97.482Z" fill="#FF9A6C"/>
<path d="M68.7759 100.861C68.5884 100.53 68.495 100.156 68.5051 99.7787C68.4831 99.3913 68.3972 99.0098 68.2505 98.6488C68.1505 98.4418 67.9992 98.2619 67.8102 98.1253C67.6212 97.9887 67.4004 97.8996 67.1673 97.8658C66.2744 97.6802 65.3696 97.5538 64.4591 97.4874C64.0723 97.4723 63.692 97.3868 63.3379 97.2351C63.7196 97.2263 64.1016 97.2439 64.4807 97.2877C65.4079 97.2949 66.3318 97.3953 67.2377 97.5872C67.5106 97.6531 67.768 97.7691 67.996 97.9288C68.2079 98.0895 68.3723 98.3016 68.4726 98.5437C68.6206 98.9338 68.6922 99.3473 68.6839 99.7629C68.7109 100.446 68.8247 100.846 68.7759 100.861Z" fill="#FF9A6C"/>
<path d="M71.6039 92.1687L49.2451 114.572L50.1063 115.419L66.1225 113.668L87.6743 93.7453L87.6526 92.7888L71.6039 92.1687Z" fill="#455A64"/>
<g opacity="0.3">
<path d="M75.7901 102.616C75.2633 102.15 74.6417 101.796 73.9654 101.577C73.2891 101.358 72.573 101.279 71.8632 101.345C70.4414 101.486 69.0951 102.035 67.9959 102.921C67.065 103.583 66.3868 104.526 66.0677 105.602C65.6127 107.483 67.2105 110.116 68.9709 111.03C71.2024 109.291 73.3744 106.621 75.6059 104.887C75.9679 104.66 76.2407 104.321 76.3804 103.925C76.3992 103.677 76.3553 103.428 76.2524 103.2C76.1495 102.972 75.9908 102.771 75.7901 102.616Z" fill="black"/>
</g>
<path d="M87.5874 93.7035C87.49 93.7101 87.3923 93.7101 87.2949 93.7035H86.4391L83.2326 93.6667L72.0749 93.4775L72.1778 93.4354L66.5773 99.0745L54.9592 110.673L51.4169 114.163L50.4419 115.103C50.3319 115.216 50.2143 115.321 50.0898 115.419C50.1854 115.297 50.2923 115.185 50.4094 115.082L51.3464 114.105L54.8238 110.552C57.7973 107.551 61.865 103.436 66.3769 98.8958C68.3538 96.9092 70.255 95.0068 71.9882 93.2725L72.0316 93.2305H72.0749L83.2164 93.5405L86.4174 93.6509L87.2732 93.6929C87.378 93.6852 87.4834 93.6888 87.5874 93.7035Z" fill="#263238"/>
<path d="M73.5917 100.273C73.5917 100.273 75.7582 100.315 76.4678 100.656C77.1773 100.998 79.1164 102.995 79.1164 102.995C79.1164 102.995 79.1164 104.361 78.5747 104.414C78.644 104.72 78.6821 105.031 78.6885 105.344C78.7426 106.111 78.8564 106.548 77.7839 107.205C77.7839 107.205 77.8977 108.461 77.5023 108.781C77.235 108.999 76.9527 109.199 76.6573 109.38C76.6573 109.38 76.5978 110.762 74.6858 110.747L72.893 111.514C72.893 111.514 68.9065 111.151 69.329 110.694C69.7515 110.237 70.7102 107.972 70.7102 107.972C70.7102 107.972 68.002 106.043 68.0345 105.444C68.067 104.845 68.3161 104.787 68.3161 104.787C68.3161 104.787 68.2078 103.641 69.1611 103.531C69.1611 103.531 69.8977 102.107 70.6289 102.054C71.3601 102.002 76.3215 103.747 76.3215 103.747L74.4637 102.217C74.4637 102.217 72.6005 101.944 72.6601 101.34C72.7196 100.735 73.5917 100.273 73.5917 100.273Z" fill="#FFBF9D"/>
<path d="M73.2657 107.478C72.4058 107.126 71.5651 106.731 70.7471 106.295C69.887 105.938 69.0464 105.538 68.2285 105.097C69.1563 105.265 70.0504 105.575 70.8771 106.017C71.7472 106.38 72.5533 106.873 73.2657 107.478Z" fill="#FF9A6C"/>
<path d="M75.8658 105.807C74.7546 105.557 73.6674 105.216 72.616 104.787C71.5359 104.447 70.4884 104.016 69.4854 103.5C70.5966 103.749 71.6838 104.09 72.7352 104.519C73.8153 104.859 74.8628 105.29 75.8658 105.807Z" fill="#FF9A6C"/>
<path d="M40.562 57.3783C39.8412 54.9949 39.3302 52.5564 39.0346 50.0891C38.7393 47.6099 39.0817 45.0983 40.0312 42.7789C40.1883 42.432 41.4666 40.1512 41.8457 40.1827C42.1219 40.2195 41.3041 42.39 41.4232 42.6317C42.6365 44.9125 42.8532 47.598 42.5065 50.1469C42.1448 52.6193 41.4999 55.0448 40.5837 57.3783" fill="#263238"/>
<path d="M40.8163 47.9027C40.9355 41.6698 44.7757 36.551 51.1886 36.8664L51.779 36.9294C54.6512 37.217 57.3061 38.5448 59.2137 40.648C61.1213 42.7512 62.1413 45.475 62.0701 48.2758C61.9347 53.6731 61.7127 59.6327 61.366 62.5021C60.6456 68.4355 54.4168 68.735 54.4168 68.735L52.9977 77.8899L39.8955 69.0503L40.8163 47.9027Z" fill="#FFBF9D"/>
<path d="M54.3952 68.7561C51.566 68.4579 48.884 67.3801 46.666 65.6501C46.666 65.6501 47.8901 70.7321 54.0594 70.8214L54.3952 68.7561Z" fill="#FF9A6C"/>
<path d="M59.715 53.2212C59.693 53.4424 59.5826 53.6466 59.4075 53.79C59.2324 53.9333 59.0065 54.0046 58.778 53.9885C58.6658 53.9858 58.5554 53.9613 58.4531 53.9166C58.3509 53.8718 58.2589 53.8076 58.1826 53.7277C58.1064 53.6478 58.0474 53.554 58.0092 53.4516C57.971 53.3493 57.9543 53.2405 57.9601 53.1318C57.9821 52.9101 58.0923 52.7055 58.2672 52.5613C58.4422 52.417 58.6681 52.3446 58.8971 52.3593C59.0096 52.3626 59.1201 52.3877 59.2224 52.4331C59.3247 52.4784 59.4166 52.5432 59.4928 52.6234C59.569 52.7037 59.6279 52.7979 59.666 52.9006C59.7042 53.0032 59.7208 53.1122 59.715 53.2212Z" fill="#263238"/>
<path d="M60.4728 50.5829C60.3537 50.6775 59.7416 50.1362 58.7992 50.0574C57.8567 49.9785 57.1201 50.3517 57.028 50.2308C56.936 50.1099 57.1147 49.9838 57.4397 49.8051C57.8769 49.5706 58.3789 49.475 58.875 49.5318C59.3639 49.5799 59.8246 49.7767 60.1912 50.0942C60.4566 50.3254 60.5324 50.5356 60.4728 50.5829Z" fill="#263238"/>
<path d="M51.6603 52.8533C51.6383 53.075 51.5281 53.2796 51.3532 53.4239C51.1783 53.5681 50.9524 53.6405 50.7233 53.6258C50.6109 53.6225 50.5003 53.5974 50.398 53.552C50.2957 53.5067 50.2038 53.442 50.1277 53.3617C50.0515 53.2814 49.9926 53.1872 49.9544 53.0846C49.9163 52.9819 49.8996 52.8729 49.9054 52.764C49.9339 52.547 50.0469 52.3489 50.2211 52.2101C50.3953 52.0714 50.6176 52.0025 50.8425 52.0177C50.9527 52.0204 51.0613 52.0442 51.1621 52.0877C51.2629 52.1311 51.3539 52.1935 51.4298 52.2711C51.5058 52.3487 51.5652 52.44 51.6048 52.5399C51.6443 52.6398 51.6632 52.7463 51.6603 52.8533Z" fill="#263238"/>
<path d="M51.2111 50.0048C51.092 50.1046 50.4799 49.5633 49.5375 49.4792C48.595 49.3952 47.8584 49.7735 47.7663 49.6474C47.6742 49.5213 47.853 49.4057 48.178 49.227C48.6152 48.9925 49.1172 48.8969 49.6133 48.9537C50.1022 49.0017 50.5629 49.1986 50.9295 49.516C51.1949 49.7525 51.2707 49.9627 51.2111 50.0048Z" fill="#263238"/>
<path d="M53.8271 57.3729C54.3399 57.2701 54.8644 57.233 55.3871 57.2625C55.6254 57.2625 55.8583 57.2625 55.9287 57.0839C55.9748 56.8443 55.9446 56.5968 55.842 56.3744L55.3275 54.5245C54.6125 51.8968 54.1251 49.7421 54.2442 49.7158C54.3634 49.6895 55.0188 51.818 55.7337 54.4457C55.9016 55.0921 56.0641 55.7122 56.2212 56.3008C56.3333 56.6013 56.3333 56.9305 56.2212 57.231C56.178 57.3092 56.1171 57.3769 56.0429 57.4288C55.9688 57.4807 55.8834 57.5155 55.7933 57.5306C55.6549 57.548 55.5147 57.548 55.3762 57.5306C54.8552 57.5399 54.3349 57.4869 53.8271 57.3729Z" fill="#263238"/>
<path d="M50.9891 57.7198C51.1408 57.7198 51.0379 58.7183 51.8341 59.5119C52.6303 60.3055 53.7298 60.3055 53.7244 60.4474C53.719 60.5893 53.459 60.6155 52.9986 60.5787C52.3995 60.5263 51.8391 60.2693 51.417 59.8535C51.0095 59.4568 50.7781 58.9211 50.7725 58.361C50.7779 57.9406 50.9187 57.7093 50.9891 57.7198Z" fill="#263238"/>
<path d="M51.563 46.2946C51.4439 46.531 50.5177 46.2946 49.3965 46.3366C48.2753 46.3786 47.3545 46.5521 47.23 46.3366C47.1758 46.221 47.3599 46.0055 47.7716 45.8111C48.2751 45.5629 48.8318 45.4333 49.3965 45.4327C49.9598 45.4297 50.5161 45.5539 51.0214 45.7953C51.4331 45.9635 51.6172 46.1789 51.563 46.2946Z" fill="#263238"/>
<path d="M60.4138 47.5034C60.2243 47.6926 59.6014 47.414 58.8214 47.3247C58.0415 47.2354 57.3698 47.3247 57.2398 47.083C57.1857 46.9726 57.3102 46.7729 57.619 46.6047C58.0307 46.4046 58.4961 46.3331 58.9514 46.3998C59.4083 46.4441 59.8388 46.6281 60.1809 46.9253C60.4301 47.1881 60.5005 47.4088 60.4138 47.5034Z" fill="#263238"/>
<path d="M40.8387 52.3539C40.7358 52.2961 36.7602 50.7143 36.4515 54.7924C36.1427 58.8706 40.4271 58.3293 40.4433 58.2137C40.4596 58.0981 40.8387 52.3539 40.8387 52.3539Z" fill="#FFBF9D"/>
<path d="M39.273 56.574C39.273 56.574 39.1972 56.6213 39.0672 56.6686C38.8889 56.7238 38.6958 56.7125 38.5256 56.6371C38.0977 56.4479 37.7727 55.7384 37.8052 55.0026C37.8232 54.6522 37.9193 54.3098 38.0868 53.9989C38.1332 53.8701 38.212 53.7546 38.3161 53.6628C38.4201 53.571 38.5461 53.5059 38.6826 53.4733C38.7685 53.4567 38.8576 53.4704 38.934 53.5118C39.0105 53.5532 39.0692 53.6197 39.0997 53.6993C39.1484 53.8149 39.0997 53.8937 39.1376 53.9043C39.1755 53.9148 39.2297 53.8412 39.208 53.673C39.1925 53.57 39.1409 53.4753 39.0618 53.405C39.0081 53.3588 38.9455 53.3234 38.8777 53.3008C38.8098 53.2783 38.738 53.269 38.6664 53.2736C38.4908 53.2928 38.3234 53.3563 38.1808 53.4577C38.0383 53.5591 37.9256 53.6949 37.8539 53.8517C37.6497 54.1911 37.5327 54.5733 37.5127 54.9658C37.4802 55.7909 37.8539 56.5898 38.4497 56.8052C38.5602 56.845 38.6785 56.86 38.7957 56.8491C38.913 56.8382 39.0262 56.8016 39.1268 56.7422C39.2622 56.6738 39.2893 56.5845 39.273 56.574Z" fill="#FF9A6C"/>
<path d="M59.7789 41.3178C60.4831 40.9972 58.5819 38.7321 56.957 37.8913C54.5034 36.6195 50.6903 35.6945 48.2908 36.1885C45.431 36.7876 43.0099 37.9964 41.4391 40.3928C39.9153 42.8313 39.0872 45.619 39.0397 48.4703C38.9469 49.3366 39.0946 50.2112 39.4675 51.0034C40.0092 51.9389 41.0925 52.5801 40.9516 53.8203C40.921 54.0444 40.9363 54.2721 40.9967 54.4904C41.0571 54.7086 41.1615 54.9131 41.3037 55.0921C42.0241 55.9382 43.0098 55.2498 43.4973 54.5298C44.5264 52.9847 44.7539 51.0875 44.9597 49.2744C45.1792 47.9851 45.1792 46.6695 44.9597 45.3802C44.7973 44.6865 44.5102 44.0243 44.4181 43.3201C44.3352 42.9733 44.331 42.6132 44.4058 42.2648C44.4806 41.9163 44.6327 41.5878 44.8514 41.302C44.9623 41.188 45.0838 41.0842 45.2143 40.9919C45.8342 40.533 46.5688 40.2425 47.3427 40.1501C48.1165 40.0577 48.9018 40.1669 49.6178 40.4664C51.9306 41.4281 55.8954 42.8944 57.0057 42.1796C58.5982 41.1549 59.0098 40.4454 59.0098 40.4454L59.7789 41.3178Z" fill="#263238"/>
</svg>
