<svg width="243" height="243" viewBox="0 0 243 243" fill="none" xmlns="http://www.w3.org/2000/svg">
<path d="M30.8418 40.4365C30.8641 40.4873 30.8804 40.541 30.8902 40.5964L31.0084 41.0702C31.068 41.3314 31.1416 41.5884 31.2287 41.8401C31.3255 42.1362 31.4276 42.4856 31.5834 42.8587L31.8199 43.4509L32.1262 44.0905C32.2313 44.3255 32.3497 44.5529 32.4809 44.7715C32.6152 44.9966 32.7334 45.2453 32.8946 45.4822C34.4043 47.9151 36.5182 49.817 38.9833 50.9601C39.7312 51.3052 40.5066 51.5728 41.2995 51.7596C42.1428 51.944 42.9951 52.0745 43.8521 52.1505C45.6094 52.34 47.5118 52.4466 49.3336 53.252C51.1736 54.151 52.8051 55.4973 54.1057 57.1902C55.4821 58.7987 56.5949 60.6582 57.3945 62.6859C57.756 63.6649 57.9772 64.6998 58.0501 65.7536C58.1127 66.7604 58.0549 67.7719 57.8782 68.762C57.5189 70.5769 57.0338 72.3588 56.4272 74.0919C55.9099 75.5955 55.5248 77.1503 55.2772 78.7349C55.0763 80.0419 55.1221 81.3805 55.4115 82.6672C55.6304 83.6378 56.0272 84.5488 56.5777 85.344C56.9254 85.8485 57.351 86.2815 57.8352 86.6232C58.163 86.8541 58.3726 86.943 58.3726 86.9548C58.186 86.8734 58.0062 86.7743 57.8352 86.6587C57.3397 86.325 56.9028 85.8957 56.5454 85.3914C55.9759 84.5961 55.5641 83.6782 55.3363 82.6968C55.0323 81.3951 54.9756 80.0382 55.1697 78.7112C55.415 77.1176 55.7965 75.5531 56.309 74.0386C56.9056 72.3038 57.3834 70.5222 57.7384 68.7087C57.9054 67.7332 57.9596 66.7382 57.8997 65.7477C57.8277 64.7153 57.6083 63.702 57.2494 62.7452C56.4554 60.7385 55.3538 58.8974 53.9928 57.3027C52.7095 55.6332 51.1001 54.3051 49.2852 53.4178C47.5064 52.6183 45.6202 52.5117 43.8575 52.3163C42.9954 52.2327 42.1379 52.0983 41.2888 51.9136C40.4802 51.7346 39.6886 51.4729 38.9242 51.1319C36.4382 49.9702 34.3144 48.0332 32.814 45.5592C32.6528 45.3223 32.5292 45.0735 32.4002 44.8426C32.2727 44.6186 32.1561 44.3873 32.0509 44.1497L31.75 43.5101L31.5189 42.9179C31.3863 42.582 31.2715 42.238 31.175 41.8874C31.0942 41.6336 31.0278 41.3745 30.9761 41.1116C30.9332 40.9044 30.8955 40.7445 30.874 40.632C30.8588 40.5678 30.8481 40.5025 30.8418 40.4365Z" fill="#455A64"/>
<path d="M41.7666 34.1589L41.8848 34.2774L42.218 34.6327C42.3631 34.7926 42.5243 35.0058 42.7554 35.2249C42.9865 35.444 43.1638 35.7698 43.3788 36.1251C43.9217 36.9777 44.3674 37.9006 44.7062 38.8729C45.166 40.1582 45.4398 41.5151 45.5176 42.8941C45.5541 43.6946 45.5272 44.4971 45.437 45.2925C45.3271 46.1542 45.1582 47.0054 44.9319 47.839C44.4858 49.5683 43.8571 51.3449 43.3842 53.2933C43.1518 54.2869 43.0203 55.3058 42.9919 56.3314C42.9709 57.4008 43.0702 58.469 43.2874 59.5115C43.7411 61.7225 44.6493 63.7891 45.9422 65.5521C47.2388 67.3 48.8417 68.7421 50.6551 69.7924C52.338 70.7837 54.1512 71.4791 56.0291 71.8533C57.824 72.2204 59.5651 72.3152 61.1773 72.5876C62.6867 72.7862 64.1528 73.2753 65.5087 74.0326C67.4437 75.2276 68.9579 77.1048 69.8079 79.3625C70.0381 79.9691 70.218 80.5974 70.3453 81.2398C70.3775 81.4589 70.399 81.6248 70.4205 81.7491C70.4242 81.8063 70.4242 81.8637 70.4205 81.9209C70.4205 81.9209 70.4205 81.8616 70.3829 81.7491C70.3453 81.6366 70.3292 81.4649 70.2916 81.2517C70.1589 80.6166 69.9792 79.9947 69.7542 79.3921C69.3773 78.4472 68.8836 77.5643 68.2871 76.7686C67.4967 75.7146 66.5298 74.838 65.4389 74.1866C64.0912 73.4457 62.6361 72.9707 61.1397 72.783C59.5275 72.5165 57.7917 72.4277 55.9807 72.0665C54.0854 71.6876 52.2546 70.9884 50.553 69.9937C48.7173 68.9319 47.0944 67.4738 45.7809 65.7061C44.4799 63.924 43.5614 61.8407 43.094 59.6122C42.8813 58.5529 42.7839 57.4694 42.8038 56.3847C42.8328 55.3451 42.9662 54.3123 43.2014 53.3052C43.6582 51.339 44.3192 49.5624 44.7706 47.845C45.0071 47.0221 45.1868 46.1808 45.308 45.3281C45.4039 44.5432 45.4345 43.7502 45.3994 42.9592C45.2759 40.5515 44.5607 38.226 43.3304 36.2317C43.1208 35.8704 42.9005 35.5862 42.7232 35.3197C42.5458 35.0532 42.3685 34.8578 42.2288 34.7275L41.9117 34.3544C41.8581 34.2942 41.8095 34.2288 41.7666 34.1589Z" fill="#455A64"/>
<path d="M68.4699 76.5969C68.343 76.7519 68.2026 76.8927 68.0508 77.0174C67.7713 77.2839 67.3575 77.6511 66.8362 78.0893C65.4842 79.2403 64.0778 80.3117 62.6231 81.2991C61.167 82.286 59.6657 83.1893 58.1251 84.0055C57.5339 84.3194 57.0503 84.5622 56.7171 84.7162C56.5458 84.8121 56.3656 84.8876 56.1797 84.9412C56.3397 84.8296 56.5067 84.7306 56.6795 84.6451L58.0659 83.8811C59.2321 83.2297 60.8228 82.2822 62.521 81.1273C64.2191 79.9725 65.7023 78.8296 66.7556 77.9768L67.997 76.9582C68.1458 76.8243 68.304 76.7035 68.4699 76.5969Z" fill="#455A64"/>
<path d="M65.5838 74.1096C65.4511 74.2179 65.3089 74.3111 65.1592 74.388L63.9877 75.0868C62.9989 75.679 61.6446 76.5199 60.1776 77.5089C58.7105 78.4979 57.4207 79.4573 56.4964 80.162L55.4216 81.003C55.2903 81.1107 55.152 81.2077 55.0078 81.2931C55.121 81.1621 55.2452 81.0432 55.3786 80.9378C55.6258 80.7187 55.9912 80.4167 56.4534 80.0495C57.3616 79.3092 58.6514 78.338 60.1184 77.3431C61.5855 76.3482 62.9559 75.525 63.9608 74.9742C64.466 74.69 64.8744 74.4709 65.1646 74.3287C65.2987 74.2433 65.4389 74.1701 65.5838 74.1096Z" fill="#455A64"/>
<path d="M61.4466 73.1504C61.1871 73.3998 60.9084 73.6237 60.6136 73.8196C60.0762 74.2045 59.3507 74.7257 58.5231 75.2764C57.6955 75.8272 56.9378 76.295 56.3735 76.6267C56.0791 76.82 55.7698 76.9845 55.4492 77.1182C55.7206 76.8952 56.0082 76.6971 56.309 76.526L58.4264 75.1284L60.5437 73.7248C60.8281 73.5033 61.1303 73.311 61.4466 73.1504Z" fill="#455A64"/>
<path d="M57.5878 68.1165C57.3963 68.3101 57.1854 68.479 56.959 68.6198L55.406 69.7687L53.8636 70.9532C53.6608 71.131 53.4409 71.2839 53.208 71.4092C53.3756 71.1831 53.571 70.9838 53.7884 70.817C54.1646 70.4853 54.6966 70.053 55.3039 69.597C55.9111 69.141 56.4754 68.7561 56.916 68.4955C57.1243 68.338 57.3501 68.2106 57.5878 68.1165Z" fill="#455A64"/>
<path d="M57.281 63.6274C57.281 63.6571 56.8242 63.9295 56.0879 64.3973C55.3517 64.8652 54.3468 65.5462 53.2881 66.3635C52.2294 67.1807 51.3051 67.998 50.6549 68.602C50.3122 68.9461 49.9534 69.2703 49.5801 69.5732C49.6533 69.4621 49.7361 69.359 49.8273 69.2653C49.9939 69.0758 50.2464 68.8152 50.5635 68.4954C52.2189 66.8484 54.0506 65.4304 56.0181 64.273C56.3943 64.0538 56.7059 63.888 56.9209 63.7755C57.0345 63.7088 57.1555 63.659 57.281 63.6274Z" fill="#455A64"/>
<path d="M55.2663 60.1452C55.2931 60.1926 53.4069 61.6909 51.0531 63.503C48.6993 65.3152 46.7539 66.7365 46.7539 66.6951C46.7539 66.6536 48.6079 65.1435 50.9617 63.3372C53.3155 61.531 55.234 60.0978 55.2663 60.1452Z" fill="#455A64"/>
<path d="M53.6588 56.219C53.5469 56.3319 53.4244 56.4311 53.2933 56.5151C53.0246 56.7165 52.6861 56.9711 52.2776 57.2672C51.4178 57.9009 50.2355 58.7892 48.9512 59.796C47.6668 60.8027 46.5275 61.7503 45.7268 62.4372L44.7487 63.2545C44.6343 63.3613 44.51 63.4545 44.3779 63.5328C44.4747 63.4047 44.5848 63.2894 44.7057 63.1893C44.9207 62.9821 45.2431 62.686 45.6462 62.3247C46.4523 61.6081 47.5808 60.6428 48.8706 59.6361C50.1603 58.6293 51.3533 57.7528 52.2293 57.1488C52.6699 56.8467 53.03 56.6099 53.3041 56.45C53.4148 56.3598 53.5337 56.2824 53.6588 56.219Z" fill="#455A64"/>
<path d="M50.3437 54.0455C50.3759 54.087 48.7745 55.3662 46.7754 56.9C44.7763 58.4338 43.1265 59.6301 43.0942 59.5886C43.062 59.5472 44.6688 58.2621 46.6679 56.7342C48.667 55.2063 50.3168 53.9982 50.3437 54.0455Z" fill="#455A64"/>
<path d="M46.8668 51.8542C46.2973 52.4896 45.6827 53.0738 45.0289 53.6013C44.4151 54.1844 43.763 54.7169 43.0781 55.1943C43.6498 54.5526 44.2642 53.9588 44.916 53.4177C45.5307 52.8447 46.1827 52.3222 46.8668 51.8542Z" fill="#455A64"/>
<path d="M44.5236 46.3528C44.2843 46.6446 44.0217 46.9122 43.739 47.1523C43.2392 47.6201 42.5299 48.2538 41.7238 48.9289C40.9177 49.604 40.1707 50.1607 39.6172 50.5575C39.3292 50.7876 39.0214 50.986 38.6982 51.1497C38.9642 50.8873 39.2481 50.6477 39.5473 50.4331C40.0847 50.0067 40.8156 49.4204 41.6163 48.7631C42.417 48.1057 43.1371 47.4898 43.6584 47.0457C43.9295 46.7896 44.2189 46.5579 44.5236 46.3528Z" fill="#455A64"/>
<path d="M45.5336 42.6099C45.4238 42.7263 45.3031 42.8295 45.1735 42.9178C44.9425 43.1073 44.5932 43.3679 44.1632 43.6818C43.298 44.3154 42.0835 45.1623 40.7132 46.0506C39.3428 46.9389 38.0692 47.6614 37.1395 48.1707C36.6773 48.4254 36.2958 48.6267 36.0324 48.7629C35.8997 48.8434 35.7591 48.907 35.6133 48.9525C35.7348 48.8545 35.8643 48.7693 36.0002 48.6978L37.075 48.0523C37.9886 47.5134 39.2246 46.7553 40.6164 45.8789C42.0083 45.0024 43.2067 44.1851 44.088 43.5811L45.1306 42.8704C45.2554 42.7668 45.3906 42.6794 45.5336 42.6099Z" fill="#455A64"/>
<path d="M43.9217 38.6125C43.7994 38.733 43.6681 38.8419 43.5294 38.9383C43.2714 39.1396 42.8952 39.4239 42.4223 39.7733C41.4819 40.4603 40.1706 41.3959 38.7035 42.3968C37.2365 43.3976 35.8983 44.2741 34.9418 44.89C34.4527 45.1979 34.0551 45.4467 33.7756 45.6125C33.6346 45.7042 33.4873 45.7834 33.335 45.8494C33.4602 45.7329 33.5951 45.6298 33.738 45.5414L34.8773 44.7656L38.6391 42.225L42.4008 39.6548L43.5401 38.8731C43.6595 38.7732 43.7873 38.6859 43.9217 38.6125Z" fill="#455A64"/>
<path d="M185.322 156.67C185.295 156.7 184.897 156.261 184.123 155.533C183.736 155.172 183.258 154.733 182.678 154.266C182.023 153.736 181.333 153.261 180.614 152.844C180.199 152.61 179.768 152.411 179.324 152.252C178.859 152.065 178.368 151.969 177.873 151.968C177.629 151.968 177.388 152.03 177.169 152.151C176.955 152.274 176.785 152.472 176.686 152.714C176.581 152.979 176.532 153.266 176.541 153.555C176.545 153.866 176.581 154.176 176.648 154.479C176.792 155.121 177.001 155.742 177.271 156.332C177.554 156.959 177.872 157.566 178.223 158.15C179.728 160.6 181.612 162.739 183.79 164.469C184.305 164.876 184.843 165.244 185.402 165.571C185.93 165.889 186.489 166.139 187.068 166.317C187.34 166.4 187.619 166.45 187.901 166.465C188.161 166.482 188.422 166.435 188.664 166.329C188.891 166.23 189.081 166.048 189.202 165.814C189.316 165.576 189.381 165.313 189.39 165.044C189.405 164.497 189.333 163.952 189.175 163.433C189.028 162.939 188.849 162.458 188.637 161.994C188.279 161.19 187.867 160.416 187.407 159.678C186.998 159.027 186.622 158.494 186.3 158.05C185.665 157.179 185.279 156.723 185.305 156.694C185.332 156.664 185.424 156.782 185.623 156.99C185.821 157.197 186.095 157.505 186.434 157.925C186.85 158.434 187.243 158.966 187.611 159.519C188.103 160.253 188.542 161.029 188.922 161.84C189.141 162.319 189.329 162.813 189.486 163.321C189.667 163.891 189.752 164.493 189.739 165.097C189.733 165.43 189.656 165.757 189.513 166.051C189.359 166.365 189.113 166.614 188.815 166.755C188.519 166.891 188.2 166.954 187.88 166.939C187.566 166.928 187.254 166.879 186.95 166.791C186.34 166.608 185.75 166.349 185.193 166.021C184.61 165.669 184.05 165.273 183.516 164.837C181.283 163.082 179.359 160.894 177.836 158.381C177.474 157.783 177.149 157.157 176.863 156.51C176.584 155.885 176.37 155.227 176.223 154.55C176.15 154.214 176.114 153.87 176.116 153.525C176.107 153.172 176.174 152.821 176.309 152.501C176.447 152.176 176.68 151.911 176.97 151.749C177.241 151.603 177.539 151.528 177.841 151.53C178.381 151.536 178.916 151.648 179.421 151.861C179.876 152.047 180.318 152.271 180.743 152.53C181.466 152.972 182.157 153.477 182.807 154.041C183.382 154.538 183.849 154.994 184.22 155.385C184.591 155.776 184.865 156.09 185.042 156.309C185.219 156.528 185.332 156.658 185.322 156.67Z" fill="#455A64"/>
<path d="M180.168 158.091C180.2 158.091 180.045 158.684 179.84 159.738C179.738 160.271 179.625 160.922 179.534 161.68C179.43 162.538 179.387 163.403 179.405 164.268C179.415 164.767 179.462 165.264 179.545 165.755C179.623 166.276 179.785 166.777 180.023 167.235C180.145 167.46 180.31 167.652 180.507 167.798C180.703 167.938 180.934 168.008 181.168 167.999C181.423 167.991 181.675 167.923 181.904 167.798C182.147 167.66 182.375 167.491 182.581 167.294C183.021 166.875 183.415 166.402 183.758 165.885C184.12 165.339 184.449 164.768 184.741 164.173C185.962 161.648 186.755 158.899 187.079 156.06C187.149 155.39 187.18 154.715 187.17 154.041C187.162 153.4 187.088 152.762 186.95 152.14C186.88 151.849 186.783 151.567 186.66 151.299C186.546 151.05 186.385 150.832 186.187 150.659C186.002 150.5 185.777 150.409 185.542 150.399C185.305 150.394 185.071 150.446 184.854 150.553C184.421 150.775 184.026 151.079 183.688 151.453C183.364 151.804 183.066 152.182 182.796 152.584C182.321 153.274 181.897 154.004 181.528 154.769C181.205 155.444 180.958 156.048 180.765 156.546C180.378 157.547 180.2 158.115 180.168 158.103C180.173 157.955 180.2 157.809 180.249 157.671C180.319 157.393 180.432 156.99 180.598 156.486C180.765 155.983 180.996 155.355 181.302 154.657C181.65 153.86 182.058 153.098 182.522 152.377C182.792 151.953 183.096 151.557 183.43 151.192C183.792 150.772 184.22 150.429 184.693 150.179C184.958 150.047 185.246 149.981 185.537 149.984C185.851 149.993 186.155 150.109 186.407 150.316C186.652 150.525 186.854 150.79 186.998 151.091C187.142 151.388 187.254 151.702 187.332 152.027C187.485 152.681 187.567 153.353 187.579 154.029C187.597 154.727 187.57 155.426 187.498 156.119C187.185 159.025 186.373 161.839 185.107 164.41C184.803 165.029 184.46 165.622 184.08 166.187C183.717 166.731 183.297 167.226 182.828 167.662C182.596 167.877 182.342 168.062 182.071 168.212C181.794 168.37 181.49 168.459 181.178 168.473C180.866 168.481 180.558 168.384 180.297 168.195C180.057 168.01 179.856 167.772 179.706 167.496C179.451 166.991 179.282 166.439 179.206 165.867C179.126 165.357 179.086 164.84 179.088 164.321C179.084 163.436 179.151 162.553 179.287 161.68C179.384 161.026 179.511 160.378 179.668 159.738C179.797 159.211 179.921 158.808 180.007 158.553C180.035 158.39 180.089 158.233 180.168 158.091Z" fill="#455A64"/>
<path d="M181.931 155.361C181.931 155.403 181.393 155.557 180.485 155.924C180.023 156.107 179.464 156.344 178.824 156.658C178.108 157.012 177.418 157.428 176.761 157.902C176.379 158.171 176.02 158.476 175.686 158.814C175.324 159.159 175.024 159.574 174.799 160.04C174.69 160.271 174.627 160.525 174.617 160.786C174.612 161.046 174.681 161.301 174.816 161.514C174.955 161.742 175.138 161.932 175.353 162.071C175.587 162.225 175.836 162.35 176.095 162.444C176.651 162.632 177.224 162.751 177.803 162.799C178.415 162.844 179.029 162.844 179.641 162.799C180.935 162.716 182.218 162.495 183.473 162.142C184.731 161.796 185.956 161.32 187.133 160.721C187.688 160.433 188.227 160.107 188.745 159.744C189.235 159.408 189.688 159.011 190.094 158.559C190.285 158.344 190.451 158.103 190.588 157.843C190.721 157.607 190.806 157.342 190.835 157.067C190.86 156.811 190.813 156.553 190.701 156.327C190.58 156.093 190.415 155.891 190.217 155.734C189.816 155.452 189.372 155.252 188.906 155.142C188.466 155.022 188.019 154.941 187.568 154.899C186.785 154.832 185.998 154.832 185.214 154.899C184.521 154.959 183.924 155.041 183.435 155.118C182.468 155.284 181.936 155.42 181.925 155.379C182.043 155.309 182.17 155.259 182.301 155.231C182.549 155.148 182.919 155.041 183.408 154.929C183.897 154.816 184.483 154.71 185.193 154.627C185.99 154.534 186.794 154.514 187.595 154.568C188.064 154.599 188.529 154.674 188.987 154.793C189.501 154.907 189.992 155.128 190.432 155.444C190.675 155.621 190.879 155.856 191.029 156.131C191.188 156.429 191.258 156.776 191.228 157.12C191.2 157.461 191.103 157.791 190.943 158.085C190.792 158.373 190.611 158.642 190.405 158.885C189.98 159.375 189.504 159.808 188.987 160.176C188.456 160.558 187.903 160.9 187.331 161.2C186.123 161.821 184.863 162.31 183.57 162.663C182.287 163.024 180.974 163.244 179.652 163.321C179.02 163.359 178.386 163.347 177.755 163.285C177.143 163.232 176.539 163.099 175.955 162.888C175.665 162.785 175.387 162.643 175.127 162.468C174.863 162.289 174.636 162.051 174.461 161.769C174.29 161.481 174.204 161.142 174.214 160.798C174.227 160.475 174.306 160.159 174.445 159.874C174.698 159.369 175.033 158.919 175.434 158.547C175.788 158.206 176.168 157.897 176.567 157.623C177.253 157.163 177.972 156.767 178.717 156.439C179.274 156.186 179.843 155.965 180.421 155.776C180.893 155.622 181.27 155.521 181.522 155.462C181.653 155.404 181.79 155.37 181.931 155.361Z" fill="#455A64"/>
<path d="M184.639 158.778C184.708 159.083 184.694 159.403 184.598 159.698C184.502 159.994 184.328 160.251 184.099 160.438C183.871 160.625 183.596 160.733 183.312 160.748C183.027 160.764 182.745 160.685 182.501 160.524C182.257 160.362 182.061 160.125 181.94 159.841C181.818 159.557 181.776 159.24 181.817 158.929C181.859 158.619 181.984 158.329 182.175 158.097C182.367 157.864 182.616 157.699 182.893 157.623C183.263 157.523 183.655 157.588 183.982 157.804C184.309 158.02 184.545 158.371 184.639 158.778Z" fill="#455A64"/>
<path d="M213.997 131.59L213.836 131.507L213.368 131.246L211.568 130.216L204.953 126.384H205.012L184.634 134.965L184.451 135.042L184.505 134.835L185.128 132.354C186.552 126.692 187.901 121.333 189.084 116.619V116.583L200.369 107.262L203.593 104.632L204.448 103.939L204.668 103.768C204.715 103.724 204.741 103.706 204.749 103.714L204.679 103.779L204.464 103.969L203.625 104.68L200.444 107.35L189.191 116.737L189.223 116.684C188.041 121.421 186.703 126.751 185.284 132.431C185.069 133.277 184.86 134.124 184.661 134.912L184.532 134.782L204.953 126.26H204.985L211.568 130.151L213.347 131.211L213.809 131.495L213.997 131.59Z" fill="#FF9519"/>
<path d="M187.25 134.693L186.031 135.09L185.638 136.422L184.918 135.267H183.645L184.418 134.154L184.026 132.822L185.224 133.289L186.251 132.466L186.219 133.87L187.25 134.693Z" fill="#FF9519"/>
<path d="M190.77 116.186L190.002 116.494L189.792 117.371L189.287 116.66L188.465 116.713L188.927 115.961L188.626 115.12L189.416 115.369L190.05 114.795L190.077 115.701L190.77 116.186Z" fill="#FF9519"/>
<path d="M206.199 103.14L205.64 104.07L206.011 105.1L205.038 104.798L204.264 105.509L204.221 104.395L203.372 103.803L204.318 103.418L204.565 102.34L205.194 103.211L206.199 103.14Z" fill="#FF9519"/>
<path d="M215.232 130.417L214.668 131.347L215.044 132.377L214.072 132.075L213.292 132.786L213.255 131.673L212.4 131.08L213.346 130.696L213.599 129.618L214.222 130.488L215.232 130.417Z" fill="#FF9519"/>
<path d="M205.753 125.851L205.393 126.443L205.635 127.101L205.011 126.905L204.517 127.361L204.495 126.651L203.947 126.272L204.555 126.023L204.71 125.336L205.113 125.899L205.753 125.851Z" fill="#FF9519"/>
<path d="M153.137 31.7238C154.055 25.526 150.24 19.6817 144.616 18.6702C138.992 17.6586 133.688 21.8628 132.77 28.0605C131.853 34.2582 135.668 40.1025 141.292 41.1141C146.916 42.1257 152.219 37.9215 153.137 31.7238Z" fill="#FF9519"/>
<g opacity="0.3">
<path d="M141.599 33.4483C141.599 33.815 141.501 34.1733 141.316 34.4782C141.131 34.783 140.868 35.0206 140.561 35.1609C140.254 35.3012 139.916 35.3379 139.589 35.2664C139.263 35.1948 138.963 35.0183 138.728 34.7591C138.493 34.4998 138.333 34.1695 138.268 33.81C138.203 33.4504 138.236 33.0777 138.363 32.739C138.491 32.4003 138.706 32.1108 138.983 31.9071C139.26 31.7034 139.585 31.5947 139.917 31.5947C140.364 31.5947 140.791 31.79 141.107 32.1376C141.422 32.4853 141.599 32.9567 141.599 33.4483Z" fill="white"/>
</g>
<g opacity="0.3">
<path d="M139.233 28.0947C139.233 28.3078 139.176 28.5162 139.069 28.6935C138.961 28.8707 138.808 29.0089 138.63 29.0905C138.451 29.172 138.254 29.1934 138.065 29.1518C137.875 29.1102 137.701 29.0075 137.564 28.8568C137.427 28.7061 137.334 28.514 137.296 28.3049C137.258 28.0959 137.278 27.8792 137.352 27.6822C137.426 27.4853 137.551 27.3169 137.712 27.1985C137.873 27.0801 138.062 27.0168 138.255 27.0168C138.515 27.0168 138.764 27.1304 138.947 27.3325C139.13 27.5347 139.233 27.8088 139.233 28.0947Z" fill="white"/>
</g>
<path d="M132.953 32.6666C133.001 32.8621 124.123 42.2486 126.412 44.2503C128.702 46.252 138.327 41.1175 146.533 33.8155C154.739 26.5136 162.23 17.6422 160.177 15.2971C158.124 12.9519 147.876 19.8985 147.876 19.8985L149.123 20.7573C149.123 20.7573 155.319 16.3749 157.28 18.0745C159.242 19.7742 153.653 26.4247 145.764 32.7732C137.875 39.1218 130.249 43.5752 129.067 41.8341C127.885 40.093 133.468 34.2952 133.468 34.2952L132.953 32.6666Z" fill="#FF9519"/>
<g opacity="0.3">
<path d="M132.952 32.6666C133 32.8621 124.122 42.2486 126.412 44.2503C128.701 46.252 138.326 41.1175 146.532 33.8155C154.738 26.5136 162.229 17.6422 160.176 15.2971C158.123 12.9519 147.875 19.8985 147.875 19.8985L149.122 20.7573C149.122 20.7573 155.318 16.3749 157.28 18.0745C159.241 19.7742 153.652 26.4247 145.763 32.7732C137.874 39.1218 130.249 43.5752 129.066 41.8341C127.884 40.093 133.468 34.2952 133.468 34.2952L132.952 32.6666Z" fill="black"/>
</g>
<g opacity="0.3">
<path d="M137.299 21.8884C137.38 22.0009 136.681 22.6523 135.891 23.967C134.841 25.6522 134.262 27.6392 134.225 29.6828C134.188 31.7265 134.694 33.7375 135.682 35.4678C136.429 36.8121 137.1 37.4991 137.014 37.6057C136.928 37.7123 136.133 37.1556 135.214 35.829C134.682 35.0399 134.26 34.1676 133.962 33.2411C133.2 30.9373 133.246 28.4029 134.091 26.1345C134.422 25.2223 134.874 24.3699 135.434 23.6058C136.38 22.3029 137.229 21.8114 137.299 21.8884Z" fill="white"/>
</g>
<path d="M158.57 39.9212C158.598 38.6155 158.977 37.3482 159.658 36.2797C160.34 35.2112 161.294 34.3895 162.399 33.9184C163.504 33.4473 164.712 33.348 165.868 33.6331C167.025 33.9183 168.079 34.575 168.897 35.5202C169.715 36.4654 170.26 37.6567 170.463 38.9434C170.667 40.2301 170.519 41.5544 170.04 42.7488C169.56 43.9432 168.77 44.954 167.769 45.6535C166.768 46.3529 165.602 46.7096 164.417 46.6783C162.829 46.6364 161.32 45.901 160.224 44.6339C159.127 43.3667 158.533 41.6716 158.57 39.9212Z" fill="#FF9519"/>
<g opacity="0.4">
<path d="M166.512 37.5523C166.516 37.3389 166.578 37.1318 166.689 36.9571C166.801 36.7825 166.956 36.6481 167.137 36.5711C167.318 36.4941 167.515 36.478 167.704 36.5246C167.893 36.5713 168.065 36.6788 168.198 36.8333C168.332 36.9879 168.421 37.1827 168.454 37.393C168.487 37.6033 168.462 37.8196 168.383 38.0146C168.305 38.2095 168.175 38.3744 168.011 38.4882C167.848 38.602 167.657 38.6596 167.463 38.6538C167.335 38.6507 167.209 38.6197 167.091 38.5626C166.974 38.5055 166.868 38.4234 166.78 38.3211C166.691 38.2187 166.622 38.0981 166.576 37.9661C166.53 37.8342 166.509 37.6935 166.512 37.5523Z" fill="black"/>
</g>
<g opacity="0.4">
<path d="M168.469 40.0633C168.472 39.9385 168.509 39.8177 168.575 39.7162C168.641 39.6148 168.733 39.5373 168.84 39.4938C168.946 39.4502 169.061 39.4426 169.172 39.4718C169.282 39.501 169.381 39.5657 169.458 39.6577C169.535 39.7497 169.585 39.8648 169.601 39.9883C169.618 40.1117 169.602 40.2379 169.553 40.3508C169.505 40.4636 169.427 40.558 169.329 40.6218C169.232 40.6855 169.119 40.7159 169.006 40.7088C168.859 40.6982 168.72 40.6252 168.62 40.5049C168.52 40.3847 168.466 40.2265 168.469 40.0633Z" fill="black"/>
</g>
<g opacity="0.4">
<path d="M167.7 41.988C167.756 41.9896 167.809 42.0152 167.849 42.0595C167.888 42.1037 167.91 42.1631 167.91 42.2249C167.909 42.2553 167.903 42.2851 167.892 42.3129C167.881 42.3406 167.864 42.3656 167.845 42.3865C167.825 42.4074 167.801 42.4238 167.775 42.4347C167.75 42.4456 167.722 42.4507 167.695 42.45C167.667 42.45 167.64 42.4438 167.614 42.4318C167.589 42.4197 167.566 42.4021 167.546 42.3799C167.527 42.3578 167.512 42.3315 167.503 42.3028C167.493 42.2742 167.489 42.2436 167.491 42.2131C167.492 42.1529 167.515 42.0956 167.554 42.0536C167.593 42.0115 167.645 41.988 167.7 41.988Z" fill="black"/>
</g>
<path d="M183.311 89.1816C183.257 89.1816 183.22 80.8195 183.22 70.5091C183.22 60.1987 183.257 51.8367 183.311 51.8367C183.365 51.8367 183.402 60.1928 183.402 70.5091C183.402 80.8255 183.359 89.1816 183.311 89.1816Z" fill="#263238"/>
<path d="M184.322 52.1564C183.89 51.4666 183.505 50.7421 183.172 49.9889H183.333V50.0363C183.056 50.8368 182.727 51.6146 182.35 52.3637C182.561 51.5388 182.835 50.7347 183.166 49.9593V49.9119L183.242 49.7224L183.328 49.9001C183.713 50.6216 184.046 51.3762 184.322 52.1564Z" fill="#263238"/>
<path d="M183.124 47.4245C183.091 47.466 182.812 47.2646 182.586 46.8915C182.361 46.5184 182.307 46.1572 182.355 46.1454C182.404 46.1335 182.533 46.4415 182.737 46.7849C182.941 47.1284 183.156 47.3831 183.124 47.4245Z" fill="#263238"/>
<path d="M182.592 48.5023C182.694 48.0432 182.838 47.5967 183.022 47.1698C183.144 46.7174 183.31 46.2807 183.516 45.8669C183.483 46.343 183.372 46.8085 183.188 47.2409C183.062 47.6982 182.859 48.1258 182.592 48.5023Z" fill="#263238"/>
<path d="M180.883 56.752C181.005 56.3755 181.109 55.992 181.194 55.6031C181.213 55.2086 181.213 54.8132 181.194 54.4187C181.385 54.793 181.441 55.2329 181.35 55.6505C181.324 56.0689 181.157 56.4616 180.883 56.752Z" fill="#263238"/>
<path d="M181.216 55.1945C181.216 55.1945 181.173 55.3544 180.958 55.4136C180.831 55.4434 180.698 55.418 180.587 55.3425C180.522 55.2907 180.468 55.2233 180.429 55.1453C180.39 55.0673 180.368 54.9807 180.364 54.892C180.36 54.8033 180.374 54.7147 180.405 54.6327C180.436 54.5508 180.484 54.4776 180.544 54.4187C180.65 54.3356 180.78 54.2977 180.909 54.3121C181.13 54.3121 181.205 54.4897 181.184 54.5016C181.162 54.5134 181.071 54.4424 180.904 54.4542C180.854 54.4532 180.804 54.4638 180.758 54.4852C180.712 54.5066 180.67 54.5384 180.636 54.5785C180.602 54.6186 180.575 54.6662 180.558 54.7182C180.542 54.7703 180.535 54.8256 180.539 54.8806C180.541 54.9359 180.553 54.9901 180.574 55.0401C180.596 55.09 180.627 55.1346 180.664 55.1712C180.702 55.2077 180.746 55.2355 180.794 55.2527C180.841 55.2699 180.892 55.2763 180.942 55.2715C181.108 55.2774 181.194 55.1708 181.216 55.1945Z" fill="#263238"/>
<path d="M209.692 86.5284C209.692 86.5817 203.2 86.6291 195.183 86.6291C187.165 86.6291 180.673 86.5817 180.673 86.5284C180.673 86.4751 187.159 86.4277 195.183 86.4277C203.206 86.4277 209.692 86.4751 209.692 86.5284Z" fill="#263238"/>
<path d="M209.988 86.487C209.567 86.4146 209.157 86.275 208.773 86.0724C208.374 85.9339 207.994 85.7346 207.645 85.4802C208.059 85.5544 208.461 85.6961 208.838 85.9007C209.245 86.0333 209.632 86.2309 209.988 86.487Z" fill="#263238"/>
<path d="M210.305 86.6052C209.693 86.9887 209.023 87.2475 208.327 87.3692C208.623 87.1561 208.948 86.9962 209.289 86.8954C209.61 86.7343 209.953 86.6361 210.305 86.6052Z" fill="#263238"/>
<path d="M181.946 87.541C182.047 87.6173 182.132 87.7156 182.197 87.8297C182.262 87.9437 182.304 88.0713 182.323 88.2043C182.387 88.4941 182.366 88.7989 182.263 89.0749C182.204 89.2453 182.104 89.3947 181.973 89.5072C181.893 89.5643 181.8 89.5946 181.705 89.5946C181.609 89.5946 181.516 89.5643 181.436 89.5072C181.299 89.3956 181.189 89.2486 181.116 89.0793C181.043 88.9099 181.009 88.7233 181.017 88.5359C181.013 88.3846 181.04 88.2342 181.096 88.0958C181.151 87.9575 181.235 87.8347 181.339 87.7364C181.409 87.67 181.49 87.6195 181.578 87.588C181.665 87.5564 181.758 87.5445 181.85 87.5529C181.979 87.5529 182.038 87.618 182.032 87.6239C182.027 87.6298 181.963 87.6239 181.85 87.6239C181.69 87.6397 181.541 87.7149 181.425 87.8371C181.342 87.9257 181.278 88.0329 181.236 88.1515C181.194 88.27 181.176 88.3971 181.183 88.5241C181.18 88.6785 181.209 88.8317 181.269 88.9715C181.329 89.1113 181.417 89.2339 181.527 89.3295C181.58 89.367 181.642 89.3869 181.705 89.3869C181.767 89.3869 181.829 89.367 181.882 89.3295C181.988 89.2401 182.072 89.1217 182.124 88.986C182.218 88.7436 182.248 88.4766 182.21 88.2161C182.154 87.9776 182.065 87.7499 181.946 87.541Z" fill="#263238"/>
<path d="M205.549 87.9615C205.549 87.9615 205.651 87.8964 205.791 88.0267C205.832 88.0661 205.865 88.1155 205.886 88.1709C205.908 88.2263 205.917 88.2863 205.914 88.3465C205.901 88.5002 205.84 88.6443 205.742 88.7551C205.538 89.0038 205.162 89.0986 204.99 89.4006C204.951 89.4795 204.93 89.5681 204.93 89.6582C204.93 89.7483 204.951 89.837 204.99 89.9158C205.035 89.9985 205.1 90.0653 205.178 90.1083C205.256 90.1514 205.344 90.1688 205.431 90.1586C205.518 90.1506 205.602 90.1134 205.67 90.0521C205.738 89.9908 205.788 89.9082 205.812 89.8152C205.838 89.7288 205.844 89.6365 205.828 89.5472C205.812 89.458 205.775 89.3748 205.721 89.3059C205.612 89.1675 205.481 89.0529 205.334 88.9683C205.254 88.9354 205.182 88.8833 205.122 88.8156C205.063 88.748 205.017 88.6667 204.99 88.5774C204.974 88.5006 204.974 88.4208 204.99 88.3439C205.006 88.2671 205.037 88.1951 205.081 88.1333C205.145 88.0445 205.228 87.9752 205.323 87.9319C205.479 87.8727 205.571 87.8845 205.576 87.8964C205.581 87.9082 205.49 87.8964 205.356 88.003C205.277 88.0495 205.211 88.1167 205.162 88.1984C205.131 88.2481 205.111 88.3047 205.103 88.3641C205.094 88.4236 205.098 88.4843 205.114 88.5419C205.167 88.7966 205.597 88.8321 205.85 89.1933C205.923 89.2863 205.973 89.3982 205.995 89.5184C206.018 89.6386 206.012 89.7631 205.979 89.8803C205.942 90.0091 205.871 90.1229 205.776 90.2072C205.68 90.2916 205.564 90.3427 205.442 90.3541C205.321 90.3683 205.199 90.3441 205.09 90.2843C204.982 90.2244 204.891 90.1315 204.829 90.0165C204.773 89.9081 204.744 89.7857 204.744 89.6612C204.744 89.5367 204.773 89.4143 204.829 89.3059C204.939 89.1362 205.087 89.0014 205.259 88.915C205.391 88.844 205.515 88.7566 205.63 88.6544C205.715 88.5712 205.772 88.4584 205.791 88.3346C205.795 88.2892 205.791 88.2433 205.779 88.1995C205.767 88.1558 205.747 88.1152 205.721 88.08C205.657 87.9615 205.549 87.9793 205.549 87.9615Z" fill="#263238"/>
<path d="M205.474 87.2154C205.35 86.631 205.35 86.0231 205.474 85.4387C205.597 86.0231 205.597 86.631 205.474 87.2154Z" fill="#263238"/>
<path d="M213.229 86.564C213.07 86.6264 212.902 86.6546 212.734 86.6469L212.197 86.6824C212.157 86.6973 212.113 86.6973 212.073 86.6824C212.047 86.6638 212.027 86.6367 212.015 86.6049C212.004 86.573 212.001 86.5381 212.009 86.5047C212.027 86.43 212.067 86.3637 212.122 86.3152L212.358 86.0428C212.519 85.9048 212.625 85.703 212.654 85.4802C212.658 85.4001 212.639 85.3205 212.598 85.254C212.557 85.1875 212.497 85.1379 212.428 85.1131C212.319 85.0985 212.208 85.1212 212.111 85.1782C212.03 85.2137 211.987 85.2374 211.976 85.2256C211.966 85.2137 212.003 85.1723 212.073 85.1131C212.177 85.0144 212.312 84.9635 212.449 84.9709C212.556 84.9947 212.652 85.0594 212.72 85.1537C212.788 85.2481 212.824 85.3658 212.82 85.4861C212.8 85.755 212.684 86.0042 212.498 86.179L212.251 86.4455C212.208 86.487 212.175 86.5284 212.175 86.5462H212.208H212.745C212.906 86.5222 213.069 86.5283 213.229 86.564Z" fill="#263238"/>
<path d="M187.17 86.5283C187.17 86.5283 187.17 86.3269 187.17 85.9775C187.17 85.6281 187.17 85.1129 187.143 84.5148C187.143 83.2711 187.111 81.5537 187.106 79.5876L187.192 79.6882H185.51L185.601 79.5876V81.6425C185.601 82.2999 185.601 82.9276 185.601 83.5199C185.601 84.7043 185.601 85.711 185.574 86.5224L185.521 86.4631L186.746 86.4928C187.036 86.4928 187.197 86.4928 187.203 86.5224C187.061 86.5324 186.919 86.5324 186.778 86.5224L185.521 86.552H185.467V86.4928C185.467 85.6814 185.467 84.6628 185.467 83.4902C185.467 82.898 185.467 82.2703 185.467 81.6129V79.558L185.558 79.4573H187.278V79.552C187.278 81.5596 187.278 83.3067 187.235 84.5444C187.235 85.1366 187.235 85.6222 187.235 85.9894C187.227 86.1707 187.206 86.351 187.17 86.5283Z" fill="#263238"/>
<path d="M203.211 86.5284C203.205 86.4575 203.205 86.3861 203.211 86.3152C203.211 86.1612 203.211 85.9717 203.211 85.723C203.211 85.19 203.211 84.4675 203.184 83.5732C203.184 81.7611 203.152 79.2501 203.146 76.4015L203.238 76.4963H201.55L201.642 76.4015V77.965C201.642 78.4802 201.642 78.9836 201.642 79.4751C201.642 80.4641 201.642 81.3939 201.642 82.2645C201.642 83.9819 201.615 85.4387 201.609 86.5047L201.561 86.4514H202.792H203.125H203.249C203.107 86.4623 202.965 86.4623 202.824 86.4514L201.561 86.481H201.513V86.4277C201.513 85.3617 201.513 83.9049 201.48 82.1875C201.48 81.3169 201.48 80.4108 201.48 79.3981C201.48 78.9066 201.48 78.4032 201.48 77.888V76.3246L201.572 76.2239H203.345V76.3246C203.345 79.2145 203.345 81.7611 203.308 83.5673C203.308 84.4497 203.308 85.1663 203.281 85.6934C203.281 85.9184 203.281 86.1079 203.281 86.2856C203.281 86.4632 203.211 86.5343 203.211 86.5284Z" fill="#263238"/>
<path d="M191.227 86.5282C191.221 86.4415 191.221 86.3544 191.227 86.2677C191.227 86.0782 191.227 85.8354 191.227 85.5333C191.227 84.8878 191.227 83.9817 191.2 82.8565C191.2 80.5884 191.2 77.4555 191.162 73.92L191.254 74.0207H189.566C189.749 73.8194 189.615 73.9674 189.658 73.926V75.9276C189.658 76.585 189.658 77.2246 189.658 77.8523C189.658 79.1019 189.658 80.2804 189.658 81.3642C189.658 83.5198 189.631 85.2964 189.62 86.5282L189.577 86.4809H190.819H191.146H191.265H191.162H190.84H189.577H189.534V86.4335C189.534 85.2017 189.534 83.4251 189.502 81.2694C189.502 80.1856 189.502 79.0072 189.502 77.7576C189.502 77.1298 189.502 76.4902 189.502 75.8329V73.8312C189.545 73.7838 189.411 73.926 189.593 73.7246H191.367V73.8194C191.367 77.3726 191.34 80.541 191.329 82.8269C191.329 83.9403 191.329 84.8404 191.302 85.48C191.302 85.7761 191.302 86.013 191.302 86.1907C191.302 86.3683 191.227 86.5342 191.227 86.5282Z" fill="#263238"/>
<path d="M195.193 86.4869C195.191 86.4534 195.191 86.4197 195.193 86.3862V86.0724C195.193 85.7999 195.193 85.4209 195.193 84.9412C195.193 83.9522 195.193 82.5368 195.166 80.7957C195.166 77.278 195.139 72.4159 195.123 66.9557L195.215 67.0564H193.511L193.597 66.9617V73.2213C193.597 75.1993 193.597 77.0589 193.597 78.7526C193.597 82.1164 193.565 84.8109 193.554 86.4514L193.522 86.4158H194.763H195.204C195.204 86.4158 195.172 86.4158 195.102 86.4158H194.801H193.538H193.5V86.3744C193.5 84.7043 193.5 82.0098 193.463 78.6756C193.463 76.9819 193.463 75.1223 193.463 73.1444C193.463 72.1494 193.463 71.1308 193.463 70.0826V66.8847C193.5 66.8373 193.371 66.9794 193.554 66.7781H195.327V66.8788C195.327 72.3626 195.327 77.2543 195.29 80.7898C195.29 82.5309 195.29 83.9404 195.263 84.9353C195.263 85.4091 195.263 85.7822 195.263 86.0487V86.3329C195.198 86.4632 195.198 86.4928 195.193 86.4869Z" fill="#263238"/>
<path d="M199.262 86.4869C199.262 86.4869 199.262 86.4277 199.262 86.3152C199.262 86.2027 199.262 86.025 199.262 85.8118C199.262 85.3676 199.262 84.7221 199.262 83.899C199.262 82.2348 199.262 79.8305 199.235 76.8635C199.235 70.9414 199.235 62.6918 199.197 53.5126L199.288 53.6132H197.601C197.778 53.4178 197.655 53.5658 197.692 53.5244V59.1919C197.692 61.0396 197.692 62.8399 197.692 64.5751C197.692 68.0514 197.692 71.273 197.692 74.1571C197.692 79.9015 197.655 84.2661 197.644 86.4869H198.907H199.331C199.331 86.4869 199.299 86.4869 199.229 86.4869H198.923H197.644H197.617V86.4514C197.617 84.2306 197.59 79.866 197.574 74.1215C197.574 71.2375 197.574 68.0158 197.574 64.5395C197.574 62.8044 197.574 60.9863 197.574 59.1563V53.5007C197.617 53.4533 197.483 53.5895 197.666 53.3882H199.439V53.5007C199.439 62.7096 199.439 70.9591 199.401 76.9227C199.401 79.8838 199.401 82.2526 199.374 83.9345C199.374 84.7517 199.374 85.3854 199.374 85.8296C199.374 86.0368 199.374 86.1967 199.374 86.3152C199.374 86.4336 199.262 86.4928 199.262 86.4869Z" fill="#263238"/>
<path d="M18.8574 88.4412L20.2923 116.174L62.3972 113.527L18.8574 88.4412ZM25.8919 99.2017L44.0022 109.861L26.4992 110.945L25.8919 99.2017Z" fill="#FF9519"/>
<path d="M23.0384 90.8633C22.9042 91.4743 22.6791 92.0567 22.3721 92.5866C22.1455 93.1678 21.8311 93.7024 21.4424 94.1678C21.5739 93.5502 21.7992 92.9616 22.1088 92.4267C22.3383 91.8526 22.6524 91.3243 23.0384 90.8633Z" fill="#263238"/>
<path d="M29.4984 94.541C29.3639 95.1446 29.1387 95.7191 28.832 96.2407C28.6096 96.8073 28.2986 97.3265 27.9131 97.7745C28.0431 97.1703 28.2667 96.5953 28.5741 96.0748C28.7955 95.5062 29.1087 94.9865 29.4984 94.541Z" fill="#263238"/>
<path d="M35.9522 98.2185C35.7648 98.8008 35.4886 99.3436 35.1353 99.8234C34.8594 100.366 34.4951 100.848 34.0605 101.245C34.2472 100.66 34.5235 100.115 34.8774 99.6339C35.1562 99.0952 35.5202 98.6159 35.9522 98.2185Z" fill="#263238"/>
<path d="M42.3047 102.062C42.1235 102.649 41.8467 103.195 41.4879 103.673C41.2056 104.211 40.8421 104.691 40.4131 105.094C40.5943 104.507 40.8711 103.961 41.2299 103.483C41.5122 102.946 41.8757 102.465 42.3047 102.062Z" fill="#263238"/>
<path d="M48.9355 105.811C48.7783 106.424 48.5275 107.002 48.1939 107.522C47.9447 108.093 47.6104 108.613 47.2051 109.062C47.6041 107.875 48.1899 106.774 48.9355 105.811Z" fill="#263238"/>
<path d="M55.8192 109.761C55.6922 110.341 55.47 110.891 55.1636 111.383C54.9399 111.927 54.6306 112.422 54.25 112.846C54.3798 112.264 54.6037 111.712 54.911 111.218C55.1291 110.674 55.4371 110.18 55.8192 109.761Z" fill="#263238"/>
<path d="M25.0539 92.0241C25.1238 92.0715 25.0055 92.4742 24.7852 92.9361C24.5649 93.398 24.3284 93.7237 24.2478 93.6823C24.1672 93.6408 24.2962 93.2322 24.5165 92.7762C24.7368 92.3202 24.984 91.9945 25.0539 92.0241Z" fill="#263238"/>
<path d="M27.1658 93.179C27.241 93.2204 27.1174 93.629 26.8971 94.085C26.6768 94.541 26.4457 94.8786 26.3597 94.8372C26.2737 94.7957 26.4134 94.3871 26.6284 93.9251C26.8434 93.4632 27.0959 93.1434 27.1658 93.179Z" fill="#263238"/>
<path d="M31.8781 95.9326C31.948 95.98 31.8297 96.3827 31.6094 96.8447C31.3891 97.3066 31.1526 97.6382 31.072 97.5908C30.9914 97.5435 31.1204 97.1408 31.3407 96.6848C31.5611 96.2288 31.8083 95.8912 31.8781 95.9326Z" fill="#263238"/>
<path d="M33.9963 97.0993C34.0661 97.1407 33.9479 97.5493 33.7276 98.0053C33.5072 98.4613 33.2708 98.7989 33.1902 98.7575C33.1096 98.716 33.2386 98.3074 33.4589 97.8454C33.6792 97.3835 33.921 97.0578 33.9963 97.0993Z" fill="#263238"/>
<path d="M38.2581 99.7288C38.3334 99.7702 38.2098 100.179 37.9894 100.635C37.7691 101.091 37.538 101.428 37.452 101.387C37.3661 101.346 37.5004 100.937 37.7207 100.475C37.9411 100.013 38.1883 99.6932 38.2581 99.7288Z" fill="#263238"/>
<path d="M40.2777 100.878C40.3529 100.919 40.2293 101.328 40.009 101.784C39.7886 102.24 39.5576 102.577 39.4716 102.536C39.3856 102.494 39.5199 102.08 39.7403 101.624C39.9606 101.168 40.2078 100.878 40.2777 100.878Z" fill="#263238"/>
<path d="M44.6361 103.389C44.7059 103.436 44.5877 103.839 44.3674 104.301C44.147 104.763 43.916 105.088 43.83 105.047C43.744 105.005 43.8783 104.597 44.0987 104.141C44.319 103.685 44.5662 103.347 44.6361 103.389Z" fill="#263238"/>
<path d="M46.9797 104.757C47.0495 104.804 46.9313 105.207 46.711 105.669C46.4906 106.131 46.2542 106.462 46.1736 106.415C46.093 106.367 46.222 105.965 46.4423 105.509C46.6626 105.053 46.9098 104.715 46.9797 104.757Z" fill="#263238"/>
<path d="M51.1926 107.203C51.2624 107.244 51.1442 107.653 50.9239 108.109C50.7035 108.565 50.4671 108.902 50.3865 108.861C50.3059 108.819 50.4348 108.411 50.6552 107.949C50.8755 107.487 51.1173 107.161 51.1926 107.203Z" fill="#263238"/>
<path d="M53.6213 108.576C53.6911 108.624 53.5729 109.032 53.3526 109.488C53.1322 109.944 52.8958 110.282 52.8152 110.235C52.7346 110.187 52.8636 109.785 53.0839 109.329C53.3042 108.873 53.5514 108.535 53.6213 108.576Z" fill="#263238"/>
<path d="M90.8686 49.8527C90.8686 49.8527 90.8686 49.8172 90.8686 49.7521C90.8686 49.6869 90.8686 49.5803 90.8686 49.456C90.8686 49.1954 90.8686 48.8164 90.8686 48.3248C90.8686 47.3299 90.8686 45.8849 90.8686 44.0491C90.8686 40.3774 90.8417 35.1659 90.8256 28.8647L90.9062 28.9477H71.8609L71.9469 28.847C71.9469 36.5457 71.9469 43.7352 71.9469 49.835L71.8717 49.7462L85.6505 49.7935H89.5305H89.5627H85.7042L71.8717 49.835H71.7373V49.7462C71.7373 43.6464 71.7373 36.4451 71.7373 28.7581V28.6575H71.8287H90.874H90.9492V28.7463C90.9492 35.0474 90.9223 40.3004 90.9116 43.9898C90.9116 45.8139 90.9116 47.2529 90.9116 48.2419C90.9116 48.7275 90.9116 49.0947 90.9116 49.3553V49.7343L90.8686 49.8527Z" fill="#FF9519"/>
<path d="M90.8685 49.8526C90.9145 49.8115 90.963 49.7739 91.0136 49.7401L91.4489 49.4322L93.1364 48.2477L99.3379 44.0253L99.3057 44.0904C99.3057 38.6124 99.3057 31.3578 99.3057 23.4163L99.3916 23.517H99.3433H80.5667H80.5989L74.1878 27.4433L72.4359 28.5211L71.9791 28.7936L71.8232 28.8824C71.87 28.8442 71.9184 28.8086 71.9683 28.7758L72.4198 28.4797L74.1502 27.3723L80.5129 23.3452H99.2895H99.4293V23.4459C99.4293 31.3875 99.4293 38.6421 99.4293 44.12V44.1615H99.397L93.1632 48.3603L91.4597 49.4973L91.0136 49.7875L90.8685 49.8526Z" fill="#FF9519"/>
<path d="M99.3707 23.3925C99.3976 23.4399 97.5167 24.7013 95.1683 26.2114C92.8199 27.7216 90.8691 28.9119 90.8691 28.8645C90.8691 28.8172 92.7231 27.5557 95.0769 26.0397C97.4307 24.5236 99.3492 23.3451 99.3707 23.3925Z" fill="#FF9519"/>
<path d="M72.7259 48.9881C72.7259 49.0354 72.5647 49.2072 72.3175 49.3612C72.0703 49.5151 71.8445 49.6099 71.8231 49.5625C71.8016 49.5151 71.9789 49.3493 72.2261 49.1894C72.4733 49.0295 72.699 48.9407 72.7259 48.9881Z" fill="#FF9519"/>
<path d="M74.5315 47.845C74.5584 47.8924 74.3757 48.0641 74.1231 48.2181C73.8705 48.3721 73.6502 48.4668 73.6287 48.4194C73.6072 48.3721 73.7846 48.2062 74.0371 48.0464C74.2897 47.8865 74.5047 47.7976 74.5315 47.845Z" fill="#FF9519"/>
<path d="M76.3371 46.7022C76.364 46.7496 76.1812 46.9213 75.934 47.0753C75.6868 47.2292 75.4611 47.324 75.4343 47.2766C75.4074 47.2292 75.5901 47.0634 75.8427 46.9035C76.0953 46.7436 76.3156 46.6548 76.3371 46.7022Z" fill="#FF9519"/>
<path d="M78.1481 45.5591C78.1481 45.6065 77.9868 45.7723 77.7396 45.9322C77.4924 46.0921 77.2667 46.1809 77.2399 46.1336C77.213 46.0862 77.4011 45.9204 77.6483 45.7605C77.8955 45.6006 78.1212 45.5117 78.1481 45.5591Z" fill="#FF9519"/>
<path d="M79.9544 44.416C79.9544 44.4634 79.7985 44.6292 79.546 44.7891C79.2934 44.949 79.0731 45.0379 79.0516 44.9905C79.0301 44.9431 79.2074 44.7773 79.4546 44.6174C79.7018 44.4575 79.9275 44.3687 79.9544 44.416Z" fill="#FF9519"/>
<path d="M80.4112 42.4085C80.4595 42.4085 80.4972 42.6632 80.4972 43.0008C80.4972 43.3383 80.4542 43.593 80.4004 43.593C80.3467 43.593 80.3145 43.3383 80.3145 43.0008C80.3145 42.6632 80.3628 42.4026 80.4112 42.4085Z" fill="#FF9519"/>
<path d="M80.4268 40.1108C80.4752 40.1108 80.5182 40.3655 80.5128 40.7031C80.5074 41.0406 80.4698 41.2953 80.4214 41.2953C80.3731 41.2953 80.3301 41.0347 80.3301 40.7031C80.3301 40.3714 80.3784 40.1108 80.4268 40.1108Z" fill="#FF9519"/>
<path d="M80.4434 37.813C80.4918 37.813 80.5348 38.0736 80.5294 38.4052C80.524 38.7368 80.4864 38.9974 80.438 38.9974C80.3897 38.9974 80.3467 38.7368 80.3467 38.4052C80.3467 38.0736 80.395 37.813 80.4434 37.813Z" fill="#FF9519"/>
<path d="M80.459 35.5151C80.5074 35.5151 80.5504 35.7757 80.545 36.1073C80.5396 36.439 80.502 36.6996 80.4536 36.6996C80.4053 36.6996 80.3623 36.4449 80.3676 36.1073C80.373 35.7698 80.4106 35.5151 80.459 35.5151Z" fill="#FF9519"/>
<path d="M80.4756 33.2234C80.524 33.2234 80.567 33.478 80.5616 33.8156C80.5562 34.1532 80.5186 34.4078 80.4702 34.4078C80.4219 34.4078 80.3789 34.1532 80.3842 33.8156C80.3896 33.478 80.4272 33.2234 80.4756 33.2234Z" fill="#FF9519"/>
<path d="M80.4912 30.9255C80.545 30.9255 80.5826 31.1802 80.5772 31.5177C80.5718 31.8553 80.5342 32.11 80.4859 32.11C80.4375 32.11 80.3945 31.8494 80.3999 31.5177C80.4052 31.1861 80.4429 30.9255 80.4912 30.9255Z" fill="#FF9519"/>
<path d="M80.5078 28.6277C80.5616 28.6277 80.5992 28.8883 80.5938 29.2199C80.5884 29.5515 80.5508 29.8121 80.5025 29.8121C80.4541 29.8121 80.4111 29.5515 80.4165 29.2199C80.4218 28.8883 80.4595 28.6277 80.5078 28.6277Z" fill="#FF9519"/>
<path d="M80.5235 26.3301C80.5772 26.3301 80.6148 26.5907 80.6094 26.9223C80.6041 27.2539 80.5664 27.5145 80.5181 27.5145C80.4697 27.5145 80.4267 27.2599 80.4321 26.9223C80.4375 26.5847 80.4751 26.3301 80.5235 26.3301Z" fill="#FF9519"/>
<path d="M80.5401 24.0381C80.5938 24.0381 80.6314 24.2927 80.626 24.6303C80.6207 24.9679 80.583 25.2225 80.5347 25.2225C80.4863 25.2225 80.4433 24.9679 80.4487 24.6303C80.4541 24.2927 80.4917 24.0381 80.5401 24.0381Z" fill="#FF9519"/>
<path d="M98.333 44.0727C98.333 44.0253 98.5641 43.9839 98.8704 43.9839C99.1767 43.9839 99.4078 44.0253 99.4078 44.0727C99.4078 44.1201 99.1767 44.1675 98.8704 44.1675C98.5641 44.1675 98.333 44.126 98.333 44.0727Z" fill="#FF9519"/>
<path d="M96.248 44.0727C96.248 44.0253 96.4791 43.9839 96.7854 43.9839C97.0918 43.9839 97.3228 44.0253 97.3228 44.0727C97.3228 44.1201 97.0864 44.1675 96.7854 44.1675C96.4845 44.1675 96.248 44.126 96.248 44.0727Z" fill="#FF9519"/>
<path d="M94.1631 44.0727C94.1631 44.0253 94.3942 43.9839 94.7005 43.9839C95.0068 43.9839 95.2379 44.0253 95.2379 44.0727C95.2379 44.1201 95.0068 44.1675 94.7005 44.1675C94.3942 44.1675 94.1631 44.126 94.1631 44.0727Z" fill="#FF9519"/>
<path d="M92.0781 44.0727C92.0781 44.0253 92.3146 43.9839 92.6155 43.9839C92.9165 43.9839 93.1529 44.0253 93.1529 44.0727C93.1529 44.1201 92.9218 44.1675 92.6155 44.1675C92.3092 44.1675 92.0781 44.126 92.0781 44.0727Z" fill="#FF9519"/>
<path d="M90.0088 44.0727C90.0088 44.0253 90.2399 43.9839 90.5462 43.9839C90.8525 43.9839 91.0836 44.0253 91.0836 44.0727C91.0836 44.1201 90.8525 44.1675 90.5462 44.1675C90.2399 44.1675 90.0088 44.126 90.0088 44.0727Z" fill="#FF9519"/>
<path d="M87.9131 44.0727C87.9131 44.0253 88.1442 43.9839 88.4505 43.9839C88.7568 43.9839 88.9879 44.0253 88.9879 44.0727C88.9879 44.1201 88.7514 44.1675 88.4505 44.1675C88.1495 44.1675 87.9131 44.126 87.9131 44.0727Z" fill="#FF9519"/>
<path d="M85.8281 44.0727C85.8281 44.0253 86.0592 43.9839 86.3655 43.9839C86.6718 43.9839 86.9029 44.0253 86.9029 44.0727C86.9029 44.1201 86.6718 44.1675 86.3655 44.1675C86.0592 44.1675 85.8281 44.126 85.8281 44.0727Z" fill="#FF9519"/>
<path d="M83.7422 44.0727C83.7422 44.0253 83.9786 43.9839 84.2796 43.9839C84.5805 43.9839 84.817 44.0253 84.817 44.0727C84.817 44.1201 84.5859 44.1675 84.2796 44.1675C83.9733 44.1675 83.7422 44.126 83.7422 44.0727Z" fill="#FF9519"/>
<path d="M81.6631 44.0727C81.6631 44.0253 81.8942 43.9839 82.2005 43.9839C82.5068 43.9839 82.7379 44.0253 82.7379 44.0727C82.7379 44.1201 82.5068 44.1675 82.2005 44.1675C81.8942 44.1675 81.6631 44.126 81.6631 44.0727Z" fill="#FF9519"/>
<path d="M80.4004 44.0727C80.4004 44.0253 80.4488 43.9839 80.5079 43.9839C80.567 43.9839 80.6207 44.0253 80.6207 44.0727C80.6207 44.1201 80.5724 44.1675 80.5079 44.1675C80.4952 44.1691 80.4823 44.168 80.47 44.1641C80.4577 44.1602 80.4462 44.1537 80.4362 44.1448C80.4262 44.136 80.4179 44.1251 80.4117 44.1127C80.4056 44.1004 80.4017 44.0868 80.4004 44.0727Z" fill="#FF9519"/>
<path d="M101.675 37.0786C101.834 37.0956 101.995 37.0956 102.154 37.0786C102.362 37.0277 102.559 36.9278 102.729 36.7858C102.9 36.6437 103.041 36.4628 103.142 36.2554C103.277 35.9416 103.342 35.5972 103.333 35.2504C103.323 34.9036 103.24 34.5641 103.089 34.2596C103.054 34.1759 103.002 34.1023 102.936 34.0448C102.871 33.9872 102.794 33.9472 102.713 33.928C102.541 33.9043 102.367 33.9553 102.229 34.0701C101.942 34.3768 101.733 34.7605 101.622 35.1835C101.471 35.6428 101.381 36.1234 101.353 36.6107H101.176C101.176 35.0887 101.149 33.7622 101.149 32.8146C101.149 32.3705 101.149 31.9974 101.149 31.7013C101.134 31.5675 101.134 31.4323 101.149 31.2986C101.173 31.4311 101.186 31.566 101.186 31.7013C101.186 31.9974 101.186 32.3705 101.229 32.8146C101.262 33.7622 101.294 35.0887 101.321 36.6107H101.143C101.172 36.1051 101.266 35.6066 101.423 35.1302C101.497 34.9075 101.583 34.6899 101.681 34.4788C101.778 34.264 101.918 34.0759 102.089 33.928C102.177 33.8543 102.278 33.8006 102.385 33.7701C102.492 33.7396 102.603 33.7329 102.713 33.7503C102.817 33.7781 102.914 33.8306 102.997 33.9043C103.081 33.978 103.149 34.071 103.196 34.1767C103.355 34.51 103.438 34.8809 103.438 35.2575C103.438 35.6341 103.355 36.005 103.196 36.3383C103.085 36.5561 102.931 36.7434 102.745 36.886C102.558 37.0285 102.345 37.1228 102.121 37.1615C102 37.1834 101.877 37.1834 101.756 37.1615C101.725 37.139 101.698 37.111 101.675 37.0786Z" fill="#FF9519"/>
<path d="M48.8553 135.362C48.8553 135.362 48.9306 135.362 49.0757 135.433C49.2208 135.504 49.4357 135.558 49.7098 135.682C50.5125 136.031 51.2797 136.472 51.9991 136.997C53.1451 137.827 54.1615 138.857 55.0085 140.047C56.1454 141.618 56.9165 143.472 57.2548 145.448C57.6388 147.855 57.3483 150.333 56.4219 152.554C55.912 153.791 55.2017 154.915 54.326 155.87C53.8677 156.37 53.3654 156.818 52.8267 157.209C52.5419 157.387 52.2893 157.576 51.9669 157.742C51.6444 157.908 51.3757 158.068 51.0587 158.192C48.5544 159.288 45.6847 159.335 42.8043 159.033C41.364 158.879 39.9131 158.648 38.4352 158.393C36.9343 158.157 35.4546 157.778 34.0125 157.262C32.5542 156.751 31.2063 155.917 30.0519 154.81C29.4986 154.252 29.0111 153.619 28.6009 152.927C28.2119 152.234 27.8998 151.493 27.6712 150.718C27.2382 149.21 27.0937 147.619 27.2467 146.046C27.3979 144.544 27.7949 143.086 28.4182 141.74C29.6456 139.282 31.4986 137.273 33.7492 135.96C35.6882 134.807 37.8063 134.063 39.9937 133.769C41.7924 133.534 43.6092 133.52 45.4106 133.728C46.7673 133.886 48.1148 134.129 49.4465 134.456C50.5213 134.728 51.3811 134.977 51.9507 135.149L52.5956 135.356L52.8159 135.439L52.5902 135.38L51.94 135.196C51.3704 135.036 50.5266 134.8 49.4304 134.545C48.0978 134.234 46.7504 134.007 45.3945 133.864C43.6065 133.665 41.8038 133.689 40.0206 133.935C37.8567 134.24 35.7629 134.985 33.8459 136.132C31.6327 137.433 29.8119 139.417 28.6063 141.841C27.9975 143.167 27.6132 144.604 27.4724 146.081C27.3254 147.623 27.4681 149.181 27.8915 150.659C28.1115 151.415 28.4147 152.139 28.7944 152.815C29.1914 153.49 29.6645 154.107 30.2023 154.65C31.3369 155.733 32.6586 156.551 34.0877 157.055C35.5214 157.565 36.992 157.94 38.4836 158.174C39.9507 158.429 41.407 158.66 42.8365 158.814C45.6847 159.116 48.5383 159.074 50.9996 157.997C53.3466 156.998 55.2411 155.018 56.2714 152.489C57.1892 150.304 57.4852 147.863 57.1205 145.489C56.7882 143.543 56.0341 141.715 54.9225 140.159C54.0902 138.976 53.0925 137.947 51.9669 137.109C51.2537 136.58 50.496 136.128 49.7044 135.759C49.4304 135.635 49.2208 135.558 49.0757 135.492L48.8553 135.362Z" fill="#263238"/>
<path d="M34.5067 150.665C34.3645 150.705 34.2182 150.725 34.0714 150.724L32.873 150.789H32.4754C32.3238 150.812 32.1701 150.812 32.0186 150.789C31.9227 150.757 31.842 150.684 31.7929 150.588C31.7523 150.5 31.7285 150.403 31.723 150.304L31.6908 149.765C31.6532 149.019 31.6102 148.213 31.5672 147.396C31.5242 146.579 31.4758 145.744 31.4704 144.992C31.4614 144.623 31.5391 144.258 31.6961 143.932C31.8515 143.662 32.0813 143.454 32.3518 143.339C32.7396 143.191 33.1529 143.14 33.5609 143.191C33.7093 143.195 33.8563 143.225 33.9962 143.28C33.8496 143.294 33.7021 143.294 33.5555 143.28C33.1651 143.262 32.7754 143.332 32.4109 143.487C32.1808 143.605 31.992 143.803 31.8735 144.05C31.7391 144.347 31.6744 144.677 31.6854 145.009C31.6854 145.732 31.766 146.555 31.7982 147.378C31.8305 148.201 31.8735 149.031 31.9111 149.747C31.9433 150.096 31.8735 150.535 32.0938 150.594C32.2275 150.615 32.3632 150.615 32.4969 150.594H34.109C34.2438 150.599 34.3775 150.623 34.5067 150.665Z" fill="#263238"/>
<path d="M33.905 146.786C33.5432 146.907 33.1645 146.955 32.7872 146.928C32.4107 146.973 32.03 146.941 31.6641 146.833C32.0252 146.709 32.4045 146.66 32.7818 146.691C33.1583 146.646 33.5392 146.678 33.905 146.786Z" fill="#263238"/>
<path d="M39.4935 145.684C38.9294 145.772 38.3592 145.804 37.79 145.779C37.2248 145.828 36.657 145.828 36.0918 145.779C36.6388 145.589 37.2113 145.503 37.7846 145.525C38.3583 145.475 38.9356 145.529 39.4935 145.684Z" fill="#263238"/>
<path d="M39.8265 148.515C39.2735 148.655 38.7043 148.699 38.1391 148.646C37.575 148.67 37.0109 148.596 36.4678 148.426C37.0254 148.367 37.5868 148.367 38.1444 148.426C38.7064 148.4 39.2694 148.43 39.8265 148.515Z" fill="#263238"/>
<path d="M48.8606 150.215C48.8606 150.215 48.8606 149.96 48.8606 149.492C48.8347 148.832 48.7262 148.178 48.5381 147.55C48.4521 147.109 48.2322 146.715 47.9148 146.431C47.824 146.374 47.7203 146.348 47.6163 146.355C47.5123 146.363 47.4125 146.403 47.329 146.472C47.1394 146.627 46.9864 146.83 46.883 147.064C46.453 148.229 46.2692 149.487 46.3456 150.742H46.136C46.1974 149.835 46.1866 148.923 46.1037 148.018C46.0741 147.65 46.0275 147.284 45.964 146.922C45.9108 146.588 45.7507 146.285 45.5126 146.069C45.3983 145.979 45.2611 145.93 45.1203 145.93C44.9795 145.93 44.8423 145.979 44.728 146.069C44.4867 146.244 44.311 146.509 44.2336 146.816C44.1566 147.123 44.1062 147.439 44.0831 147.757C44.0509 148.071 44.024 148.379 44.0133 148.681C43.9837 149.243 43.9837 149.807 44.0133 150.369H43.8467C43.8037 149.036 43.7661 147.947 43.7392 147.147C43.7392 146.792 43.7392 146.502 43.7392 146.271C43.7276 146.168 43.7276 146.065 43.7392 145.963C43.7606 146.064 43.7732 146.167 43.7768 146.271L43.8413 147.147C43.8843 147.941 43.9488 149.03 44.024 150.357H43.8574C43.83 149.789 43.83 149.22 43.8574 148.651C43.8574 148.349 43.8897 148.059 43.9219 147.716C43.9438 147.383 43.996 147.054 44.0778 146.733C44.166 146.375 44.3682 146.063 44.6474 145.856C44.8081 145.745 44.9948 145.687 45.1848 145.69C45.3782 145.691 45.5663 145.76 45.7222 145.886C46.0032 146.134 46.194 146.485 46.2596 146.875C46.3281 147.247 46.3783 147.622 46.4101 148C46.4822 148.92 46.4822 149.845 46.4101 150.766H46.2005C46.1295 149.478 46.3319 148.191 46.7916 147.005C46.9139 146.732 47.0992 146.499 47.329 146.33C47.4391 146.243 47.5696 146.193 47.705 146.185C47.8404 146.178 47.9748 146.214 48.0921 146.288C48.4393 146.598 48.677 147.032 48.7638 147.514C48.9414 148.16 49.0319 148.83 49.0325 149.504C49.0325 149.741 49.0325 149.925 49.0057 150.043C48.966 150.109 48.917 150.167 48.8606 150.215Z" fill="#263238"/>
<path d="M53.5675 149.842C53.5675 149.842 53.4923 149.942 53.3096 150.043C53.0496 150.182 52.7656 150.259 52.4766 150.268C52.04 150.283 51.6094 150.153 51.2406 149.895C50.7884 149.565 50.4662 149.059 50.3386 148.478C50.211 147.896 50.2875 147.284 50.5527 146.762C50.7753 146.348 51.1045 146.016 51.4985 145.809C51.7587 145.671 52.0428 145.596 52.3315 145.59C52.4373 145.581 52.5435 145.597 52.6432 145.637C52.2703 145.671 51.9062 145.78 51.5684 145.957C51.2173 146.169 50.927 146.485 50.7301 146.869C50.5048 147.347 50.4438 147.898 50.5584 148.422C50.6729 148.945 50.9553 149.405 51.3534 149.717C51.6889 149.961 52.0803 150.095 52.482 150.102C52.8555 150.092 53.2239 150.004 53.5675 149.842Z" fill="#263238"/>
<path d="M54.836 143.132C54.026 143.186 53.224 143.339 52.4446 143.588L52.0845 143.718L52.3532 143.416C52.8707 142.896 53.3194 142.298 53.686 141.64C53.9725 141.09 54.0716 140.445 53.9654 139.822C53.9063 139.543 53.7558 139.324 53.5516 139.318C53.3391 139.322 53.1307 139.383 52.9444 139.496C52.6594 139.658 52.4071 139.881 52.2028 140.153C52.0577 140.349 51.9985 140.479 51.9824 140.467C52.0044 140.332 52.0581 140.205 52.1383 140.1C52.3236 139.788 52.5766 139.531 52.8745 139.354C53.0814 139.211 53.3186 139.132 53.5624 139.123C53.6373 139.125 53.7108 139.145 53.7784 139.181C53.846 139.216 53.906 139.267 53.9547 139.33C54.051 139.455 54.1192 139.603 54.1535 139.762C54.2863 140.441 54.1868 141.15 53.8741 141.752C53.4999 142.439 53.0302 143.056 52.4822 143.582L52.3908 143.405C52.9632 143.215 53.5561 143.111 54.1535 143.097C54.3811 143.064 54.6122 143.076 54.836 143.132Z" fill="#263238"/>
<path d="M90.8254 136.126L102.277 133.692L124.246 139.247L135.381 141.805L135.542 158.571L110.704 163.611L93.9423 158.139L87.6064 147.864L90.8254 136.126Z" fill="#FFBE9D"/>
<path d="M82.6895 137.796L93.4965 134.989C93.4965 134.989 101.138 161.046 119.995 159.903C135.365 158.985 135.381 141.805 135.381 141.805L146.618 143.991C146.618 143.991 151.331 175.431 146.167 197.485C141.867 215.844 138.052 241.001 138.052 241.001H63.4023L82.6895 137.796Z" fill="#FF9519"/>
<path d="M192.195 218.355C192.195 218.355 161.407 158.914 155.867 151.287C149.8 142.936 144.958 143.902 144.958 143.902L141.701 183.941L167.878 224.869L174.117 227.35L192.195 218.355Z" fill="#FF9519"/>
<path d="M83.9791 137.464C83.9791 137.464 66.4815 139.004 60.2047 170.628C57.3673 184.918 53.756 201.666 52.7457 212.918C51.9933 221.085 56.5665 229.577 63.9557 230.619L73.2312 232.514C75.6817 233.016 78.2133 232.462 80.3047 230.968C82.3961 229.475 83.8881 227.154 84.4735 224.484L87.6065 210.188L79.2608 207.097L81.19 164.511L83.9791 137.464Z" fill="#FF9519"/>
<path d="M148.047 166.092C148.088 166.235 148.115 166.381 148.128 166.53C148.176 166.85 148.23 167.276 148.305 167.804C148.343 168.082 148.38 168.396 148.429 168.727C148.477 169.059 148.493 169.432 148.526 169.829C148.601 170.617 148.687 171.517 148.724 172.518C148.854 174.858 148.868 177.205 148.767 179.547C148.642 182.414 148.384 185.272 147.994 188.11C147.591 191.131 147.085 193.985 146.575 196.567C146.064 199.149 145.554 201.465 145.118 203.407C144.683 205.35 144.302 206.907 144.044 207.985C143.915 208.5 143.813 208.915 143.732 209.223C143.7 209.368 143.658 209.51 143.608 209.649C143.619 209.501 143.643 209.354 143.678 209.211C143.743 208.891 143.834 208.477 143.942 207.956L144.93 203.33C145.344 201.382 145.839 199.066 146.328 196.484C146.817 193.902 147.322 191.054 147.725 188.039C148.128 185.025 148.402 182.117 148.515 179.506C148.628 176.894 148.638 174.496 148.515 172.506C148.515 171.511 148.418 170.611 148.359 169.817C148.332 169.426 148.305 169.059 148.284 168.716C148.262 168.372 148.214 168.076 148.187 167.792C148.133 167.265 148.096 166.838 148.063 166.518C148.049 166.377 148.044 166.234 148.047 166.092Z" fill="#263238"/>
<path d="M88.4231 211.716C88.386 211.632 88.3555 211.545 88.3318 211.455C88.278 211.26 88.2028 211.011 88.1114 210.691L87.7675 209.466C87.6707 208.908 87.4572 208.383 87.1441 207.932C86.6839 207.445 86.1341 207.074 85.5319 206.842C84.824 206.547 84.0939 206.321 83.3501 206.167C81.5769 205.805 79.7793 205.607 77.9762 205.575H77.8311V205.421L79.411 194.068C80.4267 186.92 81.351 180.447 82.0227 175.709C82.372 173.388 82.6515 171.499 82.8503 170.16C82.9471 169.527 83.0277 169.023 83.0868 168.65C83.0868 168.496 83.1352 168.366 83.1566 168.259C83.1605 168.214 83.1714 168.17 83.1889 168.129C83.1971 168.174 83.1971 168.22 83.1889 168.265C83.1889 168.372 83.1889 168.502 83.1459 168.662C83.1029 169.035 83.0384 169.539 82.9632 170.178C82.7858 171.523 82.5333 173.418 82.227 175.745C81.5713 180.483 80.6793 186.944 79.6904 194.104C79.1101 198.19 78.5673 202.057 78.0783 205.45L77.9547 205.29C79.7797 205.342 81.5973 205.566 83.3877 205.96C84.1419 206.125 84.881 206.365 85.5964 206.676C86.2232 206.929 86.7906 207.334 87.257 207.861C87.449 208.098 87.592 208.379 87.6761 208.684L87.875 209.471C87.9986 209.951 88.1007 210.366 88.1867 210.709C88.2727 211.053 88.3264 211.301 88.3694 211.485C88.3938 211.56 88.4118 211.637 88.4231 211.716Z" fill="#263238"/>
<path d="M64.3213 216.549C64.3385 216.279 64.3854 216.012 64.461 215.755C64.63 215.041 64.8566 214.346 65.1381 213.676C66.0546 211.44 67.4832 209.504 69.2837 208.06C71.0842 206.616 73.1947 205.712 75.4078 205.439C76.0709 205.349 76.7399 205.326 77.4069 205.368C77.6532 205.371 77.8983 205.404 78.1377 205.468C77.2397 205.474 76.3426 205.535 75.4508 205.652C73.288 205.98 71.2324 206.893 69.467 208.309C67.7016 209.724 66.281 211.599 65.3316 213.765C64.95 214.672 64.6128 215.602 64.3213 216.549Z" fill="#263238"/>
<path d="M68.3682 200.807C68.505 200.769 68.6465 200.755 68.7873 200.766C69.1732 200.758 69.5592 200.778 69.9427 200.825C71.2116 200.966 72.4552 201.309 73.6346 201.844C74.8137 202.382 75.9175 203.102 76.9128 203.982C77.2145 204.245 77.4999 204.53 77.7672 204.834C77.9553 205.054 78.0574 205.178 78.0413 205.196C78.0252 205.214 77.5684 204.781 76.7945 204.153C74.7652 202.515 72.4043 201.446 69.9159 201.038C68.9647 200.884 68.3682 200.861 68.3682 200.807Z" fill="#263238"/>
<path d="M86.4779 159.903C86.4427 159.623 86.4301 159.34 86.4403 159.057C86.4403 158.512 86.408 157.73 86.3435 156.765C86.1822 154.246 85.7897 151.752 85.172 149.321C84.5455 146.893 83.7012 144.54 82.6516 142.297C82.2432 141.438 81.8993 140.751 81.6467 140.289C81.5051 140.053 81.3828 139.803 81.2812 139.543C81.4527 139.754 81.6057 139.982 81.738 140.224C82.0229 140.674 82.3937 141.344 82.8128 142.196C85.0494 146.669 86.3184 151.651 86.5209 156.753C86.5585 157.724 86.5531 158.53 86.5209 159.057C86.532 159.34 86.5176 159.623 86.4779 159.903Z" fill="#263238"/>
<g opacity="0.3">
<path d="M147.253 192.617C151.713 184.285 151.81 173.459 147.914 164.783C149.167 174.027 148.897 183.443 147.118 192.582" fill="black"/>
</g>
<g opacity="0.3">
<path d="M107.539 202.039C104.153 203.135 99.4778 203.401 96.1621 202.039C98.747 206.084 103.729 207.547 108.049 206.232C112.37 204.917 116.357 200.15 116.691 195.217C114.6 198.332 110.93 200.962 107.539 202.039Z" fill="black"/>
</g>
<path d="M119.996 188.584C119.98 188.698 119.953 188.809 119.915 188.916C119.851 189.129 119.775 189.455 119.625 189.846C119.233 190.977 118.745 192.066 118.168 193.097C117.318 194.634 116.29 196.043 115.111 197.29C112.217 200.393 108.483 202.369 104.476 202.916C102.856 203.147 101.216 203.147 99.5961 202.916C98.5021 202.766 97.4228 202.506 96.3717 202.14C95.9955 202.016 95.7214 201.879 95.528 201.802C95.4298 201.766 95.3345 201.72 95.2432 201.666C95.6335 201.763 96.0191 201.882 96.3986 202.022C100.949 203.416 105.801 202.973 110.081 200.772C114.317 198.477 117.665 194.58 119.512 189.792C119.824 189.022 119.969 188.572 119.996 188.584Z" fill="#263238"/>
<path d="M82.2493 230.045C82.2493 230.045 82.2117 230.11 82.1149 230.205C81.9796 230.353 81.8341 230.49 81.6796 230.613C81.1175 231.076 80.4939 231.439 79.831 231.691C78.8454 232.052 77.8169 232.252 76.7786 232.284C75.5231 232.327 74.2663 232.278 73.0168 232.135C70.3299 231.881 67.9438 231.448 66.2188 231.111C65.3536 230.939 64.6549 230.791 64.1767 230.679C63.9219 230.641 63.6716 230.573 63.4297 230.477C63.6857 230.482 63.941 230.509 64.1928 230.56L66.251 230.892C67.9814 231.182 70.3782 231.573 73.0437 231.827C74.2932 231.97 75.5495 232.027 76.8055 231.999C77.8226 231.976 78.8318 231.796 79.8041 231.466C80.6792 231.13 81.5035 230.651 82.2493 230.045Z" fill="#263238"/>
<path d="M142.943 74.228L145.152 71.8591C148.091 73.2686 149.451 77.0291 149.951 80.5232C150.45 84.0173 150.375 87.689 151.724 90.8988C152.756 93.3683 154.631 95.6365 154.411 98.3666C154.201 100.943 152.084 103.027 152.073 105.615C152.073 108.108 153.954 110.021 155.051 112.201C157.27 116.613 158.71 134.663 157.549 139.549C147.785 138.619 130.492 137.47 120.722 134.995C123.296 116.447 134.135 90.271 142.943 74.228Z" fill="#263238"/>
<path d="M147.311 90.7626C147.988 78.1544 139.68 66.6181 128.099 65.0961C115.809 63.4853 104.937 73.1857 103.916 86.3802L101.036 139.644C100.983 140.673 101.244 141.692 101.778 142.54C104.615 147.112 109.752 150.689 114.347 151.393C118.791 152.074 123.3 150.801 127.083 148.48C127.711 148.089 128.234 147.523 128.601 146.839C128.968 146.155 129.166 145.377 129.174 144.583L129.373 132.662C129.372 132.651 129.373 132.641 129.376 132.631C129.38 132.621 129.385 132.613 129.391 132.605C129.398 132.598 129.406 132.592 129.415 132.589C129.424 132.585 129.433 132.584 129.443 132.585C130.455 132.669 131.473 132.637 132.479 132.49C135.338 131.72 142.63 128.629 145.081 116.832C145.898 112.923 146.715 101.819 147.311 90.7626Z" fill="#FFBE9D"/>
<path d="M131.415 108.18C131.415 108.061 132.613 107.931 134.553 107.812C135.042 107.812 135.51 107.724 135.628 107.368C135.7 106.825 135.618 106.27 135.392 105.781L134.188 101.636C132.522 95.7609 131.351 90.9462 131.566 90.881C131.78 90.8159 133.312 95.5121 134.978 101.387C135.376 102.838 135.757 104.218 136.123 105.532C136.273 106.125 136.547 106.847 136.252 107.623C136.169 107.804 136.05 107.961 135.904 108.083C135.758 108.206 135.588 108.289 135.408 108.328C135.134 108.388 134.854 108.41 134.575 108.393C132.619 108.381 131.42 108.298 131.415 108.18Z" fill="#263238"/>
<path d="M144.152 95.2219C143.942 95.4765 142.674 94.304 140.858 94.2447C139.041 94.1855 137.687 95.2337 137.494 94.9613C137.397 94.8369 137.617 94.3691 138.208 93.8835C138.989 93.2649 139.934 92.9484 140.895 92.9833C141.856 93.0198 142.777 93.4097 143.512 94.0908C144.077 94.6237 144.286 95.1094 144.152 95.2219Z" fill="#263238"/>
<path d="M125.698 95.7313C125.451 95.986 124.129 94.6653 122.146 94.4758C120.163 94.2863 118.62 95.2871 118.421 94.991C118.325 94.8548 118.593 94.3988 119.265 93.9132C120.165 93.3255 121.212 93.0683 122.253 93.1789C123.296 93.2807 124.28 93.7524 125.058 94.5232C125.644 95.0976 125.816 95.6188 125.698 95.7313Z" fill="#263238"/>
<path d="M129.373 132.579C129.373 132.579 121.968 132.667 113.111 125.964C113.111 125.964 115.401 136.73 129.314 136.392L129.373 132.579Z" fill="#EB996E"/>
<path d="M130.314 113.095C129.976 112.571 129.525 112.148 129.001 111.866C128.477 111.583 127.898 111.45 127.315 111.478C126.894 111.485 126.479 111.585 126.094 111.772C125.709 111.96 125.362 112.23 125.074 112.568C124.799 112.892 124.623 113.302 124.57 113.742C124.517 114.181 124.59 114.628 124.779 115.02C125.246 115.843 126.31 116.109 127.24 115.896C128.16 115.619 129.022 115.144 129.776 114.499C130 114.341 130.197 114.14 130.357 113.906C130.432 113.797 130.477 113.666 130.484 113.529C130.492 113.392 130.463 113.255 130.4 113.137" fill="#EB996E"/>
<path d="M125.719 109.168C126.031 109.168 125.907 111.419 127.584 113.148C129.26 114.877 131.48 114.794 131.48 115.108C131.48 115.256 130.942 115.511 130.029 115.464C128.818 115.39 127.667 114.856 126.772 113.954C125.92 113.095 125.407 111.902 125.343 110.631C125.316 109.69 125.579 109.168 125.719 109.168Z" fill="#263238"/>
<path d="M126.014 87.4759C125.788 88.0208 123.902 87.6003 121.65 87.701C119.399 87.8017 117.545 88.2932 117.276 87.7898C117.163 87.5352 117.507 87.0377 118.275 86.5521C119.297 85.9655 120.426 85.6397 121.577 85.5987C122.729 85.5577 123.874 85.8025 124.928 86.3152C125.708 86.7416 126.089 87.2154 126.014 87.4759Z" fill="#263238"/>
<path d="M144.543 87.9199C144.156 88.3937 142.625 87.9199 140.782 87.9199C138.938 87.9199 137.391 88.2575 137.02 87.7659C136.859 87.529 137.1 87.0553 137.778 86.5815C138.715 86.0401 139.762 85.7692 140.82 85.794C141.878 85.8189 142.913 86.1387 143.829 86.7236C144.495 87.2033 144.715 87.6889 144.543 87.9199Z" fill="#263238"/>
<path d="M129.776 62.4312C128.777 60.5598 126.923 59.707 124.848 59.3635C116.379 57.9481 106.931 63.5682 102.186 71.4209C97.4411 79.2737 97.1885 90.9936 100.66 99.6162L105.943 95.98C116.545 91.1594 124.031 79.9014 130.851 68.2704C131.802 66.6892 130.663 64.0597 129.776 62.4312Z" fill="#263238"/>
<path d="M142.824 67.5658C139.283 63.1242 136.709 58.6826 129.357 61.7858C128.282 64.0539 130.432 66.9972 132.281 68.7147C134.968 71.2375 137.273 72.9371 139.025 74.7434C142.561 78.3855 146.581 90.6384 146.93 97.3244C146.93 97.7449 147.602 91.5859 148.005 91.5207C148.499 91.4378 150.493 88.7492 150.219 85.0775C149.273 72.5285 146.366 72.0014 142.824 67.5658Z" fill="#263238"/>
<path d="M124.869 59.3634C125.422 59.2447 125.993 59.2981 126.519 59.5174C127.82 59.9571 128.98 60.7975 129.862 61.9396C130.114 62.2606 130.337 62.6077 130.528 62.9759C130.695 63.3317 130.825 63.7072 130.915 64.0952C131.107 64.7208 131.252 65.3625 131.35 66.014C131.495 67.157 131.248 67.8499 131.194 67.8321C131.141 67.8143 131.221 67.1333 130.996 66.0851C130.846 65.4649 130.667 64.854 130.458 64.2551C130.363 63.905 130.237 63.5659 130.082 63.2424C129.9 62.903 129.692 62.582 129.459 62.2831C128.627 61.2208 127.574 60.3959 126.39 59.8787C125.477 59.5174 124.859 59.4582 124.869 59.3634Z" fill="#455A64"/>
<path d="M142.475 99.101C142.476 99.5552 142.318 99.9925 142.035 100.323C141.753 100.653 141.366 100.852 140.954 100.878C140.75 100.899 140.544 100.875 140.348 100.807C140.152 100.739 139.97 100.629 139.814 100.483C139.657 100.336 139.528 100.157 139.435 99.9556C139.342 99.7539 139.287 99.5339 139.272 99.3082C139.262 98.8469 139.414 98.3991 139.698 98.0598C139.982 97.7204 140.375 97.5162 140.793 97.4901C141 97.4682 141.21 97.4931 141.408 97.5631C141.607 97.6332 141.79 97.747 141.948 97.8977C142.105 98.0484 142.233 98.2327 142.323 98.4396C142.414 98.6465 142.466 98.8715 142.475 99.101Z" fill="#263238"/>
<path d="M124.773 99.1957C124.783 99.6571 124.63 100.105 124.347 100.444C124.063 100.784 123.67 100.988 123.252 101.014C123.048 101.036 122.842 101.012 122.646 100.945C122.45 100.878 122.269 100.768 122.112 100.623C121.955 100.477 121.827 100.298 121.733 100.097C121.64 99.8956 121.585 99.6758 121.57 99.4504C121.558 98.988 121.71 98.5387 121.994 98.1981C122.278 97.8575 122.672 97.6524 123.091 97.6264C123.295 97.6044 123.502 97.6279 123.698 97.6955C123.894 97.763 124.076 97.8732 124.233 98.0195C124.389 98.1658 124.518 98.3453 124.611 98.5473C124.704 98.7493 124.759 98.9698 124.773 99.1957Z" fill="#263238"/>
<path d="M76.0637 114.019C77.0632 112.207 78.2133 110.501 80.0404 109.749C81.8675 108.997 83.9419 108.565 85.3767 107.096C87.6284 104.816 87.5263 101.026 87.3221 97.7212C87.1179 94.4167 87.0642 90.6147 89.3642 88.3939C91.2881 86.5402 94.3459 86.3744 96.0118 84.2484C97.1242 82.833 97.3445 80.8787 97.7315 79.0724C98.8063 74.2341 101.208 65.7832 114.149 60.9211L102.702 108.855C103.557 109.121 105.599 111.265 105.712 112.716C105.814 114.072 105.282 115.446 105.271 116.808C105.271 118.472 106.916 119.467 107.958 120.699C109.28 122.268 109.689 124.531 109.484 126.621C109.06 129.478 108.367 132.279 107.415 134.977C96.7964 133.793 81.2979 133.414 73.2047 125.952C71.7376 124.602 73.8389 118.052 76.0637 114.019Z" fill="#263238"/>
<path d="M105.964 95.9801C105.765 95.8616 97.9461 92.4268 97.4463 101.517C96.9466 110.608 105.314 109.257 105.341 109.003C105.368 108.748 105.964 95.9801 105.964 95.9801Z" fill="#FFBE9D"/>
<path d="M103.019 105.402C102.982 105.367 102.869 105.503 102.616 105.603C102.267 105.744 101.881 105.729 101.541 105.562C100.692 105.147 100.042 103.578 100.09 101.944C100.118 101.165 100.301 100.402 100.628 99.7109C100.721 99.4332 100.874 99.1844 101.074 98.9855C101.273 98.7866 101.512 98.6434 101.772 98.5679C101.94 98.531 102.114 98.5599 102.264 98.6497C102.414 98.7395 102.531 98.8845 102.595 99.0594C102.691 99.32 102.627 99.4977 102.67 99.5154C102.713 99.5332 102.858 99.3733 102.81 98.9943C102.779 98.7656 102.676 98.556 102.519 98.4021C102.304 98.1975 102.024 98.0952 101.74 98.1178C101.398 98.1679 101.074 98.314 100.798 98.5422C100.522 98.7704 100.305 99.0729 100.166 99.4207C99.7729 100.184 99.5552 101.042 99.5315 101.92C99.4831 103.75 100.235 105.515 101.407 105.971C101.623 106.057 101.855 106.089 102.084 106.062C102.313 106.035 102.534 105.951 102.729 105.817C102.992 105.615 103.046 105.42 103.019 105.402Z" fill="#EB996E"/>
<path d="M135.226 98.3547C135.269 97.6716 135.357 96.9927 135.489 96.3234C135.737 95.2035 136.195 94.153 136.833 93.239C137.471 92.325 138.275 91.5677 139.193 91.0154C140.111 90.4631 141.124 90.128 142.167 90.0314C143.209 89.9349 144.259 90.079 145.248 90.4546C145.929 90.7078 146.571 91.0753 147.15 91.5443C147.769 92.0157 148.314 92.5959 148.763 93.2617C149.726 94.6512 150.259 96.3443 150.284 98.0925C150.309 99.8406 149.825 101.552 148.902 102.974C148.476 103.654 147.954 104.254 147.355 104.751C146.79 105.241 146.159 105.631 145.484 105.905C144.238 106.435 142.885 106.586 141.567 106.344C140.418 106.135 139.329 105.629 138.391 104.869C137.017 103.768 136.019 102.188 135.559 100.386C135.41 99.7196 135.303 99.0429 135.236 98.3606C135.234 98.406 135.234 98.4515 135.236 98.4968C135.236 98.6094 135.236 98.7397 135.236 98.8996C135.241 99.1161 135.261 99.3319 135.295 99.5451C135.325 99.8391 135.375 100.13 135.446 100.416C135.877 102.27 136.873 103.905 138.267 105.047C139.3 105.898 140.511 106.448 141.788 106.644C143.064 106.841 144.366 106.679 145.57 106.172C147 105.576 148.237 104.525 149.123 103.152C150.081 101.678 150.584 99.9041 150.558 98.0914C150.532 96.2788 149.978 94.5233 148.978 93.084C148.512 92.3976 147.949 91.7978 147.312 91.3074C146.716 90.836 146.058 90.4685 145.361 90.2177C144.142 89.7537 142.837 89.6369 141.567 89.8782C140.297 90.1195 139.102 90.7109 138.095 91.5976C136.732 92.7893 135.783 94.4625 135.408 96.3353C135.347 96.6238 135.304 96.9166 135.279 97.2117C135.253 97.4277 135.24 97.6453 135.242 97.8632C135.242 98.0231 135.242 98.1534 135.242 98.26C135.235 98.2913 135.23 98.3229 135.226 98.3547Z" fill="#455A64"/>
<path d="M114.46 98.722C114.503 98.0391 114.589 97.3604 114.718 96.6907C115.122 94.8741 116.068 93.2598 117.405 92.107C118.322 91.3146 119.395 90.7709 120.538 90.5198C121.848 90.2344 123.204 90.3386 124.466 90.8219C125.146 91.0775 125.788 91.4449 126.369 91.9115C126.986 92.3846 127.531 92.9645 127.981 93.6289C128.942 95.0176 129.475 96.7092 129.501 98.4558C129.528 100.202 129.045 101.912 128.126 103.335C127.697 104.015 127.173 104.615 126.573 105.112C126.008 105.603 125.377 105.992 124.703 106.267C123.456 106.796 122.103 106.947 120.785 106.705C119.637 106.496 118.551 105.991 117.614 105.23C116.239 104.129 115.24 102.55 114.777 100.747C114.629 100.081 114.523 99.4044 114.46 98.722C114.454 98.7671 114.454 98.813 114.46 98.8582C114.46 98.9648 114.46 99.101 114.46 99.2609C114.46 99.4774 114.478 99.6935 114.514 99.9064C114.543 100.201 114.595 100.492 114.669 100.777C115.096 102.633 116.093 104.27 117.491 105.408C118.441 106.195 119.545 106.726 120.715 106.96C122.074 107.218 123.472 107.071 124.762 106.533C126.194 105.942 127.432 104.89 128.314 103.513C129.272 102.039 129.775 100.265 129.749 98.4528C129.723 96.6401 129.169 94.8847 128.169 93.4454C127.244 92.1029 125.978 91.0946 124.531 90.5494C123.225 90.0578 121.824 89.9617 120.473 90.2711C119.035 90.597 117.712 91.3731 116.663 92.5065C115.615 93.6398 114.885 95.0823 114.562 96.6611C114.495 96.9484 114.452 97.2417 114.433 97.5375C114.401 97.7528 114.389 97.971 114.395 98.189V98.5858C114.408 98.6358 114.43 98.6823 114.46 98.722Z" fill="#455A64"/>
<path d="M129.293 98.1002C129.336 98.1298 129.551 97.7449 130.051 97.3008C130.691 96.7152 131.494 96.3875 132.326 96.3713C133.158 96.3552 133.97 96.6516 134.629 97.2119C135.167 97.6324 135.371 98.0114 135.409 97.9759C135.275 97.6018 135.048 97.2773 134.753 97.0402C134.08 96.3909 133.211 96.0414 132.317 96.06C131.423 96.0786 130.567 96.464 129.916 97.1409C129.631 97.3899 129.415 97.7223 129.293 98.1002Z" fill="#455A64"/>
<path d="M104.072 95.3996C104.567 95.5725 105.077 95.6876 105.593 95.7431C106.544 95.9089 107.861 96.0629 109.312 96.205L113.036 96.5722C113.546 96.6588 114.062 96.7023 114.578 96.7025C114.084 96.5282 113.574 96.4111 113.058 96.3531C112.112 96.1932 110.795 96.0392 109.339 95.8971L105.62 95.5299C105.108 95.4396 104.591 95.3961 104.072 95.3996Z" fill="#455A64"/>
<path d="M147.22 103.478C147.89 102.623 148.434 101.658 148.832 100.617C149.144 99.5393 149.302 98.4144 149.299 97.283C149.419 97.6016 149.474 97.9452 149.461 98.2897C149.48 99.1192 149.356 99.9452 149.095 100.724C148.835 101.502 148.441 102.218 147.934 102.832C147.542 103.294 147.241 103.507 147.22 103.478Z" fill="white"/>
<path d="M148.52 94.1204C148.563 94.0493 148.87 94.2211 149.058 94.6238C149.246 95.0265 149.165 95.3936 149.09 95.3877C149.015 95.3818 148.95 95.0798 148.805 94.754C148.66 94.4283 148.472 94.1855 148.52 94.1204Z" fill="white"/>
<path d="M128.25 101.683C128.207 101.683 128.357 101.209 128.481 100.445C128.798 98.4416 128.449 96.379 127.497 94.6358C127.137 93.9725 126.847 93.6054 126.879 93.5698C127.196 93.8244 127.463 94.1467 127.664 94.5174C128.204 95.3784 128.575 96.3539 128.753 97.3817C128.932 98.4095 128.914 99.467 128.701 100.487C128.625 100.915 128.472 101.322 128.25 101.683Z" fill="white"/>
<path d="M99.6825 108.878C99.6825 108.878 99.5697 109.056 99.4085 109.382C99.1772 109.844 99.0553 110.364 99.0538 110.892C99.0451 111.275 99.1085 111.656 99.2398 112.01C99.3711 112.365 99.5676 112.686 99.8169 112.953C100.117 113.282 100.485 113.528 100.888 113.671C101.292 113.814 101.72 113.85 102.138 113.776C102.554 113.682 102.944 113.482 103.278 113.194C103.612 112.905 103.88 112.534 104.062 112.112C104.209 111.765 104.29 111.388 104.3 111.005C104.311 110.622 104.25 110.241 104.121 109.885C103.952 109.392 103.675 108.953 103.315 108.606C103.057 108.363 102.885 108.262 102.896 108.239C103.074 108.289 103.239 108.382 103.38 108.511C103.79 108.84 104.11 109.286 104.304 109.802C104.46 110.184 104.54 110.598 104.54 111.016C104.54 111.435 104.46 111.849 104.304 112.23C104.119 112.706 103.83 113.124 103.462 113.446C103.095 113.769 102.66 113.985 102.198 114.077C101.735 114.169 101.259 114.132 100.813 113.971C100.366 113.81 99.9633 113.529 99.6395 113.154C99.3717 112.858 99.1638 112.503 99.0295 112.112C98.8952 111.721 98.8376 111.303 98.8603 110.886C98.8789 110.328 99.037 109.787 99.3171 109.323C99.5052 108.997 99.6825 108.867 99.6825 108.878Z" fill="#E0E0E0"/>
<path d="M145.076 115.866C145.531 116.067 146.032 116.1 146.505 115.961C147.012 115.805 147.468 115.495 147.822 115.067C148.258 114.548 148.553 113.903 148.671 113.207C148.794 112.511 148.715 111.79 148.445 111.147C148.224 110.619 147.895 110.155 147.483 109.79C147.086 109.47 146.653 109.21 146.194 109.015C146.33 109.001 146.468 109.021 146.597 109.074C146.96 109.185 147.302 109.367 147.607 109.613C148.063 109.982 148.432 110.468 148.682 111.028C148.989 111.72 149.083 112.504 148.951 113.261C148.819 114.017 148.49 114.715 148.005 115.268C147.61 115.721 147.104 116.036 146.548 116.174C146.176 116.271 145.786 116.249 145.425 116.109C145.173 115.997 145.065 115.878 145.076 115.866Z" fill="#E0E0E0"/>
<path d="M115.267 233.456L123.236 236.056C123.236 236.056 127.632 238.135 129.771 238.674C132.426 239.343 134.237 238.437 134.334 236.808C134.43 235.179 132.367 234.972 132.367 234.972C130.613 234.236 128.907 233.367 127.261 232.372C126.066 231.458 125.089 230.239 124.413 228.819L127.261 229.251C127.261 229.251 133.253 233.989 135.51 235.422C137.767 236.855 138.262 234.339 138.455 233.581C138.649 232.822 131.781 225.141 131.781 225.141C131.781 225.141 138.359 229.796 139.536 230.957C140.712 232.118 142.486 232.497 142.878 231.745C143.27 230.993 144.351 230.987 142.878 227.777C141.406 224.567 129.621 215.933 129.621 215.933L132.845 215.175L136.381 216.91C136.627 218.247 137.129 219.511 137.853 220.617C139.127 222.702 141.39 220.617 141.39 220.617L139.987 212.622L133.001 207.802C133.001 207.802 125.735 208.779 124.655 209.318C123.575 209.856 122.393 212.125 122.393 212.125L120.431 213.001C117.384 213.972 117.486 217.33 116.503 217.437C115.519 217.543 86.8546 211.384 86.8546 211.384L84.259 210.638C79.9598 214.233 78.2455 220.173 77.4878 225.444C77.4878 225.444 76.6978 228.026 77.4878 229.447L115.267 233.456Z" fill="#FFBE9D"/>
<path d="M110.005 227.836C109.971 227.667 109.962 227.493 109.978 227.321C109.977 227.122 109.993 226.924 110.027 226.729C110.052 226.46 110.099 226.195 110.167 225.935C110.57 224.44 111.253 223.054 112.171 221.867C113.063 220.673 114.056 219.576 115.137 218.592C115.566 218.161 116.032 217.778 116.529 217.449C116.132 217.902 115.71 218.329 115.266 218.728C114.233 219.749 113.27 220.853 112.386 222.032C111.494 223.194 110.806 224.53 110.36 225.971C110.043 227.102 110.064 227.842 110.005 227.836Z" fill="#EB996E"/>
<path d="M122.419 212.125C122.419 212.125 122.182 212.261 121.817 212.587C121.308 213.061 120.867 213.618 120.511 214.239C120.254 214.659 120.035 215.105 119.855 215.571C119.69 216.12 119.586 216.689 119.544 217.265C119.47 217.935 119.253 218.577 118.91 219.137C118.521 219.678 118.201 220.276 117.958 220.913C117.591 221.99 117.591 223.177 117.958 224.253L117.996 224.366L117.905 224.431C116.659 225.318 115.757 226.683 115.374 228.263C115.242 228.885 115.161 229.519 115.132 230.158C115.088 229.992 115.07 229.82 115.078 229.648C115.072 229.168 115.119 228.689 115.218 228.221C115.561 226.562 116.474 225.115 117.765 224.182L117.711 224.36C117.322 223.214 117.322 221.952 117.711 220.807C117.959 220.151 118.292 219.539 118.7 218.988C119.027 218.458 119.233 217.849 119.302 217.212C119.367 216.083 119.742 215.003 120.377 214.115C120.756 213.485 121.233 212.934 121.785 212.486C121.933 212.363 122.096 212.261 122.268 212.184C122.316 212.157 122.367 212.137 122.419 212.125Z" fill="#EB996E"/>
<path d="M129.319 215.666C128.632 215.764 127.933 215.682 127.279 215.427C126.626 215.172 126.036 214.751 125.558 214.197C125.611 214.126 126.331 214.736 127.369 215.133C128.406 215.53 129.319 215.577 129.319 215.666Z" fill="#EB996E"/>
<path d="M131.157 224.413C130.119 224.092 129.11 223.668 128.142 223.146C127.137 222.72 126.166 222.201 125.24 221.594C126.275 221.924 127.284 222.348 128.255 222.862C129.261 223.287 130.231 223.806 131.157 224.413Z" fill="#EB996E"/>
<path d="M124.692 228.736C123.649 228.347 122.629 227.884 121.64 227.351C122.201 227.378 122.75 227.535 123.252 227.813C123.787 228.001 124.279 228.316 124.692 228.736Z" fill="#EB996E"/>
<path d="M130.169 224.976C129.706 225.249 129.299 225.624 128.973 226.077C128.647 226.53 128.408 227.052 128.272 227.611C128.234 227.611 128.202 227.404 128.272 227.072C128.348 226.638 128.517 226.23 128.766 225.883C129.015 225.535 129.335 225.259 129.701 225.076C129.964 224.952 130.158 224.94 130.169 224.976Z" fill="#EB996E"/>
<path d="M133.049 220.173C133.081 220.256 132.554 220.552 132.2 221.215C132.019 221.636 131.868 222.072 131.748 222.518C131.672 222.274 131.652 222.012 131.689 221.757C131.727 221.502 131.821 221.261 131.963 221.055C132.372 220.297 133.038 220.09 133.049 220.173Z" fill="#EB996E"/>
<path d="M132.238 211.473C132.211 211.473 132.103 211.337 132.023 211.053C131.926 210.665 131.926 210.256 132.023 209.868C132.116 209.486 132.302 209.138 132.56 208.862C132.754 208.654 132.915 208.583 132.931 208.613C132.675 209.026 132.467 209.474 132.313 209.945C132.233 210.45 132.208 210.962 132.238 211.473Z" fill="#EB996E"/>
<path d="M190.335 214.197C190.335 214.197 189.975 206.428 182.667 204.817C175.358 203.206 162.557 210.052 162.557 210.052L126.691 237.596L127.766 241.001L164.169 235.41L167.501 236.82L193.071 218.307L217.2 199.084L214.513 196.769C214.513 196.769 207.752 201.903 203.281 204.112C198.81 206.321 192.345 210.194 190.335 214.197Z" fill="#F5F5F5"/>
<path d="M126.138 242.126L156.49 221.345L188.578 215.666C188.578 215.666 190.19 218.236 192.914 217.609L219.301 197.473L219.8 198.687L168.63 238.306C167.878 238.609 167.066 238.68 166.281 238.51C165.496 238.341 164.767 237.939 164.175 237.347L126.138 242.126Z" fill="#455A64"/>
<path d="M188.578 215.666C188.505 215.753 188.422 215.829 188.331 215.891L187.589 216.483C186.944 216.993 186.015 217.733 184.902 218.669C182.624 220.534 179.528 223.193 176.186 226.207C172.843 229.222 169.839 232.023 167.689 234.066L165.126 236.494L164.427 237.146C164.352 237.228 164.267 237.3 164.175 237.359C164.175 237.359 164.239 237.264 164.39 237.104L165.051 236.405C165.631 235.813 166.475 234.948 167.539 233.912C169.656 231.828 172.628 229.009 175.987 225.982C179.345 222.956 182.436 220.327 184.762 218.503C185.912 217.585 186.864 216.874 187.53 216.394L188.298 215.85C188.386 215.779 188.48 215.718 188.578 215.666Z" fill="#263238"/>
<path d="M188.25 211.343C185.343 207.902 180.764 206.676 176.508 207.044C172.252 207.411 168.216 209.158 164.245 210.893L127.116 238.899L127.449 239.953L164.777 212.119C164.777 212.119 173.117 209.158 176.809 208.648C182.978 207.802 188.25 211.343 188.25 211.343Z" fill="#E0E0E0"/>
<path d="M194.075 215.027L211.927 201.755C211.927 201.755 197.3 210.141 194.075 215.027Z" fill="#E0E0E0"/>
<path d="M127.116 238.899C127.162 238.847 127.212 238.802 127.267 238.762L127.729 238.401L129.508 237.021L136.085 231.999L157.85 215.53L164.17 210.792C167.766 209.004 171.56 207.748 175.455 207.055C178.601 206.566 181.809 207.065 184.709 208.494C185.794 209.05 186.793 209.79 187.67 210.686C188.326 211.359 188.884 212.14 189.325 213.001C189.602 213.541 189.819 214.115 189.97 214.713C190.008 214.908 190.04 215.062 190.067 215.181C190.079 215.233 190.088 215.287 190.094 215.34C189.9 214.542 189.615 213.773 189.245 213.054C188.793 212.216 188.232 211.456 187.579 210.798C186.699 209.93 185.706 209.211 184.634 208.666C181.761 207.29 178.598 206.823 175.498 207.316C171.635 208.014 167.87 209.262 164.299 211.029H164.325L158.006 215.767L136.225 232.177L129.594 237.122L127.788 238.449L127.31 238.792C127.249 238.835 127.184 238.871 127.116 238.899Z" fill="#263238"/>
<path d="M159.618 217.727C159.703 217.65 159.797 217.586 159.898 217.538C160.086 217.425 160.365 217.253 160.725 217.052C161.451 216.637 162.509 216.057 163.842 215.394C167.298 213.609 170.965 212.371 174.735 211.716C178.525 211.086 182.397 211.476 186.02 212.853C187.109 213.286 188.155 213.84 189.143 214.505C189.497 214.73 189.75 214.95 189.927 215.098C190.021 215.161 190.109 215.235 190.191 215.317C190.191 215.317 189.798 215.068 189.089 214.624C188.089 214.005 187.041 213.488 185.956 213.078C182.349 211.775 178.516 211.42 174.762 212.042C171.019 212.694 167.371 213.889 163.912 215.595C162.574 216.235 161.504 216.78 160.763 217.164L159.914 217.597C159.819 217.651 159.72 217.695 159.618 217.727Z" fill="#263238"/>
<path d="M216.243 198.249C216.243 198.249 216.168 198.326 216.012 198.444L215.319 198.954L212.745 200.778C210.563 202.318 207.559 204.444 204.265 206.836C200.97 209.229 198.025 211.426 195.876 213.025L193.334 214.908L192.635 215.411C192.557 215.474 192.473 215.526 192.383 215.565C192.449 215.488 192.523 215.418 192.603 215.358L193.275 214.807C193.855 214.334 194.704 213.664 195.763 212.841C197.88 211.201 200.825 208.968 204.125 206.576C207.425 204.183 210.45 202.087 212.653 200.594C213.755 199.848 214.652 199.256 215.276 198.853L216.001 198.391C216.078 198.336 216.159 198.288 216.243 198.249Z" fill="#263238"/>
<path d="M200.003 219.545C199.639 220.512 199.175 221.43 198.622 222.281C197.934 223.181 195.688 224.437 195.511 226.148C195.333 227.86 195.699 231.875 193.27 234.931C191.704 236.832 189.723 238.259 187.514 239.076L177.933 238.046L162.628 231.407C162.285 231.312 161.991 231.072 161.808 230.74C161.625 230.407 161.568 230.009 161.649 229.63C161.744 229.219 161.948 228.848 162.236 228.566C162.523 228.283 162.88 228.101 163.262 228.043L163.627 227.978C163.627 227.978 162.746 227.185 164.009 225.793C165.083 224.608 167.378 225.278 168.56 225.71C169.743 226.142 176.675 229.334 177.916 229.826C179.018 230.258 179.867 230.643 179.867 230.643C179.867 230.643 170.995 224.046 170.871 223.181C170.726 222.145 170.823 221.671 171.731 220.949C172.806 220.09 174.568 221.008 176.277 221.801C177.551 222.394 185.671 226.812 185.671 226.812C185.671 226.812 186.036 226.421 185.671 225.627C185.306 224.834 182.608 221.008 182.183 220.297C181.759 219.587 181.646 219.184 182.07 218.586C182.662 217.739 184.22 217.336 185.655 218.781C186.563 219.705 189.793 222.098 189.793 222.098L204.7 210.111C204.7 210.111 206.554 210.058 205.909 212.906C205.264 215.755 200.003 219.545 200.003 219.545Z" fill="#FFBE9D"/>
<path d="M188.89 229.536C188.294 229.39 187.738 229.087 187.27 228.654C186.803 228.221 186.437 227.67 186.203 227.048C186.273 227.001 186.708 227.735 187.45 228.416C188.191 229.097 188.928 229.447 188.89 229.536Z" fill="#EB996E"/>
<path d="M190.115 222.388C190.115 222.352 190.314 222.287 190.653 222.335C191.075 222.402 191.472 222.596 191.801 222.896C192.13 223.196 192.378 223.59 192.517 224.034C192.619 224.378 192.603 224.626 192.566 224.626C192.341 224.073 192.019 223.574 191.62 223.158C191.168 222.796 190.657 222.534 190.115 222.388Z" fill="#EB996E"/>
<path d="M190.819 225.686C190.738 225.686 190.701 224.804 190.384 223.797C190.067 222.79 189.621 222.05 189.685 222.021C190.157 222.464 190.493 223.058 190.647 223.72C190.887 224.34 190.947 225.027 190.819 225.686Z" fill="#EB996E"/>
<path d="M199.638 218.692C199.638 218.722 199.45 218.603 199.256 218.319C199.011 217.942 198.857 217.501 198.81 217.04C198.763 216.579 198.824 216.112 198.987 215.684C199.116 215.364 199.261 215.204 199.288 215.228C199.097 215.795 199.029 216.404 199.089 217.006C199.15 217.608 199.338 218.185 199.638 218.692Z" fill="#EB996E"/>
<path d="M186.165 233.669C185.82 233.756 185.462 233.756 185.117 233.669C184.282 233.506 183.481 233.177 182.752 232.698C182.028 232.229 181.346 231.683 180.716 231.07C180.435 230.843 180.187 230.571 179.979 230.264C180.289 230.435 180.578 230.648 180.839 230.898C181.494 231.455 182.18 231.967 182.892 232.432C183.597 232.892 184.359 233.237 185.155 233.456C185.767 233.598 186.165 233.622 186.165 233.669Z" fill="#EB996E"/>
<path d="M188.659 231.976C188.734 231.976 188.739 232.568 188.288 233.059C187.836 233.551 187.288 233.527 187.299 233.444C187.31 233.361 187.724 233.243 188.089 232.852C188.454 232.461 188.578 231.964 188.659 231.976Z" fill="#EB996E"/>
<path d="M192.318 229.015C192.35 229.015 192.35 229.175 192.248 229.388C192.107 229.65 191.895 229.857 191.641 229.98C191.389 230.115 191.106 230.16 190.829 230.11C190.614 230.063 190.507 229.968 190.523 229.933C190.539 229.897 191.017 229.98 191.523 229.702C192.028 229.423 192.243 228.985 192.318 229.015Z" fill="#EB996E"/>
<path d="M179.41 235.736C179.384 235.813 175.821 234.179 171.457 232.076C167.093 229.974 163.579 228.203 163.632 228.132C163.686 228.061 167.228 229.696 171.591 231.798C175.955 233.9 179.443 235.659 179.41 235.736Z" fill="#EB996E"/>
<path d="M242.178 241.019C242.178 241.102 187.997 241.173 121.183 241.173C54.3687 241.173 0.177734 241.102 0.177734 241.019C0.177734 240.936 54.3472 240.865 121.183 240.865C188.019 240.865 242.178 240.93 242.178 241.019Z" fill="#263238"/>
<path d="M7.09901 177.931L18.7605 241.019H119.979C120.515 241.019 121.029 240.784 121.408 240.367C121.787 239.949 122 239.383 122 238.792C122 238.499 121.949 238.209 121.847 237.938C121.746 237.667 121.597 237.421 121.41 237.214C121.222 237.006 120.999 236.842 120.753 236.73C120.508 236.617 120.245 236.56 119.979 236.56H99.6009L88.7885 177.865C88.6883 177.318 88.4198 176.825 88.0282 176.47C87.6367 176.115 87.146 175.92 86.6389 175.917L9.29158 175.005C8.96153 175.001 8.6349 175.079 8.33558 175.232C8.03626 175.385 7.77183 175.611 7.56165 175.891C7.35146 176.172 7.20083 176.5 7.12078 176.853C7.04074 177.206 7.0333 177.574 7.09901 177.931Z" fill="#E0E0E0"/>
<path d="M7.09943 177.93L7.06719 177.741C7.04531 177.544 7.04531 177.345 7.06719 177.149C7.10536 176.771 7.22224 176.409 7.40869 176.089C7.59514 175.77 7.8461 175.502 8.14198 175.307C8.34745 175.168 8.57272 175.068 8.80835 175.011C9.07107 174.963 9.33762 174.945 9.60369 174.958H11.4255L15.9826 174.999L45.233 175.301L65.6218 175.532L77.0469 175.656L83.0334 175.727L86.0966 175.763C86.3599 175.763 86.6017 175.763 86.8812 175.763C87.1542 175.797 87.4197 175.883 87.6658 176.018C88.1618 176.284 88.5546 176.738 88.7728 177.297C88.8735 177.573 88.9457 177.861 88.9878 178.156L89.1436 179.002C89.2457 179.595 89.3532 180.139 89.4607 180.708C89.6685 181.849 89.8799 182.998 90.0948 184.155C90.5211 186.464 90.9529 188.804 91.3899 191.172C92.2641 195.91 93.1598 200.752 94.0769 205.699C95.8987 215.589 97.8011 225.876 99.7518 236.494L99.6175 236.376H119.657C119.921 236.365 120.186 236.383 120.447 236.429C120.985 236.557 121.458 236.906 121.769 237.406C122.084 237.905 122.212 238.518 122.129 239.118C122.08 239.481 121.955 239.828 121.764 240.129C121.573 240.43 121.321 240.678 121.027 240.853C120.732 241.026 120.405 241.124 120.071 241.137H66.2828H18.7609H18.6749V241.043C15.1066 221.648 12.2262 205.877 10.2002 194.945C9.20065 189.485 8.4268 185.232 7.90015 182.342C7.6422 180.897 7.44516 179.802 7.30901 179.056C7.17467 178.31 7.11555 177.93 7.11555 177.93C7.11555 177.93 7.19616 178.309 7.33588 179.044C7.47561 179.778 7.69057 180.892 7.95926 182.325C8.49666 185.215 9.29738 189.461 10.3184 194.921C12.3498 205.847 15.2786 221.612 18.8845 240.995L18.777 240.9L66.2989 240.871H120.049C120.338 240.858 120.621 240.775 120.877 240.628C121.131 240.474 121.35 240.258 121.517 239.996C121.683 239.734 121.794 239.434 121.839 239.118C121.908 238.593 121.797 238.059 121.527 237.62C121.252 237.187 120.84 236.885 120.372 236.773C120.13 236.732 119.885 236.717 119.641 236.725H99.4885V236.607C97.5377 226 95.6407 215.714 93.8243 205.812C92.9108 200.861 92.0151 196.017 91.1374 191.279L89.8476 184.261C89.638 183.106 89.4231 181.958 89.2135 180.82C89.1114 180.228 89.0039 179.678 88.9018 179.115L88.7459 178.262C88.7057 177.987 88.6409 177.717 88.5525 177.457C88.4047 177.083 88.1697 176.759 87.8714 176.518C87.5732 176.276 87.2222 176.126 86.8543 176.083C86.6179 176.083 86.3492 176.083 86.0966 176.083L83.0334 176.041L77.0415 175.97L65.6218 175.822L45.2277 175.556L15.9772 175.159L11.4255 175.094L9.60369 175.064C9.34138 175.046 9.07808 175.062 8.8191 175.112C8.58818 175.164 8.36668 175.258 8.16347 175.39C7.87357 175.577 7.62609 175.834 7.43985 176.141C7.25361 176.449 7.13351 176.8 7.08868 177.167C7.06734 177.421 7.07094 177.677 7.09943 177.93Z" fill="#263238"/>
<path d="M50.3973 210.484C52.2434 210.484 53.7399 208.835 53.7399 206.801C53.7399 204.766 52.2434 203.117 50.3973 203.117C48.5512 203.117 47.0547 204.766 47.0547 206.801C47.0547 208.835 48.5512 210.484 50.3973 210.484Z" fill="white"/>
<path d="M7.19629 178.458C7.19629 178.458 7.31451 178.458 7.54559 178.458H12.5004L26.9724 178.535L74.72 178.902L81.6256 178.967H83.3238C83.6132 178.955 83.9031 178.975 84.1889 179.026C84.6263 179.124 85.0304 179.354 85.3567 179.689C85.683 180.025 85.9186 180.453 86.0376 180.927C86.1666 181.519 86.2579 182.111 86.3708 182.704L88.8374 196.407C90.4013 205.143 91.8146 212.989 92.9969 219.616C94.1791 226.243 95.1465 231.561 95.7806 235.263C96.103 237.104 96.3502 238.537 96.5222 239.521C96.6028 240 96.6673 240.373 96.7103 240.634C96.7533 240.894 96.764 241.013 96.764 241.013C96.764 241.013 96.7318 240.889 96.6834 240.64C96.635 240.391 96.5598 240.012 96.4684 239.532L95.6731 235.31C94.996 231.609 94.0179 226.273 92.8034 219.681C91.5889 213.09 90.1702 205.214 88.5849 196.484C87.7949 192.12 86.9727 187.536 86.1021 182.787C85.9892 182.194 85.8925 181.602 85.7743 181.01C85.6325 180.447 85.3071 179.962 84.8607 179.648C84.6394 179.492 84.3932 179.383 84.1352 179.328C83.8653 179.28 83.5916 179.262 83.3184 179.275H81.6256L74.72 179.216L26.9724 178.754L12.5004 178.576L8.56665 178.458H7.54022H7.19629Z" fill="#263238"/>
</svg>
