<svg width="243" height="243" viewBox="0 0 243 243" fill="none" xmlns="http://www.w3.org/2000/svg">
<path d="M121.855 242.125C173.683 242.125 215.698 238.799 215.698 234.696C215.698 230.592 173.683 227.266 121.855 227.266C70.0275 227.266 28.0127 230.592 28.0127 234.696C28.0127 238.799 70.0275 242.125 121.855 242.125Z" fill="#F5F5F5"/>
<path d="M178.025 126.708H173.843C172.675 126.706 171.556 126.076 170.73 124.956C169.904 123.837 169.44 122.319 169.438 120.735V115.058C169.44 113.474 169.904 111.956 170.73 110.836C171.556 109.717 172.675 109.087 173.843 109.085H178.025C179.193 109.087 180.313 109.716 181.139 110.836C181.966 111.955 182.431 113.474 182.434 115.058V120.735C182.431 122.319 181.966 123.837 181.139 124.957C180.313 126.076 179.193 126.706 178.025 126.708ZM173.843 110.824C173.015 110.826 172.222 111.273 171.637 112.066C171.052 112.86 170.722 113.935 170.721 115.058V120.735C170.721 121.858 171.05 122.935 171.635 123.729C172.221 124.522 173.015 124.968 173.843 124.968H178.025C178.853 124.968 179.647 124.522 180.232 123.729C180.818 122.935 181.146 121.858 181.146 120.735V115.058C181.145 113.935 180.816 112.86 180.231 112.066C179.645 111.273 178.852 110.826 178.025 110.824H173.843Z" fill="#FF9519"/>
<g opacity="0.6">
<path d="M178.025 126.708H173.843C172.675 126.706 171.556 126.076 170.73 124.956C169.904 123.837 169.44 122.319 169.438 120.735V115.058C169.44 113.474 169.904 111.956 170.73 110.836C171.556 109.717 172.675 109.087 173.843 109.085H178.025C179.193 109.087 180.313 109.716 181.139 110.836C181.966 111.955 182.431 113.474 182.434 115.058V120.735C182.431 122.319 181.966 123.837 181.139 124.957C180.313 126.076 179.193 126.706 178.025 126.708ZM173.843 110.824C173.015 110.826 172.222 111.273 171.637 112.066C171.052 112.86 170.722 113.935 170.721 115.058V120.735C170.721 121.858 171.05 122.935 171.635 123.729C172.221 124.522 173.015 124.968 173.843 124.968H178.025C178.853 124.968 179.647 124.522 180.232 123.729C180.818 122.935 181.146 121.858 181.146 120.735V115.058C181.145 113.935 180.816 112.86 180.231 112.066C179.645 111.273 178.852 110.826 178.025 110.824H173.843Z" fill="white"/>
</g>
<path d="M175.478 122.743L169.375 114.474L171.19 112.006L175.478 117.821L183.246 107.287L185.061 109.748L175.478 122.743Z" fill="#FF9519"/>
<path d="M85.8266 63.1804H82.1288C81.1043 63.1701 80.1238 62.6136 79.3993 61.6311C78.6748 60.6487 78.2644 59.3191 78.2568 57.9297V52.9087C78.2581 51.5136 78.6657 50.1756 79.3908 49.1861C80.116 48.1965 81.1001 47.6355 82.1288 47.6251H85.8266C86.8595 47.6269 87.8498 48.1841 88.5802 49.1746C89.3106 50.165 89.7215 51.5079 89.7228 52.9087V57.8838C89.7234 58.5785 89.6232 59.2665 89.4277 59.9087C89.2322 60.5509 88.9454 61.1345 88.5836 61.6264C88.2218 62.1182 87.7921 62.5086 87.3191 62.7752C86.846 63.0419 86.3389 63.1796 85.8266 63.1804ZM82.1288 49.1347C81.3967 49.1347 80.6945 49.5287 80.1764 50.2301C79.6582 50.9315 79.3665 51.883 79.3652 52.8759V57.8838C79.3665 58.8766 79.6582 59.8281 80.1764 60.5295C80.6945 61.231 81.3967 61.6249 82.1288 61.6249H85.8266C86.5583 61.6249 87.26 61.2307 87.7774 60.5291C88.2947 59.8275 88.5854 58.876 88.5854 57.8838V52.8627C88.5854 51.8705 88.2947 50.9189 87.7774 50.2173C87.26 49.5157 86.5583 49.1216 85.8266 49.1216L82.1288 49.1347Z" fill="#FF9519"/>
<g opacity="0.6">
<path d="M85.8266 63.1804H82.1288C81.1043 63.1701 80.1238 62.6136 79.3993 61.6311C78.6748 60.6487 78.2644 59.3191 78.2568 57.9297V52.9087C78.2581 51.5136 78.6657 50.1756 79.3908 49.1861C80.116 48.1965 81.1001 47.6355 82.1288 47.6251H85.8266C86.8595 47.6269 87.8498 48.1841 88.5802 49.1746C89.3106 50.165 89.7215 51.5079 89.7228 52.9087V57.8838C89.7234 58.5785 89.6232 59.2665 89.4277 59.9087C89.2322 60.5509 88.9454 61.1345 88.5836 61.6264C88.2218 62.1182 87.7921 62.5086 87.3191 62.7752C86.846 63.0419 86.3389 63.1796 85.8266 63.1804ZM82.1288 49.1347C81.3967 49.1347 80.6945 49.5287 80.1764 50.2301C79.6582 50.9315 79.3665 51.883 79.3652 52.8759V57.8838C79.3665 58.8766 79.6582 59.8281 80.1764 60.5295C80.6945 61.231 81.3967 61.6249 82.1288 61.6249H85.8266C86.5583 61.6249 87.26 61.2307 87.7774 60.5291C88.2947 59.8275 88.5854 58.876 88.5854 57.8838V52.8627C88.5854 51.8705 88.2947 50.9189 87.7774 50.2173C87.26 49.5157 86.5583 49.1216 85.8266 49.1216L82.1288 49.1347Z" fill="white"/>
</g>
<path d="M83.5714 59.669L78.1797 52.3573L79.7817 50.1782L83.5714 55.3174L90.4394 46.0039L92.0463 48.183L83.5714 59.669Z" fill="#FF9519"/>
<path d="M194.456 55.652C190.651 54.4294 187.043 52.2764 183.808 49.2986C180.573 52.2775 176.965 54.4306 173.16 55.652C171.77 56.1004 170.36 56.4313 168.939 56.6431C168.939 56.7284 168.939 56.8203 168.939 56.9056C168.939 74.6268 174.806 86.9989 183.813 96.6734C192.82 86.9989 198.686 74.6334 198.686 56.9056C198.686 56.8203 198.686 56.7284 198.686 56.6431C197.262 56.4316 195.85 56.1006 194.456 55.652Z" fill="#FF9519"/>
<path opacity="0.1" d="M183.808 49.2986C180.573 52.2775 176.965 54.4306 173.16 55.652C171.77 56.1004 170.36 56.4313 168.939 56.6431C168.939 56.7284 168.939 56.8203 168.939 56.9056C168.939 74.6268 174.806 86.9989 183.813 96.6734L183.808 49.2986Z" fill="black"/>
<g opacity="0.5">
<path d="M183.808 93.4574L183.411 92.998C175.294 83.5729 171.311 72.9533 170.827 59.5639L170.803 58.8288L171.335 58.7041C172.1 58.5269 172.865 58.3169 173.6 58.0478C177.091 56.9264 180.43 55.0658 183.493 52.5345L183.813 52.2654L184.132 52.5345C187.196 55.0647 190.535 56.9252 194.025 58.0478C194.77 58.2906 195.53 58.5006 196.29 58.7041L196.827 58.8288L196.798 59.5639C196.314 72.9533 192.326 83.5795 184.214 92.998L183.808 93.4574ZM172.076 60.2137C172.637 72.5529 176.378 82.4506 183.808 91.2652C191.237 82.4571 194.979 72.5529 195.54 60.2137C194.935 60.0627 194.33 59.8855 193.735 59.6886C190.241 58.5655 186.894 56.7286 183.808 54.241C180.722 56.7297 177.375 58.5667 173.881 59.6886C173.29 59.8855 172.676 60.0562 172.076 60.2137Z" fill="white"/>
</g>
<path opacity="0.9" d="M183.808 91.2652C176.378 82.4505 172.637 72.5528 172.076 60.2136C172.685 60.0561 173.29 59.8854 173.881 59.6885C177.375 58.5666 180.722 56.7296 183.808 54.2409V52.2719L183.488 52.541C180.425 55.0723 177.086 56.9329 173.595 58.0542C172.86 58.2971 172.095 58.5071 171.33 58.7106L170.798 58.8353L170.822 59.5704C171.306 72.9598 175.294 83.5794 183.406 93.0045L183.803 93.4639L183.808 91.2652Z" fill="#F0F0F0"/>
<g opacity="0.2">
<path d="M182.966 80.6193L176.456 71.785L178.392 69.1596L182.966 75.362L191.257 64.1189L193.198 66.7443L182.966 80.6193Z" fill="#FF9519"/>
</g>
<g opacity="0.9">
<path d="M182.966 80.6193L176.456 71.785L178.392 69.1596L182.966 75.362L191.257 64.1189L193.198 66.7443L182.966 80.6193Z" fill="white"/>
</g>
<path d="M155.755 48.6554H138.849V69.9668H155.755V48.6554Z" fill="#FF9519"/>
<path opacity="0.3" d="M155.755 48.6554H138.849V69.9668H155.755V48.6554Z" fill="white"/>
<path d="M163.256 48.6553H154.806V69.9667H163.256V48.6553Z" fill="#FF9519"/>
<path d="M149.952 52.8362H144.643V69.9667H149.952V52.8362Z" fill="#263238"/>
<path d="M145.969 52.8362H144.643V69.9667H145.969V52.8362Z" fill="#FF9519"/>
<path d="M145.354 67.1249H101.324V236.724H145.354V67.1249Z" fill="#FF9519"/>
<path opacity="0.6" d="M145.354 67.1249H101.324V236.724H145.354V67.1249Z" fill="white"/>
<path d="M144.695 67.1249V92.2037H134.981V97.7629H144.695V119.258H134.981V124.817H144.695V146.313H134.981V151.872H144.695V173.367H134.981V178.926H144.695V200.421H134.981V205.981H144.695V236.724H165.512V67.1249H144.695Z" fill="#FF9519"/>
<path opacity="0.2" d="M144.695 67.1249V92.2037H134.981V97.7629H144.695V119.258H134.981V124.817H144.695V146.313H134.981V151.872H144.695V173.367H134.981V178.926H144.695V200.421H134.981V205.981H144.695V236.724H165.512V67.1249H144.695Z" fill="white"/>
<path d="M135.529 200.421H95.1582V205.981H135.529V200.421Z" fill="#FF9519"/>
<path d="M135.529 173.367H95.1582V178.926H135.529V173.367Z" fill="#FF9519"/>
<path d="M135.529 146.312H95.1582V151.872H135.529V146.312Z" fill="#FF9519"/>
<path d="M135.529 119.258H95.1582V124.817H135.529V119.258Z" fill="#FF9519"/>
<path d="M135.529 92.2036H95.1582V97.7628H135.529V92.2036Z" fill="#FF9519"/>
<g opacity="0.4">
<path d="M135.529 200.421H95.1582V205.98H135.529V200.421Z" fill="white"/>
<path d="M135.529 173.367H95.1582V178.926H135.529V173.367Z" fill="white"/>
<path d="M135.529 146.312H95.1582V151.872H135.529V146.312Z" fill="white"/>
<path d="M135.529 119.258H95.1582V124.817H135.529V119.258Z" fill="white"/>
<path d="M135.529 92.2036H95.1582V97.7628H135.529V92.2036Z" fill="white"/>
</g>
<path d="M136.201 212.058H110.481V236.724H136.201V212.058Z" fill="#FF9519"/>
<path d="M115.708 73.6686H105.051V88.1212H115.708V73.6686Z" fill="#FF9519"/>
<path d="M128.418 73.6686H117.761V88.1212H128.418V73.6686Z" fill="#FF9519"/>
<path opacity="0.7" d="M141.128 73.6686H130.471V88.1212H141.128V73.6686Z" fill="white"/>
<path opacity="0.7" d="M115.708 101.281H105.051V115.734H115.708V101.281Z" fill="white"/>
<path d="M128.418 101.281H117.761V115.734H128.418V101.281Z" fill="#FF9519"/>
<path opacity="0.7" d="M141.128 101.281H130.471V115.734H141.128V101.281Z" fill="white"/>
<path opacity="0.7" d="M115.708 128.335H105.051V142.788H115.708V128.335Z" fill="white"/>
<path opacity="0.7" d="M128.418 128.335H117.761V142.788H128.418V128.335Z" fill="white"/>
<path d="M141.128 128.335H130.471V142.788H141.128V128.335Z" fill="#FF9519"/>
<path opacity="0.7" d="M115.708 155.39H105.051V169.842H115.708V155.39Z" fill="white"/>
<path d="M128.418 155.39H117.761V169.842H128.418V155.39Z" fill="#FF9519"/>
<path opacity="0.7" d="M141.128 155.39H130.471V169.842H141.128V155.39Z" fill="white"/>
<path d="M115.708 182.451H105.051V196.903H115.708V182.451Z" fill="#FF9519"/>
<path d="M128.418 182.451H117.761V196.903H128.418V182.451Z" fill="#FF9519"/>
<path opacity="0.7" d="M141.128 182.451H130.471V196.903H141.128V182.451Z" fill="white"/>
<path d="M106.174 73.6686H105.051V88.1212H106.174V73.6686Z" fill="#FF9519"/>
<path d="M118.884 73.6686H117.761V88.1212H118.884V73.6686Z" fill="#FF9519"/>
<path d="M131.594 73.6686H130.471V88.1212H131.594V73.6686Z" fill="#FF9519"/>
<path d="M106.174 101.281H105.051V115.734H106.174V101.281Z" fill="#FF9519"/>
<path d="M118.884 101.281H117.761V115.734H118.884V101.281Z" fill="#FF9519"/>
<path d="M131.594 101.281H130.471V115.734H131.594V101.281Z" fill="#FF9519"/>
<path d="M106.174 128.335H105.051V142.788H106.174V128.335Z" fill="#FF9519"/>
<path d="M118.884 128.335H117.761V142.788H118.884V128.335Z" fill="#FF9519"/>
<path d="M131.594 128.335H130.471V142.788H131.594V128.335Z" fill="#FF9519"/>
<path d="M106.174 155.39H105.051V169.842H106.174V155.39Z" fill="#FF9519"/>
<path d="M118.884 155.39H117.761V169.842H118.884V155.39Z" fill="#FF9519"/>
<path d="M131.594 155.39H130.471V169.842H131.594V155.39Z" fill="#FF9519"/>
<path d="M106.174 182.451H105.051V196.903H106.174V182.451Z" fill="#FF9519"/>
<path d="M118.884 182.451H117.761V196.903H118.884V182.451Z" fill="#FF9519"/>
<path d="M131.594 182.451H130.471V196.903H131.594V182.451Z" fill="#FF9519"/>
<g opacity="0.2">
<path d="M106.175 73.6686H105.052V88.1212H106.175V73.6686Z" fill="black"/>
<path d="M118.885 73.6686H117.762V88.1212H118.885V73.6686Z" fill="black"/>
<path d="M131.595 73.6686H130.472V88.1212H131.595V73.6686Z" fill="black"/>
<path d="M106.175 101.281H105.052V115.734H106.175V101.281Z" fill="black"/>
<path d="M118.885 101.281H117.762V115.734H118.885V101.281Z" fill="black"/>
<path d="M131.595 101.281H130.472V115.734H131.595V101.281Z" fill="black"/>
<path d="M106.175 128.335H105.052V142.788H106.175V128.335Z" fill="black"/>
<path d="M118.885 128.335H117.762V142.788H118.885V128.335Z" fill="black"/>
<path d="M131.595 128.335H130.472V142.788H131.595V128.335Z" fill="black"/>
<path d="M106.175 155.39H105.052V169.842H106.175V155.39Z" fill="black"/>
<path d="M118.885 155.39H117.762V169.842H118.885V155.39Z" fill="black"/>
<path d="M131.595 155.39H130.472V169.842H131.595V155.39Z" fill="black"/>
<path d="M106.175 182.451H105.052V196.903H106.175V182.451Z" fill="black"/>
<path d="M118.885 182.451H117.762V196.903H118.885V182.451Z" fill="black"/>
<path d="M131.595 182.451H130.472V196.903H131.595V182.451Z" fill="black"/>
</g>
<path opacity="0.4" d="M134.972 213.725H123.342V236.724H134.972V213.725Z" fill="white"/>
<path opacity="0.7" d="M123.341 213.725H111.711V236.724H123.341V213.725Z" fill="white"/>
<path d="M112.94 213.725H111.711V236.724H112.94V213.725Z" fill="#FF9519"/>
<path opacity="0.2" d="M112.94 213.725H111.711V236.724H112.94V213.725Z" fill="black"/>
<path d="M49.739 101.294C49.9393 100.024 50.2327 98.7836 50.6151 97.5924C51.0168 96.2797 51.4718 94.967 51.9703 93.6543C52.4688 92.3416 52.9915 91.029 53.5239 89.7163C54.0563 88.4036 54.642 87.0909 55.184 85.8701L50.9055 82.1683C50.2279 83.5663 49.6519 84.9184 49.0663 86.3295C48.4806 87.7407 47.9434 89.1649 47.4255 90.6286C46.9076 92.0922 46.4575 93.6149 46.0171 95.223C45.5502 96.9185 45.2255 98.6798 45.0491 100.474C45.0054 101.087 44.9941 101.703 45.0152 102.318H49.6326C49.6454 101.973 49.6811 101.63 49.739 101.294Z" fill="#CE7A63"/>
<path d="M84.8585 86.8809C83.7847 89.4289 82.5831 91.8741 81.2624 94.1991C80.963 94.7144 80.6397 95.2033 80.2944 95.6627C80.0281 96.0337 79.7231 96.35 79.3893 96.6013H79.3361C79.3361 96.6013 79.1618 96.4569 78.9585 96.1812C78.3162 95.3244 77.7523 94.3658 77.2791 93.3261C76.7418 92.1579 76.2191 90.8977 75.7303 89.5981C75.2414 88.2986 74.7623 86.9727 74.317 85.6207C73.8717 84.2686 73.4216 82.8706 73.0199 81.571L68.3105 84.0258C68.7413 85.601 69.2059 87.0187 69.6948 88.4889C70.1836 89.9591 70.7209 91.3834 71.2968 92.8076C71.8849 94.2633 72.5312 95.6744 73.2328 97.0345C73.6007 97.7302 73.9927 98.4194 74.4283 99.1085C74.8979 99.8559 75.4217 100.538 75.9916 101.143C76.3346 101.507 76.7025 101.826 77.0903 102.095C77.5832 102.434 78.1152 102.656 78.6633 102.751C79.2791 102.844 79.9023 102.749 80.488 102.476C80.9508 102.258 81.3865 101.946 81.7803 101.55C82.3932 100.938 82.9405 100.213 83.4065 99.3973C83.8084 98.6998 84.1739 97.9651 84.5004 97.1986C85.1125 95.7643 85.6417 94.2677 86.083 92.7223C86.5219 91.2246 86.8889 89.6899 87.1817 88.1279L84.8585 86.8809Z" fill="#CE7A63"/>
<path d="M78.3435 92.4271L73.0873 97.75C73.0873 97.75 72.884 97.4481 72.55 96.923C72.308 96.5423 71.9934 96.0304 71.6304 95.4331C69.588 92.0595 66.6017 85.8965 66.5775 82.8839C66.5388 78.3813 69.9655 77.7184 73.8375 82.3194C75.5024 84.2884 76.3736 87.603 77.2255 89.6442C77.5062 90.3005 77.7434 90.9044 77.9273 91.3638C78.1983 92.0136 78.3435 92.4271 78.3435 92.4271Z" fill="#263238"/>
<path opacity="0.5" d="M78.3435 92.4271L73.0873 97.75C73.0873 97.75 72.884 97.4481 72.55 96.923C72.308 96.5423 71.9934 96.0304 71.6304 95.4331C69.588 92.0595 66.6017 85.8965 66.5775 82.8839C66.5388 78.3813 69.9655 77.7184 73.8375 82.3194C75.5024 84.2884 76.3736 87.603 77.2255 89.6442C77.5062 90.3005 77.7434 90.9044 77.9273 91.3638C78.1983 92.0136 78.3435 92.4271 78.3435 92.4271Z" fill="white"/>
<path opacity="0.2" d="M66.544 83.4022C67.7298 82.3324 68.5962 85.089 70.9484 87.4191C71.9939 88.4626 74.288 95.2295 74.0993 96.726L73.0877 97.7499C73.0877 97.7499 66.515 87.8851 66.544 83.4022Z" fill="black"/>
<path d="M84.4512 87.9638L86.3242 83.3694L88.0376 89.4143C88.0376 89.4143 85.9177 91.8165 84.8335 90.2019L84.4512 87.9638Z" fill="#CE7A63"/>
<path d="M88.4984 83.317L89.2534 87.8392L88.0386 89.3882L86.3252 83.3433L88.4984 83.317Z" fill="#CE7A63"/>
<path d="M84.756 87.6093C84.7206 86.777 84.5832 85.9585 84.3495 85.1874C84.0591 84.2948 83.3815 83.5466 83.5218 83.0543C83.5896 82.8377 84.0058 82.7327 84.1752 82.7852C84.5767 83.0379 84.9136 83.4469 85.1432 83.96C85.3707 84.4982 86.0048 86.382 86.0048 86.382L84.756 87.6093Z" fill="#CE7A63"/>
<path d="M66.2726 58.2053C66.2726 58.2053 67.7246 59.1242 67.0518 60.5944C67.2175 60.7473 67.3581 60.9451 67.4646 61.1753C67.5712 61.4054 67.6415 61.6631 67.671 61.9319C67.7006 62.2007 67.6888 62.4749 67.6363 62.7372C67.5839 62.9995 67.492 63.2443 67.3664 63.4561C67.3664 63.4561 67.4487 66.1602 66.2726 64.5915C65.0965 63.0229 64.7432 58.6188 64.7432 58.6188L66.2726 58.2053Z" fill="#263238"/>
<path d="M56.3508 87.5306C55.5167 90.6682 54.547 93.7364 53.4468 96.7194C53.2096 97.3757 52.9628 97.9861 52.8079 98.4718C52.4933 99.3119 52.2949 99.8239 52.2949 99.8239L45.5527 94.7635C45.5527 94.7635 45.6399 94.3762 45.7899 93.733C45.9109 93.2473 46.0609 92.6041 46.2739 91.869C47.3968 87.5306 49.6909 79.7858 51.9367 79.346C55.2957 78.6503 57.7157 82.0567 56.3508 87.5306Z" fill="#263238"/>
<path opacity="0.5" d="M56.3508 87.5306C55.5167 90.6682 54.547 93.7364 53.4468 96.7194C53.2096 97.3757 52.9628 97.9861 52.8079 98.4718C52.4933 99.3119 52.2949 99.8239 52.2949 99.8239L45.5527 94.7635C45.5527 94.7635 45.6399 94.3762 45.7899 93.733C45.9109 93.2473 46.0609 92.6041 46.2739 91.869C47.3968 87.5306 49.6909 79.7858 51.9367 79.346C55.2957 78.6503 57.7157 82.0567 56.3508 87.5306Z" fill="white"/>
<path d="M81.4602 231.132L84.6255 229.74L82.6605 219.62L79.4951 221.011L81.4602 231.132Z" fill="#CE7A63"/>
<path d="M84.6739 229.189L81.1165 230.751C81.0862 230.762 81.0578 230.782 81.0331 230.808C81.0083 230.834 80.9877 230.867 80.9724 230.905C80.9571 230.942 80.9474 230.983 80.9439 231.025C80.9404 231.068 80.9431 231.11 80.9519 231.151L81.6924 235.044C81.7403 235.244 81.8442 235.41 81.9819 235.507C82.1196 235.604 82.2799 235.624 82.4281 235.562C83.6623 234.984 84.2286 234.63 85.8161 233.941C86.7841 233.514 90.903 231.854 92.2291 231.27C93.5553 230.685 93.0955 228.92 92.4905 229.005C89.7946 229.392 86.426 229.773 85.3079 229.209C85.1042 229.106 84.8809 229.099 84.6739 229.189Z" fill="#263238"/>
<path opacity="0.2" d="M79.4951 221.011L82.6605 219.62L83.672 224.838L80.5067 226.229L79.4951 221.011Z" fill="black"/>
<path d="M71.7807 118.549C71.7807 118.549 76.2722 155.305 77.5887 168.097C79.0407 182.129 84.7761 223.17 84.7761 223.17L78.9003 225.369C78.9003 225.369 70.5513 185.601 68.1313 171.956C65.5661 157.155 59.9033 118.549 59.9033 118.549H71.7807Z" fill="#263238"/>
<path opacity="0.4" d="M64.5635 133.612C66.8625 141.397 67.1239 154.615 66.1898 160.056C64.7813 151.15 63.1648 140.497 61.9209 132.214C62.3662 130.081 63.1696 128.88 64.5635 133.612Z" fill="black"/>
<path d="M78.7693 225.527L85.0613 223.177L84.9403 219.698L77.8545 223.019L78.7693 225.527Z" fill="#263238"/>
<path d="M85.9767 229.425C85.6888 229.536 85.3938 229.608 85.0958 229.642C85.0806 229.643 85.0655 229.639 85.0519 229.63C85.0383 229.62 85.0267 229.607 85.0183 229.589C85.0102 229.572 85.0059 229.551 85.0059 229.53C85.0059 229.509 85.0102 229.489 85.0183 229.471C85.0958 229.333 85.7927 228.106 86.2283 228.159C86.2776 228.161 86.3254 228.182 86.367 228.217C86.4086 228.253 86.4426 228.303 86.4655 228.362C86.5098 228.446 86.5368 228.544 86.5436 228.647C86.5504 228.75 86.5368 228.853 86.5042 228.946C86.3765 229.187 86.1892 229.357 85.9767 229.425ZM85.2603 229.425C85.8653 229.327 86.2767 229.123 86.3784 228.861C86.3971 228.799 86.4038 228.731 86.3979 228.665C86.392 228.598 86.3736 228.535 86.3445 228.48C86.3349 228.449 86.3188 228.423 86.2981 228.404C86.2775 228.385 86.2532 228.375 86.2283 228.375C85.996 228.336 85.5556 228.927 85.2603 229.406V229.425Z" fill="#FF9519"/>
<path d="M85.1097 229.635H85.071C85.0578 229.633 85.0454 229.625 85.0351 229.614C85.0249 229.602 85.0172 229.587 85.0129 229.57C85.0129 229.517 84.6305 228.316 84.8483 227.758C84.8758 227.685 84.9155 227.623 84.9643 227.575C85.0131 227.527 85.0695 227.495 85.129 227.483C85.1925 227.455 85.261 227.458 85.3229 227.491C85.3848 227.525 85.4361 227.587 85.4678 227.666C85.6518 228.099 85.3952 229.202 85.1387 229.596C85.1329 229.613 85.1226 229.627 85.1097 229.635ZM85.1097 227.706C85.0798 227.718 85.052 227.738 85.0279 227.765C85.0038 227.792 84.9839 227.826 84.9693 227.863C84.894 228.354 84.9364 228.865 85.0903 229.32C85.3078 228.864 85.3891 228.313 85.3178 227.778C85.2936 227.719 85.2549 227.66 85.1436 227.693L85.1097 227.706Z" fill="#FF9519"/>
<path d="M49.6133 233.107H52.9384L54.0467 222.658H50.7216L49.6133 233.107Z" fill="#CE7A63"/>
<path d="M53.1515 232.582H49.4102C49.3458 232.581 49.2834 232.612 49.2344 232.669C49.1855 232.726 49.1534 232.804 49.144 232.891L48.7036 236.901C48.6937 237.006 48.7007 237.112 48.7242 237.213C48.7477 237.314 48.787 237.406 48.8395 237.484C48.892 237.562 48.9564 237.624 49.0282 237.665C49.1 237.706 49.1775 237.725 49.2553 237.721C50.5573 237.689 51.1913 237.584 52.8321 237.584C53.8436 237.584 58.1561 237.728 59.5306 237.728C60.9052 237.728 60.9826 235.851 60.426 235.687C57.8221 234.925 54.618 233.875 53.7226 232.871C53.5646 232.684 53.3615 232.581 53.1515 232.582Z" fill="#263238"/>
<path opacity="0.2" d="M50.7166 222.658H54.0466L53.4754 228.047H50.1455L50.7166 222.658Z" fill="black"/>
<path d="M65.7542 118.32C65.7542 118.32 63.8472 152.804 62.4726 165.727C60.9722 179.871 54.9852 226.767 54.9852 226.767H48.8916C48.8916 226.767 52.0231 181.033 52.5603 167.04C53.1411 151.839 54.2688 118.353 54.2688 118.353L65.7542 118.32Z" fill="#263238"/>
<path d="M48.6452 226.747H55.2324L55.7987 223.61L48.5 224.096L48.6452 226.747Z" fill="#263238"/>
<path d="M54.279 233.37C53.9833 233.361 53.6893 233.306 53.403 233.206C53.3888 233.203 53.3758 233.193 53.3661 233.179C53.3565 233.165 53.3507 233.146 53.3497 233.127C53.347 233.106 53.3493 233.085 53.3563 233.066C53.3633 233.047 53.3746 233.032 53.3885 233.022C53.4998 232.917 54.4968 232.044 54.8889 232.261C54.9341 232.286 54.9733 232.327 55.0024 232.38C55.0314 232.434 55.0491 232.497 55.0534 232.563C55.0659 232.666 55.0602 232.771 55.0366 232.87C55.013 232.97 54.9723 233.06 54.9179 233.134C54.732 233.312 54.5058 233.395 54.279 233.37ZM53.6256 233.055C54.2113 233.219 54.6517 233.193 54.8163 232.983C54.8524 232.935 54.8789 232.876 54.8933 232.81C54.9077 232.745 54.9095 232.675 54.8985 232.609C54.8971 232.576 54.889 232.545 54.8754 232.518C54.8617 232.492 54.843 232.471 54.8211 232.458C54.6081 232.339 54.0322 232.72 53.6111 233.055H53.6256Z" fill="#FF9519"/>
<path d="M53.4175 233.212H53.3836C53.3727 233.204 53.3637 233.191 53.3577 233.176C53.3517 233.161 53.349 233.144 53.3497 233.127C53.3497 233.074 53.3497 231.775 53.7224 231.335C53.7675 231.279 53.8213 231.236 53.8799 231.212C53.9385 231.187 54.0004 231.179 54.0612 231.191C54.1252 231.193 54.1865 231.226 54.2344 231.283C54.2822 231.341 54.3135 231.42 54.3226 231.506C54.3661 231.998 53.8095 232.943 53.4611 233.212H53.4175ZM53.9935 231.381C53.929 231.382 53.867 231.414 53.8192 231.473C53.6098 231.898 53.5017 232.4 53.5095 232.91C53.8192 232.576 54.1967 231.86 54.1677 231.539C54.1677 231.473 54.1387 231.401 54.0273 231.388L53.9935 231.381Z" fill="#FF9519"/>
<path d="M71.7805 118.549H53.979C53.8531 116.39 54.221 109.361 53.9499 100.454C53.782 93.8333 53.1893 87.245 52.1785 80.7638C52.101 80.2781 52.0188 79.7989 51.9316 79.3133C51.9316 79.3133 52.8367 79.0638 54.129 78.8079C55.2035 78.5913 56.549 78.3747 57.8703 78.2894C60.3883 78.0956 62.9124 78.0956 65.4304 78.2894C66.592 78.4338 67.7294 78.6963 68.6345 78.9457C69.7961 79.2607 70.4785 79.5364 70.4785 79.5364C70.4785 79.5364 74.8636 93.1686 71.7805 118.549Z" fill="#263238"/>
<path opacity="0.5" d="M71.7805 118.549H53.979C53.8531 116.39 54.221 109.361 53.9499 100.454C53.782 93.8333 53.1893 87.245 52.1785 80.7638C52.101 80.2781 52.0188 79.7989 51.9316 79.3133C51.9316 79.3133 52.8367 79.0638 54.129 78.8079C55.2035 78.5913 56.549 78.3747 57.8703 78.2894C60.3883 78.0956 62.9124 78.0956 65.4304 78.2894C66.592 78.4338 67.7294 78.6963 68.6345 78.9457C69.7961 79.2607 70.4785 79.5364 70.4785 79.5364C70.4785 79.5364 74.8636 93.1686 71.7805 118.549Z" fill="white"/>
<path d="M60.5031 84.2621L62.3714 81.0723L62.8118 80.2978L63.8089 81.0198L66.195 83.4811C68.131 81.2758 67.163 79.3002 66.7709 78.5126C66.3353 78.4272 65.8852 78.3485 65.4254 78.2894C62.9058 78.0956 60.3801 78.0956 57.8605 78.2894C57.3136 78.2894 56.757 78.3813 56.2197 78.4535C56.6058 79.7651 57.1847 80.9564 57.921 81.955C58.6574 82.9536 59.5359 83.7386 60.5031 84.2621Z" fill="#263238"/>
<path opacity="0.7" d="M60.5031 84.2621L62.3714 81.0723L62.8118 80.2978L63.8089 81.0198L66.195 83.4811C68.131 81.2758 67.163 79.3002 66.7709 78.5126C66.3353 78.4272 65.8852 78.3485 65.4254 78.2894C62.9058 78.0956 60.3801 78.0956 57.8605 78.2894C57.3136 78.2894 56.757 78.3813 56.2197 78.4535C56.6058 79.7651 57.1847 80.9564 57.921 81.955C58.6574 82.9536 59.5359 83.7386 60.5031 84.2621Z" fill="white"/>
<path d="M58.03 66.7837L60.0531 69.0612L62.8119 72.1657C62.7295 72.6635 62.6697 73.1676 62.6328 73.6753C62.4876 75.7034 62.8748 77.5477 65.0528 78.2697C65.0528 78.2697 67.6616 80.6128 63.7896 81.0394C63.7772 81.6105 63.7122 82.1771 63.596 82.7263C63.2557 82.0863 62.8346 81.533 62.3521 81.092C58.1171 80.9935 57.5557 78.3353 57.5557 78.3353C59.2255 76.1103 58.5914 70.0917 58.03 66.7837Z" fill="#CE7A63"/>
<path opacity="0.2" d="M62.8071 72.1657C62.7247 72.6634 62.6649 73.1676 62.628 73.6752C61.602 73.393 60.208 71.9097 60.087 70.4854C60.0351 70.0141 60.0221 69.5364 60.0483 69.0612L62.8071 72.1657Z" fill="black"/>
<path d="M57.1926 62.0318C57.8992 66.4161 58.1606 69.0284 60.0579 71.0302C60.674 71.6888 61.411 72.1067 62.1895 72.2388C62.9679 72.371 63.7582 72.2123 64.475 71.78C65.1918 71.3477 65.808 70.6581 66.2569 69.7857C66.7059 68.9133 66.9707 67.8912 67.0226 66.8296C67.2743 62.7406 66.0546 56.2494 62.6666 55.0155C61.9353 54.7227 61.1602 54.6953 60.4186 54.9361C59.6771 55.177 58.9951 55.6775 58.441 56.3878C57.8868 57.0981 57.4799 57.9932 57.2608 58.9836C57.0417 59.9741 57.0182 61.0251 57.1926 62.0318Z" fill="#CE7A63"/>
<path d="M61.4562 63.607C61.4949 63.968 61.674 64.2634 61.8482 64.2109C62.0225 64.1584 62.1289 63.8696 62.0854 63.5086C62.0418 63.1476 61.8724 62.8522 61.6982 62.9048C61.5239 62.9573 61.4175 63.2461 61.4562 63.607Z" fill="#263238"/>
<path d="M64.4669 63.1344C64.5105 63.4954 64.6847 63.7907 64.859 63.7382C65.0332 63.6857 65.1397 63.3969 65.101 63.0359C65.0622 62.675 64.8832 62.3796 64.7089 62.4321C64.5347 62.4846 64.4282 62.7603 64.4669 63.1344Z" fill="#263238"/>
<path d="M63.9541 63.4559C64.3978 64.5078 64.9431 65.4746 65.5755 66.3307C65.4109 66.536 65.215 66.6894 65.0017 66.7802C64.7883 66.871 64.5628 66.8968 64.3413 66.8558L63.9541 63.4559Z" fill="#BA4D3C"/>
<path d="M63.7265 68.1685C63.4149 68.1756 63.1055 68.096 62.8175 67.9345C62.5295 67.7731 62.2689 67.5333 62.0519 67.2299C62.0442 67.2198 62.0381 67.2076 62.0341 67.1942C62.03 67.1808 62.0281 67.1663 62.0283 67.1518C62.0286 67.1373 62.0311 67.123 62.0356 67.1099C62.0402 67.0967 62.0467 67.085 62.0548 67.0754C62.0628 67.0659 62.0723 67.0587 62.0825 67.0543C62.0927 67.0499 62.1035 67.0485 62.1141 67.0501C62.1247 67.0516 62.135 67.0562 62.1443 67.0634C62.1536 67.0706 62.1617 67.0804 62.1681 67.0921C62.4084 67.4144 62.7 67.6577 63.0205 67.8033C63.3411 67.949 63.6819 67.993 64.0169 67.9322C64.0271 67.9322 64.0372 67.9349 64.0466 67.9402C64.056 67.9455 64.0645 67.9532 64.0717 67.9629C64.0789 67.9727 64.0846 67.9843 64.0885 67.997C64.0924 68.0098 64.0944 68.0234 64.0944 68.0372C64.0944 68.051 64.0924 68.0647 64.0885 68.0774C64.0846 68.0901 64.0789 68.1017 64.0717 68.1115C64.0645 68.1212 64.056 68.129 64.0466 68.1342C64.0372 68.1395 64.0271 68.1422 64.0169 68.1422C63.9206 68.1592 63.8236 68.168 63.7265 68.1685Z" fill="#263238"/>
<path d="M60.7982 62.478C60.7729 62.4879 60.746 62.4879 60.7207 62.478C60.6847 62.4503 60.6579 62.4047 60.6462 62.3509C60.6345 62.297 60.6386 62.239 60.6578 62.1892C60.774 61.8911 60.9425 61.6364 61.1485 61.4476C61.3544 61.2587 61.5915 61.1415 61.8388 61.1063C61.8595 61.1045 61.8803 61.1084 61.8999 61.1177C61.9195 61.1271 61.9375 61.1417 61.9529 61.1607C61.9682 61.1796 61.9806 61.2026 61.9893 61.2282C61.9979 61.2538 62.0027 61.2816 62.0033 61.3097C62.0046 61.3378 62.0017 61.366 61.9949 61.3926C61.988 61.4192 61.9772 61.4436 61.9632 61.4644C61.9492 61.4853 61.9322 61.5021 61.9134 61.5138C61.8945 61.5256 61.874 61.532 61.8533 61.5329C61.66 61.5638 61.4751 61.6583 61.3149 61.8082C61.1546 61.958 61.0238 62.1587 60.9337 62.3927C60.9182 62.4212 60.8977 62.444 60.874 62.459C60.8503 62.4739 60.8242 62.4804 60.7982 62.478Z" fill="#263238"/>
<path d="M66.026 61.5133C66.0005 61.5123 65.9755 61.5035 65.9529 61.4876C65.9303 61.4717 65.9106 61.449 65.8953 61.4214C65.7894 61.1958 65.6474 61.0054 65.4798 60.8645C65.3122 60.7236 65.1234 60.6358 64.9273 60.6075C64.8853 60.6058 64.8454 60.5825 64.8157 60.5422C64.786 60.502 64.7688 60.4478 64.7676 60.3909C64.7676 60.3335 64.7844 60.2784 64.8144 60.2378C64.8443 60.1971 64.8849 60.1743 64.9273 60.1743C65.1793 60.1986 65.4237 60.302 65.6413 60.4762C65.8588 60.6505 66.0435 60.8909 66.1809 61.1785C66.204 61.226 66.213 61.2838 66.2058 61.3399C66.1986 61.396 66.1758 61.4463 66.1421 61.4804C66.1253 61.496 66.1064 61.5069 66.0865 61.5125C66.0665 61.5182 66.046 61.5184 66.026 61.5133Z" fill="#263238"/>
<path d="M56.3168 78.1909C56.3996 78.1755 56.4838 78.1919 56.56 78.2384C56.6362 78.2848 56.7012 78.3593 56.7476 78.4535C58.0496 81.1576 67.2117 100.441 67.6618 108.225C67.8361 111.238 65.9291 118.024 64.7143 122.008C64.4475 122.876 63.9739 123.597 63.3694 124.056C62.7649 124.515 62.0642 124.686 61.3795 124.542L54.2744 123.032C54.1185 122.999 53.9692 122.924 53.8354 122.811C53.7016 122.697 53.586 122.549 53.4956 122.373C53.4052 122.198 53.3418 122 53.3093 121.79C53.2768 121.581 53.2758 121.365 53.3064 121.155C53.5681 119.231 53.6913 117.277 53.6742 115.32C53.6742 110.266 53.4661 96.6998 53.4661 96.6998C53.4661 96.6998 56.3701 89.0928 52.9047 79.6349C52.8741 79.5498 52.859 79.456 52.8604 79.3614C52.8619 79.2668 52.8799 79.174 52.913 79.0907C52.9461 79.0073 52.9933 78.9358 53.0508 78.8821C53.1082 78.8284 53.1743 78.794 53.2434 78.7816L56.3168 78.1909Z" fill="#FF9519"/>
<path opacity="0.1" d="M67.6474 108.225C67.4345 104.543 65.271 98.288 62.9139 92.4335C61.8104 98.5965 60.8763 105.193 61.1425 108.711C61.3554 111.54 63.4366 117.414 64.9128 121.293C66.1374 117.269 67.8265 111.047 67.6474 108.225Z" fill="black"/>
<path opacity="0.6" d="M65.7596 100.08C65.4546 99.1611 65.1255 98.216 64.7915 97.2577C63.2379 97.3233 61.7133 97.3365 60.2855 97.3168C59.4555 90.7199 57.9485 84.3131 55.8085 78.2828L53.5918 78.7029C55.7314 84.5705 57.2468 90.8198 58.093 97.2643C56.157 97.1986 54.5065 97.0936 53.4805 97.0148C53.4805 97.5137 53.5047 98.5441 53.524 99.8831C54.6517 99.975 56.3796 100.087 58.4366 100.146C59.2748 107.998 59.1341 115.985 58.0204 123.774L60.1064 124.22C61.2388 116.29 61.4024 108.161 60.5904 100.159H61.3551C62.7733 100.198 64.2592 100.165 65.7596 100.08Z" fill="white"/>
<path d="M67.2887 78.2697C67.2336 78.2535 67.1764 78.2548 67.1216 78.2733C67.0669 78.2919 67.016 78.3273 66.973 78.3768C66.9299 78.4263 66.8958 78.4885 66.8734 78.5587C66.8509 78.629 66.8407 78.7052 66.8434 78.7817C66.8943 81.7954 66.627 84.8034 66.0497 87.7145C64.6316 94.9343 61.7856 104.267 62.1244 108.717C62.3471 111.697 64.6461 118.057 66.1223 121.897C66.4611 122.778 67.0203 123.467 67.6997 123.84C68.3791 124.213 69.1343 124.245 69.8297 123.931L71.8674 123.013C72.1319 122.893 72.3564 122.65 72.5009 122.326C72.6454 122.003 72.7005 121.62 72.6563 121.247C72.4869 119.698 72.3562 116.653 72.8789 111.264C73.7114 102.686 72.8789 91.5738 72.8789 91.5738C71.6997 87.7273 70.9163 83.6791 70.5509 79.543C70.54 79.4387 70.5059 79.3414 70.4531 79.264C70.4004 79.1866 70.3315 79.1328 70.2557 79.1098L67.2887 78.2697Z" fill="#FF9519"/>
<path opacity="0.6" d="M73.2125 99.1151C73.2125 98.3472 73.1738 97.6121 73.1496 96.923C73.1496 96.6932 73.1496 96.4635 73.1254 96.2666C72.4865 96.4176 71.8138 96.5488 71.1265 96.6604C70.91 90.7396 70.4689 84.8379 69.8052 78.9786L67.5836 78.3682C68.3326 84.5207 68.8174 90.727 69.0356 96.9558C67.3416 97.1461 65.5944 97.2577 63.8859 97.3036C63.6584 98.2881 63.4406 99.2727 63.2373 100.198C65.1733 100.152 67.1867 100.041 69.1421 99.8174C69.1953 101.366 69.2437 102.988 69.2825 104.694C69.4954 114.625 69.4857 120.637 69.4228 124.082C69.5638 124.05 69.7029 124.004 69.8391 123.945L71.5476 123.177C71.596 119.554 71.5863 113.725 71.3879 104.609C71.3491 102.823 71.3007 101.137 71.2475 99.5286C71.9203 99.4171 72.5833 99.2924 73.2222 99.148L73.2125 99.1151Z" fill="white"/>
<path d="M59.1039 110.352C58.2278 109.505 55.0334 110.312 53.6444 110.719C53.6444 112.524 53.6734 114.145 53.6734 115.314C53.6734 116.141 53.6734 116.889 53.625 117.571C54.985 117.946 58.1407 118.707 59.1039 117.959C60.5559 116.83 60.43 111.638 59.1039 110.352Z" fill="#FF9519"/>
<path opacity="0.2" d="M59.1039 110.352C58.2278 109.505 55.0334 110.312 53.6444 110.719C53.6444 112.524 53.6734 114.145 53.6734 115.314C53.6734 116.141 53.6734 116.889 53.625 117.571C54.985 117.946 58.1407 118.707 59.1039 117.959C60.5559 116.83 60.43 111.638 59.1039 110.352Z" fill="black"/>
<path d="M65.0813 115.839C63.0946 115.87 61.1095 115.673 59.1475 115.248L59.4524 112.997C63.3268 113.757 67.2617 113.757 71.1361 112.997L71.3636 115.261C69.2817 115.648 67.1827 115.841 65.0813 115.839Z" fill="#FF9519"/>
<g opacity="0.2">
<path d="M65.0813 115.839C63.0946 115.87 61.1095 115.673 59.1475 115.248L59.4524 112.997C63.3268 113.757 67.2617 113.757 71.1361 112.997L71.3636 115.261C69.2817 115.648 67.1827 115.841 65.0813 115.839Z" fill="black"/>
</g>
<path d="M72.9709 110.089C72.0901 109.918 71.2479 109.912 70.8946 110.352C69.8588 111.664 69.762 116.83 70.8946 117.952C71.388 118.28 71.9449 118.391 72.4869 118.267C72.4915 115.933 72.616 113.601 72.8596 111.29L72.9709 110.089Z" fill="#FF9519"/>
<path opacity="0.2" d="M72.9709 110.089C72.0901 109.918 71.2479 109.912 70.8946 110.352C69.8588 111.664 69.762 116.83 70.8946 117.952C71.388 118.28 71.9449 118.391 72.4869 118.267C72.4915 115.933 72.616 113.601 72.8596 111.29L72.9709 110.089Z" fill="black"/>
<path d="M57.26 60.2532C57.26 60.2532 54.3076 61.4608 55.4305 63.0754C55.4305 63.0754 54.3464 64.2897 55.3966 65.4514C55.3966 65.4514 54.8013 67.5386 56.5244 67.4204C56.5244 67.4204 56.4421 69.8883 57.7586 69.035C57.7586 69.035 58.107 69.9539 58.8234 69.2122C59.5397 68.4706 58.6588 65.9305 58.6588 65.9305C58.6588 65.9305 59.9172 65.1889 59.501 63.6202C59.501 63.6202 60.6045 62.9639 60.0382 60.9948C60.0382 60.9948 60.953 59.9119 60.6384 59.1505L57.26 60.2532Z" fill="#263238"/>
<path d="M56.4471 66.6064C56.9707 67.4656 57.6976 68.0523 58.5041 68.267C59.5254 68.5033 59.7528 67.2168 59.235 65.9829C58.751 64.8671 57.6716 63.4035 56.7617 63.7251C55.8518 64.0467 55.7889 65.53 56.4471 66.6064Z" fill="#CE7A63"/>
<path d="M66.2722 56.7417L56.3357 60.5944C56.3357 60.5944 54.7336 53.9916 59.5059 52.4427C64.0506 50.9659 66.2722 56.7417 66.2722 56.7417Z" fill="#FF9519"/>
<path d="M60.1208 55.9802L56.152 57.5292C56.097 57.5491 56.0392 57.549 55.9843 57.529C55.9294 57.509 55.8793 57.4698 55.8391 57.4152C55.7989 57.3607 55.77 57.2928 55.7552 57.2184C55.7405 57.1439 55.7404 57.0655 55.7551 56.991L56.0164 55.6783C56.0338 55.5925 56.0698 55.5158 56.12 55.4584C56.1701 55.401 56.2319 55.3655 56.2972 55.3567L60.0191 54.8513C60.0558 54.8458 60.0929 54.8508 60.1281 54.8661C60.1632 54.8814 60.1956 54.9066 60.223 54.9401C60.2504 54.9736 60.2723 55.0146 60.2873 55.0604C60.3022 55.1061 60.3098 55.1557 60.3095 55.2057V55.6258C60.3118 55.705 60.2945 55.7829 60.2602 55.8472C60.226 55.9114 60.1769 55.9583 60.1208 55.9802Z" fill="#FF9519"/>
<path opacity="0.2" d="M60.1208 55.9802L56.152 57.5292C56.097 57.5491 56.0392 57.549 55.9843 57.529C55.9294 57.509 55.8793 57.4698 55.8391 57.4152C55.7989 57.3607 55.77 57.2928 55.7552 57.2184C55.7405 57.1439 55.7404 57.0655 55.7551 56.991L56.0164 55.6783C56.0338 55.5925 56.0698 55.5158 56.12 55.4584C56.1701 55.401 56.2319 55.3655 56.2972 55.3567L60.0191 54.8513C60.0558 54.8458 60.0929 54.8508 60.1281 54.8661C60.1632 54.8814 60.1956 54.9066 60.223 54.9401C60.2504 54.9736 60.2723 55.0146 60.2873 55.0604C60.3022 55.1061 60.3098 55.1557 60.3095 55.2057V55.6258C60.3118 55.705 60.2945 55.7829 60.2602 55.8472C60.226 55.9114 60.1769 55.9583 60.1208 55.9802Z" fill="white"/>
<path d="M64.6411 54.556L63.5956 54.7726C63.3703 54.8247 63.1389 54.754 62.9519 54.5757C62.1885 53.8179 61.2873 53.3563 60.345 53.2407C59.4027 53.1251 58.455 53.3597 57.6037 53.9194C57.5838 53.9359 57.5599 53.9411 57.5372 53.9337C57.5145 53.9263 57.4949 53.907 57.4827 53.88C57.4705 53.853 57.4667 53.8206 57.4722 53.7898C57.4776 53.759 57.4918 53.7325 57.5117 53.7159C58.654 52.4492 61.4515 50.2176 64.7717 53.8669C64.8182 53.9114 64.8536 53.9741 64.8732 54.0465C64.8928 54.119 64.8957 54.1978 64.8816 54.2726C64.8674 54.3473 64.8368 54.4144 64.7939 54.4651C64.7509 54.5157 64.6976 54.5474 64.6411 54.556Z" fill="#FF9519"/>
<path opacity="0.2" d="M64.6411 54.556L63.5956 54.7726C63.3703 54.8247 63.1389 54.754 62.9519 54.5757C62.1885 53.8179 61.2873 53.3563 60.345 53.2407C59.4027 53.1251 58.455 53.3597 57.6037 53.9194C57.5838 53.9359 57.5599 53.9411 57.5372 53.9337C57.5145 53.9263 57.4949 53.907 57.4827 53.88C57.4705 53.853 57.4667 53.8206 57.4722 53.7898C57.4776 53.759 57.4918 53.7325 57.5117 53.7159C58.654 52.4492 61.4515 50.2176 64.7717 53.8669C64.8182 53.9114 64.8536 53.9741 64.8732 54.0465C64.8928 54.119 64.8957 54.1978 64.8816 54.2726C64.8674 54.3473 64.8368 54.4144 64.7939 54.4651C64.7509 54.5157 64.6976 54.5474 64.6411 54.556Z" fill="white"/>
<path opacity="0.6" d="M65.8025 55.7637L63.3825 56.5513C63.3301 56.5696 63.2748 56.5642 63.2249 56.5357C63.1751 56.5072 63.1335 56.4574 63.1066 56.3937L62.9227 55.9606C62.9037 55.9133 62.8932 55.8607 62.8918 55.8069C62.8904 55.7531 62.8982 55.6997 62.9146 55.6507C62.931 55.6017 62.9556 55.5586 62.9864 55.5246C63.0172 55.4907 63.0533 55.4669 63.0921 55.4552L65.2168 54.8579C65.4249 55.1441 65.6204 55.4465 65.8025 55.7637Z" fill="white"/>
<path d="M66.1225 56.3937C66.1225 56.3937 69.8977 57.7064 66.2726 58.7959C63.5595 59.5427 60.8093 60.0144 58.0446 60.207L56.4038 60.8634C56.3216 60.896 56.2333 60.8833 56.1581 60.828C56.0828 60.7726 56.0267 60.6792 56.0021 60.568V60.4958C55.9889 60.4381 55.9845 60.3773 55.9891 60.3172C55.9937 60.2571 56.0073 60.1989 56.029 60.1461C56.0508 60.0933 56.0802 60.047 56.1155 60.0101C56.1508 59.9732 56.1912 59.9464 56.2344 59.9314L66.1225 56.3937Z" fill="#FF9519"/>
<path opacity="0.2" d="M66.1225 56.3937C66.1225 56.3937 69.8977 57.7064 66.2726 58.7959C63.5595 59.5427 60.8093 60.0144 58.0446 60.207L56.4038 60.8634C56.3216 60.896 56.2333 60.8833 56.1581 60.828C56.0828 60.7726 56.0267 60.6792 56.0021 60.568V60.4958C55.9889 60.4381 55.9845 60.3773 55.9891 60.3172C55.9937 60.2571 56.0073 60.1989 56.029 60.1461C56.0508 60.0933 56.0802 60.047 56.1155 60.0101C56.1508 59.9732 56.1912 59.9464 56.2344 59.9314L66.1225 56.3937Z" fill="white"/>
<path d="M72.8357 96.004H63.0105L58.0107 112.314L58.3205 112.675H68.1457L73.1406 96.365L72.8357 96.004Z" fill="#263238"/>
<path opacity="0.4" d="M72.8357 96.004H63.0105L58.0107 112.314L58.3205 112.675H68.1457L73.1406 96.365L72.8357 96.004Z" fill="white"/>
<path d="M68.1455 112.675H58.3203L63.32 96.365H73.1404L68.1455 112.675Z" fill="#263238"/>
<path d="M70.29 95.7677H66.5487L65.9775 97.6383L66.1034 97.7892H69.8447L70.4207 95.9187L70.29 95.7677Z" fill="#FF9519"/>
<path opacity="0.5" d="M70.29 95.7677H66.5487L65.9775 97.6383L66.1034 97.7892H69.8447L70.4207 95.9187L70.29 95.7677Z" fill="white"/>
<path d="M69.8448 97.7893L70.4208 95.9187H66.6795L66.1035 97.7893H69.8448Z" fill="#FF9519"/>
<path opacity="0.2" d="M69.8448 97.7893L70.4208 95.9187H66.6795L66.1035 97.7893H69.8448Z" fill="white"/>
<path d="M57.2744 104.543L60.4495 102.705L59.6509 108.422C59.6509 108.422 56.6259 109.361 56.3936 107.208L57.2744 104.543Z" fill="#CE7A63"/>
<path d="M63.3733 104.53L61.5438 109.229L59.6514 108.448L60.45 102.705L63.3733 104.53Z" fill="#CE7A63"/>
<path d="M49.7393 101.274H45.0203C44.983 102.194 45.0549 103.116 45.2333 104.005C45.272 104.182 45.3156 104.359 45.3688 104.55C45.4322 104.776 45.5083 104.995 45.5963 105.206C45.7525 105.59 45.9444 105.945 46.1674 106.263C46.5285 106.779 46.9525 107.208 47.421 107.529C48.1136 108.003 48.8541 108.334 49.6183 108.514C50.2577 108.673 50.9047 108.769 51.5543 108.803C53.9895 108.892 56.4226 108.543 58.7901 107.766L58.5288 104.399C56.3509 104.275 54.1812 103.959 52.0335 103.453C51.5527 103.323 51.0777 103.157 50.6105 102.955C50.2763 102.797 49.9525 102.602 49.6425 102.371C49.6401 102.003 49.6644 101.636 49.7151 101.274H49.7393Z" fill="#CE7A63"/>
</svg>
