<svg width="243" height="243" viewBox="0 0 243 243" fill="none" xmlns="http://www.w3.org/2000/svg">
<path d="M121.338 242.104C188.164 242.104 242.338 211.389 242.338 173.501C242.338 135.612 188.164 104.897 121.338 104.897C54.5114 104.897 0.337891 135.612 0.337891 173.501C0.337891 211.389 54.5114 242.104 121.338 242.104Z" fill="#F5F5F5"/>
<path d="M38.1524 182.066C46.0915 182.066 52.5274 178.417 52.5274 173.917C52.5274 169.416 46.0915 165.767 38.1524 165.767C30.2133 165.767 23.7773 169.416 23.7773 173.917C23.7773 178.417 30.2133 182.066 38.1524 182.066Z" fill="#E0E0E0"/>
<path d="M79.0769 209.153C92.5516 209.153 103.475 202.96 103.475 195.32C103.475 187.68 92.5516 181.487 79.0769 181.487C65.6021 181.487 54.6787 187.68 54.6787 195.32C54.6787 202.96 65.6021 209.153 79.0769 209.153Z" fill="#E0E0E0"/>
<path d="M147.476 169.692C160.951 169.692 171.874 163.498 171.874 155.858C171.874 148.218 160.951 142.025 147.476 142.025C134.002 142.025 123.078 148.218 123.078 155.858C123.078 163.498 134.002 169.692 147.476 169.692Z" fill="#E0E0E0"/>
<path d="M173.457 180.87C184.764 180.87 193.93 175.672 193.93 169.26C193.93 162.848 184.764 157.65 173.457 157.65C162.15 157.65 152.983 162.848 152.983 169.26C152.983 175.672 162.15 180.87 173.457 180.87Z" fill="#E0E0E0"/>
<path d="M199.426 199.555C212.9 199.555 223.824 193.362 223.824 185.722C223.824 178.082 212.9 171.889 199.426 171.889C185.951 171.889 175.027 178.082 175.027 185.722C175.027 193.362 185.951 199.555 199.426 199.555Z" fill="#E0E0E0"/>
<path d="M106.837 142.873C118.144 142.873 127.31 137.675 127.31 131.263C127.31 124.851 118.144 119.652 106.837 119.652C95.5295 119.652 86.3633 124.851 86.3633 131.263C86.3633 137.675 95.5295 142.873 106.837 142.873Z" fill="#E0E0E0"/>
<path d="M116.838 136.051C111.315 139.122 102.359 139.122 96.8359 136.051C91.3125 132.98 91.3125 128.007 96.8359 124.936C102.359 121.865 111.315 121.87 116.838 124.936C122.362 128.002 122.362 132.985 116.838 136.051Z" fill="#FF9519"/>
<path opacity="0.4" d="M116.838 136.051C111.315 139.122 102.359 139.122 96.8359 136.051C91.3125 132.98 91.3125 128.007 96.8359 124.936C102.359 121.865 111.315 121.87 116.838 124.936C122.362 128.002 122.362 132.985 116.838 136.051Z" fill="black"/>
<path d="M116.838 136.051C111.315 139.123 102.359 139.123 96.8357 136.051C94.0986 134.518 92.6973 132.506 92.6973 130.494V132.143C92.7465 134.118 94.126 136.083 96.8302 137.584C102.354 140.655 111.309 140.655 116.833 137.584C119.663 136.004 121.037 133.944 120.971 131.89V130.636C120.911 132.601 119.537 134.555 116.838 136.051Z" fill="#FF9519"/>
<path opacity="0.6" d="M116.838 136.051C111.315 139.123 102.359 139.123 96.8357 136.051C94.0986 134.518 92.6973 132.506 92.6973 130.494V132.143C92.7465 134.118 94.126 136.083 96.8302 137.584C102.354 140.655 111.309 140.655 116.833 137.584C119.663 136.004 121.037 133.944 120.971 131.89V130.636C120.911 132.601 119.537 134.555 116.838 136.051Z" fill="black"/>
<path d="M104.932 79.3586V129.472C104.932 131.832 108.764 131.832 108.764 129.472V79.3586C108.764 76.9986 104.932 76.9934 104.932 79.3586Z" fill="#FF9519"/>
<path d="M102.402 71.6676V82.8144C102.402 83.4465 102.835 84.0734 103.7 84.5581C104.673 85.0333 105.748 85.2809 106.839 85.2809C107.93 85.2809 109.006 85.0333 109.979 84.5581C110.843 84.0734 111.276 83.4465 111.276 82.8144V71.6676H102.402Z" fill="#FF9519"/>
<path opacity="0.7" d="M102.402 71.6676V82.8144C102.402 83.4465 102.835 84.0734 103.7 84.5581C104.673 85.0333 105.748 85.2809 106.839 85.2809C107.93 85.2809 109.006 85.0333 109.979 84.5581C110.843 84.0734 111.276 83.4465 111.276 82.8144V71.6676H102.402Z" fill="black"/>
<path d="M106.837 72.0679C121.182 72.0679 132.812 65.6056 132.812 57.634C132.812 49.6624 121.182 43.2001 106.837 43.2001C92.4916 43.2001 80.8623 49.6624 80.8623 57.634C80.8623 65.6056 92.4916 72.0679 106.837 72.0679Z" fill="#FF9519"/>
<path opacity="0.4" d="M106.837 72.0679C121.182 72.0679 132.812 65.6056 132.812 57.634C132.812 49.6624 121.182 43.2001 106.837 43.2001C92.4916 43.2001 80.8623 49.6624 80.8623 57.634C80.8623 65.6056 92.4916 72.0679 106.837 72.0679Z" fill="black"/>
<path d="M125.208 67.8378C115.065 73.4744 98.6149 73.4744 88.4713 67.8378C83.3968 65.0195 80.8623 61.3267 80.8623 57.6287V60.663C80.9554 64.282 83.4844 67.8905 88.4604 70.6719C98.6039 76.3085 115.054 76.3085 125.197 70.6719C130.387 67.7904 132.916 63.987 132.795 60.2099V57.9131C132.691 61.5163 130.162 65.088 125.208 67.8378Z" fill="#FF9519"/>
<path opacity="0.6" d="M125.208 67.8378C115.065 73.4744 98.6149 73.4744 88.4713 67.8378C83.3968 65.0195 80.8623 61.3267 80.8623 57.6287V60.663C80.9554 64.282 83.4844 67.8905 88.4604 70.6719C98.6039 76.3085 115.054 76.3085 125.197 70.6719C130.387 67.7904 132.916 63.987 132.795 60.2099V57.9131C132.691 61.5163 130.162 65.088 125.208 67.8378Z" fill="black"/>
<path d="M38.8387 156.18C38.8387 156.18 30.8684 148.694 35.401 136.162C37.9464 129.129 46.3492 123.967 51.1664 123.482C49.5766 125.298 48.3096 127.353 47.4167 129.567L41.3951 133.428L46.9514 131.758L45.7471 136.32C45.7471 136.32 40.5795 139.328 39.8131 139.981L45.3858 138.58C45.3858 138.58 44.9861 151.528 38.8387 156.18Z" fill="#FF9519"/>
<path opacity="0.4" d="M38.8387 156.18C38.8387 156.18 30.8684 148.694 35.401 136.162C37.9464 129.129 46.3492 123.967 51.1664 123.482C49.5766 125.298 48.3096 127.353 47.4167 129.567L41.3951 133.428L46.9514 131.758L45.7471 136.32C45.7471 136.32 40.5795 139.328 39.8131 139.981L45.3858 138.58C45.3858 138.58 44.9861 151.528 38.8387 156.18Z" fill="black"/>
<path d="M38.8383 156.18C38.8383 156.18 34.7108 140.508 40.8145 131.368C40.8145 131.368 33.6598 139.433 38.8383 156.18Z" fill="white"/>
<path d="M47.9577 158.303L38.2083 158.187H38.1042L28.3548 158.303C28.3548 158.303 28.2453 169.866 31.9459 174.57C32.9695 175.818 35.3617 176.677 38.1535 176.677C40.9453 176.677 43.3539 175.792 44.3721 174.538C48.0671 169.855 47.9577 158.303 47.9577 158.303Z" fill="#37474F"/>
<path d="M38.1541 163.365C43.5658 163.365 47.9528 161.099 47.9528 158.303C47.9528 155.507 43.5658 153.24 38.1541 153.24C32.7425 153.24 28.3555 155.507 28.3555 158.303C28.3555 161.099 32.7425 163.365 38.1541 163.365Z" fill="#455A64"/>
<path d="M38.1542 156.959C41.5262 156.959 44.3837 158.013 45.3909 159.441C45.6378 159.108 45.7734 158.711 45.7796 158.303C45.7796 156.306 42.3692 154.684 38.1542 154.684C33.9391 154.684 30.5342 156.306 30.5342 158.303C30.5404 158.711 30.676 159.108 30.9228 159.441C31.9301 158.002 34.7821 156.959 38.1542 156.959Z" fill="#263238"/>
<path d="M38.1542 156.959C34.7821 156.959 31.9301 158.013 30.9229 159.441C31.9301 160.884 34.7547 161.927 38.1542 161.927C41.5536 161.927 44.3837 160.874 45.391 159.441C44.3837 158.003 41.5262 156.959 38.1542 156.959Z" fill="#E0E0E0"/>
<path d="M38.2743 160.067C38.2743 160.067 34.4972 159.925 31.2565 155.1C29.9208 153.109 29.2803 152.06 29.2803 152.06L34.5409 151.686L28.6453 150.269L25.859 146.166L30.7857 145.818C30.7857 145.818 27.1345 144.585 24.5342 144.569C24.5342 144.569 20.0181 136.894 18.6934 135.798C22.1035 136.005 25.4363 136.866 28.4954 138.33C31.5546 139.795 34.2783 141.834 36.5062 144.327C43.9291 152.777 39.3801 160.283 38.2743 160.067Z" fill="#FF9519"/>
<path d="M38.2744 160.067C38.2744 160.067 40.6392 146.371 25.5635 138.137C25.5635 138.137 41.2085 145.37 38.2744 160.067Z" fill="white"/>
<path d="M38.274 160.067C38.274 160.067 41.6953 160.283 45.0948 156.222C46.4961 154.547 47.1749 153.662 47.1749 153.662L42.4672 152.845L47.9413 152.097L50.8535 148.652L46.4742 147.888C46.4742 147.888 49.8846 147.114 52.233 147.361C52.233 147.361 57.0557 140.845 58.3585 139.986C55.2575 139.86 52.1615 140.333 49.2534 141.377C46.3454 142.421 43.6842 144.015 41.4271 146.065C33.8892 152.977 37.2613 160.162 38.274 160.067Z" fill="#FF9519"/>
<path opacity="0.2" d="M38.274 160.067C38.274 160.067 41.6953 160.283 45.0948 156.222C46.4961 154.547 47.1749 153.662 47.1749 153.662L42.4672 152.845L47.9413 152.097L50.8535 148.652L46.4742 147.888C46.4742 147.888 49.8846 147.114 52.233 147.361C52.233 147.361 57.0557 140.845 58.3585 139.986C55.2575 139.86 52.1615 140.333 49.2534 141.377C46.3454 142.421 43.6842 144.015 41.4271 146.065C33.8892 152.977 37.2613 160.162 38.274 160.067Z" fill="black"/>
<path d="M38.2747 160.067C38.2747 160.067 37.4864 147.498 51.8943 141.435C51.8943 141.435 37.0704 146.545 38.2747 160.067Z" fill="white"/>
<path d="M150.006 146.856C150.006 146.856 149.032 147.383 148.851 149.379C148.67 151.376 146.804 155.116 151.26 155.284C155.716 155.453 155.092 155.658 156.92 156.364C158.748 157.07 162.668 158.65 165.799 156.522C168.93 154.394 165.317 153.261 164.014 152.835C162.712 152.408 159.367 151.175 157.445 149.758C155.524 148.341 155.256 147.888 155.256 147.888L150.006 146.856Z" fill="#263238"/>
<path d="M135.631 151.844C135.631 151.844 134.864 152.055 134.826 153.53C134.787 155.005 133.583 157.218 135.225 158.566C136.868 159.915 137.114 159.725 138.11 161.764C139.107 163.802 141.395 166.568 146.174 165.551C150.953 164.535 147.942 161.774 147.531 161.369C147.121 160.963 142.468 156.517 141.953 155.047C141.678 154.238 141.33 153.454 140.913 152.703L135.631 151.844Z" fill="#263238"/>
<path d="M135.604 150.016V152.724C135.604 152.724 135.943 154.004 138.565 154.004C139.966 154.004 140.886 153.198 140.913 152.724V149.748L135.604 150.016Z" fill="#FFA8A7"/>
<path d="M149.957 145.16V147.872C149.957 147.872 150.296 149.147 152.913 149.147C154.32 149.147 155.24 148.341 155.261 147.867V144.891L149.957 145.16Z" fill="#FFA8A7"/>
<path d="M157.959 81.8187L159.979 113.178C160.074 114.657 160.015 116.141 159.804 117.609L155.649 146.624C155.649 146.624 152.31 148.052 149.491 145.797L147.849 122.618C147.714 120.654 147.997 118.684 148.681 116.829L149.321 115.075L143.491 83.9944L157.959 81.8187Z" fill="#455A64"/>
<path d="M153.964 90.0261C153.964 90.0261 152.978 93.7136 148.052 96.0262L147.061 103.017L144.926 91.6381L153.964 90.0261Z" fill="#37474F"/>
<path d="M155.562 83.083C155.562 83.083 156.258 89.0251 151.49 92.8654C150.171 93.9919 148.555 94.7481 146.82 95.0516L145.249 117.092L141.417 151.528C141.417 151.528 139.107 153.388 134.848 151.528L132.828 125.716C132.602 122.822 133.146 119.921 134.41 117.287L134.503 117.103C133.429 105.646 133.045 94.1397 133.354 82.6405L155.562 83.083Z" fill="#455A64"/>
<path d="M162.087 60.2784L163.817 63.5814C163.817 63.5814 171.568 66.2153 176.144 66.131L178.132 70.7668C174.457 71.0296 170.77 71.0683 167.09 70.8826C161.698 70.5508 160.899 70.4191 159.306 68.4489C157.713 66.4787 155.343 62.8597 155.343 62.8597L162.087 60.2784Z" fill="#FFA8A7"/>
<path d="M176.145 66.1311C176.564 65.8557 176.954 65.5416 177.311 65.1934C177.792 64.6982 178.077 64.1925 180.086 63.7184C181.383 63.4076 181.63 62.4278 182.33 62.7544C183.031 63.081 181.821 65.2935 180.431 65.6622C181.432 65.768 182.444 65.6378 183.381 65.2829C184.558 64.7087 186.409 63.9238 187.153 64.1714C187.897 64.419 188.007 68.3857 185.308 69.8765C182.609 71.3673 177.037 70.6667 177.037 70.6667L176.145 66.1311Z" fill="#FFA8A7"/>
<path d="M150.022 45.4179C151.237 45.1845 152.498 45.3336 153.618 45.843C154.738 46.3525 155.657 47.1952 156.241 48.2467L162.81 60.0414C162.81 60.0414 161.036 63.6236 155.343 63.8185L150.022 45.4179Z" fill="#FF9519"/>
<path opacity="0.2" d="M150.022 45.4179C151.237 45.1845 152.498 45.3336 153.618 45.843C154.738 46.3525 155.657 47.1952 156.241 48.2467L162.81 60.0414C162.81 60.0414 161.036 63.6236 155.343 63.8185L150.022 45.4179Z" fill="white"/>
<path d="M133.611 66.1153L131.651 70.9617L129.598 87.3553L124.672 88.8566C124.672 88.8566 124.256 78.9952 124.464 72.3683C124.519 70.5946 124.862 68.8402 125.482 67.1689L126.861 63.434L133.611 66.1153Z" fill="#FFA8A7"/>
<path d="M140.782 47.0983L134.564 48.8103L133.359 65.5253V82.63C133.359 82.63 137.224 85.8539 146.404 85.8539C150.621 85.7703 154.692 84.3521 157.987 81.8187V60.2785C157.987 58.3504 158.787 47.309 150.05 45.4178L148.556 45.7023L140.782 47.0983Z" fill="#FF9519"/>
<path opacity="0.5" d="M140.782 47.0983L134.564 48.8103L133.359 65.5253V82.63C133.359 82.63 137.224 85.8539 146.404 85.8539C150.621 85.7703 154.692 84.3521 157.987 81.8187V60.2785C157.987 58.3504 158.787 47.309 150.05 45.4178L148.556 45.7023L140.782 47.0983Z" fill="white"/>
<path d="M138.045 47.8199C138.045 47.8199 140.12 49.7954 138.626 55.3424C137.404 59.542 135.931 63.6701 134.214 67.7061C132.657 67.9892 131.051 67.8609 129.564 67.3349C128.078 66.8089 126.767 65.905 125.772 64.7192L130.19 52.9508C130.573 51.9412 131.198 51.0331 132.016 50.3006C132.833 49.5682 133.819 49.0322 134.892 48.7366L138.045 47.8199Z" fill="#FF9519"/>
<path opacity="0.2" d="M138.045 47.8199C138.045 47.8199 140.12 49.7954 138.626 55.3424C137.404 59.542 135.931 63.6701 134.214 67.7061C132.657 67.9892 131.051 67.8609 129.564 67.3349C128.078 66.8089 126.767 65.905 125.772 64.7192L130.19 52.9508C130.573 51.9412 131.198 51.0331 132.016 50.3006C132.833 49.5682 133.819 49.0322 134.892 48.7366L138.045 47.8199Z" fill="white"/>
<path d="M129.598 87.3552C129.857 87.7743 130.157 88.1677 130.496 88.53C130.978 89.0304 131.481 89.3307 131.848 91.2956C132.084 92.5599 133.085 92.8759 132.702 93.5134C132.319 94.1508 130.102 92.8601 129.806 91.4958C129.635 92.4532 129.706 93.4363 130.014 94.3615C130.534 95.5257 131.224 97.3536 130.923 98.049C130.622 98.7443 126.5 98.5758 125.126 95.905C123.752 93.2342 124.841 87.9136 124.841 87.9136L129.598 87.3552Z" fill="#FFA8A7"/>
<path d="M155.677 26.069C155.677 26.069 157.133 27.5018 157.133 31.2525C157.133 35.0033 153.92 38.2693 153.92 38.2693V26.2481L155.677 26.069Z" fill="#263238"/>
<path d="M155.677 27.0488C156.309 26.7017 156.843 26.212 157.234 25.6219C157.625 25.0318 157.861 24.359 157.922 23.6616C158.13 21.2647 156.668 22.1234 156.159 22.3341C155.65 22.5448 154.15 23.0716 154.15 23.0716C154.15 23.0716 155.54 21.6809 154.697 20.7537C154.084 20.0636 151.139 22.2287 147.406 22.6501C143.672 23.0716 140.103 23.04 139.058 26.2481C139.058 26.2481 135.456 26.9487 136.321 33.0226C137.186 39.0964 139.605 42.5995 140.744 42.5468L155.677 27.0488Z" fill="#263238"/>
<path d="M140.782 47.0983L144.034 49.079C144.754 49.5183 145.585 49.7594 146.437 49.7761C147.289 49.7929 148.13 49.5845 148.867 49.1738C149.155 49.0133 149.396 48.7851 149.566 48.5105C149.737 48.2359 149.833 47.924 149.844 47.6042C149.854 47.2844 149.781 46.9671 149.629 46.6823C149.477 46.3975 149.253 46.1545 148.977 45.9762L148.555 45.7023V37.063H140.782V47.0983Z" fill="#FFA8A7"/>
<path d="M148.527 45.7128C146.845 45.4856 145.27 44.7825 144.003 43.6927C142.736 42.6028 141.834 41.1755 141.411 39.5916V37.063H148.527V45.7128Z" fill="#F28F8F"/>
<path d="M150.34 24.8047C150.34 24.8047 157.735 25.0734 156.399 36.531C155.775 41.92 155.305 44.9016 150.52 44.9016C145.736 44.9016 138.658 41.4248 139.14 32.1745C139.621 22.9241 150.34 24.8047 150.34 24.8047Z" fill="#FFA8A7"/>
<path d="M151.084 34.25V38.2694L153.531 37.5477L151.084 34.25Z" fill="#F28F8F"/>
<path d="M147.51 34.9453C147.51 35.1079 147.56 35.2668 147.654 35.4019C147.748 35.537 147.881 35.6424 148.037 35.7046C148.193 35.7668 148.365 35.783 148.53 35.7513C148.696 35.7196 148.848 35.6414 148.968 35.5264C149.087 35.4115 149.168 35.2651 149.201 35.1057C149.234 34.9463 149.217 34.781 149.153 34.6309C149.088 34.4807 148.979 34.3523 148.838 34.262C148.698 34.1717 148.533 34.1236 148.364 34.1236C148.251 34.1229 148.14 34.1436 148.036 34.1847C147.932 34.2257 147.838 34.2862 147.758 34.3627C147.679 34.4391 147.616 34.53 147.573 34.63C147.531 34.73 147.509 34.8372 147.51 34.9453Z" fill="#263238"/>
<path d="M153.109 34.3711C153.108 34.5338 153.157 34.6932 153.251 34.8291C153.344 34.9649 153.477 35.0711 153.633 35.1341C153.789 35.1971 153.961 35.2141 154.127 35.183C154.293 35.1519 154.445 35.074 154.565 34.9593C154.685 34.8446 154.767 34.6982 154.8 34.5386C154.834 34.3791 154.817 34.2136 154.753 34.0631C154.688 33.9126 154.579 33.784 154.438 33.6934C154.298 33.6029 154.132 33.5546 153.963 33.5546C153.738 33.5546 153.521 33.6404 153.361 33.7934C153.201 33.9464 153.111 34.154 153.109 34.3711Z" fill="#263238"/>
<path d="M155.015 32.6697L153.373 31.7162C153.373 31.7162 154.014 31.0788 154.649 31.4633C154.828 31.6057 154.96 31.797 155.025 32.0121C155.09 32.2273 155.087 32.4564 155.015 32.6697Z" fill="#263238"/>
<path d="M147.898 32.3904L146.398 33.5652C146.398 33.5652 145.993 32.7697 146.584 32.3272C146.784 32.2093 147.017 32.1522 147.251 32.1635C147.486 32.1748 147.711 32.2539 147.898 32.3904Z" fill="#263238"/>
<path d="M150.696 40.1815C150.696 40.1815 147.663 39.4282 148.402 39.5915C148.402 39.5915 148.249 40.7557 149.262 40.977C149.559 41.0238 149.865 40.9702 150.126 40.8253C150.387 40.6803 150.589 40.4529 150.696 40.1815Z" fill="#F28F8F"/>
<path d="M155.677 27.0489C155.677 27.0489 153.318 29.156 147.269 28.7399C141.22 28.3237 141.74 29.9093 142.424 32.6433C142.878 34.5187 142.917 39.4916 141.411 37.0631H138.417V31.3053C138.417 29.3493 139.224 27.4735 140.662 26.0904C142.099 24.7073 144.048 23.9303 146.081 23.9303H152.272L155.677 27.0489Z" fill="#263238"/>
<path d="M141.461 36.7575C141.461 36.7575 141.16 34.0024 139.173 33.9497C136.983 33.8918 136.693 35.9146 136.72 36.631C136.803 38.5222 138.39 40.5661 141.352 40.6452L141.461 36.7575Z" fill="#FFA8A7"/>
<path d="M139.074 26.248C139.074 26.248 137.541 24.2937 138.527 23.4824C139.512 22.6712 139.961 26.0321 139.961 26.0321L139.074 26.248Z" fill="#263238"/>
<path d="M139.2 26.8961C139.2 26.8961 136.655 26.8645 136.595 25.6213C136.534 24.3781 139.567 26.0848 139.567 26.0848L139.2 26.8961Z" fill="#263238"/>
<path d="M173.458 173.501C181.27 173.501 187.603 169.982 187.603 165.641C187.603 161.3 181.27 157.781 173.458 157.781C165.645 157.781 159.312 161.3 159.312 165.641C159.312 169.982 165.645 173.501 173.458 173.501Z" fill="#FF9519"/>
<path opacity="0.4" d="M173.458 173.501C181.27 173.501 187.603 169.982 187.603 165.641C187.603 161.3 181.27 157.781 173.458 157.781C165.645 157.781 159.312 161.3 159.312 165.641C159.312 169.982 165.645 173.501 173.458 173.501Z" fill="black"/>
<path d="M183.481 171.198C177.958 174.27 169.002 174.27 163.479 171.198C160.714 169.666 159.335 167.653 159.335 165.641V167.29C159.384 169.265 160.764 171.225 163.473 172.731C168.997 175.803 177.952 175.803 183.476 172.731C186.3 171.151 187.674 169.091 187.609 167.037V165.783C187.532 167.748 186.153 169.702 183.481 171.198Z" fill="#FF9519"/>
<path opacity="0.6" d="M183.481 171.198C177.958 174.27 169.002 174.27 163.479 171.198C160.714 169.666 159.335 167.653 159.335 165.641V167.29C159.384 169.265 160.764 171.225 163.473 172.731C168.997 175.803 177.952 175.803 183.476 172.731C186.3 171.151 187.674 169.091 187.609 167.037V165.783C187.532 167.748 186.153 169.702 183.481 171.198Z" fill="black"/>
<path d="M171.553 114.506V164.64C171.553 166.995 175.385 167 175.385 164.64V114.506C175.385 112.146 171.553 112.141 171.553 114.506Z" fill="#FF9519"/>
<path d="M169.019 106.82V117.967C169.019 118.599 169.451 119.226 170.321 119.71C171.294 120.183 172.368 120.429 173.458 120.429C174.548 120.429 175.622 120.183 176.595 119.71C177.46 119.226 177.892 118.599 177.892 117.967V106.82H169.019Z" fill="#FF9519"/>
<path opacity="0.7" d="M169.019 106.82V117.967C169.019 118.599 169.451 119.226 170.321 119.71C171.294 120.183 172.368 120.429 173.458 120.429C174.548 120.429 175.622 120.183 176.595 119.71C177.46 119.226 177.892 118.599 177.892 117.967V106.82H169.019Z" fill="black"/>
<path d="M173.458 107.215C187.804 107.215 199.433 100.753 199.433 92.7811C199.433 84.8095 187.804 78.3472 173.458 78.3472C159.113 78.3472 147.483 84.8095 147.483 92.7811C147.483 100.753 159.113 107.215 173.458 107.215Z" fill="#FF9519"/>
<path opacity="0.4" d="M173.458 107.215C187.804 107.215 199.433 100.753 199.433 92.7811C199.433 84.8095 187.804 78.3472 173.458 78.3472C159.113 78.3472 147.483 84.8095 147.483 92.7811C147.483 100.753 159.113 107.215 173.458 107.215Z" fill="black"/>
<path d="M191.823 102.99C181.68 108.627 165.23 108.627 155.087 102.99C150.018 100.172 147.478 96.4739 147.478 92.7811V95.8154C147.571 99.4344 150.1 103.043 155.076 105.824C165.219 111.461 181.669 111.461 191.812 105.824C197.007 102.943 199.531 99.1394 199.411 95.3624V93.0656C199.307 96.6477 196.777 100.235 191.823 102.99Z" fill="#FF9519"/>
<path opacity="0.6" d="M191.823 102.99C181.68 108.627 165.23 108.627 155.087 102.99C150.018 100.172 147.478 96.4739 147.478 92.7811V95.8154C147.571 99.4344 150.1 103.043 155.076 105.824C165.219 111.461 181.669 111.461 191.812 105.824C197.007 102.943 199.531 99.1394 199.411 95.3624V93.0656C199.307 96.6477 196.777 100.235 191.823 102.99Z" fill="black"/>
<path d="M166.85 77.3199H155.174L156.225 89.2095C156.294 89.5864 156.456 89.9418 156.698 90.2454C156.94 90.5489 157.255 90.7918 157.615 90.9532C158.667 91.4647 159.828 91.7312 161.007 91.7312C162.185 91.7312 163.346 91.4647 164.398 90.9532C164.758 90.791 165.073 90.548 165.316 90.2446C165.559 89.9413 165.723 89.5863 165.794 89.2095L166.85 77.3199Z" fill="#FF9519"/>
<path d="M167.606 76.6931V75.7396H167.376C166.997 75.0403 166.405 74.4688 165.679 74.1013C163.106 72.6737 158.941 72.6737 156.373 74.1013C155.648 74.4688 155.056 75.0403 154.676 75.7396H154.446V76.6879C154.446 77.6255 155.092 78.5632 156.373 79.2744C158.946 80.702 163.112 80.702 165.679 79.2744C166.955 78.5685 167.606 77.6308 167.606 76.6931Z" fill="#E0E0E0"/>
<path d="M161.015 79.464C164.649 79.464 167.595 77.8272 167.595 75.8081C167.595 73.789 164.649 72.1522 161.015 72.1522C157.381 72.1522 154.436 73.789 154.436 75.8081C154.436 77.8272 157.381 79.464 161.015 79.464Z" fill="#EBEBEB"/>
<path d="M166.287 75.413V74.686H166.101C165.8 74.124 165.326 73.6657 164.743 73.3743C163.587 72.8106 162.309 72.5168 161.013 72.5168C159.716 72.5168 158.438 72.8106 157.282 73.3743C156.699 73.6657 156.225 74.124 155.924 74.686H155.738V75.4446C155.738 76.1979 156.253 76.9459 157.282 77.5201C158.438 78.0839 159.716 78.3776 161.013 78.3776C162.309 78.3776 163.587 78.0839 164.743 77.5201C165.778 76.9196 166.292 76.1663 166.287 75.413Z" fill="#E0E0E0"/>
<path d="M164.743 76.7932C163.587 77.3569 162.309 77.6507 161.013 77.6507C159.716 77.6507 158.438 77.3569 157.282 76.7932C155.224 75.6448 155.224 73.7905 157.282 72.6474C158.438 72.0837 159.716 71.7899 161.013 71.7899C162.309 71.7899 163.587 72.0837 164.743 72.6474C166.801 73.7747 166.801 75.629 164.743 76.7932Z" fill="#F5F5F5"/>
<path d="M163.883 76.1716C162.993 76.6052 162.009 76.8312 161.012 76.8312C160.014 76.8312 159.031 76.6052 158.141 76.1716C156.608 75.3182 156.553 73.959 157.982 73.074L158.141 72.9792C158.487 72.7929 158.854 72.6461 159.235 72.542C160.782 72.128 162.433 72.2839 163.867 72.9792C165.47 73.859 165.47 75.2918 163.883 76.1716Z" fill="#F0F0F0"/>
<path d="M158.141 73.4323C159.031 72.9986 160.015 72.7726 161.013 72.7726C162.01 72.7726 162.994 72.9986 163.884 73.4323C164.171 73.5649 164.424 73.7562 164.627 73.9927C164.829 74.2293 164.975 74.5054 165.055 74.802C165.17 74.154 164.782 73.4797 163.884 72.9793C162.994 72.5456 162.01 72.3196 161.013 72.3196C160.015 72.3196 159.031 72.5456 158.141 72.9793C157.244 73.5061 156.855 74.154 156.975 74.802C157.053 74.505 157.198 74.2283 157.399 73.9915C157.601 73.7547 157.854 73.5637 158.141 73.4323Z" fill="#E0E0E0"/>
<path d="M160.314 73.585L159.132 74.3067L157.982 73.5113V73.0741L158.141 72.9792C158.487 72.7929 158.855 72.6461 159.236 72.542V72.8739L160.314 73.585Z" fill="#E0E0E0"/>
<path d="M191.43 83.9207H179.759L180.804 95.8102C180.873 96.1863 181.036 96.5408 181.278 96.8435C181.52 97.1462 181.835 97.3881 182.195 97.5486C183.246 98.0627 184.409 98.3306 185.589 98.3306C186.768 98.3306 187.931 98.0627 188.983 97.5486C189.343 97.3881 189.657 97.1462 189.899 96.8435C190.142 96.5408 190.304 96.1863 190.373 95.8102L191.43 83.9207Z" fill="#FF9519"/>
<path d="M192.174 83.2674V82.3245H191.944C191.566 81.6257 190.973 81.0556 190.247 80.6914C187.68 79.2638 183.509 79.2638 180.941 80.6914C180.214 81.0539 179.621 81.6244 179.244 82.3245H179.009V83.2779C179.009 84.2104 179.655 85.148 180.941 85.8645C183.509 87.2921 187.68 87.2921 190.247 85.8645C191.539 85.148 192.18 84.2051 192.174 83.2674Z" fill="#E0E0E0"/>
<path d="M185.594 86.0382C189.228 86.0382 192.173 84.4014 192.173 82.3823C192.173 80.3632 189.228 78.7264 185.594 78.7264C181.96 78.7264 179.014 80.3632 179.014 82.3823C179.014 84.4014 181.96 86.0382 185.594 86.0382Z" fill="#EBEBEB"/>
<path d="M190.865 81.9925V81.2339H190.684C190.379 80.674 189.903 80.2166 189.321 79.9223C188.166 79.3586 186.889 79.0648 185.593 79.0648C184.298 79.0648 183.021 79.3586 181.866 79.9223C181.284 80.2166 180.808 80.674 180.503 81.2339H180.316V81.9978C180.316 82.7458 180.836 83.4939 181.866 84.0681C183.021 84.6317 184.298 84.9255 185.593 84.9255C186.889 84.9255 188.166 84.6317 189.321 84.0681C190.356 83.4939 190.871 82.7406 190.865 81.9925Z" fill="#E0E0E0"/>
<path d="M189.322 83.3516C188.167 83.9153 186.889 84.2091 185.594 84.2091C184.299 84.2091 183.022 83.9153 181.866 83.3516C179.802 82.2085 179.802 80.3542 181.866 79.2058C183.022 78.6421 184.299 78.3484 185.594 78.3484C186.889 78.3484 188.167 78.6421 189.322 79.2058C191.38 80.3542 191.38 82.2085 189.322 83.3516Z" fill="#F5F5F5"/>
<path d="M188.462 82.7459C187.573 83.1821 186.589 83.4094 185.591 83.4094C184.593 83.4094 183.609 83.1821 182.72 82.7459C181.187 81.8978 181.132 80.5334 182.561 79.6537C182.611 79.6183 182.664 79.5866 182.72 79.5588C183.064 79.3699 183.432 79.2231 183.815 79.1216C185.36 78.7019 187.014 78.858 188.446 79.5588C190.05 80.4386 190.05 81.8662 188.462 82.7459Z" fill="#F0F0F0"/>
<path d="M182.72 80.0119C183.61 79.5782 184.593 79.3522 185.591 79.3522C186.589 79.3522 187.572 79.5782 188.462 80.0119C188.749 80.1445 189.003 80.3358 189.205 80.5723C189.407 80.8089 189.554 81.085 189.634 81.3815C189.749 80.7283 189.36 80.0593 188.462 79.5589C187.572 79.1252 186.589 78.8992 185.591 78.8992C184.593 78.8992 183.61 79.1252 182.72 79.5589C181.828 80.0593 181.439 80.7283 181.554 81.3815C181.633 81.0855 181.779 80.8097 181.98 80.5731C182.181 80.3366 182.434 80.1451 182.72 80.0119Z" fill="#E0E0E0"/>
<path d="M184.893 80.1646L183.711 80.8863L182.562 80.0909V79.6536C182.612 79.6183 182.665 79.5866 182.72 79.5588C183.065 79.3699 183.433 79.223 183.815 79.1216V79.4271L184.893 80.1646Z" fill="#E0E0E0"/>
<path d="M222.144 89.0779L225.768 98.9182C226.13 99.9048 226.239 100.961 226.084 101.997C225.93 103.033 225.517 104.017 224.881 104.866L219.38 112.214L215.449 106.699L219.062 101.241L215.849 94.5881V92.0015L222.144 89.0779Z" fill="#945959"/>
<path d="M213.588 77.32C213.588 77.32 216.325 77.0566 217.748 79.1637C219.171 81.2709 222.128 89.0568 222.128 89.0568C220.361 91.07 217.883 92.3834 215.17 92.7443L213.588 77.32Z" fill="#FF9519"/>
<path opacity="0.3" d="M213.588 77.32C213.588 77.32 216.325 77.0566 217.748 79.1637C219.171 81.2709 222.128 89.0568 222.128 89.0568C220.361 91.07 217.883 92.3834 215.17 92.7443L213.588 77.32Z" fill="white"/>
<path d="M218.197 184.395C217.978 184.793 217.652 185.126 217.252 185.36C216.852 185.594 216.393 185.719 215.925 185.722C215.071 185.689 214.248 185.408 213.563 184.915C212.879 184.422 212.367 183.741 212.093 182.962C211.513 181.565 210.584 180.328 209.389 179.358C208.814 178.768 206.608 176.856 206.378 174.828C206.37 174.96 206.37 175.092 206.378 175.223C206.378 177.378 208.803 179.48 209.411 180.101C210.609 181.077 211.536 182.325 212.11 183.731C212.384 184.509 212.897 185.189 213.581 185.681C214.265 186.173 215.088 186.454 215.942 186.486C216.409 186.484 216.868 186.36 217.268 186.127C217.668 185.894 217.995 185.561 218.213 185.164C218.378 184.816 218.423 184.426 218.339 184.052C218.305 184.171 218.257 184.286 218.197 184.395Z" fill="#263238"/>
<path d="M217.798 178.948L217.913 179.069C218.059 179.223 218.17 179.404 218.24 179.602C218.31 179.8 218.336 180.009 218.318 180.217C218.274 180.675 218.23 181.334 218.23 182.045C218.23 183.373 218.542 183.668 218.197 184.395C217.979 184.793 217.652 185.126 217.252 185.36C216.852 185.594 216.394 185.719 215.926 185.722C215.071 185.689 214.248 185.408 213.564 184.915C212.879 184.422 212.367 183.741 212.094 182.962C211.513 181.565 210.584 180.328 209.389 179.358C208.782 178.737 206.357 176.635 206.357 174.486C206.345 174.106 206.413 173.728 206.556 173.374C206.7 173.019 206.916 172.697 207.192 172.425C207.468 172.153 207.798 171.937 208.162 171.791C208.527 171.645 208.918 171.57 209.313 171.573C210.408 171.573 211.897 172.194 213.041 173.79C214.185 175.386 217.798 178.948 217.798 178.948Z" fill="#FF9519"/>
<g opacity="0.3">
<path d="M217.797 178.948L217.912 179.069C218.058 179.223 218.169 179.404 218.239 179.602C218.309 179.8 218.335 180.009 218.317 180.217C218.273 180.675 218.229 181.334 218.229 182.045C218.229 183.373 218.541 183.668 218.196 184.395C217.978 184.793 217.651 185.126 217.251 185.36C216.851 185.594 216.393 185.719 215.925 185.722C215.071 185.689 214.247 185.408 213.563 184.915C212.878 184.422 212.366 183.741 212.093 182.962C211.512 181.565 210.583 180.328 209.388 179.358C208.781 178.737 206.356 176.635 206.356 174.486C206.344 174.106 206.412 173.728 206.555 173.374C206.699 173.019 206.915 172.697 207.191 172.425C207.467 172.153 207.797 171.937 208.161 171.791C208.526 171.645 208.917 171.57 209.312 171.573C210.407 171.573 211.896 172.194 213.04 173.79C214.184 175.386 217.797 178.948 217.797 178.948Z" fill="black"/>
</g>
<path d="M210.27 176.556C210.219 176.557 210.169 176.543 210.128 176.514C210.068 176.477 210.025 176.419 210.008 176.352C209.992 176.285 210.003 176.214 210.04 176.156C210.1 176.071 211.431 174.091 213.697 174.312C213.77 174.319 213.836 174.353 213.882 174.408C213.929 174.462 213.951 174.532 213.943 174.602C213.936 174.671 213.9 174.736 213.844 174.78C213.787 174.825 213.715 174.846 213.642 174.839C211.699 174.644 210.511 176.419 210.5 176.419C210.477 176.459 210.444 176.492 210.403 176.516C210.363 176.54 210.317 176.554 210.27 176.556Z" fill="#EBEBEB"/>
<path d="M211.606 177.825C211.555 177.827 211.505 177.814 211.462 177.789C211.419 177.763 211.384 177.726 211.362 177.682C211.34 177.638 211.332 177.589 211.338 177.541C211.344 177.492 211.365 177.447 211.398 177.409C211.453 177.325 212.778 175.339 215.055 175.56C215.126 175.568 215.19 175.602 215.235 175.656C215.28 175.709 215.302 175.777 215.296 175.845C215.292 175.879 215.282 175.912 215.265 175.942C215.248 175.972 215.226 175.998 215.198 176.02C215.171 176.042 215.139 176.058 215.105 176.067C215.071 176.077 215.035 176.08 215 176.077C213.057 175.887 211.863 177.657 211.853 177.683C211.83 177.727 211.795 177.764 211.751 177.79C211.708 177.815 211.657 177.827 211.606 177.825Z" fill="#EBEBEB"/>
<path d="M212.777 173.443C212.382 172.904 211.868 172.457 211.272 172.134C210.675 171.81 210.011 171.619 209.328 171.573C208.934 171.57 208.542 171.645 208.178 171.791C207.813 171.937 207.483 172.153 207.208 172.425C206.932 172.697 206.715 173.019 206.572 173.374C206.429 173.728 206.361 174.106 206.372 174.486C206.469 175.625 206.94 176.704 207.719 177.567C207.751 176.79 208.012 176.036 208.471 175.396C208.93 174.755 209.569 174.253 210.314 173.948C211.099 173.647 211.932 173.476 212.777 173.443Z" fill="#FAFAFA"/>
<path d="M220.42 150.122L219.653 147.809L221.033 128.371L208.661 132.343L209.17 149.337C209.197 150.236 209.275 151.133 209.406 152.024L211.946 169.297C212.389 169.718 213.637 170.651 216.013 170.651C216.641 170.659 217.263 170.539 217.84 170.299C218.416 170.06 218.933 169.705 219.358 169.26L221.082 158.666C221.554 155.807 221.327 152.882 220.42 150.122Z" fill="#945959"/>
<path d="M216.035 170.651C213.659 170.651 212.411 169.718 211.968 169.297L213.495 179.696C216.473 181.655 217.677 179.696 217.677 179.696L219.38 169.26C218.956 169.705 218.438 170.06 217.862 170.299C217.285 170.539 216.663 170.659 216.035 170.651Z" fill="#FF9519"/>
<path opacity="0.5" d="M216.035 170.651C213.659 170.651 212.411 169.718 211.968 169.297L213.495 179.696C216.473 181.655 217.677 179.696 217.677 179.696L219.38 169.26C218.956 169.705 218.438 170.06 217.862 170.299C217.285 170.539 216.663 170.659 216.035 170.651Z" fill="white"/>
<path d="M197.794 184.352L195.556 185.933C195.556 185.933 189.873 186.359 188.269 186.46C186.666 186.56 184.651 187.26 184.213 188.93C183.83 190.384 184.662 191.891 188.631 192.375C192.599 192.86 193.968 191.97 196.842 192.439C199.579 192.886 203.411 194.093 205.294 191.027C205.394 190.866 205.459 190.688 205.486 190.502C205.512 190.316 205.499 190.127 205.447 189.947C205.234 189.162 204.845 187.719 204.752 187.208C204.626 186.496 204.517 184.121 203.816 184.121C203.115 184.121 197.794 184.352 197.794 184.352Z" fill="#FF9519"/>
<path opacity="0.3" d="M197.794 184.352L195.556 185.933C195.556 185.933 189.873 186.359 188.269 186.46C186.666 186.56 184.651 187.26 184.213 188.93C183.83 190.384 184.662 191.891 188.631 192.375C192.599 192.86 193.968 191.97 196.842 192.439C199.579 192.886 203.411 194.093 205.294 191.027C205.394 190.866 205.459 190.688 205.486 190.502C205.512 190.316 205.499 190.127 205.447 189.947C205.234 189.162 204.845 187.719 204.752 187.208C204.626 186.496 204.517 184.121 203.816 184.121C203.115 184.121 197.794 184.352 197.794 184.352Z" fill="black"/>
<path d="M205.464 190.579C205.438 190.737 205.381 190.89 205.294 191.027C203.406 194.093 199.563 192.886 196.837 192.439C193.968 191.97 192.6 192.86 188.626 192.375C185.467 191.986 184.301 190.958 184.142 189.82C183.967 191.169 184.947 192.491 188.626 192.944C192.594 193.429 193.963 192.539 196.837 193.007C199.574 193.45 203.592 194.841 205.48 191.775C205.62 191.387 205.614 190.964 205.464 190.579Z" fill="#37474F"/>
<path d="M196.618 174.501L197.779 184.352C197.779 184.352 198.009 186.459 200.893 186.459C203.778 186.459 203.8 184.094 203.8 184.094L204.545 174.486L196.618 174.501Z" fill="#FF9519"/>
<path opacity="0.5" d="M196.618 174.501L197.779 184.352C197.779 184.352 198.009 186.459 200.893 186.459C203.778 186.459 203.8 184.094 203.8 184.094L204.545 174.486L196.618 174.501Z" fill="white"/>
<path d="M193.585 135.793V144.838C193.585 146.322 193.667 147.804 193.831 149.279L196.618 174.501C196.618 174.501 201.074 177.746 204.544 174.501L205.924 159.283C206.236 155.855 205.808 152.402 204.665 149.142L207.402 135.772L193.585 135.793Z" fill="#945959"/>
<path d="M190.174 186.323C189.381 186.38 188.685 186.428 188.269 186.449C186.671 186.544 184.651 187.25 184.213 188.92C183.83 190.373 184.662 191.88 188.631 192.365C187.908 187.855 190.174 186.328 190.174 186.323Z" fill="#FAFAFA"/>
<path d="M191.034 188.999C190.999 188.999 190.963 188.993 190.93 188.981C190.897 188.968 190.867 188.949 190.841 188.925C190.816 188.901 190.795 188.872 190.782 188.841C190.768 188.809 190.761 188.775 190.761 188.741C190.787 188.211 190.925 187.693 191.166 187.217C191.407 186.74 191.746 186.316 192.162 185.97C192.189 185.948 192.221 185.932 192.255 185.922C192.288 185.913 192.324 185.909 192.359 185.913C192.394 185.916 192.428 185.926 192.459 185.942C192.49 185.958 192.518 185.98 192.54 186.007C192.585 186.06 192.607 186.129 192.599 186.198C192.592 186.267 192.557 186.331 192.502 186.375C192.149 186.674 191.862 187.037 191.657 187.443C191.451 187.849 191.331 188.29 191.303 188.741C191.303 188.809 191.274 188.875 191.224 188.923C191.174 188.971 191.106 188.999 191.034 188.999Z" fill="#EBEBEB"/>
<path d="M193.382 188.877C193.311 188.877 193.243 188.85 193.193 188.802C193.143 188.753 193.114 188.688 193.114 188.619C193.14 188.091 193.277 187.574 193.517 187.099C193.757 186.623 194.095 186.2 194.51 185.854C194.537 185.831 194.568 185.814 194.602 185.804C194.635 185.793 194.671 185.789 194.706 185.792C194.741 185.795 194.776 185.805 194.807 185.821C194.838 185.837 194.866 185.859 194.888 185.885C194.911 185.911 194.929 185.942 194.94 185.974C194.951 186.007 194.955 186.042 194.952 186.076C194.949 186.111 194.939 186.144 194.922 186.175C194.906 186.205 194.883 186.232 194.855 186.254C194.502 186.553 194.215 186.915 194.008 187.321C193.801 187.727 193.68 188.168 193.651 188.619C193.651 188.688 193.622 188.753 193.572 188.802C193.522 188.85 193.454 188.877 193.382 188.877Z" fill="#EBEBEB"/>
<path d="M196.579 104.418C196.579 104.418 193.585 110.792 193.585 116.782V135.714C195.937 137.401 198.617 138.617 201.466 139.291C204.314 139.965 207.275 140.084 210.172 139.639C219.943 138.09 221.81 134.977 221.81 134.977V121.28C221.809 115.658 220.296 110.132 217.419 105.24L216.111 103.011L196.579 104.418Z" fill="#455A64"/>
<path d="M196.58 101.025V104.423C196.58 104.423 199.23 106.694 206.247 106.694C213.265 106.694 216.101 103.006 216.101 103.006L214.683 100.794L196.58 101.025Z" fill="#FF9519"/>
<path opacity="0.3" d="M196.58 101.025V104.423C196.58 104.423 199.23 106.694 206.247 106.694C213.265 106.694 216.101 103.006 216.101 103.006L214.683 100.794L196.58 101.025Z" fill="black"/>
<path d="M201.348 79.7643L198.808 80.6229L194.429 89.7205V96.4634L196.547 101.02C199.338 102.94 202.691 103.956 206.121 103.923C212.039 103.923 214.634 100.794 214.634 100.794C214.634 100.794 216.243 93.898 217.371 89.4888C218.498 85.0796 216.544 78.953 213.539 77.3411L209.57 77.9679L201.348 79.7643Z" fill="#FF9519"/>
<path d="M197.74 94.3826C197.74 94.3826 191.757 103.501 190.826 105.061C189.896 106.62 187.23 107.958 181.553 102.427C175.876 96.8954 174.174 95.0516 174.174 95.0516C174.174 95.0516 166.718 92.5441 164.977 90.5213C163.237 88.4984 162.547 85.5484 163.981 86.0172C165.415 86.4861 173.21 89.178 174.092 86.8917C173.751 86.2064 173.565 85.4596 173.544 84.7003C173.544 83.5624 174.059 82.63 174.721 82.63C175.384 82.63 175.192 83.7731 175.657 84.7003C176.123 85.6274 179.019 89.4413 178.526 91.2219L186.764 97.6276L190.832 90.0155L197.74 94.3826Z" fill="#945959"/>
<path d="M207.692 79.8539C204.824 80.7336 201.348 79.7643 201.348 79.7643V70.4297H209.63V77.968C209.496 78.413 209.249 78.8186 208.91 79.148C208.572 79.4774 208.153 79.7201 207.692 79.8539Z" fill="#945959"/>
<path d="M195.386 64.6719V68.8914L192.824 68.1329L195.386 64.6719Z" fill="#703838"/>
<path d="M208.907 53.6989C207.199 53.2669 201.243 52.1185 195.917 56.3697C194.74 57.3127 193.393 59.8254 192.961 62.9651C193.633 63.4377 194.37 63.8189 195.151 64.0977L208.907 53.6989Z" fill="#263238"/>
<path d="M205.168 55.4321C202.557 55.1529 196.853 55.9589 195.463 62.4699C194.072 68.981 194.105 74.133 197.576 74.9969C201.046 75.8608 209.504 74.2647 211.567 65.8782C213.631 57.4918 207.714 55.7218 205.168 55.4321Z" fill="#945959"/>
<path d="M197.954 57.0124C197.954 57.0124 197.051 60.4207 198.436 63.0915C198.799 63.7707 199.013 64.5147 199.064 65.277C199.115 66.0393 199.002 66.8035 198.731 67.5218C198.459 68.2497 198.055 68.9256 197.538 69.5183C197.538 69.5183 200.396 69.139 200.396 66.8844C200.903 68.1532 201.291 69.463 201.556 70.7984C201.791 72.3788 202.788 73.7379 205.881 74.5649C207.386 74.9653 209.307 74.7809 210.298 74.1856C210.298 74.1856 213.331 72.1997 214.546 70.5772C215.761 68.9547 218.378 63.2022 215.641 58.6771C212.904 54.152 206.007 50.396 197.954 57.0124Z" fill="#263238"/>
<path d="M200.396 66.8896C200.396 66.8896 200.74 64.124 202.738 64.0977C204.928 64.066 205.202 66.1047 205.163 66.8264C205.059 68.7228 203.861 70.5771 200.396 69.5183V66.8896Z" fill="#945959"/>
<path d="M214.289 72.8739C214.289 73.3074 214.155 73.731 213.905 74.0914C213.655 74.4518 213.299 74.7327 212.883 74.8985C212.467 75.0644 212.009 75.1078 211.567 75.0232C211.126 74.9387 210.72 74.73 210.401 74.4235C210.083 74.117 209.866 73.7266 209.778 73.3015C209.69 72.8764 209.735 72.4357 209.908 72.0353C210.08 71.6349 210.372 71.2926 210.746 71.0518C211.121 70.811 211.561 70.6825 212.012 70.6825C212.616 70.6825 213.195 70.9134 213.622 71.3244C214.049 71.7353 214.289 72.2927 214.289 72.8739Z" fill="#FF9519"/>
<path d="M212.208 74.6861C211.754 74.3436 211.43 73.8655 211.288 73.327C211.197 73.028 211.187 72.7115 211.26 72.4079C211.333 72.1043 211.486 71.8239 211.704 71.5938C211.888 71.4206 212.105 71.2847 212.344 71.1942C212.583 71.1037 212.838 71.0605 213.095 71.0671C213.949 71.0632 214.799 71.1876 215.613 71.4358C218.016 72.2365 219.888 75.6185 217.381 80.918C216.637 82.4983 216.429 84.8267 217.846 85.659C217.884 85.6782 217.914 85.7091 217.931 85.7468C217.947 85.7844 217.95 85.8265 217.939 85.8659C217.927 85.9053 217.902 85.9398 217.867 85.9635C217.832 85.9872 217.79 85.9987 217.748 85.9962C215.651 85.9962 211.102 85.4325 212.427 80.8073C213.588 76.7142 212.898 75.2129 212.208 74.6861Z" fill="#263238"/>
<path d="M197.953 57.0123C197.953 57.0123 195.649 58.6664 196.037 64.3557C196.777 64.7081 197.601 64.8628 198.424 64.8035C198.424 64.8035 198.189 61.7218 199.459 59.3407L197.953 57.0123Z" fill="#263238"/>
<path d="M198.808 80.623C196.858 81.4068 195.197 82.7354 194.04 84.4369C192.737 86.3808 190.815 90.0156 190.815 90.0156C191.607 91.1501 192.627 92.1208 193.814 92.8708C195.002 93.6207 196.333 94.1347 197.729 94.3826C197.729 94.3826 199.716 91.1376 200.286 90.3369C200.855 89.5362 203.357 83.5625 199.656 80.328L198.808 80.623Z" fill="#FF9519"/>
<path opacity="0.3" d="M198.808 80.623C196.858 81.4068 195.197 82.7354 194.04 84.4369C192.737 86.3808 190.815 90.0156 190.815 90.0156C191.607 91.1501 192.627 92.1208 193.814 92.8708C195.002 93.6207 196.333 94.1347 197.729 94.3826C197.729 94.3826 199.716 91.1376 200.286 90.3369C200.855 89.5362 203.357 83.5625 199.656 80.328L198.808 80.623Z" fill="white"/>
<path d="M77.4795 184.157V184.258C77.4645 185.268 77.247 186.266 76.839 187.197C76.5343 187.934 76.3836 188.722 76.3956 189.515V192.765C76.3956 192.905 76.3379 193.039 76.2353 193.138C76.1326 193.236 75.9934 193.292 75.8482 193.292C75.703 193.292 75.5638 193.236 75.4611 193.138C75.3585 193.039 75.3008 192.905 75.3008 192.765V187.755L77.4795 184.157Z" fill="#263238"/>
<path d="M75.7491 180.839C75.7491 180.839 73.9371 182.124 73.9371 185.522C73.9371 188.92 71.315 191.901 69.9848 192.67C68.6546 193.439 65.7041 191.617 65.7041 191.617C65.7041 191.617 62.5674 194.177 62.5674 195.336C62.5674 196.495 64.1001 197.443 67.6474 196.958C71.1946 196.474 74.1397 195.994 74.6926 192.301C75.3385 187.982 75.3604 187.429 76.7125 186.006C78.0646 184.584 77.5501 181.624 75.7491 180.839Z" fill="#263238"/>
<path d="M76.3022 171.968L75.722 180.238C75.722 180.238 75.2512 193.071 68.852 193.071H65.5237C65.3759 193.071 65.5237 191 65.5237 191C65.5237 191 69.1968 185.854 69.4705 180.744L69.1421 171.968H76.3022Z" fill="#945959"/>
<path d="M75.7221 180.238C75.7221 180.238 74.2605 181.255 73.8828 184.916C73.4668 189.009 71.2224 191.301 69.8703 192.065C68.5182 192.828 65.5238 191.011 65.5238 191.011C65.5238 191.011 62.3379 193.576 62.3379 194.73C62.3379 195.884 63.898 196.837 67.4945 196.358C71.091 195.878 73.4558 195.267 74.1182 191.617C74.7806 187.966 74.797 187.076 76.171 185.654C77.545 184.231 78.4373 182.872 75.7221 180.238Z" fill="#37474F"/>
<path d="M71.9729 108.4L68.6884 136.963C68.1014 142.034 67.9348 147.143 68.1902 152.24L69.1646 171.973C69.1646 171.973 72.9965 174.57 76.3248 171.973L78.9797 157.513C79.4377 155.012 79.2497 152.441 78.4323 150.027L84.4922 131.942L81.569 108.98L71.9729 108.4Z" fill="#455A64"/>
<path d="M73.6855 117.092C73.6855 117.092 75.3278 121.66 79.9808 123.129L81.9843 139.344L84.4641 131.937L82.5755 117.092H73.6855Z" fill="#37474F"/>
<path d="M96.4853 192.086V192.159C96.473 193.17 96.2554 194.168 95.8449 195.099C95.5401 195.836 95.3894 196.623 95.4015 197.417V200.667C95.4015 200.807 95.3438 200.941 95.2411 201.039C95.1385 201.138 94.9992 201.194 94.8541 201.194C94.7089 201.194 94.5696 201.138 94.467 201.039C94.3643 200.941 94.3066 200.807 94.3066 200.667V195.657L96.4853 192.086Z" fill="#263238"/>
<path d="M94.7559 188.767C94.7559 188.767 92.9494 190.052 92.9494 193.45C92.9494 196.848 90.3219 199.829 88.9917 200.598C87.6614 201.368 84.7164 199.545 84.7164 199.545C84.7164 199.545 81.5742 202.105 81.5742 203.264C81.5742 204.423 83.1124 205.371 86.6542 204.886C90.196 204.402 93.1575 203.912 93.7049 200.219C94.3508 195.9 94.3727 195.346 95.7248 193.924C97.0769 192.502 96.5569 189.557 94.7559 188.767Z" fill="#263238"/>
<path d="M95.3136 179.896L94.7278 188.166C94.7278 188.166 94.2571 200.999 87.8578 200.999H84.5296C84.3818 200.999 84.5296 198.929 84.5296 198.929C84.5296 198.929 88.2082 193.782 88.4764 188.672L88.148 179.896H95.3136Z" fill="#945959"/>
<path d="M94.728 188.166C94.728 188.166 93.2664 189.183 92.8942 192.844C92.4781 196.937 90.2282 199.229 88.8761 199.993C87.524 200.756 84.5297 198.939 84.5297 198.939C84.5297 198.939 81.3438 201.504 81.3438 202.658C81.3438 203.812 82.9039 204.765 86.5059 204.286C90.1078 203.807 92.4617 203.195 93.1241 199.545C93.7864 195.894 93.8083 195.004 95.1769 193.582C96.5454 192.159 97.4486 190.8 94.728 188.166Z" fill="#37474F"/>
<path d="M91.1974 108.242C91.1974 108.242 98.489 115.981 98.489 124.768C98.489 133.554 96.4416 152.35 96.4416 152.35L97.0219 153.741C97.9451 155.955 98.26 158.361 97.9361 160.726L95.303 179.927C95.303 179.927 92.3196 182.561 88.1374 179.927L85.9478 154.046L80.6652 121.18C77.9885 120.48 75.5736 119.062 73.7021 117.092V108.053L91.1974 108.242Z" fill="#455A64"/>
<path d="M71.8623 104.971L71.9718 108.39C71.9718 108.39 74.2216 110.292 81.1026 110.292C87.9836 110.292 91.1969 108.4 91.1969 108.4V104.713L71.8623 104.971Z" fill="#37474F"/>
<path d="M76.3515 82.3245C74.8735 82.4878 70.6749 81.9136 68.2444 87.782C65.8138 93.6504 63.6461 99.5293 63.6461 99.5293L59.1847 95.078C59.1847 95.078 53.9624 87.5396 52.7252 88.3825C51.4881 89.2254 51.9315 90.5739 52.2818 91.5432C52.6322 92.5125 53.924 95.5363 54.3675 96.3633C54.8109 97.1904 60.1427 109.006 64.9435 109.006C68.1568 109.006 71.6821 98.5811 71.6821 98.5811L76.3515 82.3245Z" fill="#945959"/>
<path d="M93.0199 93.1499C92.9816 93.3922 92.9487 93.6345 92.9104 93.8768C91.8156 101.426 91.197 104.686 91.197 104.686C87.6295 106.063 83.8239 106.778 79.9805 106.794C73.6853 106.794 71.8624 104.976 71.8624 104.976L71.2603 98.7707C71.2603 98.7707 68.7695 96.9585 68.7695 92.7442C68.7695 88.53 76.3676 82.4087 76.3676 82.4087L78.6449 82.3033L86.4728 82.572L91.8539 83.0303L92.6093 83.1146C92.6093 83.1146 94.1914 85.0795 93.0199 93.1499Z" fill="#FF9519"/>
<path d="M89.1064 60.4628C89.3982 60.1369 89.6153 59.7554 89.7436 59.3433C89.8719 58.9313 89.9085 58.4978 89.8509 58.0712C89.725 56.4908 91.2961 57.6339 91.422 58.5505C91.5479 59.4672 90.579 60.8315 89.6758 61.1318L89.1064 60.4628Z" fill="#263238"/>
<path d="M89.6814 60.7578C90.127 60.7782 90.5721 60.7075 90.9872 60.5504C91.4024 60.3933 91.7782 60.1534 92.0901 59.8465C93.3217 58.7665 93.3436 60.6682 92.6703 61.3373C91.997 62.0063 90.2891 62.1011 89.4844 61.6007L89.6814 60.7578Z" fill="#263238"/>
<path d="M95.1171 75.2129C94.6705 74.8077 94.3166 74.3173 94.0782 73.7731C93.8397 73.2289 93.7218 72.6427 93.7321 72.0522C93.8197 69.4604 93.4694 65.599 91.214 62.354C87.4314 56.9018 82.5813 57.2547 78.6235 57.613C74.6658 57.9712 70.1989 56.3961 68.9672 58.4453C66.7775 62.1328 69.6624 63.1864 69.6624 63.1864C67.7465 67.4533 72.3174 68.5016 72.3174 68.5016L74.6329 74.507C74.2037 74.3507 73.7434 74.2895 73.2863 74.3279C72.489 74.4128 71.7552 74.7869 71.2345 75.3741C70.7138 75.9614 70.4452 76.7175 70.4835 77.4886C70.5086 77.9546 70.6483 78.4083 70.891 78.8123C71.1337 79.2163 71.4726 79.5591 71.8797 79.8126C72.2869 80.0661 72.7507 80.223 73.2331 80.2705C73.7155 80.318 74.2028 80.2546 74.6548 80.0856C74.9079 80.5772 75.2978 80.9915 75.781 81.2826C76.2642 81.5737 76.8218 81.7301 77.3919 81.7345C77.9078 81.7347 78.4156 81.6116 78.8699 81.3763C79.947 80.7724 81.1654 80.4408 82.4116 80.4122H83.709C84.9526 80.4416 86.1686 80.7713 87.2453 81.371C87.6198 81.5678 88.0326 81.6876 88.4577 81.7229C88.8828 81.7582 89.3109 81.7081 89.7149 81.5759C90.1188 81.4437 90.4898 81.2322 90.8044 80.9548C91.119 80.6774 91.3704 80.3402 91.5425 79.9645C91.8958 80.1408 92.2824 80.2471 92.6792 80.2769C93.076 80.3068 93.475 80.2597 93.8526 80.1383C94.3568 79.9839 94.8113 79.7072 95.1722 79.3347C95.5331 78.9623 95.7882 78.5067 95.9131 78.0118C96.0379 77.517 96.0282 76.9995 95.885 76.5093C95.7417 76.0191 95.4697 75.5726 95.0952 75.2129H95.1171Z" fill="#263238"/>
<path d="M78.6292 78.0996V82.3139C78.6292 82.3139 73.6203 88.1402 78.5033 88.5616C83.3862 88.983 86.4572 82.5878 86.4572 82.5878V73.7958L78.6292 78.0996Z" fill="#945959"/>
<path d="M86.709 71.1934V71.4779C84.8806 78.4209 80.1401 79.9328 78.5963 80.2857L78.5361 69.5393L86.4736 69.5024L86.709 71.1934Z" fill="#703838"/>
<path d="M80.0196 58.8088C77.4249 59.009 72.0219 60.8369 71.9453 67.427C71.8687 74.0171 72.9087 79.0163 76.456 79.2428C80.0032 79.4693 87.9516 76.3718 88.302 67.8221C88.6523 59.2723 82.5541 58.6086 80.0196 58.8088Z" fill="#945959"/>
<path d="M77.3534 70.0714L77.4137 73.938L75.0488 73.2795L77.3534 70.0714Z" fill="#703838"/>
<path d="M80.2661 69.945C80.2694 70.1017 80.2241 70.2558 80.1361 70.3877C80.0481 70.5196 79.9214 70.6233 79.772 70.6857C79.6226 70.7481 79.4573 70.7663 79.2971 70.7381C79.1369 70.7098 78.9891 70.6363 78.8724 70.527C78.7557 70.4177 78.6754 70.2775 78.6417 70.1241C78.6081 69.9708 78.6226 69.8113 78.6834 69.6659C78.7442 69.5205 78.8485 69.3958 78.9832 69.3076C79.1178 69.2194 79.2767 69.1717 79.4395 69.1707C79.6554 69.1692 79.8632 69.2497 80.0179 69.3946C80.1726 69.5396 80.2618 69.7373 80.2661 69.945Z" fill="#263238"/>
<path d="M74.8736 69.492C74.8758 69.6482 74.8297 69.8016 74.7413 69.9327C74.6529 70.0638 74.526 70.1667 74.3768 70.2284C74.2276 70.2901 74.0628 70.3078 73.9031 70.2794C73.7434 70.251 73.5961 70.1776 73.4797 70.0686C73.3634 69.9595 73.2832 69.8198 73.2494 69.6669C73.2156 69.5141 73.2297 69.355 73.2898 69.2098C73.3499 69.0647 73.4535 68.9399 73.5873 68.8514C73.7211 68.7628 73.8792 68.7144 74.0415 68.7123C74.1496 68.7102 74.257 68.7288 74.3575 68.767C74.458 68.8052 74.5496 68.8622 74.627 68.9347C74.7044 69.0072 74.7661 69.0939 74.8084 69.1895C74.8507 69.2852 74.8729 69.388 74.8736 69.492Z" fill="#263238"/>
<path d="M73.0338 67.8748L74.6213 66.9371C74.6213 66.9371 73.9973 66.3313 73.3896 66.7106C73.2129 66.8456 73.0838 67.03 73.0201 67.2384C72.9564 67.4468 72.9612 67.6691 73.0338 67.8748Z" fill="#FF9519"/>
<path d="M78.1748 75.1654C78.8626 74.8506 79.5315 74.4989 80.1783 74.1118C80.1783 74.1118 80.5998 75.1654 79.7076 75.5973C79.4394 75.706 79.1406 75.7224 78.8613 75.6437C78.5821 75.565 78.3397 75.3961 78.1748 75.1654Z" fill="#703838"/>
<path d="M73.626 61.548C73.626 61.548 75.3722 70.5033 88.1488 69.7711C88.1488 69.7711 91.2362 60.4997 83.3754 58.1818C75.5145 55.864 73.626 61.548 73.626 61.548Z" fill="#263238"/>
<path d="M73.0338 67.8748L74.6213 66.9371C74.6213 66.9371 73.9973 66.3313 73.3896 66.7106C73.2129 66.8456 73.0838 67.03 73.0201 67.2384C72.9564 67.4468 72.9612 67.6691 73.0338 67.8748Z" fill="#263238"/>
<path d="M86.2109 70.6034C86.2109 70.6034 86.8405 68.0064 88.7454 68.1855C90.8366 68.3804 90.8639 70.3453 90.749 71.0301C90.4424 72.8265 88.6688 74.5912 85.8223 74.3278L86.2109 70.6034Z" fill="#945959"/>
<path d="M84.5187 69.5131C84.5187 69.5131 84.2067 72.0048 86.0679 72.0048L86.5222 69.7712L84.5187 69.5131Z" fill="#263238"/>
<path d="M63.6465 99.5293C64.5212 100.37 65.2593 101.332 65.8361 102.384C65.8361 102.384 65.8361 100.715 64.0078 98.5494L63.6465 99.5293Z" fill="#703838"/>
<path d="M56.9789 96.0578L50.9573 85.0743C50.9048 84.9889 50.8783 84.891 50.8811 84.7917C50.8838 84.6925 50.9156 84.5961 50.9728 84.5135C51.03 84.4309 51.1103 84.3656 51.2044 84.325C51.2985 84.2844 51.4026 84.2702 51.5048 84.2841L58.3419 84.8952C58.5073 84.9101 58.6657 84.9667 58.8011 85.0591C58.9366 85.1516 59.0444 85.2767 59.1138 85.422L65.0368 96.9533C65.0857 97.049 65.1062 97.1558 65.096 97.262C65.0859 97.3682 65.0455 97.4697 64.9792 97.5552C64.913 97.6407 64.8235 97.707 64.7207 97.7467C64.6178 97.7864 64.5056 97.7981 64.3963 97.7804L57.8876 96.7268C57.6931 96.6895 57.51 96.6099 57.3525 96.4939C57.1949 96.3779 57.0671 96.2287 56.9789 96.0578Z" fill="#263238"/>
<path d="M65.0586 96.9375L59.1356 85.4061C59.0662 85.2609 58.9584 85.1358 58.8229 85.0433C58.6875 84.9509 58.5291 84.8943 58.3637 84.8794L51.5539 84.2841C51.4771 84.2759 51.3994 84.2835 51.3259 84.3062C51.2524 84.329 51.1847 84.3665 51.1273 84.4163C51.0699 84.466 51.0241 84.5269 50.9929 84.5949C50.9617 84.6629 50.9458 84.7365 50.9463 84.8109C51.0201 84.7864 51.0985 84.7774 51.1762 84.7845L58.0134 85.3903C58.1783 85.4068 58.3359 85.464 58.4712 85.5562C58.6064 85.6485 58.7146 85.7728 58.7852 85.9171L64.6918 97.4432C64.7362 97.5335 64.7551 97.6334 64.7466 97.7329C64.8234 97.7029 64.893 97.6578 64.9509 97.6007C65.0088 97.5435 65.0538 97.4755 65.0831 97.4008C65.1124 97.3261 65.1253 97.2464 65.1211 97.1667C65.1169 97.0869 65.0956 97.0089 65.0586 96.9375Z" fill="#37474F"/>
<path d="M53.4092 89.5256L56.4911 95.1622C56.4911 95.1622 63.1695 95.689 62.9615 92.7812C62.7535 89.8733 61.4178 89.9313 61.4178 89.9313C61.4178 89.9313 56.9455 90.9269 53.4092 89.5256Z" fill="#945959"/>
<path d="M106.723 104.613C106.723 106.857 102.316 120.121 102.316 120.121L98.1446 117.846C98.7335 115.618 99.0513 113.332 99.0916 111.034C99.1032 108.905 99.3714 106.783 99.8908 104.713C99.8908 104.713 97.5315 100.499 92.9113 93.8769V93.8453C88.532 87.5976 91.4826 83.4992 91.8548 83.0304L92.6103 83.1147C97.4877 83.6889 99.212 88.5775 100.969 91.5433C102.726 94.5091 106.744 102.374 106.723 104.613Z" fill="#945959"/>
<path d="M98.1436 117.846C97.7396 118.137 97.3069 118.389 96.8517 118.599C96.2058 118.883 95.6201 118.978 94.4979 120.653C93.7753 121.733 92.7297 121.644 92.8556 122.386C92.9815 123.129 95.5161 122.745 96.3317 121.596C96.1113 122.543 95.6547 123.423 95.0015 124.162C94.0545 125.047 92.6914 126.48 92.6914 127.238C92.6914 127.997 96.5561 129.372 98.8991 127.396C101.242 125.421 102.342 120.121 102.342 120.121L98.1436 117.846Z" fill="#945959"/>
<path d="M186.607 12.9836L164.114 0.48826C162.269 -0.533704 160.774 0.551475 160.774 2.92201V15.528C160.774 17.8933 162.269 20.6484 164.114 21.6756L166.188 22.824L162.679 29.9883L171.717 25.8899L186.618 34.1709C188.463 35.2245 189.962 34.1077 189.962 31.7372V19.1365C189.951 16.7659 188.452 14.0109 186.607 12.9836Z" fill="#E0E0E0"/>
<path d="M185.293 19.0786C185.246 19.0794 185.201 19.0665 185.162 19.0417L165.291 8.00553C165.228 7.96935 165.183 7.91105 165.164 7.84312C165.146 7.77518 165.156 7.70301 165.192 7.64205C165.21 7.61191 165.233 7.58548 165.262 7.56432C165.29 7.54315 165.323 7.52769 165.357 7.51885C165.392 7.51 165.428 7.50796 165.464 7.51284C165.499 7.51771 165.533 7.5294 165.564 7.54723L185.435 18.6097C185.487 18.6393 185.527 18.6845 185.55 18.7382C185.572 18.792 185.575 18.8514 185.559 18.9072C185.543 18.963 185.508 19.0121 185.46 19.0469C185.412 19.0817 185.353 19.1002 185.293 19.0996V19.0786Z" fill="#FF9519"/>
<path d="M185.293 23.1085C185.247 23.1087 185.202 23.0978 185.161 23.0768L165.29 12.0143C165.259 11.9974 165.231 11.9746 165.209 11.9473C165.188 11.92 165.171 11.8887 165.162 11.8553C165.153 11.8219 165.151 11.787 165.156 11.7528C165.161 11.7186 165.173 11.6857 165.192 11.6561C165.227 11.5954 165.287 11.5508 165.356 11.5321C165.426 11.5133 165.501 11.5219 165.564 11.556L185.435 22.6185C185.487 22.6481 185.527 22.6933 185.549 22.747C185.572 22.8008 185.575 22.8602 185.559 22.916C185.543 22.9718 185.508 23.0209 185.46 23.0557C185.412 23.0905 185.353 23.109 185.293 23.1085Z" fill="#FF9519"/>
<path d="M176.145 22.0601C176.097 22.0604 176.049 22.0477 176.008 22.0232L165.29 16.0653C165.255 16.0501 165.224 16.0281 165.198 16.0006C165.173 15.973 165.154 15.9407 165.142 15.9056C165.13 15.8705 165.126 15.8334 165.131 15.7968C165.135 15.7602 165.147 15.7248 165.166 15.6929C165.185 15.661 165.211 15.6334 165.242 15.6118C165.273 15.5902 165.309 15.5751 165.346 15.5675C165.384 15.56 165.422 15.56 165.46 15.5677C165.497 15.5754 165.533 15.5906 165.564 15.6123L176.282 21.5649C176.344 21.6012 176.39 21.6591 176.409 21.7267C176.429 21.7944 176.42 21.8665 176.386 21.9284C176.361 21.9683 176.325 22.0013 176.283 22.0244C176.241 22.0474 176.194 22.0597 176.145 22.0601Z" fill="#FF9519"/>
<path d="M209.964 33.9971L200.998 29.0242C199.903 28.4079 198.983 29.0611 198.983 30.4939V38.0955C198.983 39.523 199.887 41.1877 200.998 41.783L203.067 42.9313L204.764 49.9587L206.144 44.6592L209.975 46.7663C211.07 47.3827 211.99 46.7242 211.99 45.2966V37.7056C211.979 36.278 211.076 34.6134 209.964 33.9971Z" fill="#E0E0E0"/>
<path d="M208.47 39.6758C208.47 41.7408 206.959 42.5784 205.104 41.5459C204.122 40.9311 203.305 40.1021 202.719 39.1264C202.133 38.1506 201.795 37.0557 201.731 35.9304C201.731 33.8654 203.242 33.0278 205.104 34.0603C206.084 34.676 206.899 35.5053 207.484 36.481C208.069 37.4566 208.407 38.5511 208.47 39.6758Z" fill="#FF9519"/>
<g opacity="0.2">
<path d="M208.47 39.6758C208.47 41.7408 206.959 42.5784 205.104 41.5459C204.122 40.9311 203.305 40.1021 202.719 39.1264C202.133 38.1506 201.795 37.0557 201.731 35.9304C201.731 33.8654 203.242 33.0278 205.104 34.0603C206.084 34.676 206.899 35.5053 207.484 36.481C208.069 37.4566 208.407 38.5511 208.47 39.6758Z" fill="white"/>
</g>
<path d="M202.897 36.0726C202.827 36.0316 202.775 35.9682 202.749 35.8935C202.711 35.7829 202.749 35.6881 202.826 35.6881H203.685L202.826 34.7293C202.788 34.6931 202.76 34.6475 202.747 34.5973C202.733 34.5472 202.734 34.4945 202.749 34.4448C202.793 34.3764 202.892 34.3974 202.968 34.487L204.123 35.7723C204.179 35.8302 204.211 35.9046 204.216 35.9831C204.216 36.0515 204.178 36.0937 204.123 36.0937H202.968C202.943 36.0941 202.918 36.0867 202.897 36.0726Z" fill="white"/>
<path d="M207.113 38.4168C207.075 38.3992 207.043 38.3718 207.02 38.3378L205.865 37.0524C205.812 36.9936 205.781 36.9194 205.777 36.8417C205.777 36.7732 205.81 36.7258 205.865 36.7258H207.02C207.102 36.7258 207.201 36.8207 207.239 36.9313C207.277 37.0419 207.239 37.1367 207.168 37.1367H206.303L207.168 38.0955C207.207 38.1312 207.234 38.1771 207.247 38.2276C207.26 38.278 207.257 38.331 207.239 38.3799C207.233 38.4484 207.173 38.4537 207.113 38.4168Z" fill="white"/>
<path d="M205.104 39.9551C204.019 39.2889 203.193 38.2962 202.755 37.1315C202.741 37.1026 202.734 37.0712 202.734 37.0393C202.734 37.0075 202.741 36.9761 202.755 36.9471C202.783 36.9103 202.837 36.905 202.898 36.9471L207.277 39.3967C207.344 39.4349 207.394 39.4947 207.419 39.5653C207.433 39.5942 207.44 39.6256 207.44 39.6575C207.44 39.6893 207.433 39.7207 207.419 39.7496C206.965 40.445 206.084 40.5029 205.104 39.9551ZM203.188 37.4687C203.591 38.3378 204.254 39.0714 205.093 39.5758C205.859 40.0025 206.549 39.992 206.992 39.5758L203.188 37.4687Z" fill="white"/>
<path d="M47.9853 89.004L39.3636 86.2015C38.6304 81.7802 36.1926 77.7871 32.5363 75.0183C28.88 72.2495 24.2737 70.9084 19.6356 71.2623C14.9975 71.6162 10.6684 73.6391 7.51116 76.9278C4.35395 80.2165 2.60059 84.5293 2.60059 89.0067C2.60059 93.484 4.35395 97.7969 7.51116 101.086C10.6684 104.374 14.9975 106.397 19.6356 106.751C24.2737 107.105 28.88 105.764 32.5363 102.995C36.1926 100.226 38.6304 96.2332 39.3636 91.8118L47.9853 89.004Z" fill="#FF9519"/>
<path opacity="0.6" d="M47.9853 89.004L39.3636 86.2015C38.6304 81.7802 36.1926 77.7871 32.5363 75.0183C28.88 72.2495 24.2737 70.9084 19.6356 71.2623C14.9975 71.6162 10.6684 73.6391 7.51116 76.9278C4.35395 80.2165 2.60059 84.5293 2.60059 89.0067C2.60059 93.484 4.35395 97.7969 7.51116 101.086C10.6684 104.374 14.9975 106.397 19.6356 106.751C24.2737 107.105 28.88 105.764 32.5363 102.995C36.1926 100.226 38.6304 96.2332 39.3636 91.8118L47.9853 89.004Z" fill="white"/>
<path d="M35.8877 99.6768C34.366 101.622 32.4442 103.245 30.2421 104.445C28.0401 105.644 25.6049 106.394 23.0884 106.648C20.5719 106.902 18.028 106.655 15.6152 105.921C13.2024 105.188 10.9725 103.984 9.06445 102.384L15.5732 100.103L24.3756 98.3598L27.1947 97.5854C28.7075 97.1751 30.3054 97.1523 31.8301 97.5191C33.3548 97.8859 34.7535 98.6297 35.8877 99.6768Z" fill="#455A64"/>
<path d="M33.2601 81.1023C33.2601 81.1023 34.6944 74.1592 28.0159 71.3462C21.3375 68.5332 10.9476 69.5867 8.6649 78.3735C6.38219 87.1603 12.2559 92.6863 15.5623 93.8716L33.2601 81.1023Z" fill="#263238"/>
<path d="M15.5625 100.109L16.5533 101.615C17.2993 102.749 18.3545 103.663 19.6036 104.258C20.8528 104.854 22.248 105.108 23.6368 104.992C24.0886 104.95 24.5227 104.802 24.9011 104.561C25.2795 104.32 25.5904 103.993 25.8067 103.609C26.023 103.225 26.1379 102.796 26.1413 102.359C26.1448 101.922 26.0367 101.491 25.8265 101.104L24.343 98.3598V87.4448H15.5625V100.109Z" fill="#FFA8A7"/>
<path d="M24.3646 97.7013C22.5662 97.0575 20.9224 96.0691 19.5326 94.796C18.1428 93.5229 17.036 91.9915 16.2793 90.2947V87.4448H24.3646V97.7013Z" fill="#F28F8F"/>
<path d="M26.4173 73.5587C26.4173 73.5587 34.7927 73.8642 33.2818 86.8442C32.5702 92.9497 32.0501 96.3264 26.6198 96.3264C21.1895 96.3264 13.1808 92.386 13.7009 81.9083C14.2209 71.4305 26.4173 73.5587 26.4173 73.5587Z" fill="#FFA8A7"/>
<path d="M27.4463 84.9795V89.5362L30.2217 88.7144L27.4463 84.9795Z" fill="#F28F8F"/>
<path d="M24.3648 86.6968C24.8969 86.6968 25.3283 86.2817 25.3283 85.7697C25.3283 85.2576 24.8969 84.8425 24.3648 84.8425C23.8327 84.8425 23.4014 85.2576 23.4014 85.7697C23.4014 86.2817 23.8327 86.6968 24.3648 86.6968Z" fill="#263238"/>
<path d="M29.7402 85.1216C29.7392 85.3062 29.7951 85.487 29.9009 85.6411C30.0067 85.7951 30.1576 85.9154 30.3346 85.9868C30.5115 86.0582 30.7065 86.0774 30.8948 86.042C31.0831 86.0066 31.2563 85.9182 31.3923 85.7881C31.5284 85.6579 31.6212 85.4917 31.659 85.3107C31.6969 85.1297 31.678 84.942 31.6048 84.7713C31.5317 84.6006 31.4075 84.4547 31.248 84.352C31.0886 84.2493 30.901 84.1945 30.7092 84.1945C30.5822 84.1938 30.4563 84.2172 30.3388 84.2635C30.2213 84.3098 30.1144 84.378 30.0244 84.4642C29.9343 84.5503 29.8629 84.6528 29.8141 84.7656C29.7653 84.8784 29.7402 84.9994 29.7402 85.1216Z" fill="#263238"/>
<path d="M31.8802 83.1883L29.9971 82.1348C29.9971 82.1348 30.7197 81.4078 31.4422 81.845C31.6454 82.0019 31.7955 82.2134 31.8735 82.4526C31.9515 82.6918 31.9538 82.9479 31.8802 83.1883Z" fill="#263238"/>
<path d="M23.8611 82.8776L22.1587 84.2104C22.1587 84.2104 21.7043 83.3043 22.3777 82.8039C22.6038 82.6707 22.8665 82.6064 23.1313 82.6196C23.396 82.6328 23.6505 82.7227 23.8611 82.8776Z" fill="#263238"/>
<path d="M28.7489 91.3798C27.8304 91.444 26.9163 91.2083 26.1542 90.7108C26.1542 90.7108 25.979 92.0278 27.1231 92.2912C28.2672 92.5546 28.7489 91.3798 28.7489 91.3798Z" fill="#F28F8F"/>
<path d="M30.7085 75.3972C30.7085 75.3972 29.7943 78.5105 22.9353 78.0311C16.0762 77.5517 16.6783 79.3639 17.4228 82.4456C17.9374 84.5527 17.9702 90.2262 16.2787 87.4553H12.8848V80.9231C12.884 79.8276 13.1077 78.7427 13.5428 77.7303C13.978 76.718 14.6162 75.7981 15.4209 75.0232C16.2256 74.2483 17.1812 73.6335 18.2329 73.2141C19.2846 72.7947 20.4119 72.5789 21.5503 72.5789H24.9388C26.0623 72.5796 27.17 72.8346 28.1722 73.3233C29.1745 73.8119 30.0433 74.5205 30.7085 75.3919V75.3972Z" fill="#263238"/>
<path d="M16.3614 87.1129C16.3614 87.1129 16.0166 83.9891 13.7667 83.9522C11.2924 83.8837 10.9585 86.1752 10.9913 86.9917C11.0789 89.1358 12.8799 91.4484 16.2355 91.5379L16.3614 87.1129Z" fill="#FFA8A7"/>
<path d="M62.6394 44.8068C62.0328 41.9125 60.6882 39.2086 58.7265 36.9383C56.7649 34.668 54.2476 32.9025 51.401 31.8005C50.8641 31.5959 50.3159 31.4201 49.7588 31.2737C46.9005 30.4599 43.8789 30.3297 40.9564 30.8944C40.2025 31.0382 39.4584 31.2264 38.7285 31.4581C38.181 31.6319 37.672 31.8215 37.1738 32.0322C37.0315 32.0902 36.8946 32.1481 36.7632 32.2114C34.2515 33.3392 32.0363 34.9975 30.2824 37.0629C28.5286 39.1283 27.2812 41.5476 26.6331 44.141C25.9851 46.7344 25.9529 49.435 26.5392 52.0419C27.1254 54.6489 28.3149 57.0951 30.0191 59.1986C30.364 59.62 30.7143 60.0204 31.114 60.4102C32.44 61.7682 33.9785 62.9182 35.6739 63.8185C35.975 63.9765 36.2815 64.1293 36.5935 64.2715C37.46 64.6757 38.3589 65.0121 39.2813 65.2777C41.2327 65.8401 43.2674 66.0876 45.3029 66.0099L51.6638 79.2639L51.0233 64.9142C51.737 64.6613 52.4336 64.3658 53.109 64.0292C54.5124 63.3336 55.8137 62.4621 56.9792 61.4374C57.5841 60.9151 58.1494 60.3518 58.6707 59.7517C60.4606 57.7099 61.7473 55.305 62.4346 52.7169C63.1219 50.1288 63.1919 47.4246 62.6394 44.8068Z" fill="#FF9519"/>
<path opacity="0.6" d="M62.6394 44.8068C62.0328 41.9125 60.6882 39.2086 58.7265 36.9383C56.7649 34.668 54.2476 32.9025 51.401 31.8005C50.8641 31.5959 50.3159 31.4201 49.7588 31.2737C46.9005 30.4599 43.8789 30.3297 40.9564 30.8944C40.2025 31.0382 39.4584 31.2264 38.7285 31.4581C38.181 31.6319 37.672 31.8215 37.1738 32.0322C37.0315 32.0902 36.8946 32.1481 36.7632 32.2114C34.2515 33.3392 32.0363 34.9975 30.2824 37.0629C28.5286 39.1283 27.2812 41.5476 26.6331 44.141C25.9851 46.7344 25.9529 49.435 26.5392 52.0419C27.1254 54.6489 28.3149 57.0951 30.0191 59.1986C30.364 59.62 30.7143 60.0204 31.114 60.4102C32.44 61.7682 33.9785 62.9182 35.6739 63.8185C35.975 63.9765 36.2815 64.1293 36.5935 64.2715C37.46 64.6757 38.3589 65.0121 39.2813 65.2777C41.2327 65.8401 43.2674 66.0876 45.3029 66.0099L51.6638 79.2639L51.0233 64.9142C51.737 64.6613 52.4336 64.3658 53.109 64.0292C54.5124 63.3336 55.8137 62.4621 56.9792 61.4374C57.5841 60.9151 58.1494 60.3518 58.6707 59.7517C60.4606 57.7099 61.7473 55.305 62.4346 52.7169C63.1219 50.1288 63.1919 47.4246 62.6394 44.8068Z" fill="white"/>
<path d="M54.9265 59.6199C54.9265 60.6735 54.1711 61.8588 52.8847 62.965C51.383 64.2027 49.6443 65.1458 47.7664 65.7412C44.9298 66.2305 42.0131 66.0681 39.2541 65.2671C38.3316 65.0015 37.4328 64.665 36.5663 64.2609C36.2543 64.1187 35.9478 63.9659 35.6467 63.8079C33.9513 62.9075 32.4127 61.7575 31.0867 60.3996C30.709 60.0098 30.3587 59.6094 29.9919 59.188C29.5923 55.6216 32.1816 52.0553 32.729 50.6119C33.457 48.5522 33.895 41.0507 33.9825 39.4335C33.9825 39.4335 33.9825 39.3808 33.9825 39.3545C33.9825 39.207 33.9825 39.128 33.9825 39.128C35.7257 38.782 37.4969 38.5829 39.276 38.5327C39.4402 38.5327 39.6099 38.5327 39.7906 38.5327C43.0751 38.4906 47.0274 39.0121 49.321 41.3299C50.0448 42.0521 50.5796 42.9297 50.8812 43.8901C51.0975 44.5637 51.2226 45.2613 51.2534 45.9656C51.2862 46.4924 51.3191 47.0192 51.3629 47.5039C51.3629 47.8147 51.4176 48.1149 51.4559 48.4047C51.4559 48.4942 51.4559 48.5838 51.4559 48.6628C51.5939 49.9321 51.8318 51.1894 52.1676 52.424C52.3042 52.9215 52.4668 53.4121 52.6548 53.8938C53.2788 55.4741 53.9576 56.3591 54.3955 57.339C54.7455 58.0522 54.9269 58.8312 54.9265 59.6199Z" fill="#263238"/>
<path d="M58.621 59.7412C58.0997 60.3412 57.5344 60.9046 56.9295 61.4269C55.764 62.4516 54.4626 63.3231 53.0593 64.0187L52.8841 62.9651L51.3896 53.8096C51.8309 53.7925 52.2727 53.8172 52.7089 53.8833C54.5044 54.1256 57.5809 55.0897 58.4129 58.8351L58.621 59.7412Z" fill="#945959"/>
<path d="M56.9301 61.4268C55.7647 62.4515 54.4633 63.323 53.0599 64.0186C51.5196 64.7933 49.8714 65.3504 48.166 65.6727C48.0343 65.7027 47.9009 65.7256 47.7664 65.7412C44.9298 66.2305 42.0132 66.0681 39.2542 65.2671C38.3317 65.0015 37.4329 64.665 36.5664 64.2609C36.2544 64.1187 35.9478 63.9659 35.6467 63.8079C35.4551 57.6866 36.5937 54.9947 36.5937 54.9947L37.2069 54.8367C37.245 54.8319 37.2837 54.8319 37.3218 54.8367C38.8819 54.4732 41.1537 54.0992 41.1537 54.0992L48.4124 53.9464L51.4122 53.8358C52.5114 54.9429 53.5336 56.1184 54.4722 57.3547C55.452 58.6163 56.2768 59.9828 56.9301 61.4268Z" fill="#37474F"/>
<path d="M38.8653 31.2579C38.8653 31.2579 38.4876 28.4765 37.9785 28.4607C37.4694 28.4448 37.223 30.8101 37.223 30.8101C37.223 30.8101 34.9184 30.3255 35.0772 30.9998C35.2359 31.674 37.869 32.6644 37.869 32.6644L38.8653 31.2579Z" fill="#263238"/>
<path d="M33.9774 40.1921C34.0376 47.9306 41.154 49.3424 41.154 49.3424L55.4633 44.5644C56.3543 43.8605 56.9764 42.8912 57.2315 41.8093C57.4677 40.9879 57.582 40.1383 57.5709 39.286C57.5709 36.0305 55.5235 32.2798 50.2465 30.5572C49.0892 30.1816 47.8951 29.9204 46.6828 29.7776C46.1018 29.7037 45.517 29.6597 44.9311 29.6459C40.6504 29.5247 37.4644 31.0524 35.6634 33.818C35.2601 34.4427 34.9348 35.1111 34.6945 35.8093C34.2028 37.2214 33.9604 38.7029 33.9774 40.1921Z" fill="#263238"/>
<path d="M41.1533 54.073L41.4818 54.5997C43.0612 57.231 45.3873 59.3745 48.1876 60.7789L49.0963 61.232C49.2335 61.2967 49.3855 61.327 49.5382 61.3202C49.6909 61.3134 49.8393 61.2696 49.9698 61.1929C50.1002 61.1162 50.2084 61.0091 50.2844 60.8815C50.3604 60.7539 50.4018 60.6099 50.4046 60.4629C50.3955 58.3499 49.8124 56.276 48.7131 54.447L48.3901 53.9202V43.9113H41.1533V54.073Z" fill="#945959"/>
<path d="M41.1533 45.4073V45.6602C42.3579 49.2207 44.9635 52.1858 48.412 53.9202V43.9113H41.334L41.1533 45.4073Z" fill="#703838"/>
<path d="M48.27 32.264C50.8373 32.5801 56.1144 34.6345 55.8845 41.1772C55.6546 47.7199 54.3736 52.6664 50.8373 52.7191C47.301 52.7718 39.5771 49.3634 39.6154 40.8559C39.6537 32.3483 45.7792 31.9532 48.27 32.264Z" fill="#945959"/>
<path d="M50.9192 43.8375L50.4102 47.6515L52.8188 47.2511L50.9192 43.8375Z" fill="#703838"/>
<path d="M47.5093 43.3371C47.5028 43.4409 47.5176 43.5448 47.5529 43.6431C47.5882 43.7413 47.6433 43.8319 47.715 43.9097C47.7866 43.9875 47.8735 44.0509 47.9707 44.0964C48.0678 44.1418 48.1733 44.1684 48.2811 44.1747C48.389 44.1809 48.497 44.1666 48.5991 44.1327C48.7012 44.0987 48.7954 44.0457 48.8762 43.9768C48.957 43.9078 49.0229 43.8242 49.0702 43.7307C49.1174 43.6372 49.1451 43.5357 49.1515 43.4319C49.1646 43.2223 49.0906 43.0164 48.9459 42.8593C48.8011 42.7022 48.5974 42.6069 48.3797 42.5943C48.1619 42.5817 47.9479 42.6529 47.7846 42.7922C47.6214 42.9315 47.5224 43.1275 47.5093 43.3371Z" fill="#263238"/>
<path d="M52.8904 43.0789C52.8798 43.2341 52.9174 43.3889 52.9984 43.5235C53.0794 43.6582 53.2001 43.7666 53.3452 43.8351C53.4904 43.9036 53.6534 43.929 53.8136 43.9082C53.9738 43.8874 54.124 43.8212 54.245 43.7181C54.366 43.6149 54.4525 43.4795 54.4934 43.329C54.5343 43.1785 54.5278 43.0197 54.4748 42.8728C54.4217 42.7258 54.3245 42.5974 54.1954 42.5037C54.0664 42.41 53.9113 42.3554 53.7499 42.3467C53.5353 42.3351 53.3246 42.4056 53.1636 42.5427C53.0027 42.6798 52.9045 42.8725 52.8904 43.0789Z" fill="#263238"/>
<path d="M54.7954 41.5776L53.2627 40.5767C53.2627 40.5767 53.9086 40.0025 54.4944 40.4029C54.6639 40.5452 54.7837 40.7343 54.8376 40.9445C54.8915 41.1547 54.8768 41.3757 54.7954 41.5776Z" fill="#263238"/>
<path d="M51.0395 49.1738C50.2647 49.227 49.4936 49.0285 48.8499 48.6101C48.8499 48.6101 48.7021 49.7216 49.671 49.9323C49.9549 49.9761 50.2458 49.9246 50.495 49.7865C50.7442 49.6484 50.9364 49.4321 51.0395 49.1738Z" fill="#703838"/>
<path d="M54.5047 35.2667C54.5047 35.2667 52.3479 44.0798 39.6918 42.7997C39.6918 42.7997 37.0642 33.4545 44.9798 31.5002C52.8953 29.5458 54.5047 35.2667 54.5047 35.2667Z" fill="#263238"/>
<path d="M41.5809 43.711C41.5809 43.711 41.0718 41.0771 39.1723 41.1983C37.0867 41.3036 36.9827 43.2527 37.0483 43.9376C37.2728 45.7339 38.9479 47.5671 41.778 47.4249L41.5809 43.711Z" fill="#945959"/>
<path d="M39.2426 64.9774V65.2671C38.3201 65.0016 37.4213 64.6651 36.5548 64.261C36.2428 64.1187 35.9362 63.966 35.6351 63.8079C33.9398 62.9076 32.4012 61.7576 31.0752 60.3996C31.7157 56.6226 34.7538 55.2266 37.1953 54.8368C37.2334 54.8319 37.2721 54.8319 37.3102 54.8368C37.3102 54.8368 40.2334 56.5278 39.2426 64.9774Z" fill="#945959"/>
</svg>
